%TF.GenerationSoftware,KiCad,Pcbnew,8.0.6-8.0.6-0~ubuntu24.04.1*%
%TF.CreationDate,2024-11-30T08:39:12+01:00*%
%TF.ProjectId,Rover,526f7665-722e-46b6-9963-61645f706362,rev?*%
%TF.SameCoordinates,Original*%
%TF.FileFunction,Legend,Top*%
%TF.FilePolarity,Positive*%
%FSLAX46Y46*%
G04 Gerber Fmt 4.6, Leading zero omitted, Abs format (unit mm)*
G04 Created by KiCad (PCBNEW 8.0.6-8.0.6-0~ubuntu24.04.1) date 2024-11-30 08:39:12*
%MOMM*%
%LPD*%
G01*
G04 APERTURE LIST*
%ADD10C,0.150000*%
%ADD11C,0.120000*%
%ADD12C,0.100000*%
%ADD13C,0.127000*%
%ADD14C,0.400000*%
G04 APERTURE END LIST*
D10*
X103132088Y-125396563D02*
X103132088Y-126110848D01*
X103132088Y-126110848D02*
X103084469Y-126253705D01*
X103084469Y-126253705D02*
X102989231Y-126348944D01*
X102989231Y-126348944D02*
X102846374Y-126396563D01*
X102846374Y-126396563D02*
X102751136Y-126396563D01*
X103513041Y-125396563D02*
X104132088Y-125396563D01*
X104132088Y-125396563D02*
X103798755Y-125777515D01*
X103798755Y-125777515D02*
X103941612Y-125777515D01*
X103941612Y-125777515D02*
X104036850Y-125825134D01*
X104036850Y-125825134D02*
X104084469Y-125872753D01*
X104084469Y-125872753D02*
X104132088Y-125967991D01*
X104132088Y-125967991D02*
X104132088Y-126206086D01*
X104132088Y-126206086D02*
X104084469Y-126301324D01*
X104084469Y-126301324D02*
X104036850Y-126348944D01*
X104036850Y-126348944D02*
X103941612Y-126396563D01*
X103941612Y-126396563D02*
X103655898Y-126396563D01*
X103655898Y-126396563D02*
X103560660Y-126348944D01*
X103560660Y-126348944D02*
X103513041Y-126301324D01*
X99166667Y-138207200D02*
X99309524Y-138254819D01*
X99309524Y-138254819D02*
X99547619Y-138254819D01*
X99547619Y-138254819D02*
X99642857Y-138207200D01*
X99642857Y-138207200D02*
X99690476Y-138159580D01*
X99690476Y-138159580D02*
X99738095Y-138064342D01*
X99738095Y-138064342D02*
X99738095Y-137969104D01*
X99738095Y-137969104D02*
X99690476Y-137873866D01*
X99690476Y-137873866D02*
X99642857Y-137826247D01*
X99642857Y-137826247D02*
X99547619Y-137778628D01*
X99547619Y-137778628D02*
X99357143Y-137731009D01*
X99357143Y-137731009D02*
X99261905Y-137683390D01*
X99261905Y-137683390D02*
X99214286Y-137635771D01*
X99214286Y-137635771D02*
X99166667Y-137540533D01*
X99166667Y-137540533D02*
X99166667Y-137445295D01*
X99166667Y-137445295D02*
X99214286Y-137350057D01*
X99214286Y-137350057D02*
X99261905Y-137302438D01*
X99261905Y-137302438D02*
X99357143Y-137254819D01*
X99357143Y-137254819D02*
X99595238Y-137254819D01*
X99595238Y-137254819D02*
X99738095Y-137302438D01*
X100071429Y-137254819D02*
X100309524Y-138254819D01*
X100309524Y-138254819D02*
X100500000Y-137540533D01*
X100500000Y-137540533D02*
X100690476Y-138254819D01*
X100690476Y-138254819D02*
X100928572Y-137254819D01*
X101833333Y-138254819D02*
X101261905Y-138254819D01*
X101547619Y-138254819D02*
X101547619Y-137254819D01*
X101547619Y-137254819D02*
X101452381Y-137397676D01*
X101452381Y-137397676D02*
X101357143Y-137492914D01*
X101357143Y-137492914D02*
X101261905Y-137540533D01*
X109924819Y-95833333D02*
X110639104Y-95833333D01*
X110639104Y-95833333D02*
X110781961Y-95880952D01*
X110781961Y-95880952D02*
X110877200Y-95976190D01*
X110877200Y-95976190D02*
X110924819Y-96119047D01*
X110924819Y-96119047D02*
X110924819Y-96214285D01*
X109924819Y-94880952D02*
X109924819Y-95357142D01*
X109924819Y-95357142D02*
X110401009Y-95404761D01*
X110401009Y-95404761D02*
X110353390Y-95357142D01*
X110353390Y-95357142D02*
X110305771Y-95261904D01*
X110305771Y-95261904D02*
X110305771Y-95023809D01*
X110305771Y-95023809D02*
X110353390Y-94928571D01*
X110353390Y-94928571D02*
X110401009Y-94880952D01*
X110401009Y-94880952D02*
X110496247Y-94833333D01*
X110496247Y-94833333D02*
X110734342Y-94833333D01*
X110734342Y-94833333D02*
X110829580Y-94880952D01*
X110829580Y-94880952D02*
X110877200Y-94928571D01*
X110877200Y-94928571D02*
X110924819Y-95023809D01*
X110924819Y-95023809D02*
X110924819Y-95261904D01*
X110924819Y-95261904D02*
X110877200Y-95357142D01*
X110877200Y-95357142D02*
X110829580Y-95404761D01*
X100166666Y-119263075D02*
X100166666Y-119977360D01*
X100166666Y-119977360D02*
X100119047Y-120120217D01*
X100119047Y-120120217D02*
X100023809Y-120215456D01*
X100023809Y-120215456D02*
X99880952Y-120263075D01*
X99880952Y-120263075D02*
X99785714Y-120263075D01*
X101166666Y-120263075D02*
X100595238Y-120263075D01*
X100880952Y-120263075D02*
X100880952Y-119263075D01*
X100880952Y-119263075D02*
X100785714Y-119405932D01*
X100785714Y-119405932D02*
X100690476Y-119501170D01*
X100690476Y-119501170D02*
X100595238Y-119548789D01*
X109924819Y-99833333D02*
X110639104Y-99833333D01*
X110639104Y-99833333D02*
X110781961Y-99880952D01*
X110781961Y-99880952D02*
X110877200Y-99976190D01*
X110877200Y-99976190D02*
X110924819Y-100119047D01*
X110924819Y-100119047D02*
X110924819Y-100214285D01*
X109924819Y-98928571D02*
X109924819Y-99119047D01*
X109924819Y-99119047D02*
X109972438Y-99214285D01*
X109972438Y-99214285D02*
X110020057Y-99261904D01*
X110020057Y-99261904D02*
X110162914Y-99357142D01*
X110162914Y-99357142D02*
X110353390Y-99404761D01*
X110353390Y-99404761D02*
X110734342Y-99404761D01*
X110734342Y-99404761D02*
X110829580Y-99357142D01*
X110829580Y-99357142D02*
X110877200Y-99309523D01*
X110877200Y-99309523D02*
X110924819Y-99214285D01*
X110924819Y-99214285D02*
X110924819Y-99023809D01*
X110924819Y-99023809D02*
X110877200Y-98928571D01*
X110877200Y-98928571D02*
X110829580Y-98880952D01*
X110829580Y-98880952D02*
X110734342Y-98833333D01*
X110734342Y-98833333D02*
X110496247Y-98833333D01*
X110496247Y-98833333D02*
X110401009Y-98880952D01*
X110401009Y-98880952D02*
X110353390Y-98928571D01*
X110353390Y-98928571D02*
X110305771Y-99023809D01*
X110305771Y-99023809D02*
X110305771Y-99214285D01*
X110305771Y-99214285D02*
X110353390Y-99309523D01*
X110353390Y-99309523D02*
X110401009Y-99357142D01*
X110401009Y-99357142D02*
X110496247Y-99404761D01*
X126464819Y-95833333D02*
X127179104Y-95833333D01*
X127179104Y-95833333D02*
X127321961Y-95880952D01*
X127321961Y-95880952D02*
X127417200Y-95976190D01*
X127417200Y-95976190D02*
X127464819Y-96119047D01*
X127464819Y-96119047D02*
X127464819Y-96214285D01*
X126798152Y-94928571D02*
X127464819Y-94928571D01*
X126417200Y-95166666D02*
X127131485Y-95404761D01*
X127131485Y-95404761D02*
X127131485Y-94785714D01*
X126464819Y-99833333D02*
X127179104Y-99833333D01*
X127179104Y-99833333D02*
X127321961Y-99880952D01*
X127321961Y-99880952D02*
X127417200Y-99976190D01*
X127417200Y-99976190D02*
X127464819Y-100119047D01*
X127464819Y-100119047D02*
X127464819Y-100214285D01*
X126464819Y-99452380D02*
X126464819Y-98785714D01*
X126464819Y-98785714D02*
X127464819Y-99214285D01*
X161589819Y-62376904D02*
X162399342Y-62376904D01*
X162399342Y-62376904D02*
X162494580Y-62329285D01*
X162494580Y-62329285D02*
X162542200Y-62281666D01*
X162542200Y-62281666D02*
X162589819Y-62186428D01*
X162589819Y-62186428D02*
X162589819Y-61995952D01*
X162589819Y-61995952D02*
X162542200Y-61900714D01*
X162542200Y-61900714D02*
X162494580Y-61853095D01*
X162494580Y-61853095D02*
X162399342Y-61805476D01*
X162399342Y-61805476D02*
X161589819Y-61805476D01*
X162589819Y-60805476D02*
X162589819Y-61376904D01*
X162589819Y-61091190D02*
X161589819Y-61091190D01*
X161589819Y-61091190D02*
X161732676Y-61186428D01*
X161732676Y-61186428D02*
X161827914Y-61281666D01*
X161827914Y-61281666D02*
X161875533Y-61376904D01*
X100066666Y-83234819D02*
X100066666Y-83949104D01*
X100066666Y-83949104D02*
X100019047Y-84091961D01*
X100019047Y-84091961D02*
X99923809Y-84187200D01*
X99923809Y-84187200D02*
X99780952Y-84234819D01*
X99780952Y-84234819D02*
X99685714Y-84234819D01*
X100495238Y-83330057D02*
X100542857Y-83282438D01*
X100542857Y-83282438D02*
X100638095Y-83234819D01*
X100638095Y-83234819D02*
X100876190Y-83234819D01*
X100876190Y-83234819D02*
X100971428Y-83282438D01*
X100971428Y-83282438D02*
X101019047Y-83330057D01*
X101019047Y-83330057D02*
X101066666Y-83425295D01*
X101066666Y-83425295D02*
X101066666Y-83520533D01*
X101066666Y-83520533D02*
X101019047Y-83663390D01*
X101019047Y-83663390D02*
X100447619Y-84234819D01*
X100447619Y-84234819D02*
X101066666Y-84234819D01*
D11*
%TO.C,J3*%
X107600000Y-125250000D02*
X107600000Y-124200000D01*
X107400000Y-133600000D02*
X105500000Y-133600000D01*
X107400000Y-130900000D02*
X107400000Y-133600000D01*
X107400000Y-124400000D02*
X107400000Y-127000000D01*
X106550000Y-124200000D02*
X107600000Y-124200000D01*
X101500000Y-133600000D02*
X92700000Y-133600000D01*
X92700000Y-133600000D02*
X92700000Y-124400000D01*
X92700000Y-124400000D02*
X107400000Y-124400000D01*
%TO.C,SW1*%
X93200000Y-137700000D02*
X94500000Y-137700000D01*
X93200000Y-139000000D02*
X93200000Y-137700000D01*
X93500000Y-144600000D02*
X93500000Y-139400000D01*
X95550000Y-138650000D02*
X105450000Y-138650000D01*
X105450000Y-145350000D02*
X95550000Y-145350000D01*
X107500000Y-139400000D02*
X107500000Y-144600000D01*
%TO.C,U3*%
X131734656Y-143907029D02*
X131734656Y-143907029D01*
X131762156Y-106748000D02*
X131762156Y-106748000D01*
X134707656Y-141411029D02*
X134707656Y-141411029D01*
X134735156Y-104252000D02*
X134735156Y-104252000D01*
X136341656Y-142159029D02*
X135056656Y-142159029D01*
X136341656Y-143159029D02*
X135056656Y-143159029D01*
X136369156Y-105000000D02*
X135084156Y-105000000D01*
X136369156Y-106000000D02*
X135084156Y-106000000D01*
X145966578Y-124802381D02*
X145966578Y-124802381D01*
X145966578Y-129802381D02*
X145966578Y-129802381D01*
X146714578Y-129453381D02*
X146714578Y-128124381D01*
X146714578Y-134409381D02*
X146714578Y-133124381D01*
X147714578Y-129453381D02*
X147714578Y-128124381D01*
X147714578Y-134409381D02*
X147714578Y-133124381D01*
X147794578Y-121197381D02*
X147794578Y-108437381D01*
X148462578Y-127775381D02*
X148462578Y-127775381D01*
X148462578Y-132775381D02*
X148462578Y-132775381D01*
X150454578Y-108437381D02*
X147794578Y-108437381D01*
X150454578Y-121197381D02*
X147794578Y-121197381D01*
X150454578Y-121197381D02*
X150454578Y-108437381D01*
X150454578Y-122467381D02*
X150454578Y-123797381D01*
X150454578Y-123797381D02*
X149124578Y-123797381D01*
D12*
X109124578Y-145927381D02*
X153124578Y-145927381D01*
X153124578Y-101927381D01*
X109124578Y-101927381D01*
X109124578Y-145927381D01*
D11*
X131655554Y-141479401D02*
G75*
G02*
X131741656Y-141373029I1568627J-1181680D01*
G01*
X131655719Y-143839113D02*
G75*
G02*
X131655656Y-141479029I1565937J1180084D01*
G01*
X131683054Y-104320372D02*
G75*
G02*
X131769155Y-104213999I1570424J-1183109D01*
G01*
X131683219Y-106680084D02*
G75*
G02*
X131683138Y-104319986I1565759J1180103D01*
G01*
X131741783Y-143945393D02*
G75*
G02*
X131655656Y-143839029I1479407J1285985D01*
G01*
X131741949Y-141373101D02*
G75*
G02*
X131859656Y-141249029I1479882J-1286093D01*
G01*
X131769283Y-106786364D02*
G75*
G02*
X131683156Y-106680000I1479395J1285983D01*
G01*
X131769449Y-104214072D02*
G75*
G02*
X131887157Y-104090001I1478829J-1285109D01*
G01*
X131859370Y-144069126D02*
G75*
G02*
X131741656Y-143945029I1362110J1409927D01*
G01*
X131859526Y-141248378D02*
G75*
G02*
X131987656Y-141135029I1364138J-1412931D01*
G01*
X131886870Y-106910097D02*
G75*
G02*
X131769156Y-106786000I1362108J1409916D01*
G01*
X131887026Y-104089349D02*
G75*
G02*
X132015155Y-103975999I1362652J-1411232D01*
G01*
X131987728Y-144182370D02*
G75*
G02*
X131859656Y-144069029I1234068J1523490D01*
G01*
X131988199Y-141135735D02*
G75*
G02*
X132125656Y-141034029I1231582J-1520758D01*
G01*
X132015228Y-107023341D02*
G75*
G02*
X131887156Y-106910000I1234050J1523460D01*
G01*
X132015699Y-103976706D02*
G75*
G02*
X132153157Y-103875001I1231579J-1520775D01*
G01*
X132125177Y-144284780D02*
G75*
G02*
X131987656Y-144183029I1098014J1627823D01*
G01*
X132152677Y-107125751D02*
G75*
G02*
X132015158Y-107023997I1095801J1624770D01*
G01*
X132153294Y-141014886D02*
G75*
G02*
X132300656Y-140928029I1068356J-1644142D01*
G01*
X132180794Y-103855857D02*
G75*
G02*
X132328156Y-103768999I1067884J-1643324D01*
G01*
X132301004Y-144389855D02*
G75*
G02*
X132153656Y-144303029I919796J1729380D01*
G01*
X132328504Y-107230826D02*
G75*
G02*
X132181156Y-107144000I919774J1729345D01*
G01*
X132392361Y-140881979D02*
G75*
G02*
X132582656Y-140805029I829428J-1777378D01*
G01*
X132419861Y-103722950D02*
G75*
G02*
X132610157Y-103646004I828517J-1775231D01*
G01*
X132582944Y-144512949D02*
G75*
G02*
X132392656Y-144436029I638838J1854216D01*
G01*
X132610444Y-107353920D02*
G75*
G02*
X132420155Y-107277002I639434J1855739D01*
G01*
X132714371Y-140765814D02*
G75*
G02*
X133221656Y-140699029I507286J-1893228D01*
G01*
X132741871Y-103606785D02*
G75*
G02*
X133249156Y-103539990I507307J-1893096D01*
G01*
X133221169Y-144619973D02*
G75*
G02*
X132713656Y-144553029I491J1960959D01*
G01*
X133221177Y-140698344D02*
G75*
G02*
X133728656Y-140765029I471J-1960737D01*
G01*
X133248669Y-107460944D02*
G75*
G02*
X132741156Y-107393999I509J1961063D01*
G01*
X133248677Y-103539315D02*
G75*
G02*
X133756158Y-103605992I501J-1960766D01*
G01*
X133727975Y-144552502D02*
G75*
G02*
X133220656Y-144619029I-506324J1893493D01*
G01*
X133755475Y-107393473D02*
G75*
G02*
X133248156Y-107459990I-506297J1893592D01*
G01*
X133859373Y-140805214D02*
G75*
G02*
X134049656Y-140882029I-637708J-1853792D01*
G01*
X133886873Y-103646185D02*
G75*
G02*
X134077154Y-103723004I-637995J-1854396D01*
G01*
X134048962Y-144436288D02*
G75*
G02*
X133858656Y-144513029I-827325J1777304D01*
G01*
X134076462Y-107277259D02*
G75*
G02*
X133886156Y-107354001I-827684J1778178D01*
G01*
X134141312Y-140928290D02*
G75*
G02*
X134288656Y-141015029I-919025J-1729669D01*
G01*
X134168812Y-103769261D02*
G75*
G02*
X134316154Y-103856002I-919034J-1729620D01*
G01*
X134288026Y-144303346D02*
G75*
G02*
X134140656Y-144390029I-1065976J1643655D01*
G01*
X134315526Y-107144317D02*
G75*
G02*
X134168155Y-107230999I-1065948J1643636D01*
G01*
X134317139Y-141033365D02*
G75*
G02*
X134454656Y-141135029I-1095517J-1625703D01*
G01*
X134344639Y-103874336D02*
G75*
G02*
X134482155Y-103976002I-1095061J-1625045D01*
G01*
X134454204Y-144183406D02*
G75*
G02*
X134316656Y-144285029I-1232519J1524332D01*
G01*
X134454587Y-141135776D02*
G75*
G02*
X134582656Y-141249029I-1232832J-1523152D01*
G01*
X134481704Y-107024377D02*
G75*
G02*
X134344157Y-107126002I-1232526J1524296D01*
G01*
X134482087Y-103976747D02*
G75*
G02*
X134610156Y-104090000I-1232809J-1523134D01*
G01*
X134582789Y-144069767D02*
G75*
G02*
X134454656Y-144183029I-1361185J1410796D01*
G01*
X134582946Y-141249019D02*
G75*
G02*
X134700656Y-141373029I-1361383J-1410092D01*
G01*
X134610289Y-106910738D02*
G75*
G02*
X134482156Y-107024000I-1359211J1408557D01*
G01*
X134610446Y-104089990D02*
G75*
G02*
X134728157Y-104213999I-1361368J-1410091D01*
G01*
X134700454Y-143946041D02*
G75*
G02*
X134582656Y-144070029I-1477132J1285435D01*
G01*
X134700531Y-141372735D02*
G75*
G02*
X134786656Y-141479029I-1478777J-1286222D01*
G01*
X134727954Y-106787012D02*
G75*
G02*
X134610156Y-106911000I-1476076J1284431D01*
G01*
X134728031Y-104213706D02*
G75*
G02*
X134814155Y-104320001I-1478753J-1286175D01*
G01*
X134786830Y-143839724D02*
G75*
G02*
X134700656Y-143946029I-1564626J1180252D01*
G01*
X134787317Y-141479907D02*
G75*
G02*
X134786656Y-143839029I-1565661J-1179122D01*
G01*
X134814330Y-106680695D02*
G75*
G02*
X134728156Y-106787000I-1562852J1178814D01*
G01*
X134814817Y-104320878D02*
G75*
G02*
X134814137Y-106679986I-1565839J-1179103D01*
G01*
X136346234Y-143231648D02*
G75*
G02*
X136346656Y-142085029I1875415J572619D01*
G01*
X136373734Y-106072619D02*
G75*
G02*
X136374146Y-104925997I1875244J572638D01*
G01*
X137648607Y-140784672D02*
G75*
G02*
X138221656Y-140699029I573049J-1874350D01*
G01*
X137676107Y-103625643D02*
G75*
G02*
X138249156Y-103539997I573071J-1874438D01*
G01*
X138188156Y-140698422D02*
G75*
G02*
X138795656Y-140784029I33498J-1960614D01*
G01*
X138215656Y-103539393D02*
G75*
G02*
X138823157Y-103624998I33522J-1960488D01*
G01*
X138794275Y-144534451D02*
G75*
G02*
X137647656Y-144534029I-572619J1875415D01*
G01*
X138821775Y-107375422D02*
G75*
G02*
X137675156Y-107374999I-572617J1875461D01*
G01*
X140097078Y-142086410D02*
G75*
G02*
X140096656Y-143233029I-1875415J-572619D01*
G01*
X140124578Y-104927381D02*
G75*
G02*
X140124145Y-106073997I-1875600J-572600D01*
G01*
X145253634Y-126288894D02*
G75*
G02*
X145320578Y-125781381I1960959J-491D01*
G01*
X145253634Y-131288894D02*
G75*
G02*
X145320578Y-130781381I1960959J-491D01*
G01*
X145321105Y-126795700D02*
G75*
G02*
X145254578Y-126288381I1893493J506324D01*
G01*
X145321105Y-131795700D02*
G75*
G02*
X145254578Y-131288381I1893493J506324D01*
G01*
X145339156Y-136862000D02*
G75*
G02*
X145339578Y-135715381I1875415J572619D01*
G01*
X145360658Y-125650669D02*
G75*
G02*
X145437578Y-125460381I1854216J-638838D01*
G01*
X145360658Y-130650669D02*
G75*
G02*
X145437578Y-130460381I1854216J-638838D01*
G01*
X145437319Y-127116687D02*
G75*
G02*
X145360578Y-126926381I1777304J827325D01*
G01*
X145437319Y-132116687D02*
G75*
G02*
X145360578Y-131926381I1777304J827325D01*
G01*
X145483752Y-125368729D02*
G75*
G02*
X145570578Y-125221381I1729380J-919796D01*
G01*
X145483752Y-130368729D02*
G75*
G02*
X145570578Y-130221381I1729380J-919796D01*
G01*
X145570261Y-127355751D02*
G75*
G02*
X145483578Y-127208381I1643655J1065976D01*
G01*
X145570261Y-132355751D02*
G75*
G02*
X145483578Y-132208381I1643655J1065976D01*
G01*
X145588827Y-125192902D02*
G75*
G02*
X145690578Y-125055381I1627823J-1098014D01*
G01*
X145588827Y-130192902D02*
G75*
G02*
X145690578Y-130055381I1627823J-1098014D01*
G01*
X145690201Y-127521929D02*
G75*
G02*
X145588578Y-127384381I1524332J1232519D01*
G01*
X145690201Y-132521929D02*
G75*
G02*
X145588578Y-132384381I1524332J1232519D01*
G01*
X145691237Y-125055453D02*
G75*
G02*
X145804578Y-124927381I1523490J-1234068D01*
G01*
X145691237Y-130055453D02*
G75*
G02*
X145804578Y-129927381I1523490J-1234068D01*
G01*
X145803840Y-127650514D02*
G75*
G02*
X145690578Y-127522381I1410796J1361185D01*
G01*
X145803840Y-132650514D02*
G75*
G02*
X145690578Y-132522381I1410796J1361185D01*
G01*
X145804481Y-124927095D02*
G75*
G02*
X145928578Y-124809381I1409927J-1362110D01*
G01*
X145804481Y-129927095D02*
G75*
G02*
X145928578Y-129809381I1409927J-1362110D01*
G01*
X145927566Y-127768179D02*
G75*
G02*
X145803578Y-127650381I1285435J1477132D01*
G01*
X145927566Y-132768179D02*
G75*
G02*
X145803578Y-132650381I1285435J1477132D01*
G01*
X145928214Y-124809508D02*
G75*
G02*
X146034578Y-124723381I1285985J-1479407D01*
G01*
X145928214Y-129809508D02*
G75*
G02*
X146034578Y-129723381I1285985J-1479407D01*
G01*
X146033883Y-127854555D02*
G75*
G02*
X145927578Y-127768381I1180252J1564626D01*
G01*
X146033883Y-132854555D02*
G75*
G02*
X145927578Y-132768381I1180252J1564626D01*
G01*
X146034494Y-124723444D02*
G75*
G02*
X148394578Y-124723381I1180084J-1565937D01*
G01*
X146034494Y-129723444D02*
G75*
G02*
X148394578Y-129723381I1180084J-1565937D01*
G01*
X146641959Y-134413959D02*
G75*
G02*
X147788578Y-134414381I572619J-1875415D01*
G01*
X147787197Y-138164803D02*
G75*
G02*
X146640578Y-138164381I-572619J1875415D01*
G01*
X148393700Y-127855042D02*
G75*
G02*
X146034578Y-127854381I-1179122J1565661D01*
G01*
X148393700Y-132855042D02*
G75*
G02*
X146034578Y-132854381I-1179122J1565661D01*
G01*
X148394206Y-124723279D02*
G75*
G02*
X148500578Y-124809381I-1181680J-1568627D01*
G01*
X148394206Y-129723279D02*
G75*
G02*
X148500578Y-129809381I-1181680J-1568627D01*
G01*
X148500506Y-124809674D02*
G75*
G02*
X148624578Y-124927381I-1286093J-1479882D01*
G01*
X148500506Y-129809674D02*
G75*
G02*
X148624578Y-129927381I-1286093J-1479882D01*
G01*
X148500872Y-127768256D02*
G75*
G02*
X148394578Y-127854381I-1286222J1478777D01*
G01*
X148500872Y-132768256D02*
G75*
G02*
X148394578Y-132854381I-1286222J1478777D01*
G01*
X148624588Y-127650671D02*
G75*
G02*
X148500578Y-127768381I-1410092J1361383D01*
G01*
X148624588Y-132650671D02*
G75*
G02*
X148500578Y-132768381I-1410092J1361383D01*
G01*
X148625229Y-124927251D02*
G75*
G02*
X148738578Y-125055381I-1412931J-1364138D01*
G01*
X148625229Y-129927251D02*
G75*
G02*
X148738578Y-130055381I-1412931J-1364138D01*
G01*
X148737831Y-127522312D02*
G75*
G02*
X148624578Y-127650381I-1523152J1232832D01*
G01*
X148737831Y-132522312D02*
G75*
G02*
X148624578Y-132650381I-1523152J1232832D01*
G01*
X148737872Y-125055924D02*
G75*
G02*
X148839578Y-125193381I-1520758J-1231582D01*
G01*
X148737872Y-130055924D02*
G75*
G02*
X148839578Y-130193381I-1520758J-1231582D01*
G01*
X148840242Y-127384864D02*
G75*
G02*
X148738578Y-127522381I-1625703J1095517D01*
G01*
X148840242Y-132384864D02*
G75*
G02*
X148738578Y-132522381I-1625703J1095517D01*
G01*
X148858721Y-125221019D02*
G75*
G02*
X148945578Y-125368381I-1644142J-1068356D01*
G01*
X148858721Y-130221019D02*
G75*
G02*
X148945578Y-130368381I-1644142J-1068356D01*
G01*
X148945317Y-127209037D02*
G75*
G02*
X148858578Y-127356381I-1729669J919025D01*
G01*
X148945317Y-132209037D02*
G75*
G02*
X148858578Y-132356381I-1729669J919025D01*
G01*
X148991628Y-125460086D02*
G75*
G02*
X149068578Y-125650381I-1777378J-829428D01*
G01*
X148991628Y-130460086D02*
G75*
G02*
X149068578Y-130650381I-1777378J-829428D01*
G01*
X149068393Y-126927098D02*
G75*
G02*
X148991578Y-127117381I-1853792J637708D01*
G01*
X149068393Y-131927098D02*
G75*
G02*
X148991578Y-132117381I-1853792J637708D01*
G01*
X149088935Y-135716332D02*
G75*
G02*
X149174578Y-136289381I-1874350J-573049D01*
G01*
X149107793Y-125782096D02*
G75*
G02*
X149174578Y-126289381I-1893228J-507286D01*
G01*
X149107793Y-130782096D02*
G75*
G02*
X149174578Y-131289381I-1893228J-507286D01*
G01*
X149175185Y-136255881D02*
G75*
G02*
X149089578Y-136863381I-1960614J-33498D01*
G01*
X149175263Y-126288902D02*
G75*
G02*
X149108578Y-126796381I-1960737J-471D01*
G01*
X149175263Y-131288902D02*
G75*
G02*
X149108578Y-131796381I-1960737J-471D01*
G01*
%TO.C,J5*%
X111470000Y-96830000D02*
X111470000Y-95500000D01*
X112800000Y-96830000D02*
X111470000Y-96830000D01*
X114070000Y-94170000D02*
X126830000Y-94170000D01*
X114070000Y-96830000D02*
X114070000Y-94170000D01*
X114070000Y-96830000D02*
X126830000Y-96830000D01*
X126830000Y-96830000D02*
X126830000Y-94170000D01*
%TO.C,J6*%
X111470000Y-100830000D02*
X111470000Y-99500000D01*
X112800000Y-100830000D02*
X111470000Y-100830000D01*
X114070000Y-98170000D02*
X126830000Y-98170000D01*
X114070000Y-100830000D02*
X114070000Y-98170000D01*
X114070000Y-100830000D02*
X126830000Y-100830000D01*
X126830000Y-100830000D02*
X126830000Y-98170000D01*
%TO.C,J4*%
X128010000Y-96830000D02*
X128010000Y-95500000D01*
X129340000Y-96830000D02*
X128010000Y-96830000D01*
X130610000Y-94170000D02*
X143370000Y-94170000D01*
X130610000Y-96830000D02*
X130610000Y-94170000D01*
X130610000Y-96830000D02*
X143370000Y-96830000D01*
X143370000Y-96830000D02*
X143370000Y-94170000D01*
%TO.C,J7*%
X128010000Y-100830000D02*
X128010000Y-99500000D01*
X129340000Y-100830000D02*
X128010000Y-100830000D01*
X130610000Y-98170000D02*
X143370000Y-98170000D01*
X130610000Y-100830000D02*
X130610000Y-98170000D01*
X130610000Y-100830000D02*
X143370000Y-100830000D01*
X143370000Y-100830000D02*
X143370000Y-98170000D01*
%TO.C,U2*%
X131734656Y-91248000D02*
X131734656Y-91248000D01*
X131762156Y-54088971D02*
X131762156Y-54088971D01*
X134707656Y-88752000D02*
X134707656Y-88752000D01*
X134735156Y-51592971D02*
X134735156Y-51592971D01*
X136341656Y-89500000D02*
X135056656Y-89500000D01*
X136341656Y-90500000D02*
X135056656Y-90500000D01*
X136369156Y-52340971D02*
X135084156Y-52340971D01*
X136369156Y-53340971D02*
X135084156Y-53340971D01*
X145966578Y-72143352D02*
X145966578Y-72143352D01*
X145966578Y-77143352D02*
X145966578Y-77143352D01*
X146714578Y-76794352D02*
X146714578Y-75465352D01*
X146714578Y-81750352D02*
X146714578Y-80465352D01*
X147714578Y-76794352D02*
X147714578Y-75465352D01*
X147714578Y-81750352D02*
X147714578Y-80465352D01*
X147794578Y-68538352D02*
X147794578Y-55778352D01*
X148462578Y-75116352D02*
X148462578Y-75116352D01*
X148462578Y-80116352D02*
X148462578Y-80116352D01*
X150454578Y-55778352D02*
X147794578Y-55778352D01*
X150454578Y-68538352D02*
X147794578Y-68538352D01*
X150454578Y-68538352D02*
X150454578Y-55778352D01*
X150454578Y-69808352D02*
X150454578Y-71138352D01*
X150454578Y-71138352D02*
X149124578Y-71138352D01*
D12*
X109124578Y-93268352D02*
X153124578Y-93268352D01*
X153124578Y-49268352D01*
X109124578Y-49268352D01*
X109124578Y-93268352D01*
D11*
X131655554Y-88820372D02*
G75*
G02*
X131741656Y-88714000I1568627J-1181680D01*
G01*
X131655719Y-91180084D02*
G75*
G02*
X131655656Y-88820000I1565937J1180084D01*
G01*
X131683054Y-51661343D02*
G75*
G02*
X131769155Y-51554970I1570424J-1183109D01*
G01*
X131683219Y-54021055D02*
G75*
G02*
X131683138Y-51660957I1565759J1180103D01*
G01*
X131741783Y-91286364D02*
G75*
G02*
X131655656Y-91180000I1479407J1285985D01*
G01*
X131741949Y-88714072D02*
G75*
G02*
X131859656Y-88590000I1479882J-1286093D01*
G01*
X131769283Y-54127335D02*
G75*
G02*
X131683156Y-54020971I1479395J1285983D01*
G01*
X131769449Y-51555043D02*
G75*
G02*
X131887157Y-51430972I1478829J-1285109D01*
G01*
X131859370Y-91410097D02*
G75*
G02*
X131741656Y-91286000I1362110J1409927D01*
G01*
X131859526Y-88589349D02*
G75*
G02*
X131987656Y-88476000I1364138J-1412931D01*
G01*
X131886870Y-54251068D02*
G75*
G02*
X131769156Y-54126971I1362108J1409916D01*
G01*
X131887026Y-51430320D02*
G75*
G02*
X132015155Y-51316970I1362652J-1411232D01*
G01*
X131987728Y-91523341D02*
G75*
G02*
X131859656Y-91410000I1234068J1523490D01*
G01*
X131988199Y-88476706D02*
G75*
G02*
X132125656Y-88375000I1231582J-1520758D01*
G01*
X132015228Y-54364312D02*
G75*
G02*
X131887156Y-54250971I1234050J1523460D01*
G01*
X132015699Y-51317677D02*
G75*
G02*
X132153157Y-51215972I1231579J-1520775D01*
G01*
X132125177Y-91625751D02*
G75*
G02*
X131987656Y-91524000I1098014J1627823D01*
G01*
X132152677Y-54466722D02*
G75*
G02*
X132015158Y-54364968I1095801J1624770D01*
G01*
X132153294Y-88355857D02*
G75*
G02*
X132300656Y-88269000I1068356J-1644142D01*
G01*
X132180794Y-51196828D02*
G75*
G02*
X132328156Y-51109970I1067884J-1643324D01*
G01*
X132301004Y-91730826D02*
G75*
G02*
X132153656Y-91644000I919796J1729380D01*
G01*
X132328504Y-54571797D02*
G75*
G02*
X132181156Y-54484971I919774J1729345D01*
G01*
X132392361Y-88222950D02*
G75*
G02*
X132582656Y-88146000I829428J-1777378D01*
G01*
X132419861Y-51063921D02*
G75*
G02*
X132610157Y-50986975I828517J-1775231D01*
G01*
X132582944Y-91853920D02*
G75*
G02*
X132392656Y-91777000I638838J1854216D01*
G01*
X132610444Y-54694891D02*
G75*
G02*
X132420155Y-54617973I639434J1855739D01*
G01*
X132714371Y-88106785D02*
G75*
G02*
X133221656Y-88040000I507286J-1893228D01*
G01*
X132741871Y-50947756D02*
G75*
G02*
X133249156Y-50880961I507307J-1893096D01*
G01*
X133221169Y-91960944D02*
G75*
G02*
X132713656Y-91894000I491J1960959D01*
G01*
X133221177Y-88039315D02*
G75*
G02*
X133728656Y-88106000I471J-1960737D01*
G01*
X133248669Y-54801915D02*
G75*
G02*
X132741156Y-54734970I509J1961063D01*
G01*
X133248677Y-50880286D02*
G75*
G02*
X133756158Y-50946963I501J-1960766D01*
G01*
X133727975Y-91893473D02*
G75*
G02*
X133220656Y-91960000I-506324J1893493D01*
G01*
X133755475Y-54734444D02*
G75*
G02*
X133248156Y-54800961I-506297J1893592D01*
G01*
X133859373Y-88146185D02*
G75*
G02*
X134049656Y-88223000I-637708J-1853792D01*
G01*
X133886873Y-50987156D02*
G75*
G02*
X134077154Y-51063975I-637995J-1854396D01*
G01*
X134048962Y-91777259D02*
G75*
G02*
X133858656Y-91854000I-827325J1777304D01*
G01*
X134076462Y-54618230D02*
G75*
G02*
X133886156Y-54694972I-827684J1778178D01*
G01*
X134141312Y-88269261D02*
G75*
G02*
X134288656Y-88356000I-919025J-1729669D01*
G01*
X134168812Y-51110232D02*
G75*
G02*
X134316154Y-51196973I-919034J-1729620D01*
G01*
X134288026Y-91644317D02*
G75*
G02*
X134140656Y-91731000I-1065976J1643655D01*
G01*
X134315526Y-54485288D02*
G75*
G02*
X134168155Y-54571970I-1065948J1643636D01*
G01*
X134317139Y-88374336D02*
G75*
G02*
X134454656Y-88476000I-1095517J-1625703D01*
G01*
X134344639Y-51215307D02*
G75*
G02*
X134482155Y-51316973I-1095061J-1625045D01*
G01*
X134454204Y-91524377D02*
G75*
G02*
X134316656Y-91626000I-1232519J1524332D01*
G01*
X134454587Y-88476747D02*
G75*
G02*
X134582656Y-88590000I-1232832J-1523152D01*
G01*
X134481704Y-54365348D02*
G75*
G02*
X134344157Y-54466973I-1232526J1524296D01*
G01*
X134482087Y-51317718D02*
G75*
G02*
X134610156Y-51430971I-1232809J-1523134D01*
G01*
X134582789Y-91410738D02*
G75*
G02*
X134454656Y-91524000I-1361185J1410796D01*
G01*
X134582946Y-88589990D02*
G75*
G02*
X134700656Y-88714000I-1361383J-1410092D01*
G01*
X134610289Y-54251709D02*
G75*
G02*
X134482156Y-54364971I-1359211J1408557D01*
G01*
X134610446Y-51430961D02*
G75*
G02*
X134728157Y-51554970I-1361368J-1410091D01*
G01*
X134700454Y-91287012D02*
G75*
G02*
X134582656Y-91411000I-1477132J1285435D01*
G01*
X134700531Y-88713706D02*
G75*
G02*
X134786656Y-88820000I-1478777J-1286222D01*
G01*
X134727954Y-54127983D02*
G75*
G02*
X134610156Y-54251971I-1476076J1284431D01*
G01*
X134728031Y-51554677D02*
G75*
G02*
X134814155Y-51660972I-1478753J-1286175D01*
G01*
X134786830Y-91180695D02*
G75*
G02*
X134700656Y-91287000I-1564626J1180252D01*
G01*
X134787317Y-88820878D02*
G75*
G02*
X134786656Y-91180000I-1565661J-1179122D01*
G01*
X134814330Y-54021666D02*
G75*
G02*
X134728156Y-54127971I-1562852J1178814D01*
G01*
X134814817Y-51661849D02*
G75*
G02*
X134814137Y-54020957I-1565839J-1179103D01*
G01*
X136346234Y-90572619D02*
G75*
G02*
X136346656Y-89426000I1875415J572619D01*
G01*
X136373734Y-53413590D02*
G75*
G02*
X136374146Y-52266968I1875244J572638D01*
G01*
X137648607Y-88125643D02*
G75*
G02*
X138221656Y-88040000I573049J-1874350D01*
G01*
X137676107Y-50966614D02*
G75*
G02*
X138249156Y-50880968I573071J-1874438D01*
G01*
X138188156Y-88039393D02*
G75*
G02*
X138795656Y-88125000I33498J-1960614D01*
G01*
X138215656Y-50880364D02*
G75*
G02*
X138823157Y-50965969I33522J-1960488D01*
G01*
X138794275Y-91875422D02*
G75*
G02*
X137647656Y-91875000I-572619J1875415D01*
G01*
X138821775Y-54716393D02*
G75*
G02*
X137675156Y-54715970I-572617J1875461D01*
G01*
X140097078Y-89427381D02*
G75*
G02*
X140096656Y-90574000I-1875415J-572619D01*
G01*
X140124578Y-52268352D02*
G75*
G02*
X140124145Y-53414968I-1875600J-572600D01*
G01*
X145253634Y-73629865D02*
G75*
G02*
X145320578Y-73122352I1960959J-491D01*
G01*
X145253634Y-78629865D02*
G75*
G02*
X145320578Y-78122352I1960959J-491D01*
G01*
X145321105Y-74136671D02*
G75*
G02*
X145254578Y-73629352I1893493J506324D01*
G01*
X145321105Y-79136671D02*
G75*
G02*
X145254578Y-78629352I1893493J506324D01*
G01*
X145339156Y-84202971D02*
G75*
G02*
X145339578Y-83056352I1875415J572619D01*
G01*
X145360658Y-72991640D02*
G75*
G02*
X145437578Y-72801352I1854216J-638838D01*
G01*
X145360658Y-77991640D02*
G75*
G02*
X145437578Y-77801352I1854216J-638838D01*
G01*
X145437319Y-74457658D02*
G75*
G02*
X145360578Y-74267352I1777304J827325D01*
G01*
X145437319Y-79457658D02*
G75*
G02*
X145360578Y-79267352I1777304J827325D01*
G01*
X145483752Y-72709700D02*
G75*
G02*
X145570578Y-72562352I1729380J-919796D01*
G01*
X145483752Y-77709700D02*
G75*
G02*
X145570578Y-77562352I1729380J-919796D01*
G01*
X145570261Y-74696722D02*
G75*
G02*
X145483578Y-74549352I1643655J1065976D01*
G01*
X145570261Y-79696722D02*
G75*
G02*
X145483578Y-79549352I1643655J1065976D01*
G01*
X145588827Y-72533873D02*
G75*
G02*
X145690578Y-72396352I1627823J-1098014D01*
G01*
X145588827Y-77533873D02*
G75*
G02*
X145690578Y-77396352I1627823J-1098014D01*
G01*
X145690201Y-74862900D02*
G75*
G02*
X145588578Y-74725352I1524332J1232519D01*
G01*
X145690201Y-79862900D02*
G75*
G02*
X145588578Y-79725352I1524332J1232519D01*
G01*
X145691237Y-72396424D02*
G75*
G02*
X145804578Y-72268352I1523490J-1234068D01*
G01*
X145691237Y-77396424D02*
G75*
G02*
X145804578Y-77268352I1523490J-1234068D01*
G01*
X145803840Y-74991485D02*
G75*
G02*
X145690578Y-74863352I1410796J1361185D01*
G01*
X145803840Y-79991485D02*
G75*
G02*
X145690578Y-79863352I1410796J1361185D01*
G01*
X145804481Y-72268066D02*
G75*
G02*
X145928578Y-72150352I1409927J-1362110D01*
G01*
X145804481Y-77268066D02*
G75*
G02*
X145928578Y-77150352I1409927J-1362110D01*
G01*
X145927566Y-75109150D02*
G75*
G02*
X145803578Y-74991352I1285435J1477132D01*
G01*
X145927566Y-80109150D02*
G75*
G02*
X145803578Y-79991352I1285435J1477132D01*
G01*
X145928214Y-72150479D02*
G75*
G02*
X146034578Y-72064352I1285985J-1479407D01*
G01*
X145928214Y-77150479D02*
G75*
G02*
X146034578Y-77064352I1285985J-1479407D01*
G01*
X146033883Y-75195526D02*
G75*
G02*
X145927578Y-75109352I1180252J1564626D01*
G01*
X146033883Y-80195526D02*
G75*
G02*
X145927578Y-80109352I1180252J1564626D01*
G01*
X146034494Y-72064415D02*
G75*
G02*
X148394578Y-72064352I1180084J-1565937D01*
G01*
X146034494Y-77064415D02*
G75*
G02*
X148394578Y-77064352I1180084J-1565937D01*
G01*
X146641959Y-81754930D02*
G75*
G02*
X147788578Y-81755352I572619J-1875415D01*
G01*
X147787197Y-85505774D02*
G75*
G02*
X146640578Y-85505352I-572619J1875415D01*
G01*
X148393700Y-75196013D02*
G75*
G02*
X146034578Y-75195352I-1179122J1565661D01*
G01*
X148393700Y-80196013D02*
G75*
G02*
X146034578Y-80195352I-1179122J1565661D01*
G01*
X148394206Y-72064250D02*
G75*
G02*
X148500578Y-72150352I-1181680J-1568627D01*
G01*
X148394206Y-77064250D02*
G75*
G02*
X148500578Y-77150352I-1181680J-1568627D01*
G01*
X148500506Y-72150645D02*
G75*
G02*
X148624578Y-72268352I-1286093J-1479882D01*
G01*
X148500506Y-77150645D02*
G75*
G02*
X148624578Y-77268352I-1286093J-1479882D01*
G01*
X148500872Y-75109227D02*
G75*
G02*
X148394578Y-75195352I-1286222J1478777D01*
G01*
X148500872Y-80109227D02*
G75*
G02*
X148394578Y-80195352I-1286222J1478777D01*
G01*
X148624588Y-74991642D02*
G75*
G02*
X148500578Y-75109352I-1410092J1361383D01*
G01*
X148624588Y-79991642D02*
G75*
G02*
X148500578Y-80109352I-1410092J1361383D01*
G01*
X148625229Y-72268222D02*
G75*
G02*
X148738578Y-72396352I-1412931J-1364138D01*
G01*
X148625229Y-77268222D02*
G75*
G02*
X148738578Y-77396352I-1412931J-1364138D01*
G01*
X148737831Y-74863283D02*
G75*
G02*
X148624578Y-74991352I-1523152J1232832D01*
G01*
X148737831Y-79863283D02*
G75*
G02*
X148624578Y-79991352I-1523152J1232832D01*
G01*
X148737872Y-72396895D02*
G75*
G02*
X148839578Y-72534352I-1520758J-1231582D01*
G01*
X148737872Y-77396895D02*
G75*
G02*
X148839578Y-77534352I-1520758J-1231582D01*
G01*
X148840242Y-74725835D02*
G75*
G02*
X148738578Y-74863352I-1625703J1095517D01*
G01*
X148840242Y-79725835D02*
G75*
G02*
X148738578Y-79863352I-1625703J1095517D01*
G01*
X148858721Y-72561990D02*
G75*
G02*
X148945578Y-72709352I-1644142J-1068356D01*
G01*
X148858721Y-77561990D02*
G75*
G02*
X148945578Y-77709352I-1644142J-1068356D01*
G01*
X148945317Y-74550008D02*
G75*
G02*
X148858578Y-74697352I-1729669J919025D01*
G01*
X148945317Y-79550008D02*
G75*
G02*
X148858578Y-79697352I-1729669J919025D01*
G01*
X148991628Y-72801057D02*
G75*
G02*
X149068578Y-72991352I-1777378J-829428D01*
G01*
X148991628Y-77801057D02*
G75*
G02*
X149068578Y-77991352I-1777378J-829428D01*
G01*
X149068393Y-74268069D02*
G75*
G02*
X148991578Y-74458352I-1853792J637708D01*
G01*
X149068393Y-79268069D02*
G75*
G02*
X148991578Y-79458352I-1853792J637708D01*
G01*
X149088935Y-83057303D02*
G75*
G02*
X149174578Y-83630352I-1874350J-573049D01*
G01*
X149107793Y-73123067D02*
G75*
G02*
X149174578Y-73630352I-1893228J-507286D01*
G01*
X149107793Y-78123067D02*
G75*
G02*
X149174578Y-78630352I-1893228J-507286D01*
G01*
X149175185Y-83596852D02*
G75*
G02*
X149089578Y-84204352I-1960614J-33498D01*
G01*
X149175263Y-73629873D02*
G75*
G02*
X149108578Y-74137352I-1960737J-471D01*
G01*
X149175263Y-78629873D02*
G75*
G02*
X149108578Y-79137352I-1960737J-471D01*
G01*
D13*
%TO.C,U1*%
X104500000Y-61690000D02*
X104500000Y-140690000D01*
X107500000Y-143690000D02*
X157500000Y-143690000D01*
X157500000Y-58690000D02*
X107500000Y-58690000D01*
X160500000Y-140690000D02*
X160500000Y-61690000D01*
X104500000Y-61690000D02*
G75*
G02*
X107500000Y-58690000I3000001J-1D01*
G01*
X107500000Y-143690000D02*
G75*
G02*
X104500000Y-140690000I0J3000000D01*
G01*
X157500000Y-58690000D02*
G75*
G02*
X160500000Y-61690000I-1J-3000001D01*
G01*
X160500000Y-140690000D02*
G75*
G02*
X157500000Y-143690000I-3000000J0D01*
G01*
D14*
X155700000Y-57790000D02*
G75*
G02*
X155300000Y-57790000I-200000J0D01*
G01*
X155300000Y-57790000D02*
G75*
G02*
X155700000Y-57790000I200000J0D01*
G01*
%TO.C,REF\u002A\u002A*%
D12*
X95500000Y-119250000D02*
X105500000Y-119250000D01*
X105500000Y-89250000D01*
X95500000Y-89250000D01*
X95500000Y-119250000D01*
%TD*%
M02*
