M48
; DRILL file {KiCad 8.0.6-8.0.6-0~ubuntu24.04.1} date 2024-11-30T08:39:20+0100
; FORMAT={-:-/ absolute / inch / decimal}
; #@! TF.CreationDate,2024-11-30T08:39:20+01:00
; #@! TF.GenerationSoftware,Kicad,Pcbnew,8.0.6-8.0.6-0~ubuntu24.04.1
; #@! TF.FileFunction,Plated,1,2,PTH
FMAT,2
INCH
; #@! TA.AperFunction,Plated,PTH,ComponentDrill
T1C0.0354
; #@! TA.AperFunction,Plated,PTH,ComponentDrill
T2C0.0394
; #@! TA.AperFunction,Plated,PTH,ComponentDrill
T3C0.0400
; #@! TA.AperFunction,Plated,PTH,ComponentDrill
T4C0.0472
; #@! TA.AperFunction,Plated,PTH,ComponentDrill
T5C0.0512
; #@! TA.AperFunction,Plated,PTH,ComponentDrill
T6C0.0610
; #@! TA.AperFunction,Plated,PTH,ComponentDrill
T7C0.1083
%
G90
G05
T1
X3.7992Y-5.5413
X3.7992Y-5.6398
X3.9567Y-5.5413
X3.9567Y-5.6398
X4.1142Y-5.5413
X4.1142Y-5.6398
T2
X4.4409Y-3.7598
X4.4409Y-3.9173
X4.5409Y-3.7598
X4.5409Y-3.9173
X4.6409Y-3.7598
X4.6409Y-3.9173
X4.7409Y-3.7598
X4.7409Y-3.9173
X4.8409Y-3.7598
X4.8409Y-3.9173
X4.9409Y-3.7598
X4.9409Y-3.9173
X5.0921Y-3.7598
X5.0921Y-3.9173
X5.1921Y-3.7598
X5.1921Y-3.9173
X5.2921Y-3.7598
X5.2921Y-3.9173
X5.3921Y-3.7598
X5.3921Y-3.9173
X5.4921Y-3.7598
X5.4921Y-3.9173
X5.5921Y-3.7598
X5.5921Y-3.9173
X5.871Y-2.2484
X5.871Y-2.3484
X5.871Y-2.4484
X5.871Y-2.5484
X5.871Y-2.6484
X5.871Y-2.7484
X5.871Y-4.3216
X5.871Y-4.4216
X5.871Y-4.5216
X5.871Y-4.6216
X5.871Y-4.7216
X5.871Y-4.8216
T3
X6.1311Y-2.6402
X6.1311Y-2.7402
X6.1311Y-2.8402
X6.1311Y-2.9402
X6.1311Y-3.0402
X6.1311Y-3.1402
X6.1311Y-3.2402
X6.1311Y-3.3402
X6.1311Y-3.4402
X6.1311Y-3.5402
X6.1311Y-3.6402
X6.1311Y-3.7402
X6.1311Y-3.8402
X6.1311Y-3.9402
X6.1311Y-4.0402
X6.1311Y-4.1402
X6.1311Y-4.2402
X6.1311Y-4.3402
X6.1311Y-4.4402
X6.1311Y-4.5402
X6.2311Y-2.6402
X6.2311Y-2.7402
X6.2311Y-2.8402
X6.2311Y-2.9402
X6.2311Y-3.0402
X6.2311Y-3.1402
X6.2311Y-3.2402
X6.2311Y-3.3402
X6.2311Y-3.4402
X6.2311Y-3.5402
X6.2311Y-3.6402
X6.2311Y-3.7402
X6.2311Y-3.8402
X6.2311Y-3.9402
X6.2311Y-4.0402
X6.2311Y-4.1402
X6.2311Y-4.2402
X6.2311Y-4.3402
X6.2311Y-4.4402
X6.2311Y-4.5402
T4
X3.7205Y-5.4724
X3.7205Y-5.7087
X4.1929Y-5.4724
X4.1929Y-5.7087
T5
X5.2449Y-3.5433
X5.2449Y-5.6165
X5.246Y-2.0804
X5.246Y-4.1535
X5.4418Y-3.5433
X5.4418Y-5.6165
X5.4429Y-2.0804
X5.4429Y-4.1535
X5.7958Y-2.8988
X5.7958Y-3.0957
X5.7958Y-3.2925
X5.7958Y-4.972
X5.7958Y-5.1689
X5.7958Y-5.3657
T6
X3.8583Y-3.3957
X3.8622Y-4.813
X4.0472Y-3.3957
X4.0512Y-4.813
T7
X4.252Y-2.4484
X4.252Y-4.7319
X6.1811Y-2.4484
X6.1811Y-4.7319
T2
G00X3.9567Y-5.0394
M15
G01X3.9567Y-5.1181
M16
G05
G00X4.0354Y-5.2638
M15
G01X4.1142Y-5.2638
M16
G05
G00X4.1929Y-5.0394
M15
G01X4.1929Y-5.1181
M16
G05
M30
