%TF.GenerationSoftware,KiCad,Pcbnew,8.0.6-8.0.6-0~ubuntu24.04.1*%
%TF.CreationDate,2024-11-30T08:39:12+01:00*%
%TF.ProjectId,Rover,526f7665-722e-46b6-9963-61645f706362,rev?*%
%TF.SameCoordinates,Original*%
%TF.FileFunction,Soldermask,Bot*%
%TF.FilePolarity,Negative*%
%FSLAX46Y46*%
G04 Gerber Fmt 4.6, Leading zero omitted, Abs format (unit mm)*
G04 Created by KiCad (PCBNEW 8.0.6-8.0.6-0~ubuntu24.04.1) date 2024-11-30 08:39:12*
%MOMM*%
%LPD*%
G01*
G04 APERTURE LIST*
G04 Aperture macros list*
%AMRoundRect*
0 Rectangle with rounded corners*
0 $1 Rounding radius*
0 $2 $3 $4 $5 $6 $7 $8 $9 X,Y pos of 4 corners*
0 Add a 4 corners polygon primitive as box body*
4,1,4,$2,$3,$4,$5,$6,$7,$8,$9,$2,$3,0*
0 Add four circle primitives for the rounded corners*
1,1,$1+$1,$2,$3*
1,1,$1+$1,$4,$5*
1,1,$1+$1,$6,$7*
1,1,$1+$1,$8,$9*
0 Add four rect primitives between the rounded corners*
20,1,$1+$1,$2,$3,$4,$5,0*
20,1,$1+$1,$4,$5,$6,$7,0*
20,1,$1+$1,$6,$7,$8,$9,0*
20,1,$1+$1,$8,$9,$2,$3,0*%
G04 Aperture macros list end*
%ADD10R,3.500000X3.500000*%
%ADD11RoundRect,0.750000X-0.750000X-1.000000X0.750000X-1.000000X0.750000X1.000000X-0.750000X1.000000X0*%
%ADD12RoundRect,0.875000X-0.875000X-0.875000X0.875000X-0.875000X0.875000X0.875000X-0.875000X0.875000X0*%
%ADD13C,2.000000*%
%ADD14C,1.700000*%
%ADD15R,1.700000X1.700000*%
%ADD16O,1.700000X1.700000*%
%ADD17R,2.800000X2.800000*%
%ADD18C,2.800000*%
%ADD19RoundRect,0.249999X1.025001X1.025001X-1.025001X1.025001X-1.025001X-1.025001X1.025001X-1.025001X0*%
%ADD20C,2.550000*%
%ADD21RoundRect,0.102000X-0.762000X0.762000X-0.762000X-0.762000X0.762000X-0.762000X0.762000X0.762000X0*%
%ADD22C,1.728000*%
%ADD23C,6.404000*%
%ADD24RoundRect,0.249999X-1.025001X-1.025001X1.025001X-1.025001X1.025001X1.025001X-1.025001X1.025001X0*%
G04 APERTURE END LIST*
D10*
%TO.C,J3*%
X106500000Y-129000000D03*
D11*
X100500000Y-129000000D03*
D12*
X103500000Y-133700000D03*
%TD*%
D13*
%TO.C,SW1*%
X94500000Y-139000000D03*
X94500000Y-145000000D03*
X106500000Y-139000000D03*
X106500000Y-145000000D03*
D14*
X96500000Y-140750000D03*
X100500000Y-140750000D03*
X104500000Y-140750000D03*
X96500000Y-143250000D03*
X100500000Y-143250000D03*
X104500000Y-143250000D03*
%TD*%
D15*
%TO.C,U3*%
X149124578Y-122467381D03*
D16*
X149124578Y-119927381D03*
X149124578Y-117387381D03*
X149124578Y-114847381D03*
X149124578Y-112307381D03*
X149124578Y-109767381D03*
D17*
X147214578Y-136289381D03*
D18*
X147214578Y-131289381D03*
X147214578Y-126289381D03*
D17*
X138249156Y-105500000D03*
D18*
X133249156Y-105500000D03*
D17*
X138221656Y-142659029D03*
D18*
X133221656Y-142659029D03*
%TD*%
D15*
%TO.C,J5*%
X112800000Y-95500000D03*
D16*
X115340000Y-95500000D03*
X117880000Y-95500000D03*
X120420000Y-95500000D03*
X122960000Y-95500000D03*
X125500000Y-95500000D03*
%TD*%
D19*
%TO.C,J1*%
X102900000Y-122250000D03*
D20*
X98100000Y-122250000D03*
%TD*%
D15*
%TO.C,J6*%
X112800000Y-99500000D03*
D16*
X115340000Y-99500000D03*
X117880000Y-99500000D03*
X120420000Y-99500000D03*
X122960000Y-99500000D03*
X125500000Y-99500000D03*
%TD*%
D15*
%TO.C,J4*%
X129340000Y-95500000D03*
D16*
X131880000Y-95500000D03*
X134420000Y-95500000D03*
X136960000Y-95500000D03*
X139500000Y-95500000D03*
X142040000Y-95500000D03*
%TD*%
D15*
%TO.C,J7*%
X129340000Y-99500000D03*
D16*
X131880000Y-99500000D03*
X134420000Y-99500000D03*
X136960000Y-99500000D03*
X139500000Y-99500000D03*
X142040000Y-99500000D03*
%TD*%
D15*
%TO.C,U2*%
X149124578Y-69808352D03*
D16*
X149124578Y-67268352D03*
X149124578Y-64728352D03*
X149124578Y-62188352D03*
X149124578Y-59648352D03*
X149124578Y-57108352D03*
D17*
X147214578Y-83630352D03*
D18*
X147214578Y-78630352D03*
X147214578Y-73630352D03*
D17*
X138249156Y-52840971D03*
D18*
X133249156Y-52840971D03*
D17*
X138221656Y-90000000D03*
D18*
X133221656Y-90000000D03*
%TD*%
D21*
%TO.C,U1*%
X155730000Y-67060000D03*
D22*
X158270000Y-67060000D03*
X155730000Y-69600000D03*
X158270000Y-69600000D03*
X155730000Y-72140000D03*
X158270000Y-72140000D03*
X155730000Y-74680000D03*
X158270000Y-74680000D03*
X155730000Y-77220000D03*
X158270000Y-77220000D03*
X155730000Y-79760000D03*
X158270000Y-79760000D03*
X155730000Y-82300000D03*
X158270000Y-82300000D03*
X155730000Y-84840000D03*
X158270000Y-84840000D03*
X155730000Y-87380000D03*
X158270000Y-87380000D03*
X155730000Y-89920000D03*
X158270000Y-89920000D03*
X155730000Y-92460000D03*
X158270000Y-92460000D03*
X155730000Y-95000000D03*
X158270000Y-95000000D03*
X155730000Y-97540000D03*
X158270000Y-97540000D03*
X155730000Y-100080000D03*
X158270000Y-100080000D03*
X155730000Y-102620000D03*
X158270000Y-102620000D03*
X155730000Y-105160000D03*
X158270000Y-105160000D03*
X155730000Y-107700000D03*
X158270000Y-107700000D03*
X155730000Y-110240000D03*
X158270000Y-110240000D03*
X155730000Y-112780000D03*
X158270000Y-112780000D03*
X155730000Y-115320000D03*
X158270000Y-115320000D03*
D23*
X157000000Y-62190000D03*
X157000000Y-120190000D03*
X108000000Y-120190000D03*
X108000000Y-62190000D03*
%TD*%
D24*
%TO.C,J2*%
X98000000Y-86250000D03*
D20*
X102800000Y-86250000D03*
%TD*%
M02*
