%TF.GenerationSoftware,KiCad,Pcbnew,8.0.6-8.0.6-0~ubuntu24.04.1*%
%TF.CreationDate,2024-11-30T08:39:11+01:00*%
%TF.ProjectId,Rover,526f7665-722e-46b6-9963-61645f706362,rev?*%
%TF.SameCoordinates,Original*%
%TF.FileFunction,Copper,L1,Top*%
%TF.FilePolarity,Positive*%
%FSLAX46Y46*%
G04 Gerber Fmt 4.6, Leading zero omitted, Abs format (unit mm)*
G04 Created by KiCad (PCBNEW 8.0.6-8.0.6-0~ubuntu24.04.1) date 2024-11-30 08:39:11*
%MOMM*%
%LPD*%
G01*
G04 APERTURE LIST*
G04 Aperture macros list*
%AMRoundRect*
0 Rectangle with rounded corners*
0 $1 Rounding radius*
0 $2 $3 $4 $5 $6 $7 $8 $9 X,Y pos of 4 corners*
0 Add a 4 corners polygon primitive as box body*
4,1,4,$2,$3,$4,$5,$6,$7,$8,$9,$2,$3,0*
0 Add four circle primitives for the rounded corners*
1,1,$1+$1,$2,$3*
1,1,$1+$1,$4,$5*
1,1,$1+$1,$6,$7*
1,1,$1+$1,$8,$9*
0 Add four rect primitives between the rounded corners*
20,1,$1+$1,$2,$3,$4,$5,0*
20,1,$1+$1,$4,$5,$6,$7,0*
20,1,$1+$1,$6,$7,$8,$9,0*
20,1,$1+$1,$8,$9,$2,$3,0*%
G04 Aperture macros list end*
%TA.AperFunction,ComponentPad*%
%ADD10R,3.500000X3.500000*%
%TD*%
%TA.AperFunction,ComponentPad*%
%ADD11RoundRect,0.750000X-0.750000X-1.000000X0.750000X-1.000000X0.750000X1.000000X-0.750000X1.000000X0*%
%TD*%
%TA.AperFunction,ComponentPad*%
%ADD12RoundRect,0.875000X-0.875000X-0.875000X0.875000X-0.875000X0.875000X0.875000X-0.875000X0.875000X0*%
%TD*%
%TA.AperFunction,ComponentPad*%
%ADD13C,2.000000*%
%TD*%
%TA.AperFunction,ComponentPad*%
%ADD14C,1.700000*%
%TD*%
%TA.AperFunction,ComponentPad*%
%ADD15R,1.700000X1.700000*%
%TD*%
%TA.AperFunction,ComponentPad*%
%ADD16O,1.700000X1.700000*%
%TD*%
%TA.AperFunction,ComponentPad*%
%ADD17R,2.800000X2.800000*%
%TD*%
%TA.AperFunction,ComponentPad*%
%ADD18C,2.800000*%
%TD*%
%TA.AperFunction,ComponentPad*%
%ADD19RoundRect,0.249999X1.025001X1.025001X-1.025001X1.025001X-1.025001X-1.025001X1.025001X-1.025001X0*%
%TD*%
%TA.AperFunction,ComponentPad*%
%ADD20C,2.550000*%
%TD*%
%TA.AperFunction,ComponentPad*%
%ADD21R,1.524000X1.524000*%
%TD*%
%TA.AperFunction,ComponentPad*%
%ADD22C,1.524000*%
%TD*%
%TA.AperFunction,ComponentPad*%
%ADD23C,6.200000*%
%TD*%
%TA.AperFunction,ComponentPad*%
%ADD24RoundRect,0.249999X-1.025001X-1.025001X1.025001X-1.025001X1.025001X1.025001X-1.025001X1.025001X0*%
%TD*%
%TA.AperFunction,Conductor*%
%ADD25C,0.800000*%
%TD*%
%TA.AperFunction,Conductor*%
%ADD26C,1.270000*%
%TD*%
G04 APERTURE END LIST*
D10*
%TO.P,J3,1*%
%TO.N,Net-(SW1A-B)*%
X106500000Y-129000000D03*
D11*
%TO.P,J3,2*%
%TO.N,Net-(J1-Pin_2)*%
X100500000Y-129000000D03*
D12*
%TO.P,J3,3*%
X103500000Y-133700000D03*
%TD*%
D13*
%TO.P,SW1,*%
%TO.N,*%
X94500000Y-139000000D03*
X94500000Y-145000000D03*
X106500000Y-139000000D03*
X106500000Y-145000000D03*
D14*
%TO.P,SW1,1,A*%
%TO.N,unconnected-(SW1A-A-Pad1)*%
X96500000Y-140750000D03*
%TO.P,SW1,2,B*%
%TO.N,Net-(SW1A-B)*%
X100500000Y-140750000D03*
%TO.P,SW1,3,C*%
%TO.N,+7.4V*%
X104500000Y-140750000D03*
%TO.P,SW1,4*%
%TO.N,N/C*%
X96500000Y-143250000D03*
%TO.P,SW1,5*%
X100500000Y-143250000D03*
%TO.P,SW1,6*%
X104500000Y-143250000D03*
%TD*%
D15*
%TO.P,U3,1,ENA*%
%TO.N,PWM0*%
X149124578Y-122467381D03*
D16*
%TO.P,U3,2,IN1*%
%TO.N,IN1 2*%
X149124578Y-119927381D03*
%TO.P,U3,3,IN2*%
%TO.N,IN2 2*%
X149124578Y-117387381D03*
%TO.P,U3,4,IN3*%
%TO.N,IN3 2*%
X149124578Y-114847381D03*
%TO.P,U3,5,IN4*%
%TO.N,IN4 2*%
X149124578Y-112307381D03*
%TO.P,U3,6,ENB*%
%TO.N,PWM2*%
X149124578Y-109767381D03*
D17*
%TO.P,U3,7,12V*%
%TO.N,+7.4V*%
X147214578Y-136289381D03*
D18*
%TO.P,U3,8,GND*%
%TO.N,GND*%
X147214578Y-131289381D03*
%TO.P,U3,9,5V*%
%TO.N,unconnected-(U3-5V-Pad9)*%
X147214578Y-126289381D03*
D17*
%TO.P,U3,10,OUT3*%
%TO.N,Net-(J7-Pin_1)*%
X138249156Y-105500000D03*
D18*
%TO.P,U3,11,OUT4*%
%TO.N,Net-(J7-Pin_2)*%
X133249156Y-105500000D03*
D17*
%TO.P,U3,12,OUT2*%
%TO.N,Net-(J6-Pin_2)*%
X138221656Y-142659029D03*
D18*
%TO.P,U3,13,OUT1*%
%TO.N,Net-(J6-Pin_1)*%
X133221656Y-142659029D03*
%TD*%
D15*
%TO.P,J5,1,Pin_1*%
%TO.N,Net-(J5-Pin_1)*%
X112800000Y-95500000D03*
D16*
%TO.P,J5,2,Pin_2*%
%TO.N,Net-(J5-Pin_2)*%
X115340000Y-95500000D03*
%TO.P,J5,3,Pin_3*%
%TO.N,GND*%
X117880000Y-95500000D03*
%TO.P,J5,4,Pin_4*%
%TO.N,+7.4V*%
X120420000Y-95500000D03*
%TO.P,J5,5,Pin_5*%
%TO.N,SIG A 2*%
X122960000Y-95500000D03*
%TO.P,J5,6,Pin_6*%
%TO.N,SIG B 2*%
X125500000Y-95500000D03*
%TD*%
D19*
%TO.P,J1,1,Pin_1*%
%TO.N,+7.4V*%
X102900000Y-122250000D03*
D20*
%TO.P,J1,2,Pin_2*%
%TO.N,Net-(J1-Pin_2)*%
X98100000Y-122250000D03*
%TD*%
D15*
%TO.P,J6,1,Pin_1*%
%TO.N,Net-(J6-Pin_1)*%
X112800000Y-99500000D03*
D16*
%TO.P,J6,2,Pin_2*%
%TO.N,Net-(J6-Pin_2)*%
X115340000Y-99500000D03*
%TO.P,J6,3,Pin_3*%
%TO.N,GND*%
X117880000Y-99500000D03*
%TO.P,J6,4,Pin_4*%
%TO.N,+7.4V*%
X120420000Y-99500000D03*
%TO.P,J6,5,Pin_5*%
%TO.N,SIG A 3*%
X122960000Y-99500000D03*
%TO.P,J6,6,Pin_6*%
%TO.N,SIG B 3*%
X125500000Y-99500000D03*
%TD*%
D15*
%TO.P,J4,1,Pin_1*%
%TO.N,Net-(J4-Pin_1)*%
X129340000Y-95500000D03*
D16*
%TO.P,J4,2,Pin_2*%
%TO.N,Net-(J4-Pin_2)*%
X131880000Y-95500000D03*
%TO.P,J4,3,Pin_3*%
%TO.N,GND*%
X134420000Y-95500000D03*
%TO.P,J4,4,Pin_4*%
%TO.N,+7.4V*%
X136960000Y-95500000D03*
%TO.P,J4,5,Pin_5*%
%TO.N,SIG A 1*%
X139500000Y-95500000D03*
%TO.P,J4,6,Pin_6*%
%TO.N,SIG B 1*%
X142040000Y-95500000D03*
%TD*%
D15*
%TO.P,J7,1,Pin_1*%
%TO.N,Net-(J7-Pin_1)*%
X129340000Y-99500000D03*
D16*
%TO.P,J7,2,Pin_2*%
%TO.N,Net-(J7-Pin_2)*%
X131880000Y-99500000D03*
%TO.P,J7,3,Pin_3*%
%TO.N,GND*%
X134420000Y-99500000D03*
%TO.P,J7,4,Pin_4*%
%TO.N,+7.4V*%
X136960000Y-99500000D03*
%TO.P,J7,5,Pin_5*%
%TO.N,SIG A 4*%
X139500000Y-99500000D03*
%TO.P,J7,6,Pin_6*%
%TO.N,SIG B 4*%
X142040000Y-99500000D03*
%TD*%
D15*
%TO.P,U2,1,ENA*%
%TO.N,PWM1*%
X149124578Y-69808352D03*
D16*
%TO.P,U2,2,IN1*%
%TO.N,IN1 1*%
X149124578Y-67268352D03*
%TO.P,U2,3,IN2*%
%TO.N,IN2 1*%
X149124578Y-64728352D03*
%TO.P,U2,4,IN3*%
%TO.N,IN3 1*%
X149124578Y-62188352D03*
%TO.P,U2,5,IN4*%
%TO.N,IN4 1*%
X149124578Y-59648352D03*
%TO.P,U2,6,ENB*%
%TO.N,PWM3*%
X149124578Y-57108352D03*
D17*
%TO.P,U2,7,12V*%
%TO.N,+7.4V*%
X147214578Y-83630352D03*
D18*
%TO.P,U2,8,GND*%
%TO.N,GND*%
X147214578Y-78630352D03*
%TO.P,U2,9,5V*%
%TO.N,unconnected-(U2-5V-Pad9)*%
X147214578Y-73630352D03*
D17*
%TO.P,U2,10,OUT3*%
%TO.N,Net-(J5-Pin_1)*%
X138249156Y-52840971D03*
D18*
%TO.P,U2,11,OUT4*%
%TO.N,Net-(J5-Pin_2)*%
X133249156Y-52840971D03*
D17*
%TO.P,U2,12,OUT2*%
%TO.N,Net-(J4-Pin_2)*%
X138221656Y-90000000D03*
D18*
%TO.P,U2,13,OUT1*%
%TO.N,Net-(J4-Pin_1)*%
X133221656Y-90000000D03*
%TD*%
D21*
%TO.P,U1,1,3V3*%
%TO.N,Net-(U1-3V3-Pad1)*%
X155730000Y-67060000D03*
D22*
%TO.P,U1,2,5V*%
%TO.N,+5V*%
X158270000Y-67060000D03*
%TO.P,U1,3,GPIO2/SDA1*%
%TO.N,IN3 1*%
X155730000Y-69600000D03*
%TO.P,U1,4,5V*%
%TO.N,+5V*%
X158270000Y-69600000D03*
%TO.P,U1,5,GPIO3/SCL1*%
%TO.N,IN2 1*%
X155730000Y-72140000D03*
%TO.P,U1,6,GND*%
%TO.N,GND*%
X158270000Y-72140000D03*
%TO.P,U1,7,GPIO4/GPIO_GCKL*%
%TO.N,IN1 1*%
X155730000Y-74680000D03*
%TO.P,U1,8,GPIO14/TXD0*%
%TO.N,unconnected-(U1-GPIO14{slash}TXD0-Pad8)*%
X158270000Y-74680000D03*
%TO.P,U1,9,GND*%
%TO.N,GND*%
X155730000Y-77220000D03*
%TO.P,U1,10,GPIO15/RXD0*%
%TO.N,IN4 1*%
X158270000Y-77220000D03*
%TO.P,U1,11,GPIO17/GPIO_GEN0*%
%TO.N,SIG A 2*%
X155730000Y-79760000D03*
%TO.P,U1,12,GPIO18/GPIO_GEN1*%
%TO.N,PWM3*%
X158270000Y-79760000D03*
%TO.P,U1,13,GPIO27/GPIO_GEN2*%
%TO.N,SIG B 2*%
X155730000Y-82300000D03*
%TO.P,U1,14,GND*%
%TO.N,GND*%
X158270000Y-82300000D03*
%TO.P,U1,15,GPIO22/GPIO_GEN3*%
%TO.N,SIG A 1*%
X155730000Y-84840000D03*
%TO.P,U1,16,GPIO23/GPIO_GEN4*%
%TO.N,unconnected-(U1-GPIO23{slash}GPIO_GEN4-Pad16)*%
X158270000Y-84840000D03*
%TO.P,U1,17,3V3*%
%TO.N,Net-(U1-3V3-Pad1)*%
X155730000Y-87380000D03*
%TO.P,U1,18,GPIO24/GPIO_GEN5*%
%TO.N,unconnected-(U1-GPIO24{slash}GPIO_GEN5-Pad18)*%
X158270000Y-87380000D03*
%TO.P,U1,19,GPIO10/SPI_MOSI*%
%TO.N,SIG B 1*%
X155730000Y-89920000D03*
%TO.P,U1,20,GND*%
%TO.N,GND*%
X158270000Y-89920000D03*
%TO.P,U1,21,GPIO9/SPI_MISO*%
%TO.N,SIG B 4*%
X155730000Y-92460000D03*
%TO.P,U1,22,GPIO25/GPIO_GEN6*%
%TO.N,unconnected-(U1-GPIO25{slash}GPIO_GEN6-Pad22)*%
X158270000Y-92460000D03*
%TO.P,U1,23,GPIO11/SPI_SCLK*%
%TO.N,SIG A 4*%
X155730000Y-95000000D03*
%TO.P,U1,24,GPIO8/~{SPI_CE0}*%
%TO.N,unconnected-(U1-GPIO8{slash}~{SPI_CE0}-Pad24)*%
X158270000Y-95000000D03*
%TO.P,U1,25,GND*%
%TO.N,GND*%
X155730000Y-97540000D03*
%TO.P,U1,26,GPIO7/~{SPI_CE1}*%
%TO.N,unconnected-(U1-GPIO7{slash}~{SPI_CE1}-Pad26)*%
X158270000Y-97540000D03*
%TO.P,U1,27,ID_SD*%
%TO.N,SIG B 3*%
X155730000Y-100080000D03*
%TO.P,U1,28,ID_SC*%
%TO.N,unconnected-(U1-ID_SC-Pad28)*%
X158270000Y-100080000D03*
%TO.P,U1,29,GPIO5*%
%TO.N,SIG A 3*%
X155730000Y-102620000D03*
%TO.P,U1,30,GND*%
%TO.N,GND*%
X158270000Y-102620000D03*
%TO.P,U1,31,GPIO6*%
%TO.N,IN4 2*%
X155730000Y-105160000D03*
%TO.P,U1,32,GPIO12*%
%TO.N,PWM0*%
X158270000Y-105160000D03*
%TO.P,U1,33,GPIO13*%
%TO.N,PWM1*%
X155730000Y-107700000D03*
%TO.P,U1,34,GND*%
%TO.N,GND*%
X158270000Y-107700000D03*
%TO.P,U1,35,GPIO19*%
%TO.N,PWM2*%
X155730000Y-110240000D03*
%TO.P,U1,36,GPIO16*%
%TO.N,unconnected-(U1-GPIO16-Pad36)*%
X158270000Y-110240000D03*
%TO.P,U1,37,GPIO26*%
%TO.N,IN3 2*%
X155730000Y-112780000D03*
%TO.P,U1,38,GPIO20*%
%TO.N,IN1 2*%
X158270000Y-112780000D03*
%TO.P,U1,39,GND*%
%TO.N,GND*%
X155730000Y-115320000D03*
%TO.P,U1,40,GPIO21*%
%TO.N,IN2 2*%
X158270000Y-115320000D03*
D23*
%TO.P,U1,S1,SHIELD*%
%TO.N,Net-(U1-SHIELD-PadS1)*%
X157000000Y-62190000D03*
%TO.P,U1,S2,SHIELD*%
X157000000Y-120190000D03*
%TO.P,U1,S3,SHIELD*%
X108000000Y-120190000D03*
%TO.P,U1,S4,SHIELD*%
X108000000Y-62190000D03*
%TD*%
D24*
%TO.P,J2,1,Pin_1*%
%TO.N,+5V*%
X98000000Y-86250000D03*
D20*
%TO.P,J2,2,Pin_2*%
%TO.N,GND*%
X102800000Y-86250000D03*
%TD*%
D25*
%TO.N,PWM3*%
X162500000Y-75530000D02*
X158270000Y-79760000D01*
X149124578Y-57108352D02*
X149974578Y-56258352D01*
X149974578Y-56258352D02*
X158846527Y-56258352D01*
X162500000Y-59911825D02*
X162500000Y-75530000D01*
X158846527Y-56258352D02*
X162500000Y-59911825D01*
%TO.N,PWM0*%
X162000000Y-108890000D02*
X158270000Y-105160000D01*
X159000000Y-125000000D02*
X162000000Y-122000000D01*
X162000000Y-122000000D02*
X162000000Y-108890000D01*
X149124578Y-122467381D02*
X151657197Y-125000000D01*
X151657197Y-125000000D02*
X159000000Y-125000000D01*
%TO.N,PWM2*%
X149124578Y-109767381D02*
X155257381Y-109767381D01*
X155257381Y-109767381D02*
X155730000Y-110240000D01*
%TO.N,PWM1*%
X152034570Y-72718344D02*
X152034570Y-104004570D01*
X149124578Y-69808352D02*
X152034570Y-72718344D01*
X152034570Y-104004570D02*
X155730000Y-107700000D01*
D26*
%TO.N,+7.4V*%
X111000000Y-102500000D02*
X119000000Y-102500000D01*
X147214578Y-85785422D02*
X147214578Y-83630352D01*
X120420000Y-99500000D02*
X120420000Y-100920000D01*
X120420000Y-101080000D02*
X119000000Y-102500000D01*
X136960000Y-100702081D02*
X136960000Y-99500000D01*
X120420000Y-100920000D02*
X122000000Y-102500000D01*
X102900000Y-110600000D02*
X111000000Y-102500000D01*
X120420000Y-99500000D02*
X120420000Y-101080000D01*
X136960000Y-95500000D02*
X136960000Y-95091364D01*
X139416364Y-92635000D02*
X140365000Y-92635000D01*
X102900000Y-122250000D02*
X102900000Y-110600000D01*
X119000000Y-102500000D02*
X122000000Y-102500000D01*
X136960000Y-95091364D02*
X139416364Y-92635000D01*
X135162081Y-102500000D02*
X136960000Y-100702081D01*
X140365000Y-92635000D02*
X147214578Y-85785422D01*
X122000000Y-102500000D02*
X135162081Y-102500000D01*
D25*
%TO.N,IN4 1*%
X161100000Y-74390000D02*
X161100000Y-60491724D01*
X151885011Y-58090000D02*
X150326659Y-59648352D01*
X161100000Y-60491724D02*
X158698276Y-58090000D01*
X158698276Y-58090000D02*
X151885011Y-58090000D01*
X150326659Y-59648352D02*
X149124578Y-59648352D01*
X158270000Y-77220000D02*
X161100000Y-74390000D01*
%TD*%
%TA.AperFunction,Conductor*%
%TO.N,GND*%
G36*
X154459762Y-110787566D02*
G01*
X154505517Y-110840370D01*
X154506271Y-110842054D01*
X154527610Y-110890701D01*
X154563809Y-110946107D01*
X154648307Y-111075442D01*
X154651111Y-111079733D01*
X154804041Y-111245860D01*
X154804044Y-111245862D01*
X154804047Y-111245865D01*
X154982220Y-111384543D01*
X154982235Y-111384553D01*
X155012526Y-111400946D01*
X155062117Y-111450166D01*
X155077224Y-111518382D01*
X155053053Y-111583938D01*
X155012526Y-111619054D01*
X154982235Y-111635446D01*
X154982220Y-111635456D01*
X154804047Y-111774134D01*
X154804044Y-111774137D01*
X154651108Y-111940270D01*
X154527608Y-112129302D01*
X154436907Y-112336079D01*
X154381476Y-112554970D01*
X154381474Y-112554978D01*
X154362830Y-112779993D01*
X154362830Y-112780006D01*
X154381474Y-113005021D01*
X154381476Y-113005029D01*
X154436907Y-113223920D01*
X154504584Y-113378207D01*
X154527610Y-113430701D01*
X154651111Y-113619733D01*
X154804041Y-113785860D01*
X154804044Y-113785862D01*
X154804047Y-113785865D01*
X154982220Y-113924543D01*
X154982226Y-113924547D01*
X154982229Y-113924549D01*
X155180814Y-114032018D01*
X155394380Y-114105335D01*
X155617100Y-114142500D01*
X155842900Y-114142500D01*
X156065620Y-114105335D01*
X156279186Y-114032018D01*
X156477771Y-113924549D01*
X156655959Y-113785860D01*
X156808889Y-113619733D01*
X156896191Y-113486106D01*
X156949338Y-113440751D01*
X157018569Y-113431327D01*
X157081905Y-113460829D01*
X157103807Y-113486105D01*
X157191111Y-113619733D01*
X157344041Y-113785860D01*
X157344044Y-113785862D01*
X157344047Y-113785865D01*
X157522220Y-113924543D01*
X157522235Y-113924553D01*
X157552526Y-113940946D01*
X157602117Y-113990166D01*
X157617224Y-114058382D01*
X157593053Y-114123938D01*
X157552526Y-114159054D01*
X157522235Y-114175446D01*
X157522220Y-114175456D01*
X157344047Y-114314134D01*
X157344044Y-114314137D01*
X157191108Y-114480270D01*
X157067608Y-114669302D01*
X156976907Y-114876079D01*
X156921476Y-115094970D01*
X156921474Y-115094978D01*
X156902830Y-115319993D01*
X156902830Y-115320006D01*
X156921474Y-115545021D01*
X156921476Y-115545029D01*
X156976907Y-115763920D01*
X157044584Y-115918207D01*
X157067610Y-115970701D01*
X157191111Y-116159733D01*
X157308891Y-116287677D01*
X157339813Y-116350331D01*
X157331953Y-116419757D01*
X157287805Y-116473912D01*
X157221388Y-116495603D01*
X157211171Y-116495489D01*
X157000001Y-116484422D01*
X156999999Y-116484422D01*
X156612660Y-116504722D01*
X156229572Y-116565397D01*
X156229570Y-116565397D01*
X155854905Y-116665788D01*
X155492802Y-116804787D01*
X155147206Y-116980877D01*
X154821917Y-117192122D01*
X154520488Y-117436215D01*
X154520480Y-117436222D01*
X154246222Y-117710480D01*
X154246215Y-117710488D01*
X154002122Y-118011917D01*
X153790877Y-118337206D01*
X153614787Y-118682802D01*
X153475788Y-119044905D01*
X153375397Y-119419570D01*
X153375397Y-119419572D01*
X153314722Y-119802660D01*
X153294422Y-120189999D01*
X153294422Y-120190000D01*
X153314722Y-120577339D01*
X153354578Y-120828980D01*
X153375398Y-120960433D01*
X153470280Y-121314540D01*
X153475788Y-121335094D01*
X153614787Y-121697197D01*
X153790877Y-122042793D01*
X154002122Y-122368082D01*
X154140755Y-122539279D01*
X154246219Y-122669516D01*
X154520484Y-122943781D01*
X154520488Y-122943784D01*
X154821917Y-123187877D01*
X155147206Y-123399122D01*
X155147211Y-123399125D01*
X155492806Y-123575214D01*
X155854913Y-123714214D01*
X156009838Y-123755726D01*
X156069497Y-123792090D01*
X156100026Y-123854937D01*
X156091731Y-123924313D01*
X156047246Y-123978190D01*
X155980694Y-123999465D01*
X155977743Y-123999500D01*
X152122979Y-123999500D01*
X152055940Y-123979815D01*
X152035298Y-123963181D01*
X150611396Y-122539279D01*
X150577911Y-122477956D01*
X150575077Y-122451598D01*
X150575077Y-121578017D01*
X150559624Y-121460627D01*
X150559622Y-121460620D01*
X150559622Y-121460619D01*
X150499114Y-121314540D01*
X150402860Y-121189099D01*
X150277419Y-121092845D01*
X150277418Y-121092844D01*
X150277416Y-121092843D01*
X150257400Y-121084552D01*
X150202997Y-121040710D01*
X150180934Y-120974415D01*
X150198215Y-120906716D01*
X150213620Y-120886015D01*
X150273149Y-120821350D01*
X150404627Y-120620109D01*
X150501188Y-120399972D01*
X150560198Y-120166944D01*
X150580049Y-119927381D01*
X150560198Y-119687818D01*
X150501188Y-119454790D01*
X150404627Y-119234653D01*
X150273149Y-119033412D01*
X150110342Y-118856556D01*
X149980163Y-118755233D01*
X149939351Y-118698524D01*
X149935676Y-118628751D01*
X149970308Y-118568068D01*
X149980163Y-118559528D01*
X150110342Y-118458206D01*
X150273149Y-118281350D01*
X150404627Y-118080109D01*
X150501188Y-117859972D01*
X150560198Y-117626944D01*
X150576002Y-117436219D01*
X150580049Y-117387386D01*
X150580049Y-117387375D01*
X150560198Y-117147821D01*
X150560198Y-117147818D01*
X150501188Y-116914790D01*
X150404627Y-116694653D01*
X150385768Y-116665788D01*
X150273150Y-116493414D01*
X150273149Y-116493412D01*
X150110342Y-116316556D01*
X149980163Y-116215233D01*
X149939351Y-116158524D01*
X149935676Y-116088751D01*
X149970308Y-116028068D01*
X149980163Y-116019528D01*
X150110342Y-115918206D01*
X150273149Y-115741350D01*
X150404627Y-115540109D01*
X150501188Y-115319972D01*
X150560198Y-115086944D01*
X150580049Y-114847381D01*
X150560198Y-114607818D01*
X150501188Y-114374790D01*
X150404627Y-114154653D01*
X150375346Y-114109836D01*
X150297162Y-113990166D01*
X150273149Y-113953412D01*
X150110342Y-113776556D01*
X149980163Y-113675233D01*
X149939351Y-113618524D01*
X149935676Y-113548751D01*
X149970308Y-113488068D01*
X149980163Y-113479528D01*
X150110342Y-113378206D01*
X150273149Y-113201350D01*
X150404627Y-113000109D01*
X150501188Y-112779972D01*
X150560198Y-112546944D01*
X150580049Y-112307381D01*
X150560198Y-112067818D01*
X150501188Y-111834790D01*
X150404627Y-111614653D01*
X150375346Y-111569836D01*
X150297162Y-111450166D01*
X150273149Y-111413412D01*
X150110342Y-111236556D01*
X149980163Y-111135233D01*
X149939351Y-111078524D01*
X149935676Y-111008751D01*
X149970308Y-110948068D01*
X149980163Y-110939528D01*
X150110342Y-110838206D01*
X150138243Y-110807898D01*
X150198130Y-110771907D01*
X150229472Y-110767881D01*
X154392723Y-110767881D01*
X154459762Y-110787566D01*
G37*
%TD.AperFunction*%
%TA.AperFunction,Conductor*%
G36*
X157081905Y-105840829D02*
G01*
X157103807Y-105866105D01*
X157191111Y-105999733D01*
X157344041Y-106165860D01*
X157344044Y-106165862D01*
X157344047Y-106165865D01*
X157522220Y-106304543D01*
X157522226Y-106304547D01*
X157522229Y-106304549D01*
X157720814Y-106412018D01*
X157934380Y-106485335D01*
X158157100Y-106522500D01*
X158166218Y-106522500D01*
X158233257Y-106542185D01*
X158253899Y-106558819D01*
X160963181Y-109268101D01*
X160996666Y-109329424D01*
X160999500Y-109355782D01*
X160999500Y-121534217D01*
X160979815Y-121601256D01*
X160963181Y-121621898D01*
X160416616Y-122168462D01*
X160355293Y-122201947D01*
X160285601Y-122196963D01*
X160229668Y-122155091D01*
X160205251Y-122089627D01*
X160218449Y-122024488D01*
X160385214Y-121697194D01*
X160524214Y-121335087D01*
X160624602Y-120960433D01*
X160685278Y-120577338D01*
X160705578Y-120190000D01*
X160685278Y-119802662D01*
X160624602Y-119419567D01*
X160524214Y-119044913D01*
X160385214Y-118682806D01*
X160209125Y-118337211D01*
X160172849Y-118281351D01*
X159997877Y-118011917D01*
X159753784Y-117710488D01*
X159753781Y-117710484D01*
X159479516Y-117436219D01*
X159178084Y-117192124D01*
X159178082Y-117192122D01*
X158852793Y-116980877D01*
X158812215Y-116960202D01*
X158620465Y-116862500D01*
X158569670Y-116814527D01*
X158552875Y-116746706D01*
X158575412Y-116680571D01*
X158630127Y-116637119D01*
X158636498Y-116634735D01*
X158729540Y-116602793D01*
X158819186Y-116572018D01*
X159017771Y-116464549D01*
X159195959Y-116325860D01*
X159348889Y-116159733D01*
X159472390Y-115970701D01*
X159563093Y-115763919D01*
X159618524Y-115545029D01*
X159637170Y-115320000D01*
X159637170Y-115319993D01*
X159618525Y-115094978D01*
X159618524Y-115094975D01*
X159618524Y-115094971D01*
X159563093Y-114876081D01*
X159472390Y-114669299D01*
X159348889Y-114480267D01*
X159195959Y-114314140D01*
X159195954Y-114314136D01*
X159195952Y-114314134D01*
X159017779Y-114175456D01*
X159017768Y-114175449D01*
X158987474Y-114159055D01*
X158937883Y-114109836D01*
X158922775Y-114041619D01*
X158946945Y-113976063D01*
X158987474Y-113940945D01*
X158990021Y-113939566D01*
X159017771Y-113924549D01*
X159195959Y-113785860D01*
X159348889Y-113619733D01*
X159472390Y-113430701D01*
X159563093Y-113223919D01*
X159618524Y-113005029D01*
X159637170Y-112780000D01*
X159637170Y-112779993D01*
X159618525Y-112554978D01*
X159618524Y-112554975D01*
X159618524Y-112554971D01*
X159563093Y-112336081D01*
X159472390Y-112129299D01*
X159348889Y-111940267D01*
X159195959Y-111774140D01*
X159195954Y-111774136D01*
X159195952Y-111774134D01*
X159017779Y-111635456D01*
X159017768Y-111635449D01*
X158987474Y-111619055D01*
X158937883Y-111569836D01*
X158922775Y-111501619D01*
X158946945Y-111436063D01*
X158987474Y-111400945D01*
X158990021Y-111399566D01*
X159017771Y-111384549D01*
X159195959Y-111245860D01*
X159348889Y-111079733D01*
X159472390Y-110890701D01*
X159563093Y-110683919D01*
X159618524Y-110465029D01*
X159624040Y-110398465D01*
X159637170Y-110240006D01*
X159637170Y-110239993D01*
X159618525Y-110014978D01*
X159618524Y-110014975D01*
X159618524Y-110014971D01*
X159563093Y-109796081D01*
X159472390Y-109589299D01*
X159348889Y-109400267D01*
X159195959Y-109234140D01*
X159195954Y-109234136D01*
X159195952Y-109234134D01*
X159017779Y-109095456D01*
X159017773Y-109095452D01*
X158819187Y-108987982D01*
X158819181Y-108987980D01*
X158605622Y-108914665D01*
X158382900Y-108877500D01*
X158157100Y-108877500D01*
X157934377Y-108914665D01*
X157720818Y-108987980D01*
X157720812Y-108987982D01*
X157522226Y-109095452D01*
X157522220Y-109095456D01*
X157344047Y-109234134D01*
X157344044Y-109234137D01*
X157344041Y-109234139D01*
X157344041Y-109234140D01*
X157232063Y-109355782D01*
X157191105Y-109400274D01*
X157103808Y-109533892D01*
X157050662Y-109579248D01*
X156981431Y-109588672D01*
X156918095Y-109559170D01*
X156896192Y-109533892D01*
X156808894Y-109400274D01*
X156808892Y-109400272D01*
X156808889Y-109400267D01*
X156655959Y-109234140D01*
X156655954Y-109234136D01*
X156655952Y-109234134D01*
X156477779Y-109095456D01*
X156477768Y-109095449D01*
X156447474Y-109079055D01*
X156397883Y-109029836D01*
X156382775Y-108961619D01*
X156406945Y-108896063D01*
X156447474Y-108860945D01*
X156450021Y-108859566D01*
X156477771Y-108844549D01*
X156655959Y-108705860D01*
X156808889Y-108539733D01*
X156932390Y-108350701D01*
X157023093Y-108143919D01*
X157078524Y-107925029D01*
X157078525Y-107925021D01*
X157097170Y-107700006D01*
X157097170Y-107699993D01*
X157078525Y-107474978D01*
X157078524Y-107474975D01*
X157078524Y-107474971D01*
X157023093Y-107256081D01*
X156932390Y-107049299D01*
X156808889Y-106860267D01*
X156655959Y-106694140D01*
X156655954Y-106694136D01*
X156655952Y-106694134D01*
X156477779Y-106555456D01*
X156477768Y-106555449D01*
X156447474Y-106539055D01*
X156397883Y-106489836D01*
X156382775Y-106421619D01*
X156406945Y-106356063D01*
X156447474Y-106320945D01*
X156450021Y-106319566D01*
X156477771Y-106304549D01*
X156655959Y-106165860D01*
X156808889Y-105999733D01*
X156896191Y-105866106D01*
X156949338Y-105820751D01*
X157018569Y-105811327D01*
X157081905Y-105840829D01*
G37*
%TD.AperFunction*%
%TA.AperFunction,Conductor*%
G36*
X154664285Y-59110185D02*
G01*
X154710040Y-59162989D01*
X154719984Y-59232147D01*
X154690959Y-59295703D01*
X154675282Y-59310866D01*
X154520488Y-59436215D01*
X154520480Y-59436222D01*
X154246222Y-59710480D01*
X154246215Y-59710488D01*
X154002122Y-60011917D01*
X153790877Y-60337206D01*
X153614787Y-60682802D01*
X153475788Y-61044905D01*
X153375397Y-61419570D01*
X153375397Y-61419572D01*
X153314722Y-61802660D01*
X153294422Y-62189999D01*
X153294422Y-62190000D01*
X153314722Y-62577339D01*
X153375397Y-62960427D01*
X153375397Y-62960429D01*
X153475788Y-63335094D01*
X153614787Y-63697197D01*
X153790877Y-64042793D01*
X154002122Y-64368082D01*
X154120866Y-64514718D01*
X154246219Y-64669516D01*
X154520484Y-64943781D01*
X154520488Y-64943784D01*
X154821917Y-65187877D01*
X155147208Y-65399124D01*
X155147211Y-65399125D01*
X155272602Y-65463015D01*
X155323399Y-65510989D01*
X155340194Y-65578810D01*
X155317657Y-65644945D01*
X155262942Y-65688397D01*
X155216308Y-65697500D01*
X154928636Y-65697500D01*
X154811246Y-65712953D01*
X154811237Y-65712956D01*
X154665160Y-65773463D01*
X154539718Y-65869718D01*
X154443463Y-65995160D01*
X154382956Y-66141237D01*
X154382955Y-66141239D01*
X154367501Y-66258629D01*
X154367500Y-66258645D01*
X154367500Y-67861363D01*
X154382953Y-67978753D01*
X154382956Y-67978762D01*
X154443464Y-68124841D01*
X154539718Y-68250282D01*
X154665159Y-68346536D01*
X154767075Y-68388751D01*
X154821478Y-68432590D01*
X154843543Y-68498884D01*
X154826264Y-68566584D01*
X154807215Y-68590090D01*
X154807515Y-68590367D01*
X154804043Y-68594138D01*
X154804041Y-68594140D01*
X154689834Y-68718202D01*
X154651108Y-68760270D01*
X154527608Y-68949302D01*
X154436907Y-69156079D01*
X154381476Y-69374970D01*
X154381474Y-69374978D01*
X154362830Y-69599993D01*
X154362830Y-69600006D01*
X154381474Y-69825021D01*
X154381476Y-69825029D01*
X154436907Y-70043920D01*
X154527608Y-70250697D01*
X154527610Y-70250701D01*
X154651111Y-70439733D01*
X154804041Y-70605860D01*
X154804044Y-70605862D01*
X154804047Y-70605865D01*
X154982220Y-70744543D01*
X154982235Y-70744553D01*
X155012526Y-70760946D01*
X155062117Y-70810166D01*
X155077224Y-70878382D01*
X155053053Y-70943938D01*
X155012526Y-70979054D01*
X154982235Y-70995446D01*
X154982220Y-70995456D01*
X154804047Y-71134134D01*
X154804044Y-71134137D01*
X154651108Y-71300270D01*
X154527608Y-71489302D01*
X154436907Y-71696079D01*
X154381476Y-71914970D01*
X154381474Y-71914978D01*
X154362830Y-72139993D01*
X154362830Y-72140006D01*
X154381474Y-72365021D01*
X154381476Y-72365029D01*
X154436907Y-72583920D01*
X154452647Y-72619803D01*
X154527610Y-72790701D01*
X154651111Y-72979733D01*
X154804041Y-73145860D01*
X154804044Y-73145862D01*
X154804047Y-73145865D01*
X154982220Y-73284543D01*
X154982235Y-73284553D01*
X155012526Y-73300946D01*
X155062117Y-73350166D01*
X155077224Y-73418382D01*
X155053053Y-73483938D01*
X155012526Y-73519054D01*
X154982235Y-73535446D01*
X154982220Y-73535456D01*
X154804047Y-73674134D01*
X154804044Y-73674137D01*
X154651108Y-73840270D01*
X154527608Y-74029302D01*
X154436907Y-74236079D01*
X154381476Y-74454970D01*
X154381474Y-74454978D01*
X154362830Y-74679993D01*
X154362830Y-74680006D01*
X154381474Y-74905021D01*
X154381476Y-74905029D01*
X154436907Y-75123920D01*
X154521855Y-75317581D01*
X154527610Y-75330701D01*
X154651111Y-75519733D01*
X154804041Y-75685860D01*
X154804044Y-75685862D01*
X154804047Y-75685865D01*
X154982220Y-75824543D01*
X154982226Y-75824547D01*
X154982229Y-75824549D01*
X155180814Y-75932018D01*
X155394380Y-76005335D01*
X155617100Y-76042500D01*
X155842900Y-76042500D01*
X156065620Y-76005335D01*
X156279186Y-75932018D01*
X156477771Y-75824549D01*
X156655959Y-75685860D01*
X156808889Y-75519733D01*
X156896191Y-75386106D01*
X156949338Y-75340751D01*
X157018569Y-75331327D01*
X157081905Y-75360829D01*
X157103807Y-75386105D01*
X157191111Y-75519733D01*
X157344041Y-75685860D01*
X157344044Y-75685862D01*
X157344047Y-75685865D01*
X157522220Y-75824543D01*
X157522235Y-75824553D01*
X157552526Y-75840946D01*
X157602117Y-75890166D01*
X157617224Y-75958382D01*
X157593053Y-76023938D01*
X157552526Y-76059054D01*
X157522235Y-76075446D01*
X157522220Y-76075456D01*
X157344047Y-76214134D01*
X157344044Y-76214137D01*
X157191108Y-76380270D01*
X157067608Y-76569302D01*
X156976907Y-76776079D01*
X156921476Y-76994970D01*
X156921474Y-76994978D01*
X156902830Y-77219993D01*
X156902830Y-77220006D01*
X156921474Y-77445021D01*
X156921476Y-77445029D01*
X156976907Y-77663919D01*
X157067610Y-77870701D01*
X157191111Y-78059733D01*
X157344041Y-78225860D01*
X157344044Y-78225862D01*
X157344047Y-78225865D01*
X157522220Y-78364543D01*
X157522235Y-78364553D01*
X157552526Y-78380946D01*
X157602117Y-78430166D01*
X157617224Y-78498382D01*
X157593053Y-78563938D01*
X157552526Y-78599054D01*
X157522235Y-78615446D01*
X157522220Y-78615456D01*
X157344047Y-78754134D01*
X157344044Y-78754137D01*
X157191105Y-78920274D01*
X157103808Y-79053892D01*
X157050662Y-79099248D01*
X156981431Y-79108672D01*
X156918095Y-79079170D01*
X156896192Y-79053892D01*
X156808894Y-78920274D01*
X156808892Y-78920272D01*
X156808889Y-78920267D01*
X156655959Y-78754140D01*
X156655954Y-78754136D01*
X156655952Y-78754134D01*
X156477779Y-78615456D01*
X156477773Y-78615452D01*
X156279187Y-78507982D01*
X156279181Y-78507980D01*
X156065622Y-78434665D01*
X155842900Y-78397500D01*
X155617100Y-78397500D01*
X155394377Y-78434665D01*
X155180818Y-78507980D01*
X155180812Y-78507982D01*
X154982226Y-78615452D01*
X154982220Y-78615456D01*
X154804047Y-78754134D01*
X154804044Y-78754137D01*
X154651108Y-78920270D01*
X154527608Y-79109302D01*
X154436907Y-79316079D01*
X154381476Y-79534970D01*
X154381474Y-79534978D01*
X154362830Y-79759993D01*
X154362830Y-79760006D01*
X154381474Y-79985021D01*
X154381476Y-79985029D01*
X154436907Y-80203920D01*
X154527608Y-80410697D01*
X154527610Y-80410701D01*
X154651111Y-80599733D01*
X154804041Y-80765860D01*
X154804044Y-80765862D01*
X154804047Y-80765865D01*
X154982220Y-80904543D01*
X154982235Y-80904553D01*
X155012526Y-80920946D01*
X155062117Y-80970166D01*
X155077224Y-81038382D01*
X155053053Y-81103938D01*
X155012526Y-81139054D01*
X154982235Y-81155446D01*
X154982220Y-81155456D01*
X154804047Y-81294134D01*
X154804044Y-81294137D01*
X154651108Y-81460270D01*
X154527608Y-81649302D01*
X154436907Y-81856079D01*
X154381476Y-82074970D01*
X154381474Y-82074978D01*
X154362830Y-82299993D01*
X154362830Y-82300006D01*
X154381474Y-82525021D01*
X154381476Y-82525029D01*
X154436907Y-82743919D01*
X154527610Y-82950701D01*
X154651111Y-83139733D01*
X154804041Y-83305860D01*
X154804044Y-83305862D01*
X154804047Y-83305865D01*
X154982220Y-83444543D01*
X154982235Y-83444553D01*
X155012526Y-83460946D01*
X155062117Y-83510166D01*
X155077224Y-83578382D01*
X155053053Y-83643938D01*
X155012526Y-83679054D01*
X154982235Y-83695446D01*
X154982220Y-83695456D01*
X154804047Y-83834134D01*
X154804044Y-83834137D01*
X154651108Y-84000270D01*
X154527608Y-84189302D01*
X154436907Y-84396079D01*
X154381476Y-84614970D01*
X154381474Y-84614978D01*
X154362830Y-84839993D01*
X154362830Y-84840006D01*
X154381474Y-85065021D01*
X154381476Y-85065029D01*
X154436907Y-85283920D01*
X154527608Y-85490697D01*
X154527610Y-85490701D01*
X154547294Y-85520829D01*
X154648535Y-85675791D01*
X154651111Y-85679733D01*
X154804041Y-85845860D01*
X154804044Y-85845862D01*
X154804047Y-85845865D01*
X154982220Y-85984543D01*
X154982235Y-85984553D01*
X155012526Y-86000946D01*
X155062117Y-86050166D01*
X155077224Y-86118382D01*
X155053053Y-86183938D01*
X155012526Y-86219054D01*
X154982235Y-86235446D01*
X154982220Y-86235456D01*
X154804047Y-86374134D01*
X154804044Y-86374137D01*
X154651108Y-86540270D01*
X154527608Y-86729302D01*
X154436907Y-86936079D01*
X154381476Y-87154970D01*
X154381474Y-87154978D01*
X154362830Y-87379993D01*
X154362830Y-87380006D01*
X154381474Y-87605021D01*
X154381476Y-87605029D01*
X154436907Y-87823920D01*
X154527608Y-88030697D01*
X154527610Y-88030701D01*
X154651111Y-88219733D01*
X154804041Y-88385860D01*
X154804044Y-88385862D01*
X154804047Y-88385865D01*
X154982220Y-88524543D01*
X154982235Y-88524553D01*
X155012526Y-88540946D01*
X155062117Y-88590166D01*
X155077224Y-88658382D01*
X155053053Y-88723938D01*
X155012526Y-88759054D01*
X154982235Y-88775446D01*
X154982220Y-88775456D01*
X154804047Y-88914134D01*
X154804044Y-88914137D01*
X154804041Y-88914139D01*
X154804041Y-88914140D01*
X154802619Y-88915685D01*
X154651108Y-89080270D01*
X154527608Y-89269302D01*
X154436907Y-89476079D01*
X154381476Y-89694970D01*
X154381474Y-89694978D01*
X154362830Y-89919993D01*
X154362830Y-89920006D01*
X154381474Y-90145021D01*
X154381476Y-90145029D01*
X154436907Y-90363920D01*
X154525129Y-90565046D01*
X154527610Y-90570701D01*
X154576818Y-90646019D01*
X154638262Y-90740067D01*
X154651111Y-90759733D01*
X154804041Y-90925860D01*
X154804044Y-90925862D01*
X154804047Y-90925865D01*
X154982220Y-91064543D01*
X154982235Y-91064553D01*
X155012526Y-91080946D01*
X155062117Y-91130166D01*
X155077224Y-91198382D01*
X155053053Y-91263938D01*
X155012526Y-91299054D01*
X154982235Y-91315446D01*
X154982220Y-91315456D01*
X154804047Y-91454134D01*
X154804044Y-91454137D01*
X154651108Y-91620270D01*
X154527608Y-91809302D01*
X154436907Y-92016079D01*
X154381476Y-92234970D01*
X154381474Y-92234978D01*
X154362830Y-92459993D01*
X154362830Y-92460006D01*
X154381474Y-92685021D01*
X154381476Y-92685029D01*
X154436907Y-92903920D01*
X154527608Y-93110697D01*
X154527610Y-93110701D01*
X154651111Y-93299733D01*
X154804041Y-93465860D01*
X154804044Y-93465862D01*
X154804047Y-93465865D01*
X154982220Y-93604543D01*
X154982235Y-93604553D01*
X155012526Y-93620946D01*
X155062117Y-93670166D01*
X155077224Y-93738382D01*
X155053053Y-93803938D01*
X155012526Y-93839054D01*
X154982235Y-93855446D01*
X154982220Y-93855456D01*
X154804047Y-93994134D01*
X154804044Y-93994137D01*
X154804041Y-93994139D01*
X154804041Y-93994140D01*
X154738851Y-94064956D01*
X154651108Y-94160270D01*
X154527608Y-94349302D01*
X154436907Y-94556079D01*
X154381476Y-94774970D01*
X154381474Y-94774978D01*
X154362830Y-94999993D01*
X154362830Y-95000006D01*
X154381474Y-95225021D01*
X154381476Y-95225029D01*
X154436907Y-95443920D01*
X154527608Y-95650697D01*
X154527610Y-95650701D01*
X154651111Y-95839733D01*
X154804041Y-96005860D01*
X154804044Y-96005862D01*
X154804047Y-96005865D01*
X154982220Y-96144543D01*
X154982226Y-96144547D01*
X154982229Y-96144549D01*
X155180814Y-96252018D01*
X155394380Y-96325335D01*
X155617100Y-96362500D01*
X155842900Y-96362500D01*
X156065620Y-96325335D01*
X156279186Y-96252018D01*
X156477771Y-96144549D01*
X156655959Y-96005860D01*
X156808889Y-95839733D01*
X156896191Y-95706106D01*
X156949338Y-95660751D01*
X157018569Y-95651327D01*
X157081905Y-95680829D01*
X157103807Y-95706105D01*
X157191111Y-95839733D01*
X157344041Y-96005860D01*
X157344044Y-96005862D01*
X157344047Y-96005865D01*
X157522220Y-96144543D01*
X157522235Y-96144553D01*
X157552526Y-96160946D01*
X157602117Y-96210166D01*
X157617224Y-96278382D01*
X157593053Y-96343938D01*
X157552526Y-96379054D01*
X157522235Y-96395446D01*
X157522220Y-96395456D01*
X157344047Y-96534134D01*
X157344044Y-96534137D01*
X157344041Y-96534139D01*
X157344041Y-96534140D01*
X157310266Y-96570830D01*
X157191108Y-96700270D01*
X157067608Y-96889302D01*
X156976907Y-97096079D01*
X156921476Y-97314970D01*
X156921474Y-97314978D01*
X156902830Y-97539993D01*
X156902830Y-97540006D01*
X156921474Y-97765021D01*
X156921476Y-97765029D01*
X156976907Y-97983920D01*
X157067608Y-98190697D01*
X157067610Y-98190701D01*
X157191111Y-98379733D01*
X157344041Y-98545860D01*
X157344044Y-98545862D01*
X157344047Y-98545865D01*
X157522220Y-98684543D01*
X157522235Y-98684553D01*
X157552526Y-98700946D01*
X157602117Y-98750166D01*
X157617224Y-98818382D01*
X157593053Y-98883938D01*
X157552526Y-98919054D01*
X157522235Y-98935446D01*
X157522220Y-98935456D01*
X157344047Y-99074134D01*
X157344044Y-99074137D01*
X157191105Y-99240274D01*
X157103808Y-99373892D01*
X157050662Y-99419248D01*
X156981431Y-99428672D01*
X156918095Y-99399170D01*
X156896192Y-99373892D01*
X156808894Y-99240274D01*
X156808892Y-99240272D01*
X156808889Y-99240267D01*
X156655959Y-99074140D01*
X156655954Y-99074136D01*
X156655952Y-99074134D01*
X156477779Y-98935456D01*
X156477773Y-98935452D01*
X156279187Y-98827982D01*
X156279181Y-98827980D01*
X156065622Y-98754665D01*
X155842900Y-98717500D01*
X155617100Y-98717500D01*
X155394377Y-98754665D01*
X155180818Y-98827980D01*
X155180812Y-98827982D01*
X154982226Y-98935452D01*
X154982220Y-98935456D01*
X154804047Y-99074134D01*
X154804044Y-99074137D01*
X154651108Y-99240270D01*
X154527608Y-99429302D01*
X154436907Y-99636079D01*
X154381476Y-99854970D01*
X154381474Y-99854978D01*
X154362830Y-100079993D01*
X154362830Y-100080006D01*
X154381474Y-100305021D01*
X154381476Y-100305029D01*
X154436907Y-100523920D01*
X154493457Y-100652840D01*
X154527610Y-100730701D01*
X154563809Y-100786107D01*
X154645361Y-100910933D01*
X154651111Y-100919733D01*
X154804041Y-101085860D01*
X154804044Y-101085862D01*
X154804047Y-101085865D01*
X154982220Y-101224543D01*
X154982235Y-101224553D01*
X155012526Y-101240946D01*
X155062117Y-101290166D01*
X155077224Y-101358382D01*
X155053053Y-101423938D01*
X155012526Y-101459054D01*
X154982235Y-101475446D01*
X154982220Y-101475456D01*
X154804047Y-101614134D01*
X154804044Y-101614137D01*
X154651108Y-101780270D01*
X154527608Y-101969302D01*
X154436907Y-102176079D01*
X154381476Y-102394970D01*
X154381474Y-102394978D01*
X154362830Y-102619993D01*
X154362830Y-102620006D01*
X154381474Y-102845021D01*
X154381476Y-102845029D01*
X154436907Y-103063919D01*
X154527610Y-103270701D01*
X154651111Y-103459733D01*
X154804041Y-103625860D01*
X154804044Y-103625862D01*
X154804047Y-103625865D01*
X154982220Y-103764543D01*
X154982235Y-103764553D01*
X155012526Y-103780946D01*
X155062117Y-103830166D01*
X155077224Y-103898382D01*
X155053053Y-103963938D01*
X155012526Y-103999054D01*
X154982235Y-104015446D01*
X154982220Y-104015456D01*
X154804047Y-104154134D01*
X154804044Y-104154137D01*
X154651108Y-104320270D01*
X154527608Y-104509302D01*
X154436905Y-104716084D01*
X154436905Y-104716085D01*
X154434728Y-104724682D01*
X154399189Y-104784838D01*
X154336768Y-104816229D01*
X154267285Y-104808891D01*
X154226842Y-104781922D01*
X153071389Y-103626469D01*
X153037904Y-103565146D01*
X153035070Y-103538788D01*
X153035070Y-72619800D01*
X152996622Y-72426514D01*
X152996621Y-72426513D01*
X152996621Y-72426509D01*
X152996619Y-72426504D01*
X152921205Y-72244436D01*
X152921198Y-72244423D01*
X152811709Y-72080562D01*
X152811706Y-72080558D01*
X152669256Y-71938108D01*
X152669225Y-71938079D01*
X150611396Y-69880250D01*
X150577911Y-69818927D01*
X150575077Y-69792569D01*
X150575077Y-68918988D01*
X150559624Y-68801598D01*
X150559622Y-68801591D01*
X150559622Y-68801590D01*
X150499114Y-68655511D01*
X150402860Y-68530070D01*
X150277419Y-68433816D01*
X150277418Y-68433815D01*
X150277416Y-68433814D01*
X150257400Y-68425523D01*
X150202997Y-68381681D01*
X150180934Y-68315386D01*
X150198215Y-68247687D01*
X150213620Y-68226986D01*
X150273149Y-68162321D01*
X150404627Y-67961080D01*
X150501188Y-67740943D01*
X150560198Y-67507915D01*
X150580049Y-67268352D01*
X150560198Y-67028789D01*
X150501188Y-66795761D01*
X150404627Y-66575624D01*
X150273149Y-66374383D01*
X150110342Y-66197527D01*
X149980163Y-66096204D01*
X149939351Y-66039495D01*
X149935676Y-65969722D01*
X149970308Y-65909039D01*
X149980163Y-65900499D01*
X150110342Y-65799177D01*
X150273149Y-65622321D01*
X150404627Y-65421080D01*
X150501188Y-65200943D01*
X150560198Y-64967915D01*
X150580049Y-64728352D01*
X150575173Y-64669511D01*
X150566815Y-64568643D01*
X150560198Y-64488789D01*
X150501188Y-64255761D01*
X150404627Y-64035624D01*
X150273149Y-63834383D01*
X150110342Y-63657527D01*
X149980163Y-63556204D01*
X149939351Y-63499495D01*
X149935676Y-63429722D01*
X149970308Y-63369039D01*
X149980163Y-63360499D01*
X150110342Y-63259177D01*
X150273149Y-63082321D01*
X150404627Y-62881080D01*
X150501188Y-62660943D01*
X150560198Y-62427915D01*
X150569020Y-62321442D01*
X150580049Y-62188357D01*
X150580049Y-62188346D01*
X150560198Y-61948792D01*
X150560198Y-61948789D01*
X150501188Y-61715761D01*
X150404627Y-61495624D01*
X150354939Y-61419572D01*
X150273150Y-61294385D01*
X150273149Y-61294383D01*
X150110342Y-61117527D01*
X149980163Y-61016204D01*
X149939351Y-60959495D01*
X149935676Y-60889722D01*
X149970308Y-60829039D01*
X149980163Y-60820499D01*
X150110342Y-60719177D01*
X150138243Y-60688869D01*
X150198130Y-60652878D01*
X150229472Y-60648852D01*
X150425201Y-60648852D01*
X150444529Y-60645007D01*
X150521847Y-60629627D01*
X150618495Y-60610403D01*
X150671824Y-60588313D01*
X150800573Y-60534984D01*
X150964441Y-60425491D01*
X151103798Y-60286134D01*
X151103798Y-60286132D01*
X151114006Y-60275925D01*
X151114007Y-60275922D01*
X152263113Y-59126819D01*
X152324436Y-59093334D01*
X152350794Y-59090500D01*
X154597246Y-59090500D01*
X154664285Y-59110185D01*
G37*
%TD.AperFunction*%
%TA.AperFunction,Conductor*%
G36*
X160066456Y-64508474D02*
G01*
X160097582Y-64571028D01*
X160099500Y-64592754D01*
X160099500Y-73924217D01*
X160079815Y-73991256D01*
X160063181Y-74011898D01*
X159773157Y-74301921D01*
X159711834Y-74335406D01*
X159642142Y-74330422D01*
X159586209Y-74288550D01*
X159565269Y-74244675D01*
X159563093Y-74236080D01*
X159472391Y-74029302D01*
X159472390Y-74029299D01*
X159348889Y-73840267D01*
X159195959Y-73674140D01*
X159195954Y-73674136D01*
X159195952Y-73674134D01*
X159017779Y-73535456D01*
X159017773Y-73535452D01*
X158819187Y-73427982D01*
X158819181Y-73427980D01*
X158605622Y-73354665D01*
X158382900Y-73317500D01*
X158157100Y-73317500D01*
X157934377Y-73354665D01*
X157720818Y-73427980D01*
X157720812Y-73427982D01*
X157522226Y-73535452D01*
X157522220Y-73535456D01*
X157344047Y-73674134D01*
X157344044Y-73674137D01*
X157191105Y-73840274D01*
X157103808Y-73973892D01*
X157050662Y-74019248D01*
X156981431Y-74028672D01*
X156918095Y-73999170D01*
X156896192Y-73973892D01*
X156808894Y-73840274D01*
X156808892Y-73840272D01*
X156808889Y-73840267D01*
X156655959Y-73674140D01*
X156655954Y-73674136D01*
X156655952Y-73674134D01*
X156477779Y-73535456D01*
X156477768Y-73535449D01*
X156447474Y-73519055D01*
X156397883Y-73469836D01*
X156382775Y-73401619D01*
X156406945Y-73336063D01*
X156447474Y-73300945D01*
X156450021Y-73299566D01*
X156477771Y-73284549D01*
X156655959Y-73145860D01*
X156808889Y-72979733D01*
X156932390Y-72790701D01*
X157023093Y-72583919D01*
X157078524Y-72365029D01*
X157082507Y-72316964D01*
X157097170Y-72140006D01*
X157097170Y-72139993D01*
X157078525Y-71914978D01*
X157078524Y-71914975D01*
X157078524Y-71914971D01*
X157023093Y-71696081D01*
X156932390Y-71489299D01*
X156808889Y-71300267D01*
X156655959Y-71134140D01*
X156655954Y-71134136D01*
X156655952Y-71134134D01*
X156477779Y-70995456D01*
X156477768Y-70995449D01*
X156447474Y-70979055D01*
X156397883Y-70929836D01*
X156382775Y-70861619D01*
X156406945Y-70796063D01*
X156447474Y-70760945D01*
X156450021Y-70759566D01*
X156477771Y-70744549D01*
X156655959Y-70605860D01*
X156808889Y-70439733D01*
X156896191Y-70306106D01*
X156949338Y-70260751D01*
X157018569Y-70251327D01*
X157081905Y-70280829D01*
X157103807Y-70306105D01*
X157191111Y-70439733D01*
X157344041Y-70605860D01*
X157344044Y-70605862D01*
X157344047Y-70605865D01*
X157522220Y-70744543D01*
X157522226Y-70744547D01*
X157522229Y-70744549D01*
X157720814Y-70852018D01*
X157934380Y-70925335D01*
X158157100Y-70962500D01*
X158382900Y-70962500D01*
X158605620Y-70925335D01*
X158819186Y-70852018D01*
X159017771Y-70744549D01*
X159195959Y-70605860D01*
X159348889Y-70439733D01*
X159472390Y-70250701D01*
X159563093Y-70043919D01*
X159618524Y-69825029D01*
X159637170Y-69600000D01*
X159637170Y-69599993D01*
X159618525Y-69374978D01*
X159618524Y-69374975D01*
X159618524Y-69374971D01*
X159563093Y-69156081D01*
X159472390Y-68949299D01*
X159348889Y-68760267D01*
X159195959Y-68594140D01*
X159195954Y-68594136D01*
X159195952Y-68594134D01*
X159017779Y-68455456D01*
X159017768Y-68455449D01*
X158987474Y-68439055D01*
X158937883Y-68389836D01*
X158922775Y-68321619D01*
X158946945Y-68256063D01*
X158987474Y-68220945D01*
X158990021Y-68219566D01*
X159017771Y-68204549D01*
X159195959Y-68065860D01*
X159348889Y-67899733D01*
X159472390Y-67710701D01*
X159563093Y-67503919D01*
X159618524Y-67285029D01*
X159618525Y-67285021D01*
X159637170Y-67060006D01*
X159637170Y-67059993D01*
X159618525Y-66834978D01*
X159618524Y-66834975D01*
X159618524Y-66834971D01*
X159563093Y-66616081D01*
X159472390Y-66409299D01*
X159348889Y-66220267D01*
X159195959Y-66054140D01*
X159195954Y-66054136D01*
X159195952Y-66054134D01*
X159017779Y-65915456D01*
X159017773Y-65915452D01*
X158819187Y-65807982D01*
X158819181Y-65807980D01*
X158636498Y-65745264D01*
X158579482Y-65704878D01*
X158553352Y-65640078D01*
X158566404Y-65571439D01*
X158614493Y-65520751D01*
X158620447Y-65517508D01*
X158852789Y-65399125D01*
X159178084Y-65187876D01*
X159479516Y-64943781D01*
X159753781Y-64669516D01*
X159879134Y-64514717D01*
X159936621Y-64475007D01*
X160006452Y-64472679D01*
X160066456Y-64508474D01*
G37*
%TD.AperFunction*%
%TA.AperFunction,Conductor*%
G36*
X163943039Y-47019685D02*
G01*
X163988794Y-47072489D01*
X164000000Y-47124000D01*
X164000000Y-147876000D01*
X163980315Y-147943039D01*
X163927511Y-147988794D01*
X163876000Y-148000000D01*
X89624000Y-148000000D01*
X89556961Y-147980315D01*
X89511206Y-147927511D01*
X89500000Y-147876000D01*
X89500000Y-139000000D01*
X92894551Y-139000000D01*
X92914317Y-139251151D01*
X92973126Y-139496110D01*
X93069533Y-139728859D01*
X93201160Y-139943653D01*
X93201161Y-139943656D01*
X93201164Y-139943659D01*
X93364776Y-140135224D01*
X93513066Y-140261875D01*
X93556343Y-140298838D01*
X93556346Y-140298839D01*
X93771140Y-140430466D01*
X93964209Y-140510437D01*
X94003889Y-140526873D01*
X94248852Y-140585683D01*
X94500000Y-140605449D01*
X94751148Y-140585683D01*
X94897697Y-140550500D01*
X94967480Y-140553991D01*
X95024297Y-140594655D01*
X95050110Y-140659581D01*
X95050220Y-140681314D01*
X95044529Y-140749994D01*
X95044529Y-140750005D01*
X95064379Y-140989559D01*
X95123389Y-141222589D01*
X95219951Y-141442729D01*
X95318563Y-141593664D01*
X95351429Y-141643969D01*
X95514236Y-141820825D01*
X95618718Y-141902147D01*
X95659531Y-141958857D01*
X95663206Y-142028630D01*
X95628575Y-142089313D01*
X95618724Y-142097848D01*
X95544294Y-142155779D01*
X95514237Y-142179174D01*
X95351430Y-142356029D01*
X95351427Y-142356033D01*
X95219951Y-142557270D01*
X95123389Y-142777410D01*
X95064379Y-143010440D01*
X95044529Y-143249994D01*
X95044529Y-143250005D01*
X95050220Y-143318686D01*
X95036139Y-143387122D01*
X94987294Y-143437081D01*
X94919193Y-143452702D01*
X94897697Y-143449500D01*
X94751151Y-143414317D01*
X94500000Y-143394551D01*
X94248848Y-143414317D01*
X94003889Y-143473126D01*
X93771140Y-143569533D01*
X93556346Y-143701160D01*
X93556343Y-143701161D01*
X93364776Y-143864776D01*
X93201161Y-144056343D01*
X93201160Y-144056346D01*
X93069533Y-144271140D01*
X92973126Y-144503889D01*
X92914317Y-144748848D01*
X92894551Y-145000000D01*
X92914317Y-145251151D01*
X92973126Y-145496110D01*
X93069533Y-145728859D01*
X93201160Y-145943653D01*
X93201161Y-145943656D01*
X93201164Y-145943659D01*
X93364776Y-146135224D01*
X93513066Y-146261875D01*
X93556343Y-146298838D01*
X93556346Y-146298839D01*
X93771140Y-146430466D01*
X94003889Y-146526873D01*
X94248852Y-146585683D01*
X94500000Y-146605449D01*
X94751148Y-146585683D01*
X94996111Y-146526873D01*
X95228859Y-146430466D01*
X95443659Y-146298836D01*
X95635224Y-146135224D01*
X95798836Y-145943659D01*
X95930466Y-145728859D01*
X96026873Y-145496111D01*
X96085683Y-145251148D01*
X96105449Y-145000000D01*
X96090359Y-144808266D01*
X96104722Y-144739894D01*
X96153773Y-144690137D01*
X96221938Y-144674798D01*
X96234381Y-144676232D01*
X96379808Y-144700500D01*
X96379809Y-144700500D01*
X96620191Y-144700500D01*
X96620192Y-144700500D01*
X96857297Y-144660934D01*
X96861396Y-144659527D01*
X96906412Y-144644073D01*
X97084656Y-144582882D01*
X97296067Y-144468472D01*
X97485764Y-144320825D01*
X97648571Y-144143969D01*
X97780049Y-143942728D01*
X97876610Y-143722591D01*
X97935620Y-143489563D01*
X97947979Y-143340419D01*
X97955471Y-143250005D01*
X97955471Y-143249994D01*
X97938108Y-143040461D01*
X97935620Y-143010437D01*
X97876610Y-142777409D01*
X97780049Y-142557272D01*
X97724170Y-142471744D01*
X97648572Y-142356033D01*
X97648571Y-142356031D01*
X97485764Y-142179175D01*
X97381281Y-142097852D01*
X97340469Y-142041143D01*
X97336794Y-141971370D01*
X97371425Y-141910687D01*
X97381275Y-141902151D01*
X97485764Y-141820825D01*
X97648571Y-141643969D01*
X97780049Y-141442728D01*
X97876610Y-141222591D01*
X97935620Y-140989563D01*
X97944442Y-140883090D01*
X97955471Y-140750005D01*
X97955471Y-140749994D01*
X99044529Y-140749994D01*
X99044529Y-140750005D01*
X99064379Y-140989559D01*
X99123389Y-141222589D01*
X99219951Y-141442729D01*
X99318563Y-141593664D01*
X99351429Y-141643969D01*
X99514236Y-141820825D01*
X99618718Y-141902147D01*
X99659531Y-141958857D01*
X99663206Y-142028630D01*
X99628575Y-142089313D01*
X99618724Y-142097848D01*
X99544294Y-142155779D01*
X99514237Y-142179174D01*
X99351430Y-142356029D01*
X99351427Y-142356033D01*
X99219951Y-142557270D01*
X99123389Y-142777410D01*
X99064379Y-143010440D01*
X99044529Y-143249994D01*
X99044529Y-143250005D01*
X99064379Y-143489559D01*
X99123389Y-143722589D01*
X99219951Y-143942729D01*
X99342664Y-144130553D01*
X99351429Y-144143969D01*
X99514236Y-144320825D01*
X99514239Y-144320827D01*
X99514242Y-144320830D01*
X99703924Y-144468466D01*
X99703930Y-144468470D01*
X99703933Y-144468472D01*
X99915344Y-144582882D01*
X99915347Y-144582883D01*
X100142699Y-144660933D01*
X100142701Y-144660933D01*
X100142703Y-144660934D01*
X100379808Y-144700500D01*
X100379809Y-144700500D01*
X100620191Y-144700500D01*
X100620192Y-144700500D01*
X100857297Y-144660934D01*
X100861396Y-144659527D01*
X100906412Y-144644073D01*
X101084656Y-144582882D01*
X101296067Y-144468472D01*
X101485764Y-144320825D01*
X101648571Y-144143969D01*
X101780049Y-143942728D01*
X101876610Y-143722591D01*
X101935620Y-143489563D01*
X101947979Y-143340419D01*
X101955471Y-143250005D01*
X101955471Y-143249994D01*
X101938108Y-143040461D01*
X101935620Y-143010437D01*
X101876610Y-142777409D01*
X101780049Y-142557272D01*
X101724170Y-142471744D01*
X101648572Y-142356033D01*
X101648571Y-142356031D01*
X101485764Y-142179175D01*
X101381281Y-142097852D01*
X101340469Y-142041143D01*
X101336794Y-141971370D01*
X101371425Y-141910687D01*
X101381275Y-141902151D01*
X101485764Y-141820825D01*
X101648571Y-141643969D01*
X101780049Y-141442728D01*
X101876610Y-141222591D01*
X101935620Y-140989563D01*
X101944442Y-140883090D01*
X101955471Y-140750005D01*
X101955471Y-140749994D01*
X103044529Y-140749994D01*
X103044529Y-140750005D01*
X103064379Y-140989559D01*
X103123389Y-141222589D01*
X103219951Y-141442729D01*
X103318563Y-141593664D01*
X103351429Y-141643969D01*
X103514236Y-141820825D01*
X103618718Y-141902147D01*
X103659531Y-141958857D01*
X103663206Y-142028630D01*
X103628575Y-142089313D01*
X103618724Y-142097848D01*
X103544294Y-142155779D01*
X103514237Y-142179174D01*
X103351430Y-142356029D01*
X103351427Y-142356033D01*
X103219951Y-142557270D01*
X103123389Y-142777410D01*
X103064379Y-143010440D01*
X103044529Y-143249994D01*
X103044529Y-143250005D01*
X103064379Y-143489559D01*
X103123389Y-143722589D01*
X103219951Y-143942729D01*
X103342664Y-144130553D01*
X103351429Y-144143969D01*
X103514236Y-144320825D01*
X103514239Y-144320827D01*
X103514242Y-144320830D01*
X103703924Y-144468466D01*
X103703930Y-144468470D01*
X103703933Y-144468472D01*
X103915344Y-144582882D01*
X103915347Y-144582883D01*
X104142699Y-144660933D01*
X104142701Y-144660933D01*
X104142703Y-144660934D01*
X104379808Y-144700500D01*
X104379809Y-144700500D01*
X104620191Y-144700500D01*
X104620192Y-144700500D01*
X104765614Y-144676233D01*
X104834977Y-144684615D01*
X104888799Y-144729167D01*
X104909990Y-144795746D01*
X104909640Y-144808271D01*
X104894551Y-144999999D01*
X104914317Y-145251151D01*
X104973126Y-145496110D01*
X105069533Y-145728859D01*
X105201160Y-145943653D01*
X105201161Y-145943656D01*
X105201164Y-145943659D01*
X105364776Y-146135224D01*
X105513066Y-146261875D01*
X105556343Y-146298838D01*
X105556346Y-146298839D01*
X105771140Y-146430466D01*
X106003889Y-146526873D01*
X106248852Y-146585683D01*
X106500000Y-146605449D01*
X106751148Y-146585683D01*
X106996111Y-146526873D01*
X107228859Y-146430466D01*
X107443659Y-146298836D01*
X107635224Y-146135224D01*
X107798836Y-145943659D01*
X107930466Y-145728859D01*
X108026873Y-145496111D01*
X108085683Y-145251148D01*
X108105449Y-145000000D01*
X108085683Y-144748852D01*
X108026873Y-144503889D01*
X107989398Y-144413415D01*
X107930466Y-144271140D01*
X107798839Y-144056346D01*
X107798838Y-144056343D01*
X107761875Y-144013066D01*
X107635224Y-143864776D01*
X107493048Y-143743346D01*
X107443656Y-143701161D01*
X107443653Y-143701160D01*
X107228859Y-143569533D01*
X106996110Y-143473126D01*
X106751151Y-143414317D01*
X106500000Y-143394551D01*
X106248848Y-143414317D01*
X106102302Y-143449500D01*
X106032519Y-143446009D01*
X105975702Y-143405345D01*
X105949889Y-143340419D01*
X105949779Y-143318686D01*
X105953826Y-143269851D01*
X105955471Y-143250003D01*
X105955471Y-143249994D01*
X105938108Y-143040461D01*
X105935620Y-143010437D01*
X105876610Y-142777409D01*
X105780049Y-142557272D01*
X105724170Y-142471744D01*
X105648572Y-142356033D01*
X105648571Y-142356031D01*
X105485764Y-142179175D01*
X105483449Y-142177373D01*
X110369249Y-142177373D01*
X110369249Y-142177388D01*
X110388542Y-142471744D01*
X110388543Y-142471754D01*
X110388544Y-142471761D01*
X110425793Y-142659029D01*
X110446096Y-142761097D01*
X110446099Y-142761111D01*
X110540927Y-143040461D01*
X110671403Y-143305041D01*
X110671407Y-143305048D01*
X110835303Y-143550336D01*
X111029819Y-143772139D01*
X111224340Y-143942729D01*
X111251621Y-143966654D01*
X111496913Y-144130553D01*
X111761501Y-144261033D01*
X112040856Y-144355862D01*
X112330198Y-144413415D01*
X112358466Y-144415267D01*
X112624571Y-144432710D01*
X112624578Y-144432710D01*
X112624585Y-144432710D01*
X112860253Y-144417262D01*
X112918958Y-144413415D01*
X113208300Y-144355862D01*
X113487655Y-144261033D01*
X113752243Y-144130553D01*
X113997535Y-143966654D01*
X114219336Y-143772139D01*
X114413851Y-143550338D01*
X114577750Y-143305046D01*
X114708230Y-143040458D01*
X114803059Y-142761103D01*
X114823363Y-142659027D01*
X131216046Y-142659027D01*
X131216046Y-142659030D01*
X131236460Y-142944462D01*
X131297284Y-143224066D01*
X131297286Y-143224072D01*
X131297287Y-143224075D01*
X131390179Y-143473127D01*
X131397291Y-143492195D01*
X131534426Y-143743338D01*
X131534431Y-143743346D01*
X131705910Y-143972416D01*
X131705926Y-143972434D01*
X131908250Y-144174758D01*
X131908268Y-144174774D01*
X132137338Y-144346253D01*
X132137346Y-144346258D01*
X132388489Y-144483393D01*
X132388488Y-144483393D01*
X132388492Y-144483394D01*
X132388495Y-144483396D01*
X132656610Y-144583398D01*
X132656616Y-144583399D01*
X132656618Y-144583400D01*
X132936222Y-144644224D01*
X132936224Y-144644224D01*
X132936228Y-144644225D01*
X133169839Y-144660933D01*
X133221655Y-144664639D01*
X133221656Y-144664639D01*
X133221657Y-144664639D01*
X133250251Y-144662593D01*
X133507084Y-144644225D01*
X133507788Y-144644072D01*
X133786693Y-144583400D01*
X133786693Y-144583399D01*
X133786702Y-144583398D01*
X134054817Y-144483396D01*
X134305971Y-144346255D01*
X134535051Y-144174768D01*
X134737395Y-143972424D01*
X134908882Y-143743344D01*
X135046023Y-143492190D01*
X135146025Y-143224075D01*
X135206852Y-142944457D01*
X135227266Y-142659029D01*
X135206852Y-142373601D01*
X135203030Y-142356033D01*
X135146027Y-142093991D01*
X135146026Y-142093989D01*
X135146025Y-142093983D01*
X135046023Y-141825868D01*
X135043269Y-141820825D01*
X134908885Y-141574719D01*
X134908880Y-141574711D01*
X134737401Y-141345641D01*
X134737385Y-141345623D01*
X134611436Y-141219674D01*
X136221156Y-141219674D01*
X136221156Y-144098392D01*
X136236609Y-144215782D01*
X136236612Y-144215791D01*
X136280118Y-144320825D01*
X136297120Y-144361870D01*
X136393374Y-144487311D01*
X136518815Y-144583565D01*
X136664894Y-144644073D01*
X136782295Y-144659529D01*
X139661016Y-144659528D01*
X139661019Y-144659528D01*
X139778409Y-144644075D01*
X139778413Y-144644073D01*
X139778418Y-144644073D01*
X139924497Y-144583565D01*
X140049938Y-144487311D01*
X140146192Y-144361870D01*
X140206700Y-144215791D01*
X140222156Y-144098390D01*
X140222155Y-142177373D01*
X147119249Y-142177373D01*
X147119249Y-142177388D01*
X147138542Y-142471744D01*
X147138543Y-142471754D01*
X147138544Y-142471761D01*
X147175793Y-142659029D01*
X147196096Y-142761097D01*
X147196099Y-142761111D01*
X147290927Y-143040461D01*
X147421403Y-143305041D01*
X147421407Y-143305048D01*
X147585303Y-143550336D01*
X147779819Y-143772139D01*
X147974340Y-143942729D01*
X148001621Y-143966654D01*
X148246913Y-144130553D01*
X148511501Y-144261033D01*
X148790856Y-144355862D01*
X149080198Y-144413415D01*
X149108466Y-144415267D01*
X149374571Y-144432710D01*
X149374578Y-144432710D01*
X149374585Y-144432710D01*
X149610253Y-144417262D01*
X149668958Y-144413415D01*
X149958300Y-144355862D01*
X150237655Y-144261033D01*
X150502243Y-144130553D01*
X150747535Y-143966654D01*
X150969336Y-143772139D01*
X151163851Y-143550338D01*
X151327750Y-143305046D01*
X151458230Y-143040458D01*
X151553059Y-142761103D01*
X151610612Y-142471761D01*
X151618197Y-142356033D01*
X151629907Y-142177388D01*
X151629907Y-142177373D01*
X151610613Y-141883017D01*
X151610612Y-141883001D01*
X151553059Y-141593659D01*
X151458230Y-141314304D01*
X151327750Y-141049717D01*
X151163851Y-140804424D01*
X151049456Y-140673982D01*
X150969336Y-140582622D01*
X150747533Y-140388106D01*
X150502245Y-140224210D01*
X150502238Y-140224206D01*
X150237658Y-140093730D01*
X149958308Y-139998902D01*
X149958302Y-139998900D01*
X149958300Y-139998900D01*
X149668958Y-139941347D01*
X149668951Y-139941346D01*
X149668941Y-139941345D01*
X149374585Y-139922052D01*
X149374571Y-139922052D01*
X149080214Y-139941345D01*
X149080202Y-139941346D01*
X149080198Y-139941347D01*
X149080190Y-139941348D01*
X149080187Y-139941349D01*
X148790861Y-139998899D01*
X148790847Y-139998902D01*
X148511497Y-140093730D01*
X148246912Y-140224209D01*
X148001619Y-140388109D01*
X147779819Y-140582622D01*
X147585306Y-140804422D01*
X147421406Y-141049715D01*
X147290927Y-141314300D01*
X147196099Y-141593650D01*
X147196096Y-141593664D01*
X147138546Y-141882990D01*
X147138542Y-141883017D01*
X147119249Y-142177373D01*
X140222155Y-142177373D01*
X140222155Y-141219669D01*
X140222155Y-141219668D01*
X140222155Y-141219665D01*
X140206702Y-141102275D01*
X140206700Y-141102268D01*
X140206700Y-141102267D01*
X140146192Y-140956188D01*
X140049938Y-140830747D01*
X139924497Y-140734493D01*
X139778418Y-140673985D01*
X139778416Y-140673984D01*
X139661026Y-140658530D01*
X139661023Y-140658529D01*
X139661017Y-140658529D01*
X139661010Y-140658529D01*
X136782292Y-140658529D01*
X136664902Y-140673982D01*
X136664893Y-140673985D01*
X136518816Y-140734492D01*
X136393374Y-140830747D01*
X136297119Y-140956189D01*
X136236612Y-141102266D01*
X136236611Y-141102268D01*
X136221157Y-141219658D01*
X136221157Y-141219665D01*
X136221156Y-141219674D01*
X134611436Y-141219674D01*
X134535061Y-141143299D01*
X134535043Y-141143283D01*
X134305973Y-140971804D01*
X134305965Y-140971799D01*
X134054822Y-140834664D01*
X134054823Y-140834664D01*
X133827843Y-140750005D01*
X133786702Y-140734660D01*
X133786699Y-140734659D01*
X133786693Y-140734657D01*
X133507089Y-140673833D01*
X133221657Y-140653419D01*
X133221655Y-140653419D01*
X132936222Y-140673833D01*
X132656618Y-140734657D01*
X132388489Y-140834664D01*
X132137346Y-140971799D01*
X132137338Y-140971804D01*
X131908268Y-141143283D01*
X131908250Y-141143299D01*
X131705926Y-141345623D01*
X131705910Y-141345641D01*
X131534431Y-141574711D01*
X131534426Y-141574719D01*
X131397291Y-141825862D01*
X131297284Y-142093991D01*
X131236460Y-142373595D01*
X131216046Y-142659027D01*
X114823363Y-142659027D01*
X114860612Y-142471761D01*
X114868197Y-142356033D01*
X114879907Y-142177388D01*
X114879907Y-142177373D01*
X114860613Y-141883017D01*
X114860612Y-141883001D01*
X114803059Y-141593659D01*
X114708230Y-141314304D01*
X114577750Y-141049717D01*
X114413851Y-140804424D01*
X114299456Y-140673982D01*
X114219336Y-140582622D01*
X113997533Y-140388106D01*
X113752245Y-140224210D01*
X113752238Y-140224206D01*
X113487658Y-140093730D01*
X113208308Y-139998902D01*
X113208302Y-139998900D01*
X113208300Y-139998900D01*
X112918958Y-139941347D01*
X112918951Y-139941346D01*
X112918941Y-139941345D01*
X112624585Y-139922052D01*
X112624571Y-139922052D01*
X112330214Y-139941345D01*
X112330202Y-139941346D01*
X112330198Y-139941347D01*
X112330190Y-139941348D01*
X112330187Y-139941349D01*
X112040861Y-139998899D01*
X112040847Y-139998902D01*
X111761497Y-140093730D01*
X111496912Y-140224209D01*
X111251619Y-140388109D01*
X111029819Y-140582622D01*
X110835306Y-140804422D01*
X110671406Y-141049715D01*
X110540927Y-141314300D01*
X110446099Y-141593650D01*
X110446096Y-141593664D01*
X110388546Y-141882990D01*
X110388542Y-141883017D01*
X110369249Y-142177373D01*
X105483449Y-142177373D01*
X105381281Y-142097852D01*
X105340469Y-142041143D01*
X105336794Y-141971370D01*
X105371425Y-141910687D01*
X105381275Y-141902151D01*
X105485764Y-141820825D01*
X105648571Y-141643969D01*
X105780049Y-141442728D01*
X105876610Y-141222591D01*
X105935620Y-140989563D01*
X105944442Y-140883090D01*
X105955471Y-140750005D01*
X105955471Y-140749995D01*
X105949779Y-140681314D01*
X105963859Y-140612878D01*
X106012704Y-140562918D01*
X106080805Y-140547297D01*
X106102294Y-140550497D01*
X106248852Y-140585683D01*
X106500000Y-140605449D01*
X106751148Y-140585683D01*
X106996111Y-140526873D01*
X107228859Y-140430466D01*
X107443659Y-140298836D01*
X107635224Y-140135224D01*
X107798836Y-139943659D01*
X107930466Y-139728859D01*
X108026873Y-139496111D01*
X108085683Y-139251148D01*
X108105449Y-139000000D01*
X108085683Y-138748852D01*
X108026873Y-138503889D01*
X107930466Y-138271140D01*
X107798839Y-138056346D01*
X107798838Y-138056343D01*
X107744071Y-137992220D01*
X107635224Y-137864776D01*
X107475948Y-137728741D01*
X107443656Y-137701161D01*
X107443653Y-137701160D01*
X107228859Y-137569533D01*
X106996110Y-137473126D01*
X106751151Y-137414317D01*
X106500000Y-137394551D01*
X106248848Y-137414317D01*
X106003889Y-137473126D01*
X105771140Y-137569533D01*
X105556346Y-137701160D01*
X105556343Y-137701161D01*
X105364776Y-137864776D01*
X105201161Y-138056343D01*
X105201160Y-138056346D01*
X105069533Y-138271140D01*
X104973126Y-138503889D01*
X104914317Y-138748848D01*
X104914317Y-138748852D01*
X104894551Y-139000000D01*
X104909640Y-139191729D01*
X104895277Y-139260105D01*
X104846226Y-139309862D01*
X104778061Y-139325201D01*
X104765614Y-139323766D01*
X104620192Y-139299500D01*
X104379808Y-139299500D01*
X104332387Y-139307413D01*
X104142699Y-139339066D01*
X103915347Y-139417116D01*
X103915342Y-139417118D01*
X103703930Y-139531529D01*
X103703924Y-139531533D01*
X103514242Y-139679169D01*
X103514239Y-139679172D01*
X103351430Y-139856029D01*
X103351427Y-139856033D01*
X103219951Y-140057270D01*
X103123389Y-140277410D01*
X103064379Y-140510440D01*
X103044529Y-140749994D01*
X101955471Y-140749994D01*
X101935620Y-140510440D01*
X101935620Y-140510437D01*
X101876610Y-140277409D01*
X101780049Y-140057272D01*
X101741912Y-139998900D01*
X101714310Y-139956651D01*
X101648571Y-139856031D01*
X101485764Y-139679175D01*
X101485759Y-139679171D01*
X101485757Y-139679169D01*
X101296075Y-139531533D01*
X101296069Y-139531529D01*
X101084657Y-139417118D01*
X101084652Y-139417116D01*
X100857300Y-139339066D01*
X100679468Y-139309391D01*
X100620192Y-139299500D01*
X100379808Y-139299500D01*
X100332387Y-139307413D01*
X100142699Y-139339066D01*
X99915347Y-139417116D01*
X99915342Y-139417118D01*
X99703930Y-139531529D01*
X99703924Y-139531533D01*
X99514242Y-139679169D01*
X99514239Y-139679172D01*
X99351430Y-139856029D01*
X99351427Y-139856033D01*
X99219951Y-140057270D01*
X99123389Y-140277410D01*
X99064379Y-140510440D01*
X99044529Y-140749994D01*
X97955471Y-140749994D01*
X97935620Y-140510440D01*
X97935620Y-140510437D01*
X97876610Y-140277409D01*
X97780049Y-140057272D01*
X97741912Y-139998900D01*
X97714310Y-139956651D01*
X97648571Y-139856031D01*
X97485764Y-139679175D01*
X97485759Y-139679171D01*
X97485757Y-139679169D01*
X97296075Y-139531533D01*
X97296069Y-139531529D01*
X97084657Y-139417118D01*
X97084652Y-139417116D01*
X96857300Y-139339066D01*
X96679468Y-139309391D01*
X96620192Y-139299500D01*
X96379808Y-139299500D01*
X96234385Y-139323766D01*
X96165020Y-139315384D01*
X96111198Y-139270831D01*
X96090008Y-139204252D01*
X96090357Y-139191758D01*
X96105449Y-139000000D01*
X96085683Y-138748852D01*
X96026873Y-138503889D01*
X95930466Y-138271140D01*
X95798839Y-138056346D01*
X95798838Y-138056343D01*
X95744071Y-137992220D01*
X95635224Y-137864776D01*
X95475948Y-137728741D01*
X95443656Y-137701161D01*
X95443653Y-137701160D01*
X95228859Y-137569533D01*
X94996110Y-137473126D01*
X94751151Y-137414317D01*
X94500000Y-137394551D01*
X94248848Y-137414317D01*
X94003889Y-137473126D01*
X93771140Y-137569533D01*
X93556346Y-137701160D01*
X93556343Y-137701161D01*
X93364776Y-137864776D01*
X93201161Y-138056343D01*
X93201160Y-138056346D01*
X93069533Y-138271140D01*
X92973126Y-138503889D01*
X92914317Y-138748848D01*
X92894551Y-139000000D01*
X89500000Y-139000000D01*
X89500000Y-132743541D01*
X101149500Y-132743541D01*
X101149500Y-134656458D01*
X101155812Y-134758132D01*
X101155813Y-134758134D01*
X101205993Y-134997457D01*
X101205994Y-134997461D01*
X101205996Y-134997468D01*
X101294880Y-135225254D01*
X101294881Y-135225256D01*
X101420051Y-135435317D01*
X101578088Y-135621912D01*
X101764683Y-135779949D01*
X101974744Y-135905119D01*
X102057608Y-135937452D01*
X102202531Y-135994003D01*
X102202534Y-135994003D01*
X102202543Y-135994007D01*
X102441866Y-136044187D01*
X102543548Y-136050500D01*
X102543559Y-136050500D01*
X104456441Y-136050500D01*
X104456452Y-136050500D01*
X104558134Y-136044187D01*
X104797457Y-135994007D01*
X104797466Y-135994003D01*
X104797468Y-135994003D01*
X104859527Y-135969786D01*
X105025256Y-135905119D01*
X105235317Y-135779949D01*
X105421912Y-135621912D01*
X105579949Y-135435317D01*
X105705119Y-135225256D01*
X105794007Y-134997457D01*
X105824920Y-134850026D01*
X145214078Y-134850026D01*
X145214078Y-137728744D01*
X145229531Y-137846134D01*
X145229534Y-137846143D01*
X145290042Y-137992222D01*
X145386296Y-138117663D01*
X145511737Y-138213917D01*
X145657816Y-138274425D01*
X145775217Y-138289881D01*
X148653938Y-138289880D01*
X148653941Y-138289880D01*
X148771331Y-138274427D01*
X148771335Y-138274425D01*
X148771340Y-138274425D01*
X148917419Y-138213917D01*
X149042860Y-138117663D01*
X149139114Y-137992222D01*
X149199622Y-137846143D01*
X149215078Y-137728742D01*
X149215077Y-134850021D01*
X149215077Y-134850020D01*
X149215077Y-134850017D01*
X149199624Y-134732627D01*
X149199622Y-134732620D01*
X149199622Y-134732619D01*
X149139114Y-134586540D01*
X149042860Y-134461099D01*
X148917419Y-134364845D01*
X148771340Y-134304337D01*
X148771338Y-134304336D01*
X148653948Y-134288882D01*
X148653945Y-134288881D01*
X148653939Y-134288881D01*
X148653932Y-134288881D01*
X145775214Y-134288881D01*
X145657824Y-134304334D01*
X145657815Y-134304337D01*
X145511738Y-134364844D01*
X145386296Y-134461099D01*
X145290041Y-134586541D01*
X145229534Y-134732618D01*
X145229533Y-134732620D01*
X145214079Y-134850010D01*
X145214079Y-134850017D01*
X145214078Y-134850026D01*
X105824920Y-134850026D01*
X105844187Y-134758134D01*
X105850500Y-134656452D01*
X105850500Y-132743548D01*
X105844187Y-132641866D01*
X105794007Y-132402543D01*
X105794003Y-132402534D01*
X105794003Y-132402531D01*
X105705119Y-132174745D01*
X105705117Y-132174741D01*
X105579952Y-131964688D01*
X105579951Y-131964687D01*
X105579949Y-131964683D01*
X105421912Y-131778088D01*
X105235317Y-131620051D01*
X105235312Y-131620048D01*
X105235311Y-131620047D01*
X105169818Y-131581021D01*
X105122304Y-131529794D01*
X105110028Y-131461012D01*
X105136887Y-131396511D01*
X105194355Y-131356771D01*
X105233286Y-131350499D01*
X108289360Y-131350499D01*
X108289363Y-131350499D01*
X108406753Y-131335046D01*
X108406757Y-131335044D01*
X108406762Y-131335044D01*
X108552841Y-131274536D01*
X108678282Y-131178282D01*
X108774536Y-131052841D01*
X108835044Y-130906762D01*
X108850500Y-130789361D01*
X108850499Y-127210640D01*
X108850499Y-127210639D01*
X108850499Y-127210636D01*
X108835046Y-127093246D01*
X108835044Y-127093239D01*
X108835044Y-127093238D01*
X108774536Y-126947159D01*
X108678282Y-126821718D01*
X108552841Y-126725464D01*
X108406762Y-126664956D01*
X108406760Y-126664955D01*
X108289370Y-126649501D01*
X108289367Y-126649500D01*
X108289361Y-126649500D01*
X108289354Y-126649500D01*
X104710636Y-126649500D01*
X104593246Y-126664953D01*
X104593237Y-126664956D01*
X104447160Y-126725463D01*
X104321718Y-126821718D01*
X104225463Y-126947160D01*
X104164956Y-127093237D01*
X104164955Y-127093239D01*
X104149501Y-127210629D01*
X104149501Y-127210636D01*
X104149500Y-127210645D01*
X104149500Y-130789363D01*
X104164953Y-130906753D01*
X104164956Y-130906762D01*
X104225464Y-131052842D01*
X104300027Y-131150014D01*
X104325221Y-131215183D01*
X104311183Y-131283628D01*
X104262369Y-131333617D01*
X104201651Y-131349500D01*
X102543541Y-131349500D01*
X102441867Y-131355812D01*
X102441863Y-131355813D01*
X102317416Y-131381906D01*
X102202543Y-131405993D01*
X102202539Y-131405994D01*
X102202531Y-131405996D01*
X101974745Y-131494880D01*
X101974741Y-131494882D01*
X101764688Y-131620047D01*
X101578088Y-131778088D01*
X101420047Y-131964688D01*
X101294882Y-132174741D01*
X101294880Y-132174745D01*
X101205996Y-132402531D01*
X101205994Y-132402539D01*
X101205993Y-132402543D01*
X101181906Y-132517416D01*
X101155813Y-132641863D01*
X101155812Y-132641867D01*
X101149500Y-132743541D01*
X89500000Y-132743541D01*
X89500000Y-127941032D01*
X98399500Y-127941032D01*
X98399500Y-130058967D01*
X98414936Y-130235403D01*
X98414938Y-130235413D01*
X98476094Y-130463655D01*
X98476096Y-130463659D01*
X98476097Y-130463663D01*
X98575965Y-130677830D01*
X98575967Y-130677834D01*
X98654055Y-130789354D01*
X98711505Y-130871401D01*
X98878599Y-131038495D01*
X98899089Y-131052842D01*
X99072165Y-131174032D01*
X99072167Y-131174033D01*
X99072170Y-131174035D01*
X99286337Y-131273903D01*
X99286343Y-131273904D01*
X99286344Y-131273905D01*
X99341285Y-131288626D01*
X99514592Y-131335063D01*
X99691032Y-131350499D01*
X99691033Y-131350500D01*
X99691034Y-131350500D01*
X101308967Y-131350500D01*
X101308967Y-131350499D01*
X101485408Y-131335063D01*
X101713663Y-131273903D01*
X101927830Y-131174035D01*
X102121401Y-131038495D01*
X102288495Y-130871401D01*
X102424035Y-130677830D01*
X102523903Y-130463663D01*
X102585063Y-130235408D01*
X102600500Y-130058966D01*
X102600500Y-127941034D01*
X102585063Y-127764592D01*
X102523903Y-127536337D01*
X102424035Y-127322170D01*
X102424033Y-127322167D01*
X102424032Y-127322165D01*
X102345933Y-127210629D01*
X102288495Y-127128599D01*
X102121401Y-126961505D01*
X102082521Y-126934281D01*
X101927834Y-126825967D01*
X101927830Y-126825965D01*
X101918722Y-126821718D01*
X101713663Y-126726097D01*
X101713659Y-126726096D01*
X101713655Y-126726094D01*
X101485413Y-126664938D01*
X101485403Y-126664936D01*
X101308967Y-126649500D01*
X101308966Y-126649500D01*
X99691034Y-126649500D01*
X99691033Y-126649500D01*
X99514596Y-126664936D01*
X99514586Y-126664938D01*
X99286344Y-126726094D01*
X99286335Y-126726098D01*
X99072169Y-126825965D01*
X99072165Y-126825967D01*
X98878604Y-126961501D01*
X98878597Y-126961506D01*
X98711506Y-127128597D01*
X98711501Y-127128604D01*
X98575967Y-127322165D01*
X98575965Y-127322169D01*
X98476098Y-127536335D01*
X98476094Y-127536344D01*
X98414938Y-127764586D01*
X98414936Y-127764596D01*
X98399500Y-127941032D01*
X89500000Y-127941032D01*
X89500000Y-126289379D01*
X145208968Y-126289379D01*
X145208968Y-126289382D01*
X145229382Y-126574814D01*
X145290206Y-126854418D01*
X145290208Y-126854424D01*
X145290209Y-126854427D01*
X145324797Y-126947160D01*
X145390213Y-127122547D01*
X145527348Y-127373690D01*
X145527353Y-127373698D01*
X145698832Y-127602768D01*
X145698848Y-127602786D01*
X145901172Y-127805110D01*
X145901190Y-127805126D01*
X146130260Y-127976605D01*
X146130268Y-127976610D01*
X146381411Y-128113745D01*
X146381410Y-128113745D01*
X146381414Y-128113746D01*
X146381417Y-128113748D01*
X146649532Y-128213750D01*
X146649538Y-128213751D01*
X146649540Y-128213752D01*
X146929144Y-128274576D01*
X146929146Y-128274576D01*
X146929150Y-128274577D01*
X147182798Y-128292718D01*
X147214577Y-128294991D01*
X147214578Y-128294991D01*
X147214579Y-128294991D01*
X147243173Y-128292945D01*
X147500006Y-128274577D01*
X147779624Y-128213750D01*
X148047739Y-128113748D01*
X148298893Y-127976607D01*
X148527973Y-127805120D01*
X148730317Y-127602776D01*
X148901804Y-127373696D01*
X149038945Y-127122542D01*
X149138947Y-126854427D01*
X149180164Y-126664955D01*
X149199773Y-126574814D01*
X149199773Y-126574813D01*
X149199774Y-126574809D01*
X149220188Y-126289381D01*
X149199774Y-126003953D01*
X149194840Y-125981273D01*
X149138949Y-125724343D01*
X149138948Y-125724341D01*
X149138947Y-125724335D01*
X149038945Y-125456220D01*
X148901804Y-125205066D01*
X148901802Y-125205063D01*
X148730323Y-124975993D01*
X148730307Y-124975975D01*
X148527983Y-124773651D01*
X148527965Y-124773635D01*
X148298895Y-124602156D01*
X148298887Y-124602151D01*
X148047744Y-124465016D01*
X148047745Y-124465016D01*
X147940493Y-124425013D01*
X147779624Y-124365012D01*
X147779621Y-124365011D01*
X147779615Y-124365009D01*
X147500011Y-124304185D01*
X147214579Y-124283771D01*
X147214577Y-124283771D01*
X146929144Y-124304185D01*
X146649540Y-124365009D01*
X146381411Y-124465016D01*
X146130268Y-124602151D01*
X146130260Y-124602156D01*
X145901190Y-124773635D01*
X145901172Y-124773651D01*
X145698848Y-124975975D01*
X145698832Y-124975993D01*
X145527353Y-125205063D01*
X145527348Y-125205071D01*
X145390213Y-125456214D01*
X145290206Y-125724343D01*
X145229382Y-126003947D01*
X145208968Y-126289379D01*
X89500000Y-126289379D01*
X89500000Y-122249998D01*
X96219709Y-122249998D01*
X96219709Y-122250001D01*
X96238848Y-122517594D01*
X96238849Y-122517601D01*
X96295872Y-122779734D01*
X96389627Y-123031102D01*
X96389629Y-123031106D01*
X96518195Y-123266556D01*
X96518200Y-123266564D01*
X96678964Y-123481321D01*
X96678980Y-123481339D01*
X96868660Y-123671019D01*
X96868678Y-123671035D01*
X97083435Y-123831799D01*
X97083443Y-123831804D01*
X97318893Y-123960370D01*
X97318897Y-123960372D01*
X97318899Y-123960373D01*
X97570261Y-124054126D01*
X97570264Y-124054126D01*
X97570265Y-124054127D01*
X97680174Y-124078036D01*
X97832407Y-124111152D01*
X98079385Y-124128816D01*
X98099999Y-124130291D01*
X98100000Y-124130291D01*
X98100001Y-124130291D01*
X98119140Y-124128922D01*
X98367593Y-124111152D01*
X98629739Y-124054126D01*
X98881101Y-123960373D01*
X99116562Y-123831801D01*
X99331329Y-123671029D01*
X99521029Y-123481329D01*
X99681801Y-123266562D01*
X99810373Y-123031101D01*
X99904126Y-122779739D01*
X99961152Y-122517593D01*
X99980291Y-122250000D01*
X99961152Y-121982407D01*
X99904126Y-121720261D01*
X99810373Y-121468899D01*
X99805852Y-121460620D01*
X99681804Y-121233443D01*
X99681799Y-121233435D01*
X99620125Y-121151048D01*
X101024500Y-121151048D01*
X101024500Y-123348951D01*
X101027317Y-123390499D01*
X101071963Y-123570023D01*
X101154157Y-123735752D01*
X101239495Y-123841917D01*
X101270059Y-123879941D01*
X101414247Y-123995842D01*
X101579978Y-124078037D01*
X101759501Y-124122682D01*
X101759502Y-124122682D01*
X101759505Y-124122683D01*
X101801046Y-124125500D01*
X101801048Y-124125500D01*
X103998952Y-124125500D01*
X103998954Y-124125500D01*
X104040495Y-124122683D01*
X104220022Y-124078037D01*
X104385753Y-123995842D01*
X104529941Y-123879941D01*
X104645842Y-123735753D01*
X104728037Y-123570022D01*
X104772683Y-123390495D01*
X104775500Y-123348954D01*
X104775500Y-122437730D01*
X104795185Y-122370691D01*
X104847989Y-122324936D01*
X104917147Y-122314992D01*
X104980703Y-122344017D01*
X104999693Y-122365840D01*
X105000217Y-122365460D01*
X105002118Y-122368077D01*
X105140755Y-122539279D01*
X105246219Y-122669516D01*
X105520484Y-122943781D01*
X105520488Y-122943784D01*
X105821917Y-123187877D01*
X106147206Y-123399122D01*
X106147211Y-123399125D01*
X106492806Y-123575214D01*
X106854913Y-123714214D01*
X107229567Y-123814602D01*
X107612662Y-123875278D01*
X107978576Y-123894455D01*
X107999999Y-123895578D01*
X108000000Y-123895578D01*
X108000001Y-123895578D01*
X108020301Y-123894514D01*
X108387338Y-123875278D01*
X108770433Y-123814602D01*
X109145087Y-123714214D01*
X109507194Y-123575214D01*
X109852789Y-123399125D01*
X110178084Y-123187876D01*
X110479516Y-122943781D01*
X110753781Y-122669516D01*
X110997876Y-122368084D01*
X111209125Y-122042789D01*
X111385214Y-121697194D01*
X111524214Y-121335087D01*
X111624602Y-120960433D01*
X111685278Y-120577338D01*
X111705578Y-120190000D01*
X111685278Y-119802662D01*
X111624602Y-119419567D01*
X111524214Y-119044913D01*
X111385214Y-118682806D01*
X111209125Y-118337211D01*
X111172849Y-118281351D01*
X110997877Y-118011917D01*
X110753784Y-117710488D01*
X110753781Y-117710484D01*
X110479516Y-117436219D01*
X110178084Y-117192124D01*
X110178082Y-117192122D01*
X109852793Y-116980877D01*
X109507197Y-116804787D01*
X109145094Y-116665788D01*
X109145087Y-116665786D01*
X108770433Y-116565398D01*
X108770429Y-116565397D01*
X108770428Y-116565397D01*
X108387339Y-116504722D01*
X108000001Y-116484422D01*
X107999999Y-116484422D01*
X107612660Y-116504722D01*
X107229572Y-116565397D01*
X107229570Y-116565397D01*
X106854905Y-116665788D01*
X106492802Y-116804787D01*
X106147206Y-116980877D01*
X105821917Y-117192122D01*
X105520488Y-117436215D01*
X105520480Y-117436222D01*
X105246222Y-117710480D01*
X105246215Y-117710488D01*
X105002122Y-118011917D01*
X104790877Y-118337206D01*
X104614787Y-118682802D01*
X104475788Y-119044905D01*
X104475786Y-119044913D01*
X104424946Y-119234653D01*
X104379275Y-119405099D01*
X104342910Y-119464759D01*
X104280063Y-119495288D01*
X104210687Y-119486993D01*
X104156809Y-119442508D01*
X104135535Y-119375956D01*
X104135500Y-119373005D01*
X104135500Y-111163123D01*
X104155185Y-111096084D01*
X104171819Y-111075442D01*
X107333849Y-107913412D01*
X110608137Y-104639123D01*
X110669458Y-104605640D01*
X110739150Y-104610624D01*
X110795083Y-104652496D01*
X110819500Y-104717960D01*
X110807029Y-104781648D01*
X110790927Y-104814299D01*
X110696099Y-105093650D01*
X110696096Y-105093664D01*
X110638546Y-105382990D01*
X110638542Y-105383017D01*
X110619249Y-105677373D01*
X110619249Y-105677388D01*
X110638542Y-105971744D01*
X110638543Y-105971754D01*
X110638544Y-105971761D01*
X110638546Y-105971771D01*
X110696096Y-106261097D01*
X110696099Y-106261111D01*
X110790927Y-106540461D01*
X110921403Y-106805041D01*
X110921407Y-106805048D01*
X111085303Y-107050336D01*
X111279819Y-107272139D01*
X111501622Y-107466655D01*
X111746910Y-107630551D01*
X111746913Y-107630553D01*
X112011501Y-107761033D01*
X112290856Y-107855862D01*
X112580198Y-107913415D01*
X112608466Y-107915267D01*
X112874571Y-107932710D01*
X112874578Y-107932710D01*
X112874585Y-107932710D01*
X113110253Y-107917262D01*
X113168958Y-107913415D01*
X113458300Y-107855862D01*
X113737655Y-107761033D01*
X114002243Y-107630553D01*
X114247535Y-107466654D01*
X114469336Y-107272139D01*
X114663851Y-107050338D01*
X114827750Y-106805046D01*
X114958230Y-106540458D01*
X115053059Y-106261103D01*
X115110612Y-105971761D01*
X115129907Y-105677381D01*
X115129907Y-105677373D01*
X115110613Y-105383017D01*
X115110612Y-105383001D01*
X115053059Y-105093659D01*
X114958230Y-104814304D01*
X114827750Y-104549717D01*
X114663851Y-104304424D01*
X114621233Y-104255828D01*
X114469336Y-104082622D01*
X114321220Y-103952728D01*
X114283796Y-103893726D01*
X114284212Y-103823858D01*
X114322335Y-103765305D01*
X114386063Y-103736659D01*
X114402979Y-103735500D01*
X118902764Y-103735500D01*
X121902764Y-103735500D01*
X131895506Y-103735500D01*
X131962545Y-103755185D01*
X132008300Y-103807989D01*
X132018244Y-103877147D01*
X131989219Y-103940703D01*
X131969817Y-103958767D01*
X131935762Y-103984260D01*
X131935750Y-103984270D01*
X131733426Y-104186594D01*
X131733410Y-104186612D01*
X131561931Y-104415682D01*
X131561926Y-104415690D01*
X131424791Y-104666833D01*
X131324784Y-104934962D01*
X131263960Y-105214566D01*
X131243546Y-105499998D01*
X131243546Y-105500001D01*
X131263960Y-105785433D01*
X131324784Y-106065037D01*
X131324786Y-106065043D01*
X131324787Y-106065046D01*
X131414115Y-106304543D01*
X131424791Y-106333166D01*
X131561926Y-106584309D01*
X131561931Y-106584317D01*
X131733410Y-106813387D01*
X131733426Y-106813405D01*
X131935750Y-107015729D01*
X131935768Y-107015745D01*
X132164838Y-107187224D01*
X132164846Y-107187229D01*
X132415989Y-107324364D01*
X132415988Y-107324364D01*
X132415992Y-107324365D01*
X132415995Y-107324367D01*
X132684110Y-107424369D01*
X132684116Y-107424370D01*
X132684118Y-107424371D01*
X132963722Y-107485195D01*
X132963724Y-107485195D01*
X132963728Y-107485196D01*
X133217376Y-107503337D01*
X133249155Y-107505610D01*
X133249156Y-107505610D01*
X133249157Y-107505610D01*
X133277751Y-107503564D01*
X133534584Y-107485196D01*
X133535288Y-107485043D01*
X133814193Y-107424371D01*
X133814193Y-107424370D01*
X133814202Y-107424369D01*
X134082317Y-107324367D01*
X134333471Y-107187226D01*
X134562551Y-107015739D01*
X134764895Y-106813395D01*
X134936382Y-106584315D01*
X135073523Y-106333161D01*
X135173525Y-106065046D01*
X135234352Y-105785428D01*
X135254766Y-105500000D01*
X135234352Y-105214572D01*
X135201300Y-105062635D01*
X135173527Y-104934962D01*
X135173526Y-104934960D01*
X135173525Y-104934954D01*
X135073523Y-104666839D01*
X135009569Y-104549717D01*
X134936385Y-104415690D01*
X134936380Y-104415682D01*
X134764901Y-104186612D01*
X134764885Y-104186594D01*
X134638936Y-104060645D01*
X136248656Y-104060645D01*
X136248656Y-106939363D01*
X136264109Y-107056753D01*
X136264112Y-107056762D01*
X136324620Y-107202841D01*
X136420874Y-107328282D01*
X136546315Y-107424536D01*
X136692394Y-107485044D01*
X136809795Y-107500500D01*
X139688516Y-107500499D01*
X139688519Y-107500499D01*
X139805909Y-107485046D01*
X139805913Y-107485044D01*
X139805918Y-107485044D01*
X139951997Y-107424536D01*
X140077438Y-107328282D01*
X140173692Y-107202841D01*
X140234200Y-107056762D01*
X140249656Y-106939361D01*
X140249655Y-104060640D01*
X140249655Y-104060639D01*
X140249655Y-104060636D01*
X140234202Y-103943246D01*
X140234200Y-103943239D01*
X140234200Y-103943238D01*
X140173692Y-103797159D01*
X140077438Y-103671718D01*
X139951997Y-103575464D01*
X139927087Y-103565146D01*
X139805918Y-103514956D01*
X139805916Y-103514955D01*
X139688526Y-103499501D01*
X139688523Y-103499500D01*
X139688517Y-103499500D01*
X139688510Y-103499500D01*
X136809792Y-103499500D01*
X136692402Y-103514953D01*
X136692393Y-103514956D01*
X136546316Y-103575463D01*
X136420874Y-103671718D01*
X136324619Y-103797160D01*
X136264112Y-103943237D01*
X136264111Y-103943239D01*
X136254604Y-104015456D01*
X136248657Y-104060636D01*
X136248656Y-104060645D01*
X134638936Y-104060645D01*
X134562561Y-103984270D01*
X134562555Y-103984265D01*
X134562551Y-103984261D01*
X134528495Y-103958767D01*
X134486624Y-103902833D01*
X134481640Y-103833141D01*
X134515125Y-103771818D01*
X134576448Y-103738334D01*
X134602806Y-103735500D01*
X135259316Y-103735500D01*
X135259317Y-103735500D01*
X135363615Y-103718980D01*
X135363616Y-103718980D01*
X135392874Y-103714346D01*
X135451394Y-103705078D01*
X135636348Y-103644982D01*
X135736938Y-103593729D01*
X135809624Y-103556694D01*
X135888345Y-103499500D01*
X135966955Y-103442387D01*
X137902386Y-101506955D01*
X138016694Y-101349624D01*
X138104982Y-101176348D01*
X138165077Y-100991395D01*
X138183586Y-100874536D01*
X138184209Y-100870606D01*
X138195500Y-100799316D01*
X138195500Y-100542369D01*
X138215185Y-100475330D01*
X138267989Y-100429575D01*
X138337147Y-100419631D01*
X138400703Y-100448656D01*
X138410719Y-100458375D01*
X138514236Y-100570825D01*
X138514239Y-100570827D01*
X138514242Y-100570830D01*
X138703924Y-100718466D01*
X138703930Y-100718470D01*
X138703933Y-100718472D01*
X138915344Y-100832882D01*
X138915347Y-100832883D01*
X139142699Y-100910933D01*
X139142701Y-100910933D01*
X139142703Y-100910934D01*
X139379808Y-100950500D01*
X139379809Y-100950500D01*
X139620191Y-100950500D01*
X139620192Y-100950500D01*
X139857297Y-100910934D01*
X140084656Y-100832882D01*
X140296067Y-100718472D01*
X140485764Y-100570825D01*
X140648571Y-100393969D01*
X140666193Y-100366995D01*
X140719337Y-100321641D01*
X140788568Y-100312217D01*
X140851904Y-100341718D01*
X140873804Y-100366992D01*
X140891429Y-100393969D01*
X141054236Y-100570825D01*
X141054239Y-100570827D01*
X141054242Y-100570830D01*
X141243924Y-100718466D01*
X141243930Y-100718470D01*
X141243933Y-100718472D01*
X141455344Y-100832882D01*
X141455347Y-100832883D01*
X141682699Y-100910933D01*
X141682701Y-100910933D01*
X141682703Y-100910934D01*
X141919808Y-100950500D01*
X141919809Y-100950500D01*
X142160191Y-100950500D01*
X142160192Y-100950500D01*
X142397297Y-100910934D01*
X142624656Y-100832882D01*
X142836067Y-100718472D01*
X143025764Y-100570825D01*
X143188571Y-100393969D01*
X143320049Y-100192728D01*
X143416610Y-99972591D01*
X143475620Y-99739563D01*
X143484442Y-99633090D01*
X143495471Y-99500005D01*
X143495471Y-99499994D01*
X143475620Y-99260440D01*
X143475620Y-99260437D01*
X143416610Y-99027409D01*
X143320049Y-98807272D01*
X143309999Y-98791890D01*
X143191585Y-98610645D01*
X143188571Y-98606031D01*
X143025764Y-98429175D01*
X143025759Y-98429171D01*
X143025757Y-98429169D01*
X142836075Y-98281533D01*
X142836069Y-98281529D01*
X142624657Y-98167118D01*
X142624652Y-98167116D01*
X142397300Y-98089066D01*
X142219468Y-98059391D01*
X142160192Y-98049500D01*
X141919808Y-98049500D01*
X141872387Y-98057413D01*
X141682699Y-98089066D01*
X141455347Y-98167116D01*
X141455342Y-98167118D01*
X141243930Y-98281529D01*
X141243924Y-98281533D01*
X141054242Y-98429169D01*
X141054239Y-98429172D01*
X140891430Y-98606029D01*
X140891429Y-98606031D01*
X140873807Y-98633003D01*
X140820660Y-98678358D01*
X140751429Y-98687780D01*
X140688093Y-98658277D01*
X140666193Y-98633003D01*
X140664154Y-98629883D01*
X140648571Y-98606031D01*
X140485764Y-98429175D01*
X140485759Y-98429171D01*
X140485757Y-98429169D01*
X140296075Y-98281533D01*
X140296069Y-98281529D01*
X140084657Y-98167118D01*
X140084652Y-98167116D01*
X139857300Y-98089066D01*
X139679468Y-98059391D01*
X139620192Y-98049500D01*
X139379808Y-98049500D01*
X139332387Y-98057413D01*
X139142699Y-98089066D01*
X138915347Y-98167116D01*
X138915342Y-98167118D01*
X138703930Y-98281529D01*
X138703924Y-98281533D01*
X138514242Y-98429169D01*
X138514239Y-98429172D01*
X138351430Y-98606029D01*
X138351429Y-98606031D01*
X138333807Y-98633003D01*
X138280660Y-98678358D01*
X138211429Y-98687780D01*
X138148093Y-98658277D01*
X138126193Y-98633003D01*
X138124154Y-98629883D01*
X138108571Y-98606031D01*
X137945764Y-98429175D01*
X137945759Y-98429171D01*
X137945757Y-98429169D01*
X137756075Y-98281533D01*
X137756069Y-98281529D01*
X137544657Y-98167118D01*
X137544652Y-98167116D01*
X137317300Y-98089066D01*
X137139468Y-98059391D01*
X137080192Y-98049500D01*
X136839808Y-98049500D01*
X136792387Y-98057413D01*
X136602699Y-98089066D01*
X136375347Y-98167116D01*
X136375342Y-98167118D01*
X136163930Y-98281529D01*
X136163924Y-98281533D01*
X135974242Y-98429169D01*
X135974239Y-98429172D01*
X135811430Y-98606029D01*
X135811427Y-98606033D01*
X135679951Y-98807270D01*
X135583389Y-99027410D01*
X135524379Y-99260440D01*
X135504529Y-99499994D01*
X135504529Y-99500005D01*
X135524379Y-99739559D01*
X135583389Y-99972589D01*
X135658767Y-100144435D01*
X135667670Y-100213736D01*
X135637692Y-100276848D01*
X135632892Y-100281926D01*
X134686639Y-101228181D01*
X134625316Y-101261666D01*
X134598958Y-101264500D01*
X122563122Y-101264500D01*
X122496083Y-101244815D01*
X122475441Y-101228181D01*
X122304814Y-101057554D01*
X122271329Y-100996231D01*
X122276313Y-100926539D01*
X122318185Y-100870606D01*
X122383649Y-100846189D01*
X122432758Y-100852592D01*
X122602699Y-100910933D01*
X122602701Y-100910933D01*
X122602703Y-100910934D01*
X122839808Y-100950500D01*
X122839809Y-100950500D01*
X123080191Y-100950500D01*
X123080192Y-100950500D01*
X123317297Y-100910934D01*
X123544656Y-100832882D01*
X123756067Y-100718472D01*
X123945764Y-100570825D01*
X124108571Y-100393969D01*
X124126193Y-100366995D01*
X124179337Y-100321641D01*
X124248568Y-100312217D01*
X124311904Y-100341718D01*
X124333804Y-100366992D01*
X124351429Y-100393969D01*
X124514236Y-100570825D01*
X124514239Y-100570827D01*
X124514242Y-100570830D01*
X124703924Y-100718466D01*
X124703930Y-100718470D01*
X124703933Y-100718472D01*
X124915344Y-100832882D01*
X124915347Y-100832883D01*
X125142699Y-100910933D01*
X125142701Y-100910933D01*
X125142703Y-100910934D01*
X125379808Y-100950500D01*
X125379809Y-100950500D01*
X125620191Y-100950500D01*
X125620192Y-100950500D01*
X125857297Y-100910934D01*
X126084656Y-100832882D01*
X126296067Y-100718472D01*
X126485764Y-100570825D01*
X126648571Y-100393969D01*
X126780049Y-100192728D01*
X126876610Y-99972591D01*
X126935620Y-99739563D01*
X126944442Y-99633090D01*
X126955471Y-99500005D01*
X126955471Y-99499994D01*
X126935620Y-99260440D01*
X126935620Y-99260437D01*
X126876610Y-99027409D01*
X126780049Y-98807272D01*
X126769999Y-98791890D01*
X126651585Y-98610645D01*
X127889500Y-98610645D01*
X127889500Y-100389363D01*
X127904953Y-100506753D01*
X127904956Y-100506762D01*
X127965464Y-100652841D01*
X128061718Y-100778282D01*
X128187159Y-100874536D01*
X128333238Y-100935044D01*
X128450639Y-100950500D01*
X130229360Y-100950499D01*
X130229363Y-100950499D01*
X130346753Y-100935046D01*
X130346757Y-100935044D01*
X130346762Y-100935044D01*
X130492841Y-100874536D01*
X130618282Y-100778282D01*
X130714536Y-100652841D01*
X130721751Y-100635420D01*
X130765590Y-100581019D01*
X130831884Y-100558953D01*
X130899584Y-100576231D01*
X130912474Y-100585021D01*
X131083924Y-100718466D01*
X131083930Y-100718470D01*
X131083933Y-100718472D01*
X131295344Y-100832882D01*
X131295347Y-100832883D01*
X131522699Y-100910933D01*
X131522701Y-100910933D01*
X131522703Y-100910934D01*
X131759808Y-100950500D01*
X131759809Y-100950500D01*
X132000191Y-100950500D01*
X132000192Y-100950500D01*
X132237297Y-100910934D01*
X132464656Y-100832882D01*
X132676067Y-100718472D01*
X132865764Y-100570825D01*
X133028571Y-100393969D01*
X133160049Y-100192728D01*
X133256610Y-99972591D01*
X133315620Y-99739563D01*
X133324442Y-99633090D01*
X133335471Y-99500005D01*
X133335471Y-99499994D01*
X133315620Y-99260440D01*
X133315620Y-99260437D01*
X133256610Y-99027409D01*
X133160049Y-98807272D01*
X133149999Y-98791890D01*
X133031585Y-98610645D01*
X133028571Y-98606031D01*
X132865764Y-98429175D01*
X132865759Y-98429171D01*
X132865757Y-98429169D01*
X132676075Y-98281533D01*
X132676069Y-98281529D01*
X132464657Y-98167118D01*
X132464652Y-98167116D01*
X132237300Y-98089066D01*
X132059468Y-98059391D01*
X132000192Y-98049500D01*
X131759808Y-98049500D01*
X131712387Y-98057413D01*
X131522699Y-98089066D01*
X131295347Y-98167116D01*
X131295342Y-98167118D01*
X131083930Y-98281529D01*
X131083924Y-98281533D01*
X130912474Y-98414979D01*
X130847480Y-98440622D01*
X130778940Y-98427056D01*
X130728616Y-98378587D01*
X130721755Y-98364587D01*
X130714536Y-98347159D01*
X130618282Y-98221718D01*
X130492841Y-98125464D01*
X130346762Y-98064956D01*
X130346760Y-98064955D01*
X130229370Y-98049501D01*
X130229367Y-98049500D01*
X130229361Y-98049500D01*
X130229354Y-98049500D01*
X128450636Y-98049500D01*
X128333246Y-98064953D01*
X128333237Y-98064956D01*
X128187160Y-98125463D01*
X128061718Y-98221718D01*
X127965463Y-98347160D01*
X127904956Y-98493237D01*
X127904955Y-98493239D01*
X127889501Y-98610629D01*
X127889500Y-98610645D01*
X126651585Y-98610645D01*
X126648571Y-98606031D01*
X126485764Y-98429175D01*
X126485759Y-98429171D01*
X126485757Y-98429169D01*
X126296075Y-98281533D01*
X126296069Y-98281529D01*
X126084657Y-98167118D01*
X126084652Y-98167116D01*
X125857300Y-98089066D01*
X125679468Y-98059391D01*
X125620192Y-98049500D01*
X125379808Y-98049500D01*
X125332387Y-98057413D01*
X125142699Y-98089066D01*
X124915347Y-98167116D01*
X124915342Y-98167118D01*
X124703930Y-98281529D01*
X124703924Y-98281533D01*
X124514242Y-98429169D01*
X124514239Y-98429172D01*
X124351430Y-98606029D01*
X124351429Y-98606031D01*
X124333807Y-98633003D01*
X124280660Y-98678358D01*
X124211429Y-98687780D01*
X124148093Y-98658277D01*
X124126193Y-98633003D01*
X124124154Y-98629883D01*
X124108571Y-98606031D01*
X123945764Y-98429175D01*
X123945759Y-98429171D01*
X123945757Y-98429169D01*
X123756075Y-98281533D01*
X123756069Y-98281529D01*
X123544657Y-98167118D01*
X123544652Y-98167116D01*
X123317300Y-98089066D01*
X123139468Y-98059391D01*
X123080192Y-98049500D01*
X122839808Y-98049500D01*
X122792387Y-98057413D01*
X122602699Y-98089066D01*
X122375347Y-98167116D01*
X122375342Y-98167118D01*
X122163930Y-98281529D01*
X122163924Y-98281533D01*
X121974242Y-98429169D01*
X121974239Y-98429172D01*
X121811430Y-98606029D01*
X121811429Y-98606031D01*
X121793807Y-98633003D01*
X121740660Y-98678358D01*
X121671429Y-98687780D01*
X121608093Y-98658277D01*
X121586193Y-98633003D01*
X121584154Y-98629883D01*
X121568571Y-98606031D01*
X121405764Y-98429175D01*
X121405759Y-98429171D01*
X121405757Y-98429169D01*
X121216075Y-98281533D01*
X121216069Y-98281529D01*
X121004657Y-98167118D01*
X121004652Y-98167116D01*
X120777300Y-98089066D01*
X120599468Y-98059391D01*
X120540192Y-98049500D01*
X120299808Y-98049500D01*
X120252387Y-98057413D01*
X120062699Y-98089066D01*
X119835347Y-98167116D01*
X119835342Y-98167118D01*
X119623930Y-98281529D01*
X119623924Y-98281533D01*
X119434242Y-98429169D01*
X119434239Y-98429172D01*
X119271430Y-98606029D01*
X119271427Y-98606033D01*
X119139951Y-98807270D01*
X119043389Y-99027410D01*
X118984379Y-99260440D01*
X118964529Y-99499994D01*
X118964529Y-99500005D01*
X118984379Y-99739559D01*
X119043389Y-99972589D01*
X119139948Y-100192723D01*
X119139954Y-100192734D01*
X119164307Y-100230007D01*
X119184496Y-100296896D01*
X119184500Y-100297830D01*
X119184500Y-100516877D01*
X119164815Y-100583916D01*
X119148181Y-100604558D01*
X118524558Y-101228181D01*
X118463235Y-101261666D01*
X118436877Y-101264500D01*
X110902759Y-101264500D01*
X110798465Y-101281019D01*
X110710690Y-101294921D01*
X110542333Y-101349624D01*
X110525731Y-101355018D01*
X110418146Y-101409836D01*
X110352457Y-101443306D01*
X110352454Y-101443307D01*
X110352454Y-101443308D01*
X110308213Y-101475451D01*
X110286251Y-101491407D01*
X110233471Y-101529753D01*
X110195125Y-101557613D01*
X101957613Y-109795125D01*
X101929753Y-109833471D01*
X101891407Y-109886251D01*
X101843308Y-109952454D01*
X101755019Y-110125728D01*
X101724970Y-110218210D01*
X101694922Y-110310687D01*
X101694921Y-110310690D01*
X101694921Y-110310692D01*
X101681019Y-110398465D01*
X101664500Y-110502758D01*
X101664500Y-120304363D01*
X101644815Y-120371402D01*
X101592011Y-120417157D01*
X101583265Y-120420755D01*
X101579981Y-120421961D01*
X101414247Y-120504157D01*
X101270059Y-120620058D01*
X101270058Y-120620059D01*
X101154157Y-120764247D01*
X101071963Y-120929976D01*
X101027317Y-121109500D01*
X101024500Y-121151048D01*
X99620125Y-121151048D01*
X99521035Y-121018678D01*
X99521019Y-121018660D01*
X99331339Y-120828980D01*
X99331321Y-120828964D01*
X99116564Y-120668200D01*
X99116556Y-120668195D01*
X98881106Y-120539629D01*
X98881102Y-120539627D01*
X98629734Y-120445872D01*
X98367601Y-120388849D01*
X98367594Y-120388848D01*
X98100001Y-120369709D01*
X98099999Y-120369709D01*
X97832405Y-120388848D01*
X97832398Y-120388849D01*
X97570265Y-120445872D01*
X97318897Y-120539627D01*
X97318893Y-120539629D01*
X97083443Y-120668195D01*
X97083435Y-120668200D01*
X96868678Y-120828964D01*
X96868660Y-120828980D01*
X96678980Y-121018660D01*
X96678964Y-121018678D01*
X96518200Y-121233435D01*
X96518195Y-121233443D01*
X96389629Y-121468893D01*
X96389627Y-121468897D01*
X96295872Y-121720265D01*
X96238849Y-121982398D01*
X96238848Y-121982405D01*
X96219709Y-122249998D01*
X89500000Y-122249998D01*
X89500000Y-98610645D01*
X111349500Y-98610645D01*
X111349500Y-100389363D01*
X111364953Y-100506753D01*
X111364956Y-100506762D01*
X111425464Y-100652841D01*
X111521718Y-100778282D01*
X111647159Y-100874536D01*
X111793238Y-100935044D01*
X111910639Y-100950500D01*
X113689360Y-100950499D01*
X113689363Y-100950499D01*
X113806753Y-100935046D01*
X113806757Y-100935044D01*
X113806762Y-100935044D01*
X113952841Y-100874536D01*
X114078282Y-100778282D01*
X114174536Y-100652841D01*
X114181751Y-100635420D01*
X114225590Y-100581019D01*
X114291884Y-100558953D01*
X114359584Y-100576231D01*
X114372474Y-100585021D01*
X114543924Y-100718466D01*
X114543930Y-100718470D01*
X114543933Y-100718472D01*
X114755344Y-100832882D01*
X114755347Y-100832883D01*
X114982699Y-100910933D01*
X114982701Y-100910933D01*
X114982703Y-100910934D01*
X115219808Y-100950500D01*
X115219809Y-100950500D01*
X115460191Y-100950500D01*
X115460192Y-100950500D01*
X115697297Y-100910934D01*
X115924656Y-100832882D01*
X116136067Y-100718472D01*
X116325764Y-100570825D01*
X116488571Y-100393969D01*
X116620049Y-100192728D01*
X116716610Y-99972591D01*
X116775620Y-99739563D01*
X116784442Y-99633090D01*
X116795471Y-99500005D01*
X116795471Y-99499994D01*
X116775620Y-99260440D01*
X116775620Y-99260437D01*
X116716610Y-99027409D01*
X116620049Y-98807272D01*
X116609999Y-98791890D01*
X116491585Y-98610645D01*
X116488571Y-98606031D01*
X116325764Y-98429175D01*
X116325759Y-98429171D01*
X116325757Y-98429169D01*
X116136075Y-98281533D01*
X116136069Y-98281529D01*
X115924657Y-98167118D01*
X115924652Y-98167116D01*
X115697300Y-98089066D01*
X115519468Y-98059391D01*
X115460192Y-98049500D01*
X115219808Y-98049500D01*
X115172387Y-98057413D01*
X114982699Y-98089066D01*
X114755347Y-98167116D01*
X114755342Y-98167118D01*
X114543930Y-98281529D01*
X114543924Y-98281533D01*
X114372474Y-98414979D01*
X114307480Y-98440622D01*
X114238940Y-98427056D01*
X114188616Y-98378587D01*
X114181755Y-98364587D01*
X114174536Y-98347159D01*
X114078282Y-98221718D01*
X113952841Y-98125464D01*
X113806762Y-98064956D01*
X113806760Y-98064955D01*
X113689370Y-98049501D01*
X113689367Y-98049500D01*
X113689361Y-98049500D01*
X113689354Y-98049500D01*
X111910636Y-98049500D01*
X111793246Y-98064953D01*
X111793237Y-98064956D01*
X111647160Y-98125463D01*
X111521718Y-98221718D01*
X111425463Y-98347160D01*
X111364956Y-98493237D01*
X111364955Y-98493239D01*
X111349501Y-98610629D01*
X111349500Y-98610645D01*
X89500000Y-98610645D01*
X89500000Y-94610645D01*
X111349500Y-94610645D01*
X111349500Y-96389363D01*
X111364953Y-96506753D01*
X111364956Y-96506762D01*
X111425464Y-96652841D01*
X111521718Y-96778282D01*
X111647159Y-96874536D01*
X111793238Y-96935044D01*
X111910639Y-96950500D01*
X113689360Y-96950499D01*
X113689363Y-96950499D01*
X113806753Y-96935046D01*
X113806757Y-96935044D01*
X113806762Y-96935044D01*
X113952841Y-96874536D01*
X114078282Y-96778282D01*
X114174536Y-96652841D01*
X114181751Y-96635420D01*
X114225590Y-96581019D01*
X114291884Y-96558953D01*
X114359584Y-96576231D01*
X114372474Y-96585021D01*
X114543924Y-96718466D01*
X114543930Y-96718470D01*
X114543933Y-96718472D01*
X114755344Y-96832882D01*
X114755347Y-96832883D01*
X114982699Y-96910933D01*
X114982701Y-96910933D01*
X114982703Y-96910934D01*
X115219808Y-96950500D01*
X115219809Y-96950500D01*
X115460191Y-96950500D01*
X115460192Y-96950500D01*
X115697297Y-96910934D01*
X115924656Y-96832882D01*
X116136067Y-96718472D01*
X116325764Y-96570825D01*
X116488571Y-96393969D01*
X116620049Y-96192728D01*
X116716610Y-95972591D01*
X116775620Y-95739563D01*
X116795471Y-95500000D01*
X116795471Y-95499994D01*
X118964529Y-95499994D01*
X118964529Y-95500005D01*
X118984379Y-95739559D01*
X119043389Y-95972589D01*
X119139951Y-96192729D01*
X119238742Y-96343938D01*
X119271429Y-96393969D01*
X119434236Y-96570825D01*
X119434239Y-96570827D01*
X119434242Y-96570830D01*
X119623924Y-96718466D01*
X119623930Y-96718470D01*
X119623933Y-96718472D01*
X119835344Y-96832882D01*
X119835347Y-96832883D01*
X120062699Y-96910933D01*
X120062701Y-96910933D01*
X120062703Y-96910934D01*
X120299808Y-96950500D01*
X120299809Y-96950500D01*
X120540191Y-96950500D01*
X120540192Y-96950500D01*
X120777297Y-96910934D01*
X121004656Y-96832882D01*
X121216067Y-96718472D01*
X121405764Y-96570825D01*
X121568571Y-96393969D01*
X121586193Y-96366995D01*
X121639337Y-96321641D01*
X121708568Y-96312217D01*
X121771904Y-96341718D01*
X121793804Y-96366992D01*
X121811429Y-96393969D01*
X121974236Y-96570825D01*
X121974239Y-96570827D01*
X121974242Y-96570830D01*
X122163924Y-96718466D01*
X122163930Y-96718470D01*
X122163933Y-96718472D01*
X122375344Y-96832882D01*
X122375347Y-96832883D01*
X122602699Y-96910933D01*
X122602701Y-96910933D01*
X122602703Y-96910934D01*
X122839808Y-96950500D01*
X122839809Y-96950500D01*
X123080191Y-96950500D01*
X123080192Y-96950500D01*
X123317297Y-96910934D01*
X123544656Y-96832882D01*
X123756067Y-96718472D01*
X123945764Y-96570825D01*
X124108571Y-96393969D01*
X124126193Y-96366995D01*
X124179337Y-96321641D01*
X124248568Y-96312217D01*
X124311904Y-96341718D01*
X124333804Y-96366992D01*
X124351429Y-96393969D01*
X124514236Y-96570825D01*
X124514239Y-96570827D01*
X124514242Y-96570830D01*
X124703924Y-96718466D01*
X124703930Y-96718470D01*
X124703933Y-96718472D01*
X124915344Y-96832882D01*
X124915347Y-96832883D01*
X125142699Y-96910933D01*
X125142701Y-96910933D01*
X125142703Y-96910934D01*
X125379808Y-96950500D01*
X125379809Y-96950500D01*
X125620191Y-96950500D01*
X125620192Y-96950500D01*
X125857297Y-96910934D01*
X126084656Y-96832882D01*
X126296067Y-96718472D01*
X126485764Y-96570825D01*
X126648571Y-96393969D01*
X126780049Y-96192728D01*
X126876610Y-95972591D01*
X126935620Y-95739563D01*
X126955471Y-95500000D01*
X126955186Y-95496565D01*
X126935620Y-95260440D01*
X126935620Y-95260437D01*
X126876610Y-95027409D01*
X126780049Y-94807272D01*
X126769999Y-94791890D01*
X126651585Y-94610645D01*
X127889500Y-94610645D01*
X127889500Y-96389363D01*
X127904953Y-96506753D01*
X127904956Y-96506762D01*
X127965464Y-96652841D01*
X128061718Y-96778282D01*
X128187159Y-96874536D01*
X128333238Y-96935044D01*
X128450639Y-96950500D01*
X130229360Y-96950499D01*
X130229363Y-96950499D01*
X130346753Y-96935046D01*
X130346757Y-96935044D01*
X130346762Y-96935044D01*
X130492841Y-96874536D01*
X130618282Y-96778282D01*
X130714536Y-96652841D01*
X130721751Y-96635420D01*
X130765590Y-96581019D01*
X130831884Y-96558953D01*
X130899584Y-96576231D01*
X130912474Y-96585021D01*
X131083924Y-96718466D01*
X131083930Y-96718470D01*
X131083933Y-96718472D01*
X131295344Y-96832882D01*
X131295347Y-96832883D01*
X131522699Y-96910933D01*
X131522701Y-96910933D01*
X131522703Y-96910934D01*
X131759808Y-96950500D01*
X131759809Y-96950500D01*
X132000191Y-96950500D01*
X132000192Y-96950500D01*
X132237297Y-96910934D01*
X132464656Y-96832882D01*
X132676067Y-96718472D01*
X132865764Y-96570825D01*
X133028571Y-96393969D01*
X133160049Y-96192728D01*
X133256610Y-95972591D01*
X133315620Y-95739563D01*
X133335471Y-95500000D01*
X133335471Y-95499994D01*
X135504529Y-95499994D01*
X135504529Y-95500005D01*
X135524379Y-95739559D01*
X135583389Y-95972589D01*
X135679951Y-96192729D01*
X135778742Y-96343938D01*
X135811429Y-96393969D01*
X135974236Y-96570825D01*
X135974239Y-96570827D01*
X135974242Y-96570830D01*
X136163924Y-96718466D01*
X136163930Y-96718470D01*
X136163933Y-96718472D01*
X136375344Y-96832882D01*
X136375347Y-96832883D01*
X136602699Y-96910933D01*
X136602701Y-96910933D01*
X136602703Y-96910934D01*
X136839808Y-96950500D01*
X136839809Y-96950500D01*
X137080191Y-96950500D01*
X137080192Y-96950500D01*
X137317297Y-96910934D01*
X137544656Y-96832882D01*
X137756067Y-96718472D01*
X137945764Y-96570825D01*
X138108571Y-96393969D01*
X138126193Y-96366995D01*
X138179337Y-96321641D01*
X138248568Y-96312217D01*
X138311904Y-96341718D01*
X138333804Y-96366992D01*
X138351429Y-96393969D01*
X138514236Y-96570825D01*
X138514239Y-96570827D01*
X138514242Y-96570830D01*
X138703924Y-96718466D01*
X138703930Y-96718470D01*
X138703933Y-96718472D01*
X138915344Y-96832882D01*
X138915347Y-96832883D01*
X139142699Y-96910933D01*
X139142701Y-96910933D01*
X139142703Y-96910934D01*
X139379808Y-96950500D01*
X139379809Y-96950500D01*
X139620191Y-96950500D01*
X139620192Y-96950500D01*
X139857297Y-96910934D01*
X140084656Y-96832882D01*
X140296067Y-96718472D01*
X140485764Y-96570825D01*
X140648571Y-96393969D01*
X140666193Y-96366995D01*
X140719337Y-96321641D01*
X140788568Y-96312217D01*
X140851904Y-96341718D01*
X140873804Y-96366992D01*
X140891429Y-96393969D01*
X141054236Y-96570825D01*
X141054239Y-96570827D01*
X141054242Y-96570830D01*
X141243924Y-96718466D01*
X141243930Y-96718470D01*
X141243933Y-96718472D01*
X141455344Y-96832882D01*
X141455347Y-96832883D01*
X141682699Y-96910933D01*
X141682701Y-96910933D01*
X141682703Y-96910934D01*
X141919808Y-96950500D01*
X141919809Y-96950500D01*
X142160191Y-96950500D01*
X142160192Y-96950500D01*
X142397297Y-96910934D01*
X142624656Y-96832882D01*
X142836067Y-96718472D01*
X143025764Y-96570825D01*
X143188571Y-96393969D01*
X143320049Y-96192728D01*
X143416610Y-95972591D01*
X143475620Y-95739563D01*
X143495471Y-95500000D01*
X143495186Y-95496565D01*
X143475620Y-95260440D01*
X143475620Y-95260437D01*
X143416610Y-95027409D01*
X143320049Y-94807272D01*
X143309999Y-94791890D01*
X143191585Y-94610645D01*
X143188571Y-94606031D01*
X143025764Y-94429175D01*
X143025759Y-94429171D01*
X143025757Y-94429169D01*
X142836075Y-94281533D01*
X142836069Y-94281529D01*
X142624657Y-94167118D01*
X142624652Y-94167116D01*
X142397300Y-94089066D01*
X142219468Y-94059391D01*
X142160192Y-94049500D01*
X141919808Y-94049500D01*
X141872387Y-94057413D01*
X141682699Y-94089066D01*
X141455347Y-94167116D01*
X141455342Y-94167118D01*
X141243930Y-94281529D01*
X141243924Y-94281533D01*
X141054242Y-94429169D01*
X141054239Y-94429172D01*
X141054236Y-94429174D01*
X141054236Y-94429175D01*
X141018294Y-94468217D01*
X140891430Y-94606029D01*
X140891429Y-94606031D01*
X140873807Y-94633003D01*
X140820660Y-94678358D01*
X140751429Y-94687780D01*
X140688093Y-94658277D01*
X140666193Y-94633003D01*
X140664154Y-94629883D01*
X140648571Y-94606031D01*
X140485764Y-94429175D01*
X140485759Y-94429171D01*
X140485757Y-94429169D01*
X140296075Y-94281533D01*
X140296069Y-94281529D01*
X140084657Y-94167118D01*
X140084652Y-94167116D01*
X139935195Y-94115808D01*
X139878180Y-94075423D01*
X139852049Y-94010623D01*
X139865100Y-93941983D01*
X139887785Y-93910837D01*
X139891816Y-93906808D01*
X139953143Y-93873331D01*
X139979486Y-93870500D01*
X140462235Y-93870500D01*
X140462236Y-93870500D01*
X140566534Y-93853980D01*
X140566535Y-93853980D01*
X140595793Y-93849346D01*
X140654313Y-93840078D01*
X140839267Y-93779982D01*
X140902071Y-93747982D01*
X141012543Y-93691694D01*
X141078748Y-93643592D01*
X141169874Y-93577387D01*
X144645193Y-90102068D01*
X148156961Y-86590301D01*
X148156963Y-86590298D01*
X148156965Y-86590296D01*
X148223170Y-86499170D01*
X148271272Y-86432965D01*
X148359560Y-86259689D01*
X148419655Y-86074736D01*
X148450078Y-85882658D01*
X148450078Y-85754851D01*
X148469763Y-85687812D01*
X148522567Y-85642057D01*
X148574078Y-85630851D01*
X148653941Y-85630851D01*
X148771331Y-85615398D01*
X148771335Y-85615396D01*
X148771340Y-85615396D01*
X148917419Y-85554888D01*
X149042860Y-85458634D01*
X149139114Y-85333193D01*
X149199622Y-85187114D01*
X149215078Y-85069713D01*
X149215077Y-82190992D01*
X149215077Y-82190991D01*
X149215077Y-82190988D01*
X149199624Y-82073598D01*
X149199622Y-82073591D01*
X149199622Y-82073590D01*
X149139114Y-81927511D01*
X149042860Y-81802070D01*
X148917419Y-81705816D01*
X148771340Y-81645308D01*
X148771338Y-81645307D01*
X148653948Y-81629853D01*
X148653945Y-81629852D01*
X148653939Y-81629852D01*
X148653932Y-81629852D01*
X145775214Y-81629852D01*
X145657824Y-81645305D01*
X145657815Y-81645308D01*
X145511738Y-81705815D01*
X145386296Y-81802070D01*
X145290041Y-81927512D01*
X145229534Y-82073589D01*
X145229533Y-82073591D01*
X145214079Y-82190981D01*
X145214079Y-82190988D01*
X145214078Y-82190997D01*
X145214078Y-85069715D01*
X145229531Y-85187105D01*
X145229534Y-85187114D01*
X145290042Y-85333193D01*
X145386296Y-85458634D01*
X145500293Y-85546107D01*
X145504868Y-85549617D01*
X145546071Y-85606045D01*
X145550226Y-85675791D01*
X145517063Y-85735674D01*
X140433836Y-90818902D01*
X140372513Y-90852387D01*
X140302821Y-90847403D01*
X140246888Y-90805531D01*
X140222471Y-90740067D01*
X140222155Y-90731221D01*
X140222155Y-88560636D01*
X140206702Y-88443246D01*
X140206700Y-88443239D01*
X140206700Y-88443238D01*
X140146192Y-88297159D01*
X140049938Y-88171718D01*
X139924497Y-88075464D01*
X139778418Y-88014956D01*
X139778416Y-88014955D01*
X139661026Y-87999501D01*
X139661023Y-87999500D01*
X139661017Y-87999500D01*
X139661010Y-87999500D01*
X136782292Y-87999500D01*
X136664902Y-88014953D01*
X136664893Y-88014956D01*
X136518816Y-88075463D01*
X136393374Y-88171718D01*
X136297119Y-88297160D01*
X136236612Y-88443237D01*
X136236611Y-88443239D01*
X136221157Y-88560629D01*
X136221157Y-88560636D01*
X136221156Y-88560645D01*
X136221156Y-91439363D01*
X136236609Y-91556753D01*
X136236612Y-91556762D01*
X136262919Y-91620274D01*
X136297120Y-91702841D01*
X136393374Y-91828282D01*
X136518815Y-91924536D01*
X136664894Y-91985044D01*
X136782295Y-92000500D01*
X138004241Y-92000499D01*
X138071280Y-92020184D01*
X138117035Y-92072987D01*
X138126979Y-92142146D01*
X138097954Y-92205702D01*
X138091922Y-92212180D01*
X136017614Y-94286488D01*
X136017609Y-94286494D01*
X135973534Y-94347159D01*
X135903306Y-94443819D01*
X135839818Y-94568420D01*
X135820570Y-94596100D01*
X135811431Y-94606027D01*
X135811427Y-94606034D01*
X135679949Y-94807275D01*
X135583389Y-95027410D01*
X135524379Y-95260440D01*
X135504529Y-95499994D01*
X133335471Y-95499994D01*
X133335186Y-95496565D01*
X133315620Y-95260440D01*
X133315620Y-95260437D01*
X133256610Y-95027409D01*
X133160049Y-94807272D01*
X133149999Y-94791890D01*
X133031585Y-94610645D01*
X133028571Y-94606031D01*
X132865764Y-94429175D01*
X132865759Y-94429171D01*
X132865757Y-94429169D01*
X132676075Y-94281533D01*
X132676069Y-94281529D01*
X132464657Y-94167118D01*
X132464652Y-94167116D01*
X132237300Y-94089066D01*
X132059468Y-94059391D01*
X132000192Y-94049500D01*
X131759808Y-94049500D01*
X131712387Y-94057413D01*
X131522699Y-94089066D01*
X131295347Y-94167116D01*
X131295342Y-94167118D01*
X131083930Y-94281529D01*
X131083924Y-94281533D01*
X130912474Y-94414979D01*
X130847480Y-94440622D01*
X130778940Y-94427056D01*
X130728616Y-94378587D01*
X130721755Y-94364587D01*
X130714536Y-94347159D01*
X130618282Y-94221718D01*
X130492841Y-94125464D01*
X130469529Y-94115808D01*
X130346762Y-94064956D01*
X130346760Y-94064955D01*
X130229370Y-94049501D01*
X130229367Y-94049500D01*
X130229361Y-94049500D01*
X130229354Y-94049500D01*
X128450636Y-94049500D01*
X128333246Y-94064953D01*
X128333237Y-94064956D01*
X128187160Y-94125463D01*
X128061718Y-94221718D01*
X127965463Y-94347160D01*
X127904956Y-94493237D01*
X127904955Y-94493239D01*
X127889501Y-94610629D01*
X127889500Y-94610645D01*
X126651585Y-94610645D01*
X126648571Y-94606031D01*
X126485764Y-94429175D01*
X126485759Y-94429171D01*
X126485757Y-94429169D01*
X126296075Y-94281533D01*
X126296069Y-94281529D01*
X126084657Y-94167118D01*
X126084652Y-94167116D01*
X125857300Y-94089066D01*
X125679468Y-94059391D01*
X125620192Y-94049500D01*
X125379808Y-94049500D01*
X125332387Y-94057413D01*
X125142699Y-94089066D01*
X124915347Y-94167116D01*
X124915342Y-94167118D01*
X124703930Y-94281529D01*
X124703924Y-94281533D01*
X124514242Y-94429169D01*
X124514239Y-94429172D01*
X124514236Y-94429174D01*
X124514236Y-94429175D01*
X124478294Y-94468217D01*
X124351430Y-94606029D01*
X124351429Y-94606031D01*
X124333807Y-94633003D01*
X124280660Y-94678358D01*
X124211429Y-94687780D01*
X124148093Y-94658277D01*
X124126193Y-94633003D01*
X124124154Y-94629883D01*
X124108571Y-94606031D01*
X123945764Y-94429175D01*
X123945759Y-94429171D01*
X123945757Y-94429169D01*
X123756075Y-94281533D01*
X123756069Y-94281529D01*
X123544657Y-94167118D01*
X123544652Y-94167116D01*
X123317300Y-94089066D01*
X123139468Y-94059391D01*
X123080192Y-94049500D01*
X122839808Y-94049500D01*
X122792387Y-94057413D01*
X122602699Y-94089066D01*
X122375347Y-94167116D01*
X122375342Y-94167118D01*
X122163930Y-94281529D01*
X122163924Y-94281533D01*
X121974242Y-94429169D01*
X121974239Y-94429172D01*
X121974236Y-94429174D01*
X121974236Y-94429175D01*
X121938294Y-94468217D01*
X121811430Y-94606029D01*
X121811429Y-94606031D01*
X121793807Y-94633003D01*
X121740660Y-94678358D01*
X121671429Y-94687780D01*
X121608093Y-94658277D01*
X121586193Y-94633003D01*
X121584154Y-94629883D01*
X121568571Y-94606031D01*
X121405764Y-94429175D01*
X121405759Y-94429171D01*
X121405757Y-94429169D01*
X121216075Y-94281533D01*
X121216069Y-94281529D01*
X121004657Y-94167118D01*
X121004652Y-94167116D01*
X120777300Y-94089066D01*
X120599468Y-94059391D01*
X120540192Y-94049500D01*
X120299808Y-94049500D01*
X120252387Y-94057413D01*
X120062699Y-94089066D01*
X119835347Y-94167116D01*
X119835342Y-94167118D01*
X119623930Y-94281529D01*
X119623924Y-94281533D01*
X119434242Y-94429169D01*
X119434239Y-94429172D01*
X119434236Y-94429174D01*
X119434236Y-94429175D01*
X119398294Y-94468217D01*
X119271430Y-94606029D01*
X119271427Y-94606033D01*
X119139951Y-94807270D01*
X119043389Y-95027410D01*
X118984379Y-95260440D01*
X118964529Y-95499994D01*
X116795471Y-95499994D01*
X116795186Y-95496565D01*
X116775620Y-95260440D01*
X116775620Y-95260437D01*
X116716610Y-95027409D01*
X116620049Y-94807272D01*
X116609999Y-94791890D01*
X116491585Y-94610645D01*
X116488571Y-94606031D01*
X116325764Y-94429175D01*
X116325759Y-94429171D01*
X116325757Y-94429169D01*
X116136075Y-94281533D01*
X116136069Y-94281529D01*
X115924657Y-94167118D01*
X115924652Y-94167116D01*
X115697300Y-94089066D01*
X115519468Y-94059391D01*
X115460192Y-94049500D01*
X115219808Y-94049500D01*
X115172387Y-94057413D01*
X114982699Y-94089066D01*
X114755347Y-94167116D01*
X114755342Y-94167118D01*
X114543930Y-94281529D01*
X114543924Y-94281533D01*
X114372474Y-94414979D01*
X114307480Y-94440622D01*
X114238940Y-94427056D01*
X114188616Y-94378587D01*
X114181755Y-94364587D01*
X114174536Y-94347159D01*
X114078282Y-94221718D01*
X113952841Y-94125464D01*
X113929529Y-94115808D01*
X113806762Y-94064956D01*
X113806760Y-94064955D01*
X113689370Y-94049501D01*
X113689367Y-94049500D01*
X113689361Y-94049500D01*
X113689354Y-94049500D01*
X111910636Y-94049500D01*
X111793246Y-94064953D01*
X111793237Y-94064956D01*
X111647160Y-94125463D01*
X111521718Y-94221718D01*
X111425463Y-94347160D01*
X111364956Y-94493237D01*
X111364955Y-94493239D01*
X111349501Y-94610629D01*
X111349500Y-94610645D01*
X89500000Y-94610645D01*
X89500000Y-89518344D01*
X110369249Y-89518344D01*
X110369249Y-89518359D01*
X110388542Y-89812715D01*
X110388543Y-89812725D01*
X110388544Y-89812732D01*
X110425793Y-90000000D01*
X110446096Y-90102068D01*
X110446099Y-90102082D01*
X110540927Y-90381432D01*
X110671403Y-90646012D01*
X110671407Y-90646019D01*
X110835303Y-90891307D01*
X111029819Y-91113110D01*
X111251622Y-91307626D01*
X111470896Y-91454140D01*
X111496913Y-91471524D01*
X111761501Y-91602004D01*
X112040856Y-91696833D01*
X112330198Y-91754386D01*
X112358466Y-91756238D01*
X112624571Y-91773681D01*
X112624578Y-91773681D01*
X112624585Y-91773681D01*
X112860253Y-91758233D01*
X112918958Y-91754386D01*
X113208300Y-91696833D01*
X113487655Y-91602004D01*
X113752243Y-91471524D01*
X113997535Y-91307625D01*
X114219336Y-91113110D01*
X114413851Y-90891309D01*
X114577750Y-90646017D01*
X114708230Y-90381429D01*
X114803059Y-90102074D01*
X114823363Y-89999998D01*
X131216046Y-89999998D01*
X131216046Y-90000001D01*
X131236460Y-90285433D01*
X131297284Y-90565037D01*
X131297286Y-90565043D01*
X131297287Y-90565046D01*
X131359267Y-90731221D01*
X131397291Y-90833166D01*
X131534426Y-91084309D01*
X131534431Y-91084317D01*
X131705910Y-91313387D01*
X131705926Y-91313405D01*
X131908250Y-91515729D01*
X131908268Y-91515745D01*
X132137338Y-91687224D01*
X132137346Y-91687229D01*
X132388489Y-91824364D01*
X132388488Y-91824364D01*
X132388492Y-91824365D01*
X132388495Y-91824367D01*
X132656610Y-91924369D01*
X132656616Y-91924370D01*
X132656618Y-91924371D01*
X132936222Y-91985195D01*
X132936224Y-91985195D01*
X132936228Y-91985196D01*
X133189876Y-92003337D01*
X133221655Y-92005610D01*
X133221656Y-92005610D01*
X133221657Y-92005610D01*
X133250251Y-92003564D01*
X133507084Y-91985196D01*
X133507788Y-91985043D01*
X133786693Y-91924371D01*
X133786693Y-91924370D01*
X133786702Y-91924369D01*
X134054817Y-91824367D01*
X134305971Y-91687226D01*
X134535051Y-91515739D01*
X134737395Y-91313395D01*
X134908882Y-91084315D01*
X135046023Y-90833161D01*
X135146025Y-90565046D01*
X135206852Y-90285428D01*
X135227266Y-90000000D01*
X135206852Y-89714572D01*
X135164165Y-89518344D01*
X135146027Y-89434962D01*
X135146026Y-89434960D01*
X135146025Y-89434954D01*
X135046023Y-89166839D01*
X134908882Y-88915685D01*
X134908880Y-88915682D01*
X134737401Y-88686612D01*
X134737385Y-88686594D01*
X134535061Y-88484270D01*
X134535043Y-88484254D01*
X134305973Y-88312775D01*
X134305965Y-88312770D01*
X134054822Y-88175635D01*
X134054823Y-88175635D01*
X133947571Y-88135632D01*
X133786702Y-88075631D01*
X133786699Y-88075630D01*
X133786693Y-88075628D01*
X133507089Y-88014804D01*
X133221657Y-87994390D01*
X133221655Y-87994390D01*
X132936222Y-88014804D01*
X132656618Y-88075628D01*
X132388489Y-88175635D01*
X132137346Y-88312770D01*
X132137338Y-88312775D01*
X131908268Y-88484254D01*
X131908250Y-88484270D01*
X131705926Y-88686594D01*
X131705910Y-88686612D01*
X131534431Y-88915682D01*
X131534426Y-88915690D01*
X131397291Y-89166833D01*
X131297284Y-89434962D01*
X131236460Y-89714566D01*
X131216046Y-89999998D01*
X114823363Y-89999998D01*
X114860612Y-89812732D01*
X114879907Y-89518352D01*
X114879907Y-89518344D01*
X114860613Y-89223988D01*
X114860612Y-89223972D01*
X114803059Y-88934630D01*
X114708230Y-88655275D01*
X114577750Y-88390688D01*
X114574527Y-88385865D01*
X114463519Y-88219729D01*
X114413851Y-88145395D01*
X114352522Y-88075463D01*
X114219336Y-87923593D01*
X113997533Y-87729077D01*
X113752245Y-87565181D01*
X113752238Y-87565177D01*
X113487658Y-87434701D01*
X113208308Y-87339873D01*
X113208302Y-87339871D01*
X113208300Y-87339871D01*
X112918958Y-87282318D01*
X112918951Y-87282317D01*
X112918941Y-87282316D01*
X112624585Y-87263023D01*
X112624571Y-87263023D01*
X112330214Y-87282316D01*
X112330202Y-87282317D01*
X112330198Y-87282318D01*
X112330190Y-87282319D01*
X112330187Y-87282320D01*
X112040861Y-87339870D01*
X112040847Y-87339873D01*
X111761497Y-87434701D01*
X111496912Y-87565180D01*
X111251619Y-87729080D01*
X111029819Y-87923593D01*
X110835306Y-88145393D01*
X110671406Y-88390686D01*
X110540927Y-88655271D01*
X110446099Y-88934621D01*
X110446096Y-88934635D01*
X110388546Y-89223961D01*
X110388542Y-89223988D01*
X110369249Y-89518344D01*
X89500000Y-89518344D01*
X89500000Y-85151048D01*
X96124500Y-85151048D01*
X96124500Y-87348951D01*
X96127317Y-87390499D01*
X96171963Y-87570023D01*
X96254157Y-87735752D01*
X96254158Y-87735753D01*
X96370059Y-87879941D01*
X96514247Y-87995842D01*
X96679978Y-88078037D01*
X96859501Y-88122682D01*
X96859502Y-88122682D01*
X96859505Y-88122683D01*
X96901046Y-88125500D01*
X96901048Y-88125500D01*
X99098952Y-88125500D01*
X99098954Y-88125500D01*
X99140495Y-88122683D01*
X99320022Y-88078037D01*
X99485753Y-87995842D01*
X99629941Y-87879941D01*
X99745842Y-87735753D01*
X99828037Y-87570022D01*
X99872683Y-87390495D01*
X99875500Y-87348954D01*
X99875500Y-85151046D01*
X99872683Y-85109505D01*
X99862789Y-85069722D01*
X99858114Y-85050922D01*
X99828037Y-84929978D01*
X99745842Y-84764247D01*
X99629941Y-84620059D01*
X99485753Y-84504158D01*
X99485752Y-84504157D01*
X99320023Y-84421963D01*
X99140497Y-84377317D01*
X99140501Y-84377317D01*
X99109339Y-84375204D01*
X99098954Y-84374500D01*
X96901046Y-84374500D01*
X96889177Y-84375304D01*
X96859500Y-84377317D01*
X96679976Y-84421963D01*
X96514247Y-84504157D01*
X96370059Y-84620058D01*
X96370058Y-84620059D01*
X96254157Y-84764247D01*
X96171963Y-84929976D01*
X96127317Y-85109500D01*
X96124500Y-85151048D01*
X89500000Y-85151048D01*
X89500000Y-73630350D01*
X145208968Y-73630350D01*
X145208968Y-73630353D01*
X145229382Y-73915785D01*
X145290206Y-74195389D01*
X145290208Y-74195395D01*
X145290209Y-74195398D01*
X145387025Y-74454970D01*
X145390213Y-74463518D01*
X145527348Y-74714661D01*
X145527353Y-74714669D01*
X145698832Y-74943739D01*
X145698848Y-74943757D01*
X145901172Y-75146081D01*
X145901190Y-75146097D01*
X146130260Y-75317576D01*
X146130268Y-75317581D01*
X146381411Y-75454716D01*
X146381410Y-75454716D01*
X146381414Y-75454717D01*
X146381417Y-75454719D01*
X146649532Y-75554721D01*
X146649538Y-75554722D01*
X146649540Y-75554723D01*
X146929144Y-75615547D01*
X146929146Y-75615547D01*
X146929150Y-75615548D01*
X147182798Y-75633689D01*
X147214577Y-75635962D01*
X147214578Y-75635962D01*
X147214579Y-75635962D01*
X147243173Y-75633916D01*
X147500006Y-75615548D01*
X147779624Y-75554721D01*
X148047739Y-75454719D01*
X148298893Y-75317578D01*
X148527973Y-75146091D01*
X148730317Y-74943747D01*
X148901804Y-74714667D01*
X149038945Y-74463513D01*
X149138947Y-74195398D01*
X149199774Y-73915780D01*
X149220188Y-73630352D01*
X149199774Y-73344924D01*
X149197846Y-73336063D01*
X149138949Y-73065314D01*
X149138948Y-73065312D01*
X149138947Y-73065306D01*
X149038945Y-72797191D01*
X148942083Y-72619803D01*
X148901807Y-72546042D01*
X148901802Y-72546034D01*
X148730323Y-72316964D01*
X148730307Y-72316946D01*
X148527983Y-72114622D01*
X148527965Y-72114606D01*
X148298895Y-71943127D01*
X148298887Y-71943122D01*
X148047744Y-71805987D01*
X148047745Y-71805987D01*
X147940493Y-71765984D01*
X147779624Y-71705983D01*
X147779621Y-71705982D01*
X147779615Y-71705980D01*
X147500011Y-71645156D01*
X147214579Y-71624742D01*
X147214577Y-71624742D01*
X146929144Y-71645156D01*
X146649540Y-71705980D01*
X146381411Y-71805987D01*
X146130268Y-71943122D01*
X146130260Y-71943127D01*
X145901190Y-72114606D01*
X145901172Y-72114622D01*
X145698848Y-72316946D01*
X145698832Y-72316964D01*
X145527353Y-72546034D01*
X145527348Y-72546042D01*
X145390213Y-72797185D01*
X145290206Y-73065314D01*
X145229382Y-73344918D01*
X145208968Y-73630350D01*
X89500000Y-73630350D01*
X89500000Y-62189999D01*
X104294422Y-62189999D01*
X104294422Y-62190000D01*
X104314722Y-62577339D01*
X104375397Y-62960427D01*
X104375397Y-62960429D01*
X104475788Y-63335094D01*
X104614787Y-63697197D01*
X104790877Y-64042793D01*
X105002122Y-64368082D01*
X105120866Y-64514718D01*
X105246219Y-64669516D01*
X105520484Y-64943781D01*
X105520488Y-64943784D01*
X105821917Y-65187877D01*
X105842034Y-65200941D01*
X106147211Y-65399125D01*
X106492806Y-65575214D01*
X106854913Y-65714214D01*
X107229567Y-65814602D01*
X107612662Y-65875278D01*
X107978576Y-65894455D01*
X107999999Y-65895578D01*
X108000000Y-65895578D01*
X108000001Y-65895578D01*
X108020301Y-65894514D01*
X108387338Y-65875278D01*
X108770433Y-65814602D01*
X109145087Y-65714214D01*
X109507194Y-65575214D01*
X109852789Y-65399125D01*
X110178084Y-65187876D01*
X110479516Y-64943781D01*
X110753781Y-64669516D01*
X110997876Y-64368084D01*
X111209125Y-64042789D01*
X111385214Y-63697194D01*
X111524214Y-63335087D01*
X111624602Y-62960433D01*
X111685278Y-62577338D01*
X111705578Y-62190000D01*
X111685278Y-61802662D01*
X111624602Y-61419567D01*
X111524214Y-61044913D01*
X111385214Y-60682806D01*
X111209125Y-60337211D01*
X111175955Y-60286134D01*
X110997877Y-60011917D01*
X110753784Y-59710488D01*
X110753781Y-59710484D01*
X110479516Y-59436219D01*
X110324718Y-59310866D01*
X110178082Y-59192122D01*
X109852793Y-58980877D01*
X109507197Y-58804787D01*
X109145094Y-58665788D01*
X109145087Y-58665786D01*
X108770433Y-58565398D01*
X108770429Y-58565397D01*
X108770428Y-58565397D01*
X108387339Y-58504722D01*
X108000001Y-58484422D01*
X107999999Y-58484422D01*
X107612660Y-58504722D01*
X107229572Y-58565397D01*
X107229570Y-58565397D01*
X106854905Y-58665788D01*
X106492802Y-58804787D01*
X106147206Y-58980877D01*
X105821917Y-59192122D01*
X105520488Y-59436215D01*
X105520480Y-59436222D01*
X105246222Y-59710480D01*
X105246215Y-59710488D01*
X105002122Y-60011917D01*
X104790877Y-60337206D01*
X104614787Y-60682802D01*
X104475788Y-61044905D01*
X104375397Y-61419570D01*
X104375397Y-61419572D01*
X104314722Y-61802660D01*
X104294422Y-62189999D01*
X89500000Y-62189999D01*
X89500000Y-53018344D01*
X110619249Y-53018344D01*
X110619249Y-53018359D01*
X110638542Y-53312715D01*
X110638543Y-53312725D01*
X110638544Y-53312732D01*
X110638546Y-53312742D01*
X110696096Y-53602068D01*
X110696099Y-53602082D01*
X110790927Y-53881432D01*
X110921403Y-54146012D01*
X110921407Y-54146019D01*
X111085303Y-54391307D01*
X111279819Y-54613110D01*
X111501622Y-54807626D01*
X111746910Y-54971522D01*
X111746913Y-54971524D01*
X112011501Y-55102004D01*
X112290856Y-55196833D01*
X112580198Y-55254386D01*
X112608466Y-55256238D01*
X112874571Y-55273681D01*
X112874578Y-55273681D01*
X112874585Y-55273681D01*
X113116093Y-55257851D01*
X113168958Y-55254386D01*
X113458300Y-55196833D01*
X113737655Y-55102004D01*
X114002243Y-54971524D01*
X114247535Y-54807625D01*
X114469336Y-54613110D01*
X114663851Y-54391309D01*
X114827750Y-54146017D01*
X114958230Y-53881429D01*
X115053059Y-53602074D01*
X115110612Y-53312732D01*
X115129907Y-53018352D01*
X115129907Y-53018344D01*
X115118281Y-52840969D01*
X131243546Y-52840969D01*
X131243546Y-52840972D01*
X131263960Y-53126404D01*
X131324784Y-53406008D01*
X131324786Y-53406014D01*
X131324787Y-53406017D01*
X131424789Y-53674132D01*
X131424791Y-53674137D01*
X131561926Y-53925280D01*
X131561931Y-53925288D01*
X131733410Y-54154358D01*
X131733426Y-54154376D01*
X131935750Y-54356700D01*
X131935768Y-54356716D01*
X132164838Y-54528195D01*
X132164846Y-54528200D01*
X132415989Y-54665335D01*
X132415988Y-54665335D01*
X132415992Y-54665336D01*
X132415995Y-54665338D01*
X132684110Y-54765340D01*
X132684116Y-54765341D01*
X132684118Y-54765342D01*
X132963722Y-54826166D01*
X132963724Y-54826166D01*
X132963728Y-54826167D01*
X133217376Y-54844308D01*
X133249155Y-54846581D01*
X133249156Y-54846581D01*
X133249157Y-54846581D01*
X133277751Y-54844535D01*
X133534584Y-54826167D01*
X133535288Y-54826014D01*
X133814193Y-54765342D01*
X133814193Y-54765341D01*
X133814202Y-54765340D01*
X134082317Y-54665338D01*
X134333471Y-54528197D01*
X134562551Y-54356710D01*
X134764895Y-54154366D01*
X134936382Y-53925286D01*
X135073523Y-53674132D01*
X135173525Y-53406017D01*
X135234352Y-53126399D01*
X135254766Y-52840971D01*
X135234352Y-52555543D01*
X135173525Y-52275925D01*
X135073523Y-52007810D01*
X135009569Y-51890688D01*
X134936385Y-51756661D01*
X134936380Y-51756653D01*
X134764901Y-51527583D01*
X134764885Y-51527565D01*
X134638936Y-51401616D01*
X136248656Y-51401616D01*
X136248656Y-54280334D01*
X136264109Y-54397724D01*
X136264112Y-54397733D01*
X136324620Y-54543812D01*
X136420874Y-54669253D01*
X136546315Y-54765507D01*
X136692394Y-54826015D01*
X136809795Y-54841471D01*
X139688516Y-54841470D01*
X139688519Y-54841470D01*
X139805909Y-54826017D01*
X139805913Y-54826015D01*
X139805918Y-54826015D01*
X139951997Y-54765507D01*
X140077438Y-54669253D01*
X140173692Y-54543812D01*
X140234200Y-54397733D01*
X140249656Y-54280332D01*
X140249656Y-53018344D01*
X147119249Y-53018344D01*
X147119249Y-53018359D01*
X147138542Y-53312715D01*
X147138543Y-53312725D01*
X147138544Y-53312732D01*
X147138546Y-53312742D01*
X147196096Y-53602068D01*
X147196099Y-53602082D01*
X147290927Y-53881432D01*
X147421403Y-54146012D01*
X147421407Y-54146019D01*
X147585303Y-54391307D01*
X147779819Y-54613110D01*
X148001622Y-54807626D01*
X148246910Y-54971522D01*
X148246913Y-54971524D01*
X148511501Y-55102004D01*
X148790856Y-55196833D01*
X149080198Y-55254386D01*
X149260802Y-55266223D01*
X149326406Y-55290249D01*
X149368610Y-55345933D01*
X149374009Y-55415593D01*
X149340890Y-55477115D01*
X149340370Y-55477638D01*
X149268423Y-55549585D01*
X149196474Y-55621534D01*
X149135154Y-55655018D01*
X149108795Y-55657852D01*
X149004386Y-55657852D01*
X148956965Y-55665765D01*
X148767277Y-55697418D01*
X148539925Y-55775468D01*
X148539920Y-55775470D01*
X148328508Y-55889881D01*
X148328502Y-55889885D01*
X148138820Y-56037521D01*
X148138817Y-56037524D01*
X147976008Y-56214381D01*
X147976005Y-56214385D01*
X147844529Y-56415622D01*
X147747967Y-56635762D01*
X147688957Y-56868792D01*
X147669107Y-57108346D01*
X147669107Y-57108357D01*
X147688957Y-57347911D01*
X147747967Y-57580941D01*
X147844529Y-57801081D01*
X147908546Y-57899065D01*
X147976007Y-58002321D01*
X148138814Y-58179177D01*
X148209722Y-58234366D01*
X148268992Y-58280499D01*
X148309805Y-58337209D01*
X148313479Y-58406982D01*
X148278847Y-58467665D01*
X148268992Y-58476205D01*
X148138816Y-58577525D01*
X147976008Y-58754381D01*
X147976005Y-58754385D01*
X147844529Y-58955622D01*
X147747967Y-59175762D01*
X147688957Y-59408792D01*
X147669107Y-59648346D01*
X147669107Y-59648357D01*
X147688957Y-59887911D01*
X147747967Y-60120941D01*
X147844529Y-60341081D01*
X147971211Y-60534980D01*
X147976007Y-60542321D01*
X148138814Y-60719177D01*
X148209722Y-60774366D01*
X148268992Y-60820499D01*
X148309805Y-60877209D01*
X148313479Y-60946982D01*
X148278847Y-61007665D01*
X148268992Y-61016205D01*
X148138816Y-61117525D01*
X147976008Y-61294381D01*
X147976005Y-61294385D01*
X147844529Y-61495622D01*
X147747967Y-61715762D01*
X147688957Y-61948792D01*
X147669107Y-62188346D01*
X147669107Y-62188357D01*
X147688957Y-62427911D01*
X147747967Y-62660941D01*
X147844529Y-62881081D01*
X147896373Y-62960433D01*
X147976007Y-63082321D01*
X148138814Y-63259177D01*
X148209722Y-63314366D01*
X148268992Y-63360499D01*
X148309805Y-63417209D01*
X148313479Y-63486982D01*
X148278847Y-63547665D01*
X148268992Y-63556205D01*
X148138816Y-63657525D01*
X147976008Y-63834381D01*
X147976005Y-63834385D01*
X147844529Y-64035622D01*
X147747967Y-64255762D01*
X147688957Y-64488792D01*
X147669107Y-64728346D01*
X147669107Y-64728357D01*
X147688957Y-64967911D01*
X147747967Y-65200941D01*
X147844529Y-65421081D01*
X147942764Y-65571439D01*
X147976007Y-65622321D01*
X148138814Y-65799177D01*
X148209722Y-65854366D01*
X148268992Y-65900499D01*
X148309805Y-65957209D01*
X148313479Y-66026982D01*
X148278847Y-66087665D01*
X148268992Y-66096205D01*
X148138816Y-66197525D01*
X147976008Y-66374381D01*
X147976005Y-66374385D01*
X147844529Y-66575622D01*
X147747967Y-66795762D01*
X147688957Y-67028792D01*
X147669107Y-67268346D01*
X147669107Y-67268357D01*
X147688957Y-67507911D01*
X147747967Y-67740941D01*
X147844529Y-67961081D01*
X147951518Y-68124838D01*
X147976007Y-68162321D01*
X148014881Y-68204550D01*
X148035530Y-68226980D01*
X148066452Y-68289635D01*
X148058592Y-68359061D01*
X148014445Y-68413216D01*
X147991757Y-68425522D01*
X147971740Y-68433814D01*
X147971737Y-68433815D01*
X147971737Y-68433816D01*
X147846296Y-68530070D01*
X147750041Y-68655512D01*
X147689534Y-68801589D01*
X147689533Y-68801591D01*
X147677382Y-68893892D01*
X147674079Y-68918988D01*
X147674078Y-68918997D01*
X147674078Y-70697715D01*
X147689531Y-70815105D01*
X147689534Y-70815114D01*
X147715740Y-70878382D01*
X147750042Y-70961193D01*
X147846296Y-71086634D01*
X147971737Y-71182888D01*
X148117816Y-71243396D01*
X148235217Y-71258852D01*
X149108795Y-71258851D01*
X149175834Y-71278535D01*
X149196476Y-71295170D01*
X150997751Y-73096445D01*
X151031236Y-73157768D01*
X151034070Y-73184126D01*
X151034070Y-87706689D01*
X151014385Y-87773728D01*
X150961581Y-87819483D01*
X150892423Y-87829427D01*
X150828867Y-87800402D01*
X150828311Y-87799917D01*
X150747533Y-87729077D01*
X150502245Y-87565181D01*
X150502238Y-87565177D01*
X150237658Y-87434701D01*
X149958308Y-87339873D01*
X149958302Y-87339871D01*
X149958300Y-87339871D01*
X149668958Y-87282318D01*
X149668951Y-87282317D01*
X149668941Y-87282316D01*
X149374585Y-87263023D01*
X149374571Y-87263023D01*
X149080214Y-87282316D01*
X149080202Y-87282317D01*
X149080198Y-87282318D01*
X149080190Y-87282319D01*
X149080187Y-87282320D01*
X148790861Y-87339870D01*
X148790847Y-87339873D01*
X148511497Y-87434701D01*
X148246912Y-87565180D01*
X148001619Y-87729080D01*
X147779819Y-87923593D01*
X147585306Y-88145393D01*
X147421406Y-88390686D01*
X147290927Y-88655271D01*
X147196099Y-88934621D01*
X147196096Y-88934635D01*
X147138546Y-89223961D01*
X147138542Y-89223988D01*
X147119249Y-89518344D01*
X147119249Y-89518359D01*
X147138542Y-89812715D01*
X147138543Y-89812725D01*
X147138544Y-89812732D01*
X147175793Y-90000000D01*
X147196096Y-90102068D01*
X147196099Y-90102082D01*
X147290927Y-90381432D01*
X147421403Y-90646012D01*
X147421407Y-90646019D01*
X147585303Y-90891307D01*
X147779819Y-91113110D01*
X148001622Y-91307626D01*
X148220896Y-91454140D01*
X148246913Y-91471524D01*
X148511501Y-91602004D01*
X148790856Y-91696833D01*
X149080198Y-91754386D01*
X149108466Y-91756238D01*
X149374571Y-91773681D01*
X149374578Y-91773681D01*
X149374585Y-91773681D01*
X149610253Y-91758233D01*
X149668958Y-91754386D01*
X149958300Y-91696833D01*
X150237655Y-91602004D01*
X150502243Y-91471524D01*
X150747535Y-91307625D01*
X150828311Y-91236785D01*
X150891692Y-91207383D01*
X150960909Y-91216915D01*
X151013984Y-91262354D01*
X151034068Y-91329276D01*
X151034070Y-91330014D01*
X151034070Y-103865718D01*
X151014385Y-103932757D01*
X150961581Y-103978512D01*
X150892423Y-103988456D01*
X150828867Y-103959431D01*
X150828311Y-103958946D01*
X150747533Y-103888106D01*
X150502245Y-103724210D01*
X150502238Y-103724206D01*
X150237658Y-103593730D01*
X149958308Y-103498902D01*
X149958302Y-103498900D01*
X149958300Y-103498900D01*
X149668958Y-103441347D01*
X149668951Y-103441346D01*
X149668941Y-103441345D01*
X149374585Y-103422052D01*
X149374571Y-103422052D01*
X149080214Y-103441345D01*
X149080202Y-103441346D01*
X149080198Y-103441347D01*
X149080190Y-103441348D01*
X149080187Y-103441349D01*
X148790861Y-103498899D01*
X148790847Y-103498902D01*
X148511497Y-103593730D01*
X148246912Y-103724209D01*
X148001619Y-103888109D01*
X147779819Y-104082622D01*
X147585306Y-104304422D01*
X147421406Y-104549715D01*
X147290927Y-104814300D01*
X147196099Y-105093650D01*
X147196096Y-105093664D01*
X147138546Y-105382990D01*
X147138542Y-105383017D01*
X147119249Y-105677373D01*
X147119249Y-105677388D01*
X147138542Y-105971744D01*
X147138543Y-105971754D01*
X147138544Y-105971761D01*
X147138546Y-105971771D01*
X147196096Y-106261097D01*
X147196099Y-106261111D01*
X147290927Y-106540461D01*
X147421403Y-106805041D01*
X147421407Y-106805048D01*
X147585303Y-107050336D01*
X147779819Y-107272139D01*
X148001622Y-107466655D01*
X148246910Y-107630551D01*
X148246913Y-107630553D01*
X148511501Y-107761033D01*
X148790856Y-107855862D01*
X149080198Y-107913415D01*
X149108466Y-107915267D01*
X149374571Y-107932710D01*
X149374578Y-107932710D01*
X149374585Y-107932710D01*
X149610253Y-107917262D01*
X149668958Y-107913415D01*
X149958300Y-107855862D01*
X150237655Y-107761033D01*
X150502243Y-107630553D01*
X150747535Y-107466654D01*
X150969336Y-107272139D01*
X151163851Y-107050338D01*
X151327750Y-106805046D01*
X151458230Y-106540458D01*
X151553059Y-106261103D01*
X151610612Y-105971761D01*
X151629907Y-105677381D01*
X151629907Y-105677373D01*
X151610613Y-105383017D01*
X151610612Y-105383001D01*
X151594150Y-105300239D01*
X151600377Y-105230649D01*
X151643240Y-105175471D01*
X151709130Y-105152227D01*
X151777127Y-105168295D01*
X151803448Y-105188368D01*
X154335002Y-107719922D01*
X154368487Y-107781245D01*
X154370897Y-107797363D01*
X154381474Y-107925021D01*
X154381476Y-107925029D01*
X154436907Y-108143920D01*
X154512775Y-108316881D01*
X154527610Y-108350701D01*
X154570330Y-108416088D01*
X154651111Y-108539733D01*
X154668754Y-108558898D01*
X154699677Y-108621552D01*
X154691817Y-108690978D01*
X154647670Y-108745134D01*
X154581253Y-108766825D01*
X154577525Y-108766881D01*
X150229472Y-108766881D01*
X150162433Y-108747196D01*
X150138243Y-108726864D01*
X150110345Y-108696559D01*
X150110335Y-108696550D01*
X149920653Y-108548914D01*
X149920647Y-108548910D01*
X149709235Y-108434499D01*
X149709230Y-108434497D01*
X149481878Y-108356447D01*
X149304046Y-108326772D01*
X149244770Y-108316881D01*
X149004386Y-108316881D01*
X148956965Y-108324794D01*
X148767277Y-108356447D01*
X148539925Y-108434497D01*
X148539920Y-108434499D01*
X148328508Y-108548910D01*
X148328502Y-108548914D01*
X148138820Y-108696550D01*
X148138817Y-108696553D01*
X148138814Y-108696555D01*
X148138814Y-108696556D01*
X148110914Y-108726864D01*
X147976008Y-108873410D01*
X147976005Y-108873414D01*
X147844529Y-109074651D01*
X147747967Y-109294791D01*
X147688957Y-109527821D01*
X147669107Y-109767375D01*
X147669107Y-109767386D01*
X147688957Y-110006940D01*
X147747967Y-110239970D01*
X147844529Y-110460110D01*
X147847738Y-110465021D01*
X147976007Y-110661350D01*
X148138814Y-110838206D01*
X148206260Y-110890701D01*
X148268992Y-110939528D01*
X148309805Y-110996238D01*
X148313479Y-111066011D01*
X148278847Y-111126694D01*
X148268992Y-111135234D01*
X148138816Y-111236554D01*
X148138814Y-111236555D01*
X148138814Y-111236556D01*
X148112949Y-111264652D01*
X147976008Y-111413410D01*
X147976005Y-111413414D01*
X147844529Y-111614651D01*
X147747967Y-111834791D01*
X147688957Y-112067821D01*
X147669107Y-112307375D01*
X147669107Y-112307386D01*
X147688957Y-112546940D01*
X147747967Y-112779970D01*
X147844529Y-113000110D01*
X147847738Y-113005021D01*
X147976007Y-113201350D01*
X148138814Y-113378206D01*
X148206260Y-113430701D01*
X148268992Y-113479528D01*
X148309805Y-113536238D01*
X148313479Y-113606011D01*
X148278847Y-113666694D01*
X148268992Y-113675234D01*
X148138816Y-113776554D01*
X148138814Y-113776555D01*
X148138814Y-113776556D01*
X148112949Y-113804652D01*
X147976008Y-113953410D01*
X147976005Y-113953414D01*
X147844529Y-114154651D01*
X147747967Y-114374791D01*
X147688957Y-114607821D01*
X147669107Y-114847375D01*
X147669107Y-114847386D01*
X147688957Y-115086940D01*
X147747967Y-115319970D01*
X147844529Y-115540110D01*
X147847738Y-115545021D01*
X147976007Y-115741350D01*
X148138814Y-115918206D01*
X148206260Y-115970701D01*
X148268992Y-116019528D01*
X148309805Y-116076238D01*
X148313479Y-116146011D01*
X148278847Y-116206694D01*
X148268992Y-116215234D01*
X148138816Y-116316554D01*
X148138814Y-116316555D01*
X148138814Y-116316556D01*
X148112949Y-116344652D01*
X147976008Y-116493410D01*
X147976005Y-116493414D01*
X147844529Y-116694651D01*
X147747967Y-116914791D01*
X147688957Y-117147821D01*
X147669107Y-117387375D01*
X147669107Y-117387386D01*
X147688957Y-117626940D01*
X147747967Y-117859970D01*
X147844529Y-118080110D01*
X147976005Y-118281347D01*
X147976007Y-118281350D01*
X148138814Y-118458206D01*
X148209722Y-118513395D01*
X148268992Y-118559528D01*
X148309805Y-118616238D01*
X148313479Y-118686011D01*
X148278847Y-118746694D01*
X148268992Y-118755234D01*
X148138816Y-118856554D01*
X147976008Y-119033410D01*
X147976005Y-119033414D01*
X147844529Y-119234651D01*
X147747967Y-119454791D01*
X147688957Y-119687821D01*
X147669107Y-119927375D01*
X147669107Y-119927386D01*
X147688957Y-120166940D01*
X147747967Y-120399970D01*
X147844529Y-120620110D01*
X147976005Y-120821347D01*
X147976008Y-120821351D01*
X148035530Y-120886009D01*
X148066452Y-120948664D01*
X148058592Y-121018090D01*
X148014445Y-121072245D01*
X147991757Y-121084551D01*
X147971740Y-121092843D01*
X147971737Y-121092844D01*
X147971737Y-121092845D01*
X147895888Y-121151046D01*
X147846296Y-121189099D01*
X147750041Y-121314541D01*
X147689534Y-121460618D01*
X147689533Y-121460620D01*
X147674079Y-121578010D01*
X147674079Y-121578017D01*
X147674078Y-121578026D01*
X147674078Y-123356744D01*
X147689531Y-123474134D01*
X147689534Y-123474143D01*
X147720433Y-123548741D01*
X147750042Y-123620222D01*
X147846296Y-123745663D01*
X147971737Y-123841917D01*
X148117816Y-123902425D01*
X148235217Y-123917881D01*
X149108795Y-123917880D01*
X149175834Y-123937564D01*
X149196476Y-123954199D01*
X150876932Y-125634655D01*
X150876961Y-125634686D01*
X151019411Y-125777136D01*
X151019415Y-125777139D01*
X151183276Y-125886628D01*
X151183289Y-125886635D01*
X151312030Y-125939961D01*
X151354941Y-125957735D01*
X151365361Y-125962051D01*
X151462009Y-125981275D01*
X151510332Y-125990887D01*
X151558655Y-126000500D01*
X151558656Y-126000500D01*
X159098542Y-126000500D01*
X159117870Y-125996655D01*
X159195188Y-125981275D01*
X159291836Y-125962051D01*
X159345165Y-125939961D01*
X159473914Y-125886632D01*
X159637782Y-125777139D01*
X159777139Y-125637782D01*
X159777139Y-125637780D01*
X159787347Y-125627573D01*
X159787348Y-125627570D01*
X162777140Y-122637781D01*
X162886632Y-122473914D01*
X162962052Y-122291835D01*
X163000500Y-122098540D01*
X163000500Y-121901459D01*
X163000500Y-108994675D01*
X163000501Y-108994654D01*
X163000501Y-108791457D01*
X163000500Y-108791455D01*
X162962053Y-108598172D01*
X162962052Y-108598165D01*
X162886632Y-108416086D01*
X162886631Y-108416085D01*
X162886628Y-108416079D01*
X162777140Y-108252219D01*
X162777137Y-108252215D01*
X159664997Y-105140077D01*
X159631512Y-105078754D01*
X159629102Y-105062644D01*
X159618524Y-104934971D01*
X159563093Y-104716081D01*
X159541493Y-104666839D01*
X159472391Y-104509302D01*
X159472390Y-104509299D01*
X159348889Y-104320267D01*
X159195959Y-104154140D01*
X159195954Y-104154136D01*
X159195952Y-104154134D01*
X159017779Y-104015456D01*
X159017773Y-104015452D01*
X158819187Y-103907982D01*
X158819181Y-103907980D01*
X158605622Y-103834665D01*
X158382900Y-103797500D01*
X158157100Y-103797500D01*
X157934377Y-103834665D01*
X157720818Y-103907980D01*
X157720812Y-103907982D01*
X157522226Y-104015452D01*
X157522220Y-104015456D01*
X157344047Y-104154134D01*
X157344044Y-104154137D01*
X157344041Y-104154139D01*
X157344041Y-104154140D01*
X157205696Y-104304424D01*
X157191105Y-104320274D01*
X157103808Y-104453892D01*
X157050662Y-104499248D01*
X156981431Y-104508672D01*
X156918095Y-104479170D01*
X156896192Y-104453892D01*
X156808894Y-104320274D01*
X156808892Y-104320272D01*
X156808889Y-104320267D01*
X156655959Y-104154140D01*
X156655954Y-104154136D01*
X156655952Y-104154134D01*
X156477779Y-104015456D01*
X156477768Y-104015449D01*
X156447474Y-103999055D01*
X156397883Y-103949836D01*
X156382775Y-103881619D01*
X156406945Y-103816063D01*
X156447474Y-103780945D01*
X156450021Y-103779566D01*
X156477771Y-103764549D01*
X156655959Y-103625860D01*
X156808889Y-103459733D01*
X156932390Y-103270701D01*
X157023093Y-103063919D01*
X157078524Y-102845029D01*
X157097170Y-102620000D01*
X157097170Y-102619993D01*
X157078525Y-102394978D01*
X157078524Y-102394975D01*
X157078524Y-102394971D01*
X157023093Y-102176081D01*
X156932390Y-101969299D01*
X156808889Y-101780267D01*
X156655959Y-101614140D01*
X156655954Y-101614136D01*
X156655952Y-101614134D01*
X156477779Y-101475456D01*
X156477768Y-101475449D01*
X156447474Y-101459055D01*
X156397883Y-101409836D01*
X156382775Y-101341619D01*
X156406945Y-101276063D01*
X156447474Y-101240945D01*
X156450021Y-101239566D01*
X156477771Y-101224549D01*
X156655959Y-101085860D01*
X156808889Y-100919733D01*
X156896191Y-100786106D01*
X156949338Y-100740751D01*
X157018569Y-100731327D01*
X157081905Y-100760829D01*
X157103809Y-100786107D01*
X157185361Y-100910933D01*
X157191111Y-100919733D01*
X157344041Y-101085860D01*
X157344044Y-101085862D01*
X157344047Y-101085865D01*
X157522220Y-101224543D01*
X157522226Y-101224547D01*
X157522229Y-101224549D01*
X157720814Y-101332018D01*
X157934380Y-101405335D01*
X158157100Y-101442500D01*
X158382900Y-101442500D01*
X158605620Y-101405335D01*
X158819186Y-101332018D01*
X159017771Y-101224549D01*
X159195959Y-101085860D01*
X159348889Y-100919733D01*
X159472390Y-100730701D01*
X159563093Y-100523919D01*
X159618524Y-100305029D01*
X159619198Y-100296896D01*
X159637170Y-100080006D01*
X159637170Y-100079993D01*
X159618525Y-99854978D01*
X159618524Y-99854975D01*
X159618524Y-99854971D01*
X159563093Y-99636081D01*
X159472390Y-99429299D01*
X159348889Y-99240267D01*
X159195959Y-99074140D01*
X159195954Y-99074136D01*
X159195952Y-99074134D01*
X159017779Y-98935456D01*
X159017768Y-98935449D01*
X158987474Y-98919055D01*
X158937883Y-98869836D01*
X158922775Y-98801619D01*
X158946945Y-98736063D01*
X158987474Y-98700945D01*
X158990021Y-98699566D01*
X159017771Y-98684549D01*
X159195959Y-98545860D01*
X159348889Y-98379733D01*
X159472390Y-98190701D01*
X159563093Y-97983919D01*
X159618524Y-97765029D01*
X159637170Y-97540000D01*
X159637170Y-97539993D01*
X159618525Y-97314978D01*
X159618524Y-97314975D01*
X159618524Y-97314971D01*
X159563093Y-97096081D01*
X159472390Y-96889299D01*
X159348889Y-96700267D01*
X159195959Y-96534140D01*
X159195954Y-96534136D01*
X159195952Y-96534134D01*
X159017779Y-96395456D01*
X159017768Y-96395449D01*
X158987474Y-96379055D01*
X158937883Y-96329836D01*
X158922775Y-96261619D01*
X158946945Y-96196063D01*
X158987474Y-96160945D01*
X158990021Y-96159566D01*
X159017771Y-96144549D01*
X159195959Y-96005860D01*
X159348889Y-95839733D01*
X159472390Y-95650701D01*
X159563093Y-95443919D01*
X159618524Y-95225029D01*
X159637170Y-95000000D01*
X159637170Y-94999993D01*
X159618525Y-94774978D01*
X159618524Y-94774975D01*
X159618524Y-94774971D01*
X159563093Y-94556081D01*
X159472390Y-94349299D01*
X159348889Y-94160267D01*
X159195959Y-93994140D01*
X159195954Y-93994136D01*
X159195952Y-93994134D01*
X159017779Y-93855456D01*
X159017768Y-93855449D01*
X158987474Y-93839055D01*
X158937883Y-93789836D01*
X158922775Y-93721619D01*
X158946945Y-93656063D01*
X158987474Y-93620945D01*
X158990021Y-93619566D01*
X159017771Y-93604549D01*
X159195959Y-93465860D01*
X159348889Y-93299733D01*
X159472390Y-93110701D01*
X159563093Y-92903919D01*
X159618524Y-92685029D01*
X159637170Y-92460000D01*
X159637170Y-92459993D01*
X159618525Y-92234978D01*
X159618524Y-92234975D01*
X159618524Y-92234971D01*
X159563093Y-92016081D01*
X159472390Y-91809299D01*
X159348889Y-91620267D01*
X159195959Y-91454140D01*
X159195954Y-91454136D01*
X159195952Y-91454134D01*
X159017779Y-91315456D01*
X159017773Y-91315452D01*
X158819187Y-91207982D01*
X158819181Y-91207980D01*
X158605622Y-91134665D01*
X158382900Y-91097500D01*
X158157100Y-91097500D01*
X157934377Y-91134665D01*
X157720818Y-91207980D01*
X157720812Y-91207982D01*
X157522226Y-91315452D01*
X157522220Y-91315456D01*
X157344047Y-91454134D01*
X157344044Y-91454137D01*
X157344041Y-91454139D01*
X157344041Y-91454140D01*
X157207924Y-91602004D01*
X157191105Y-91620274D01*
X157103808Y-91753892D01*
X157050662Y-91799248D01*
X156981431Y-91808672D01*
X156918095Y-91779170D01*
X156896192Y-91753892D01*
X156808894Y-91620274D01*
X156808892Y-91620272D01*
X156808889Y-91620267D01*
X156655959Y-91454140D01*
X156655954Y-91454136D01*
X156655952Y-91454134D01*
X156477779Y-91315456D01*
X156477768Y-91315449D01*
X156447474Y-91299055D01*
X156397883Y-91249836D01*
X156382775Y-91181619D01*
X156406945Y-91116063D01*
X156447474Y-91080945D01*
X156450021Y-91079566D01*
X156477771Y-91064549D01*
X156510218Y-91039295D01*
X156537607Y-91017976D01*
X156655959Y-90925860D01*
X156808889Y-90759733D01*
X156932390Y-90570701D01*
X157023093Y-90363919D01*
X157078524Y-90145029D01*
X157082083Y-90102082D01*
X157097170Y-89920006D01*
X157097170Y-89919993D01*
X157078525Y-89694978D01*
X157078524Y-89694975D01*
X157078524Y-89694971D01*
X157023093Y-89476081D01*
X156932390Y-89269299D01*
X156808889Y-89080267D01*
X156655959Y-88914140D01*
X156655954Y-88914136D01*
X156655952Y-88914134D01*
X156477779Y-88775456D01*
X156477768Y-88775449D01*
X156447474Y-88759055D01*
X156397883Y-88709836D01*
X156382775Y-88641619D01*
X156406945Y-88576063D01*
X156447474Y-88540945D01*
X156450021Y-88539566D01*
X156477771Y-88524549D01*
X156655959Y-88385860D01*
X156808889Y-88219733D01*
X156896191Y-88086106D01*
X156949338Y-88040751D01*
X157018569Y-88031327D01*
X157081905Y-88060829D01*
X157103807Y-88086105D01*
X157191111Y-88219733D01*
X157344041Y-88385860D01*
X157344044Y-88385862D01*
X157344047Y-88385865D01*
X157522220Y-88524543D01*
X157522226Y-88524547D01*
X157522229Y-88524549D01*
X157720814Y-88632018D01*
X157934380Y-88705335D01*
X158157100Y-88742500D01*
X158382900Y-88742500D01*
X158605620Y-88705335D01*
X158819186Y-88632018D01*
X159017771Y-88524549D01*
X159195959Y-88385860D01*
X159348889Y-88219733D01*
X159472390Y-88030701D01*
X159563093Y-87823919D01*
X159618524Y-87605029D01*
X159621826Y-87565180D01*
X159637170Y-87380006D01*
X159637170Y-87379993D01*
X159618525Y-87154978D01*
X159618524Y-87154975D01*
X159618524Y-87154971D01*
X159563093Y-86936081D01*
X159472390Y-86729299D01*
X159348889Y-86540267D01*
X159195959Y-86374140D01*
X159195954Y-86374136D01*
X159195952Y-86374134D01*
X159017779Y-86235456D01*
X159017768Y-86235449D01*
X158987474Y-86219055D01*
X158937883Y-86169836D01*
X158922775Y-86101619D01*
X158946945Y-86036063D01*
X158987474Y-86000945D01*
X158990021Y-85999566D01*
X159017771Y-85984549D01*
X159195959Y-85845860D01*
X159348889Y-85679733D01*
X159472390Y-85490701D01*
X159563093Y-85283919D01*
X159618524Y-85065029D01*
X159618525Y-85065021D01*
X159637170Y-84840006D01*
X159637170Y-84839993D01*
X159618525Y-84614978D01*
X159618524Y-84614975D01*
X159618524Y-84614971D01*
X159563093Y-84396081D01*
X159472390Y-84189299D01*
X159348889Y-84000267D01*
X159195959Y-83834140D01*
X159195954Y-83834136D01*
X159195952Y-83834134D01*
X159017779Y-83695456D01*
X159017773Y-83695452D01*
X158819187Y-83587982D01*
X158819181Y-83587980D01*
X158605622Y-83514665D01*
X158382900Y-83477500D01*
X158157100Y-83477500D01*
X157934377Y-83514665D01*
X157720818Y-83587980D01*
X157720812Y-83587982D01*
X157522226Y-83695452D01*
X157522220Y-83695456D01*
X157344047Y-83834134D01*
X157344044Y-83834137D01*
X157191105Y-84000274D01*
X157103808Y-84133892D01*
X157050662Y-84179248D01*
X156981431Y-84188672D01*
X156918095Y-84159170D01*
X156896192Y-84133892D01*
X156808894Y-84000274D01*
X156808892Y-84000272D01*
X156808889Y-84000267D01*
X156655959Y-83834140D01*
X156655954Y-83834136D01*
X156655952Y-83834134D01*
X156477779Y-83695456D01*
X156477768Y-83695449D01*
X156447474Y-83679055D01*
X156397883Y-83629836D01*
X156382775Y-83561619D01*
X156406945Y-83496063D01*
X156447474Y-83460945D01*
X156450021Y-83459566D01*
X156477771Y-83444549D01*
X156655959Y-83305860D01*
X156808889Y-83139733D01*
X156932390Y-82950701D01*
X157023093Y-82743919D01*
X157078524Y-82525029D01*
X157097170Y-82300000D01*
X157097170Y-82299993D01*
X157078525Y-82074978D01*
X157078524Y-82074975D01*
X157078524Y-82074971D01*
X157023093Y-81856081D01*
X156932390Y-81649299D01*
X156808889Y-81460267D01*
X156655959Y-81294140D01*
X156655954Y-81294136D01*
X156655952Y-81294134D01*
X156477779Y-81155456D01*
X156477768Y-81155449D01*
X156447474Y-81139055D01*
X156397883Y-81089836D01*
X156382775Y-81021619D01*
X156406945Y-80956063D01*
X156447474Y-80920945D01*
X156450021Y-80919566D01*
X156477771Y-80904549D01*
X156655959Y-80765860D01*
X156808889Y-80599733D01*
X156896191Y-80466106D01*
X156949338Y-80420751D01*
X157018569Y-80411327D01*
X157081905Y-80440829D01*
X157103807Y-80466105D01*
X157191111Y-80599733D01*
X157344041Y-80765860D01*
X157344044Y-80765862D01*
X157344047Y-80765865D01*
X157522220Y-80904543D01*
X157522226Y-80904547D01*
X157522229Y-80904549D01*
X157720814Y-81012018D01*
X157934380Y-81085335D01*
X158157100Y-81122500D01*
X158382900Y-81122500D01*
X158605620Y-81085335D01*
X158819186Y-81012018D01*
X159017771Y-80904549D01*
X159195959Y-80765860D01*
X159348889Y-80599733D01*
X159472390Y-80410701D01*
X159563093Y-80203919D01*
X159618524Y-79985029D01*
X159629101Y-79857360D01*
X159654254Y-79792178D01*
X159664989Y-79779929D01*
X163277139Y-76167782D01*
X163314745Y-76111500D01*
X163386632Y-76003914D01*
X163462051Y-75821835D01*
X163474632Y-75758582D01*
X163500500Y-75628543D01*
X163500500Y-59813281D01*
X163462052Y-59619995D01*
X163462051Y-59619994D01*
X163462051Y-59619990D01*
X163462049Y-59619985D01*
X163386635Y-59437917D01*
X163386628Y-59437904D01*
X163277139Y-59274043D01*
X163277136Y-59274039D01*
X163134686Y-59131589D01*
X163134655Y-59131560D01*
X159628006Y-55624911D01*
X159627986Y-55624889D01*
X159484312Y-55481215D01*
X159484308Y-55481212D01*
X159320447Y-55371723D01*
X159320438Y-55371718D01*
X159237210Y-55337244D01*
X159191692Y-55318390D01*
X159165027Y-55307345D01*
X159138364Y-55296301D01*
X159138360Y-55296300D01*
X159024645Y-55273681D01*
X158998119Y-55268404D01*
X158945070Y-55257852D01*
X158945068Y-55257852D01*
X150453434Y-55257852D01*
X150386395Y-55238167D01*
X150340640Y-55185363D01*
X150330696Y-55116205D01*
X150359721Y-55052649D01*
X150398590Y-55022640D01*
X150422409Y-55010893D01*
X150502243Y-54971524D01*
X150747535Y-54807625D01*
X150969336Y-54613110D01*
X151163851Y-54391309D01*
X151327750Y-54146017D01*
X151458230Y-53881429D01*
X151553059Y-53602074D01*
X151610612Y-53312732D01*
X151629907Y-53018352D01*
X151629907Y-53018344D01*
X151610613Y-52723988D01*
X151610612Y-52723972D01*
X151553059Y-52434630D01*
X151458230Y-52155275D01*
X151327750Y-51890688D01*
X151163851Y-51645395D01*
X151121233Y-51596799D01*
X150969336Y-51423593D01*
X150747533Y-51229077D01*
X150502245Y-51065181D01*
X150502238Y-51065177D01*
X150237658Y-50934701D01*
X149958308Y-50839873D01*
X149958302Y-50839871D01*
X149958300Y-50839871D01*
X149668958Y-50782318D01*
X149668951Y-50782317D01*
X149668941Y-50782316D01*
X149374585Y-50763023D01*
X149374571Y-50763023D01*
X149080214Y-50782316D01*
X149080202Y-50782317D01*
X149080198Y-50782318D01*
X149080190Y-50782319D01*
X149080187Y-50782320D01*
X148790861Y-50839870D01*
X148790847Y-50839873D01*
X148511497Y-50934701D01*
X148246912Y-51065180D01*
X148001619Y-51229080D01*
X147779819Y-51423593D01*
X147585306Y-51645393D01*
X147421406Y-51890686D01*
X147290927Y-52155271D01*
X147196099Y-52434621D01*
X147196096Y-52434635D01*
X147138546Y-52723961D01*
X147138542Y-52723988D01*
X147119249Y-53018344D01*
X140249656Y-53018344D01*
X140249655Y-51401611D01*
X140249655Y-51401610D01*
X140249655Y-51401607D01*
X140234202Y-51284217D01*
X140234200Y-51284210D01*
X140234200Y-51284209D01*
X140173692Y-51138130D01*
X140077438Y-51012689D01*
X139951997Y-50916435D01*
X139805918Y-50855927D01*
X139805916Y-50855926D01*
X139688526Y-50840472D01*
X139688523Y-50840471D01*
X139688517Y-50840471D01*
X139688510Y-50840471D01*
X136809792Y-50840471D01*
X136692402Y-50855924D01*
X136692393Y-50855927D01*
X136546316Y-50916434D01*
X136420874Y-51012689D01*
X136324619Y-51138131D01*
X136264112Y-51284208D01*
X136264111Y-51284210D01*
X136248657Y-51401600D01*
X136248657Y-51401607D01*
X136248656Y-51401616D01*
X134638936Y-51401616D01*
X134562561Y-51325241D01*
X134562543Y-51325225D01*
X134333473Y-51153746D01*
X134333465Y-51153741D01*
X134082322Y-51016606D01*
X134082323Y-51016606D01*
X133975071Y-50976603D01*
X133814202Y-50916602D01*
X133814199Y-50916601D01*
X133814193Y-50916599D01*
X133534589Y-50855775D01*
X133249157Y-50835361D01*
X133249155Y-50835361D01*
X132963722Y-50855775D01*
X132684118Y-50916599D01*
X132415989Y-51016606D01*
X132164846Y-51153741D01*
X132164838Y-51153746D01*
X131935768Y-51325225D01*
X131935750Y-51325241D01*
X131733426Y-51527565D01*
X131733410Y-51527583D01*
X131561931Y-51756653D01*
X131561926Y-51756661D01*
X131424791Y-52007804D01*
X131324784Y-52275933D01*
X131263960Y-52555537D01*
X131243546Y-52840969D01*
X115118281Y-52840969D01*
X115110613Y-52723988D01*
X115110612Y-52723972D01*
X115053059Y-52434630D01*
X114958230Y-52155275D01*
X114827750Y-51890688D01*
X114663851Y-51645395D01*
X114621233Y-51596799D01*
X114469336Y-51423593D01*
X114247533Y-51229077D01*
X114002245Y-51065181D01*
X114002238Y-51065177D01*
X113737658Y-50934701D01*
X113458308Y-50839873D01*
X113458302Y-50839871D01*
X113458300Y-50839871D01*
X113168958Y-50782318D01*
X113168951Y-50782317D01*
X113168941Y-50782316D01*
X112874585Y-50763023D01*
X112874571Y-50763023D01*
X112580214Y-50782316D01*
X112580202Y-50782317D01*
X112580198Y-50782318D01*
X112580190Y-50782319D01*
X112580187Y-50782320D01*
X112290861Y-50839870D01*
X112290847Y-50839873D01*
X112011497Y-50934701D01*
X111746912Y-51065180D01*
X111501619Y-51229080D01*
X111279819Y-51423593D01*
X111085306Y-51645393D01*
X110921406Y-51890686D01*
X110790927Y-52155271D01*
X110696099Y-52434621D01*
X110696096Y-52434635D01*
X110638546Y-52723961D01*
X110638542Y-52723988D01*
X110619249Y-53018344D01*
X89500000Y-53018344D01*
X89500000Y-47124000D01*
X89519685Y-47056961D01*
X89572489Y-47011206D01*
X89624000Y-47000000D01*
X163876000Y-47000000D01*
X163943039Y-47019685D01*
G37*
%TD.AperFunction*%
%TD*%
M02*
