%TF.GenerationSoftware,KiCad,Pcbnew,8.0.6-8.0.6-0~ubuntu24.04.1*%
%TF.CreationDate,2024-11-30T08:39:12+01:00*%
%TF.ProjectId,Rover,526f7665-722e-46b6-9963-61645f706362,rev?*%
%TF.SameCoordinates,Original*%
%TF.FileFunction,Copper,L2,Bot*%
%TF.FilePolarity,Positive*%
%FSLAX46Y46*%
G04 Gerber Fmt 4.6, Leading zero omitted, Abs format (unit mm)*
G04 Created by KiCad (PCBNEW 8.0.6-8.0.6-0~ubuntu24.04.1) date 2024-11-30 08:39:12*
%MOMM*%
%LPD*%
G01*
G04 APERTURE LIST*
G04 Aperture macros list*
%AMRoundRect*
0 Rectangle with rounded corners*
0 $1 Rounding radius*
0 $2 $3 $4 $5 $6 $7 $8 $9 X,Y pos of 4 corners*
0 Add a 4 corners polygon primitive as box body*
4,1,4,$2,$3,$4,$5,$6,$7,$8,$9,$2,$3,0*
0 Add four circle primitives for the rounded corners*
1,1,$1+$1,$2,$3*
1,1,$1+$1,$4,$5*
1,1,$1+$1,$6,$7*
1,1,$1+$1,$8,$9*
0 Add four rect primitives between the rounded corners*
20,1,$1+$1,$2,$3,$4,$5,0*
20,1,$1+$1,$4,$5,$6,$7,0*
20,1,$1+$1,$6,$7,$8,$9,0*
20,1,$1+$1,$8,$9,$2,$3,0*%
G04 Aperture macros list end*
%TA.AperFunction,ComponentPad*%
%ADD10R,3.500000X3.500000*%
%TD*%
%TA.AperFunction,ComponentPad*%
%ADD11RoundRect,0.750000X-0.750000X-1.000000X0.750000X-1.000000X0.750000X1.000000X-0.750000X1.000000X0*%
%TD*%
%TA.AperFunction,ComponentPad*%
%ADD12RoundRect,0.875000X-0.875000X-0.875000X0.875000X-0.875000X0.875000X0.875000X-0.875000X0.875000X0*%
%TD*%
%TA.AperFunction,ComponentPad*%
%ADD13C,2.000000*%
%TD*%
%TA.AperFunction,ComponentPad*%
%ADD14C,1.700000*%
%TD*%
%TA.AperFunction,ComponentPad*%
%ADD15R,1.700000X1.700000*%
%TD*%
%TA.AperFunction,ComponentPad*%
%ADD16O,1.700000X1.700000*%
%TD*%
%TA.AperFunction,ComponentPad*%
%ADD17R,2.800000X2.800000*%
%TD*%
%TA.AperFunction,ComponentPad*%
%ADD18C,2.800000*%
%TD*%
%TA.AperFunction,ComponentPad*%
%ADD19RoundRect,0.249999X1.025001X1.025001X-1.025001X1.025001X-1.025001X-1.025001X1.025001X-1.025001X0*%
%TD*%
%TA.AperFunction,ComponentPad*%
%ADD20C,2.550000*%
%TD*%
%TA.AperFunction,ComponentPad*%
%ADD21R,1.524000X1.524000*%
%TD*%
%TA.AperFunction,ComponentPad*%
%ADD22C,1.524000*%
%TD*%
%TA.AperFunction,ComponentPad*%
%ADD23C,6.200000*%
%TD*%
%TA.AperFunction,ComponentPad*%
%ADD24RoundRect,0.249999X-1.025001X-1.025001X1.025001X-1.025001X1.025001X1.025001X-1.025001X1.025001X0*%
%TD*%
%TA.AperFunction,Conductor*%
%ADD25C,0.800000*%
%TD*%
%TA.AperFunction,Conductor*%
%ADD26C,1.270000*%
%TD*%
G04 APERTURE END LIST*
D10*
%TO.P,J3,1*%
%TO.N,Net-(SW1A-B)*%
X106500000Y-129000000D03*
D11*
%TO.P,J3,2*%
%TO.N,Net-(J1-Pin_2)*%
X100500000Y-129000000D03*
D12*
%TO.P,J3,3*%
X103500000Y-133700000D03*
%TD*%
D13*
%TO.P,SW1,*%
%TO.N,*%
X94500000Y-139000000D03*
X94500000Y-145000000D03*
X106500000Y-139000000D03*
X106500000Y-145000000D03*
D14*
%TO.P,SW1,1,A*%
%TO.N,unconnected-(SW1A-A-Pad1)*%
X96500000Y-140750000D03*
%TO.P,SW1,2,B*%
%TO.N,Net-(SW1A-B)*%
X100500000Y-140750000D03*
%TO.P,SW1,3,C*%
%TO.N,+7.4V*%
X104500000Y-140750000D03*
%TO.P,SW1,4*%
%TO.N,N/C*%
X96500000Y-143250000D03*
%TO.P,SW1,5*%
X100500000Y-143250000D03*
%TO.P,SW1,6*%
X104500000Y-143250000D03*
%TD*%
D15*
%TO.P,U3,1,ENA*%
%TO.N,PWM0*%
X149124578Y-122467381D03*
D16*
%TO.P,U3,2,IN1*%
%TO.N,IN1 2*%
X149124578Y-119927381D03*
%TO.P,U3,3,IN2*%
%TO.N,IN2 2*%
X149124578Y-117387381D03*
%TO.P,U3,4,IN3*%
%TO.N,IN3 2*%
X149124578Y-114847381D03*
%TO.P,U3,5,IN4*%
%TO.N,IN4 2*%
X149124578Y-112307381D03*
%TO.P,U3,6,ENB*%
%TO.N,PWM2*%
X149124578Y-109767381D03*
D17*
%TO.P,U3,7,12V*%
%TO.N,+7.4V*%
X147214578Y-136289381D03*
D18*
%TO.P,U3,8,GND*%
%TO.N,GND*%
X147214578Y-131289381D03*
%TO.P,U3,9,5V*%
%TO.N,unconnected-(U3-5V-Pad9)*%
X147214578Y-126289381D03*
D17*
%TO.P,U3,10,OUT3*%
%TO.N,Net-(J7-Pin_1)*%
X138249156Y-105500000D03*
D18*
%TO.P,U3,11,OUT4*%
%TO.N,Net-(J7-Pin_2)*%
X133249156Y-105500000D03*
D17*
%TO.P,U3,12,OUT2*%
%TO.N,Net-(J6-Pin_2)*%
X138221656Y-142659029D03*
D18*
%TO.P,U3,13,OUT1*%
%TO.N,Net-(J6-Pin_1)*%
X133221656Y-142659029D03*
%TD*%
D15*
%TO.P,J5,1,Pin_1*%
%TO.N,Net-(J5-Pin_1)*%
X112800000Y-95500000D03*
D16*
%TO.P,J5,2,Pin_2*%
%TO.N,Net-(J5-Pin_2)*%
X115340000Y-95500000D03*
%TO.P,J5,3,Pin_3*%
%TO.N,GND*%
X117880000Y-95500000D03*
%TO.P,J5,4,Pin_4*%
%TO.N,+7.4V*%
X120420000Y-95500000D03*
%TO.P,J5,5,Pin_5*%
%TO.N,SIG A 2*%
X122960000Y-95500000D03*
%TO.P,J5,6,Pin_6*%
%TO.N,SIG B 2*%
X125500000Y-95500000D03*
%TD*%
D19*
%TO.P,J1,1,Pin_1*%
%TO.N,+7.4V*%
X102900000Y-122250000D03*
D20*
%TO.P,J1,2,Pin_2*%
%TO.N,Net-(J1-Pin_2)*%
X98100000Y-122250000D03*
%TD*%
D15*
%TO.P,J6,1,Pin_1*%
%TO.N,Net-(J6-Pin_1)*%
X112800000Y-99500000D03*
D16*
%TO.P,J6,2,Pin_2*%
%TO.N,Net-(J6-Pin_2)*%
X115340000Y-99500000D03*
%TO.P,J6,3,Pin_3*%
%TO.N,GND*%
X117880000Y-99500000D03*
%TO.P,J6,4,Pin_4*%
%TO.N,+7.4V*%
X120420000Y-99500000D03*
%TO.P,J6,5,Pin_5*%
%TO.N,SIG A 3*%
X122960000Y-99500000D03*
%TO.P,J6,6,Pin_6*%
%TO.N,SIG B 3*%
X125500000Y-99500000D03*
%TD*%
D15*
%TO.P,J4,1,Pin_1*%
%TO.N,Net-(J4-Pin_1)*%
X129340000Y-95500000D03*
D16*
%TO.P,J4,2,Pin_2*%
%TO.N,Net-(J4-Pin_2)*%
X131880000Y-95500000D03*
%TO.P,J4,3,Pin_3*%
%TO.N,GND*%
X134420000Y-95500000D03*
%TO.P,J4,4,Pin_4*%
%TO.N,+7.4V*%
X136960000Y-95500000D03*
%TO.P,J4,5,Pin_5*%
%TO.N,SIG A 1*%
X139500000Y-95500000D03*
%TO.P,J4,6,Pin_6*%
%TO.N,SIG B 1*%
X142040000Y-95500000D03*
%TD*%
D15*
%TO.P,J7,1,Pin_1*%
%TO.N,Net-(J7-Pin_1)*%
X129340000Y-99500000D03*
D16*
%TO.P,J7,2,Pin_2*%
%TO.N,Net-(J7-Pin_2)*%
X131880000Y-99500000D03*
%TO.P,J7,3,Pin_3*%
%TO.N,GND*%
X134420000Y-99500000D03*
%TO.P,J7,4,Pin_4*%
%TO.N,+7.4V*%
X136960000Y-99500000D03*
%TO.P,J7,5,Pin_5*%
%TO.N,SIG A 4*%
X139500000Y-99500000D03*
%TO.P,J7,6,Pin_6*%
%TO.N,SIG B 4*%
X142040000Y-99500000D03*
%TD*%
D15*
%TO.P,U2,1,ENA*%
%TO.N,PWM1*%
X149124578Y-69808352D03*
D16*
%TO.P,U2,2,IN1*%
%TO.N,IN1 1*%
X149124578Y-67268352D03*
%TO.P,U2,3,IN2*%
%TO.N,IN2 1*%
X149124578Y-64728352D03*
%TO.P,U2,4,IN3*%
%TO.N,IN3 1*%
X149124578Y-62188352D03*
%TO.P,U2,5,IN4*%
%TO.N,IN4 1*%
X149124578Y-59648352D03*
%TO.P,U2,6,ENB*%
%TO.N,PWM3*%
X149124578Y-57108352D03*
D17*
%TO.P,U2,7,12V*%
%TO.N,+7.4V*%
X147214578Y-83630352D03*
D18*
%TO.P,U2,8,GND*%
%TO.N,GND*%
X147214578Y-78630352D03*
%TO.P,U2,9,5V*%
%TO.N,unconnected-(U2-5V-Pad9)*%
X147214578Y-73630352D03*
D17*
%TO.P,U2,10,OUT3*%
%TO.N,Net-(J5-Pin_1)*%
X138249156Y-52840971D03*
D18*
%TO.P,U2,11,OUT4*%
%TO.N,Net-(J5-Pin_2)*%
X133249156Y-52840971D03*
D17*
%TO.P,U2,12,OUT2*%
%TO.N,Net-(J4-Pin_2)*%
X138221656Y-90000000D03*
D18*
%TO.P,U2,13,OUT1*%
%TO.N,Net-(J4-Pin_1)*%
X133221656Y-90000000D03*
%TD*%
D21*
%TO.P,U1,1,3V3*%
%TO.N,Net-(U1-3V3-Pad1)*%
X155730000Y-67060000D03*
D22*
%TO.P,U1,2,5V*%
%TO.N,+5V*%
X158270000Y-67060000D03*
%TO.P,U1,3,GPIO2/SDA1*%
%TO.N,IN3 1*%
X155730000Y-69600000D03*
%TO.P,U1,4,5V*%
%TO.N,+5V*%
X158270000Y-69600000D03*
%TO.P,U1,5,GPIO3/SCL1*%
%TO.N,IN2 1*%
X155730000Y-72140000D03*
%TO.P,U1,6,GND*%
%TO.N,GND*%
X158270000Y-72140000D03*
%TO.P,U1,7,GPIO4/GPIO_GCKL*%
%TO.N,IN1 1*%
X155730000Y-74680000D03*
%TO.P,U1,8,GPIO14/TXD0*%
%TO.N,unconnected-(U1-GPIO14{slash}TXD0-Pad8)*%
X158270000Y-74680000D03*
%TO.P,U1,9,GND*%
%TO.N,GND*%
X155730000Y-77220000D03*
%TO.P,U1,10,GPIO15/RXD0*%
%TO.N,IN4 1*%
X158270000Y-77220000D03*
%TO.P,U1,11,GPIO17/GPIO_GEN0*%
%TO.N,SIG A 2*%
X155730000Y-79760000D03*
%TO.P,U1,12,GPIO18/GPIO_GEN1*%
%TO.N,PWM3*%
X158270000Y-79760000D03*
%TO.P,U1,13,GPIO27/GPIO_GEN2*%
%TO.N,SIG B 2*%
X155730000Y-82300000D03*
%TO.P,U1,14,GND*%
%TO.N,GND*%
X158270000Y-82300000D03*
%TO.P,U1,15,GPIO22/GPIO_GEN3*%
%TO.N,SIG A 1*%
X155730000Y-84840000D03*
%TO.P,U1,16,GPIO23/GPIO_GEN4*%
%TO.N,unconnected-(U1-GPIO23{slash}GPIO_GEN4-Pad16)*%
X158270000Y-84840000D03*
%TO.P,U1,17,3V3*%
%TO.N,Net-(U1-3V3-Pad1)*%
X155730000Y-87380000D03*
%TO.P,U1,18,GPIO24/GPIO_GEN5*%
%TO.N,unconnected-(U1-GPIO24{slash}GPIO_GEN5-Pad18)*%
X158270000Y-87380000D03*
%TO.P,U1,19,GPIO10/SPI_MOSI*%
%TO.N,SIG B 1*%
X155730000Y-89920000D03*
%TO.P,U1,20,GND*%
%TO.N,GND*%
X158270000Y-89920000D03*
%TO.P,U1,21,GPIO9/SPI_MISO*%
%TO.N,SIG B 4*%
X155730000Y-92460000D03*
%TO.P,U1,22,GPIO25/GPIO_GEN6*%
%TO.N,unconnected-(U1-GPIO25{slash}GPIO_GEN6-Pad22)*%
X158270000Y-92460000D03*
%TO.P,U1,23,GPIO11/SPI_SCLK*%
%TO.N,SIG A 4*%
X155730000Y-95000000D03*
%TO.P,U1,24,GPIO8/~{SPI_CE0}*%
%TO.N,unconnected-(U1-GPIO8{slash}~{SPI_CE0}-Pad24)*%
X158270000Y-95000000D03*
%TO.P,U1,25,GND*%
%TO.N,GND*%
X155730000Y-97540000D03*
%TO.P,U1,26,GPIO7/~{SPI_CE1}*%
%TO.N,unconnected-(U1-GPIO7{slash}~{SPI_CE1}-Pad26)*%
X158270000Y-97540000D03*
%TO.P,U1,27,ID_SD*%
%TO.N,SIG B 3*%
X155730000Y-100080000D03*
%TO.P,U1,28,ID_SC*%
%TO.N,unconnected-(U1-ID_SC-Pad28)*%
X158270000Y-100080000D03*
%TO.P,U1,29,GPIO5*%
%TO.N,SIG A 3*%
X155730000Y-102620000D03*
%TO.P,U1,30,GND*%
%TO.N,GND*%
X158270000Y-102620000D03*
%TO.P,U1,31,GPIO6*%
%TO.N,IN4 2*%
X155730000Y-105160000D03*
%TO.P,U1,32,GPIO12*%
%TO.N,PWM0*%
X158270000Y-105160000D03*
%TO.P,U1,33,GPIO13*%
%TO.N,PWM1*%
X155730000Y-107700000D03*
%TO.P,U1,34,GND*%
%TO.N,GND*%
X158270000Y-107700000D03*
%TO.P,U1,35,GPIO19*%
%TO.N,PWM2*%
X155730000Y-110240000D03*
%TO.P,U1,36,GPIO16*%
%TO.N,unconnected-(U1-GPIO16-Pad36)*%
X158270000Y-110240000D03*
%TO.P,U1,37,GPIO26*%
%TO.N,IN3 2*%
X155730000Y-112780000D03*
%TO.P,U1,38,GPIO20*%
%TO.N,IN1 2*%
X158270000Y-112780000D03*
%TO.P,U1,39,GND*%
%TO.N,GND*%
X155730000Y-115320000D03*
%TO.P,U1,40,GPIO21*%
%TO.N,IN2 2*%
X158270000Y-115320000D03*
D23*
%TO.P,U1,S1,SHIELD*%
%TO.N,Net-(U1-SHIELD-PadS1)*%
X157000000Y-62190000D03*
%TO.P,U1,S2,SHIELD*%
X157000000Y-120190000D03*
%TO.P,U1,S3,SHIELD*%
X108000000Y-120190000D03*
%TO.P,U1,S4,SHIELD*%
X108000000Y-62190000D03*
%TD*%
D24*
%TO.P,J2,1,Pin_1*%
%TO.N,+5V*%
X98000000Y-86250000D03*
D20*
%TO.P,J2,2,Pin_2*%
%TO.N,GND*%
X102800000Y-86250000D03*
%TD*%
D25*
%TO.N,SIG A 4*%
X139500000Y-99500000D02*
X139500000Y-99576296D01*
X139500000Y-99576296D02*
X141923704Y-102000000D01*
X141923704Y-102000000D02*
X143500000Y-102000000D01*
X143500000Y-102000000D02*
X147000000Y-98500000D01*
X147000000Y-98500000D02*
X152230000Y-98500000D01*
X152230000Y-98500000D02*
X155730000Y-95000000D01*
%TO.N,SIG A 1*%
X139500000Y-95500000D02*
X139500000Y-95423704D01*
X139500000Y-95423704D02*
X141423704Y-93500000D01*
X141423704Y-93500000D02*
X149152095Y-93500000D01*
X149152095Y-93500000D02*
X153500000Y-89152095D01*
X153500000Y-89152095D02*
X153500000Y-87070000D01*
X153500000Y-87070000D02*
X155730000Y-84840000D01*
D26*
%TO.N,+7.4V*%
X111649023Y-145294029D02*
X108677497Y-142322503D01*
X108677497Y-142322503D02*
X107589994Y-141235000D01*
X109728929Y-140500000D02*
X109728929Y-141271071D01*
X109728929Y-141271071D02*
X108677497Y-142322503D01*
X109728929Y-138000000D02*
X109728929Y-140500000D01*
X109728929Y-140500000D02*
X109728929Y-143373935D01*
X107589994Y-141235000D02*
X107912497Y-140912497D01*
X107912497Y-140912497D02*
X109316432Y-140912497D01*
X109316432Y-140912497D02*
X109728929Y-140500000D01*
X109728929Y-126728929D02*
X109728929Y-138000000D01*
X107589994Y-141235000D02*
X109728929Y-139096065D01*
X109728929Y-139096065D02*
X109728929Y-138000000D01*
X114500000Y-145294029D02*
X111649023Y-145294029D01*
X140879930Y-145294029D02*
X114500000Y-145294029D01*
X105175000Y-124525000D02*
X107525000Y-124525000D01*
X102900000Y-122250000D02*
X105175000Y-124525000D01*
X107525000Y-124525000D02*
X109728929Y-126728929D01*
X109728929Y-143373935D02*
X111649023Y-145294029D01*
%TO.N,Net-(SW1A-B)*%
X100500000Y-140750000D02*
X101191288Y-140750000D01*
X101191288Y-140750000D02*
X106500000Y-135441288D01*
X106500000Y-135441288D02*
X106500000Y-129000000D01*
%TO.N,Net-(J1-Pin_2)*%
X98100000Y-127642500D02*
X98100000Y-122250000D01*
X103500000Y-133700000D02*
X103500000Y-132000000D01*
X99457500Y-129000000D02*
X98100000Y-127642500D01*
X103500000Y-132000000D02*
X100500000Y-129000000D01*
X100500000Y-129000000D02*
X99457500Y-129000000D01*
%TO.N,Net-(J4-Pin_2)*%
X131880000Y-95500000D02*
X131880000Y-94297919D01*
X131880000Y-94297919D02*
X133177919Y-93000000D01*
X135221656Y-93000000D02*
X138221656Y-90000000D01*
X133177919Y-93000000D02*
X135221656Y-93000000D01*
%TO.N,+7.4V*%
X147214578Y-138959381D02*
X140879930Y-145294029D01*
X147214578Y-136289381D02*
X147214578Y-138959381D01*
X120420000Y-99500000D02*
X120420000Y-95500000D01*
X136960000Y-99500000D02*
X136960000Y-95500000D01*
%TO.N,Net-(J4-Pin_1)*%
X133221656Y-90000000D02*
X129340000Y-93881656D01*
X129340000Y-93881656D02*
X129340000Y-95500000D01*
%TO.N,Net-(J5-Pin_1)*%
X131794029Y-50205971D02*
X109728929Y-72271071D01*
X109728929Y-92428929D02*
X112800000Y-95500000D01*
X138249156Y-52840971D02*
X135614156Y-50205971D01*
X109728929Y-72271071D02*
X109728929Y-92428929D01*
X135614156Y-50205971D02*
X131794029Y-50205971D01*
%TO.N,Net-(J5-Pin_2)*%
X115795000Y-95045000D02*
X115340000Y-95500000D01*
X115795000Y-70295127D02*
X115795000Y-95045000D01*
X133249156Y-52840971D02*
X115795000Y-70295127D01*
%TO.N,+5V*%
X158270000Y-67060000D02*
X161335000Y-63995000D01*
X161335000Y-60394384D02*
X149276587Y-48335971D01*
X158270000Y-67060000D02*
X158270000Y-69600000D01*
X113464756Y-48335971D02*
X98000000Y-63800727D01*
X149276587Y-48335971D02*
X113464756Y-48335971D01*
X98000000Y-63800727D02*
X98000000Y-86250000D01*
X161335000Y-63995000D02*
X161335000Y-60394384D01*
%TO.N,Net-(J6-Pin_1)*%
X133221656Y-142659029D02*
X133221656Y-121721656D01*
X112800000Y-101300000D02*
X112800000Y-99500000D01*
X133221656Y-121721656D02*
X112800000Y-101300000D01*
%TO.N,Net-(J7-Pin_1)*%
X129340000Y-105340000D02*
X129340000Y-99500000D01*
X132135000Y-108135000D02*
X129340000Y-105340000D01*
X135614156Y-108135000D02*
X132135000Y-108135000D01*
X138249156Y-105500000D02*
X135614156Y-108135000D01*
%TO.N,Net-(J7-Pin_2)*%
X133249156Y-105500000D02*
X131880000Y-104130844D01*
X131880000Y-104130844D02*
X131880000Y-99500000D01*
%TO.N,Net-(J6-Pin_2)*%
X115340000Y-99908636D02*
X115340000Y-99500000D01*
X138221656Y-142659029D02*
X138221656Y-122790292D01*
X138221656Y-122790292D02*
X115340000Y-99908636D01*
D25*
%TO.N,SIG B 1*%
X150150000Y-95500000D02*
X155730000Y-89920000D01*
X142040000Y-95500000D02*
X150150000Y-95500000D01*
%TO.N,SIG B 2*%
X132197919Y-87600000D02*
X147514578Y-87600000D01*
X125500000Y-94297919D02*
X132197919Y-87600000D01*
X125500000Y-95500000D02*
X125500000Y-94297919D01*
X147514578Y-87600000D02*
X152814578Y-82300000D01*
X152814578Y-82300000D02*
X155730000Y-82300000D01*
%TO.N,SIG A 2*%
X152200352Y-76230352D02*
X155730000Y-79760000D01*
X122960000Y-94297919D02*
X141027567Y-76230352D01*
X122960000Y-95500000D02*
X122960000Y-94297919D01*
X141027567Y-76230352D02*
X152200352Y-76230352D01*
%TO.N,SIG B 3*%
X125500000Y-104406120D02*
X131093880Y-110000000D01*
X125500000Y-99500000D02*
X125500000Y-104406120D01*
X131093880Y-110000000D02*
X138510051Y-110000000D01*
X148430051Y-100080000D02*
X155730000Y-100080000D01*
X138510051Y-110000000D02*
X148430051Y-100080000D01*
%TO.N,SIG A 3*%
X122960000Y-99500000D02*
X122960000Y-104460000D01*
X122960000Y-104460000D02*
X130000000Y-111500000D01*
X147880000Y-102620000D02*
X155730000Y-102620000D01*
X139000000Y-111500000D02*
X147880000Y-102620000D01*
X130000000Y-111500000D02*
X139000000Y-111500000D01*
%TO.N,SIG B 4*%
X142040000Y-99500000D02*
X144640000Y-96900000D01*
X151290000Y-96900000D02*
X155730000Y-92460000D01*
X144640000Y-96900000D02*
X151290000Y-96900000D01*
%TO.N,IN1 1*%
X150974578Y-67916271D02*
X150974578Y-69924578D01*
X150974578Y-69924578D02*
X155730000Y-74680000D01*
X150326659Y-67268352D02*
X150974578Y-67916271D01*
X149124578Y-67268352D02*
X150326659Y-67268352D01*
%TO.N,IN2 1*%
X150497454Y-64728352D02*
X149124578Y-64728352D01*
X152374578Y-68784578D02*
X152374578Y-66605476D01*
X152374578Y-66605476D02*
X150497454Y-64728352D01*
X155730000Y-72140000D02*
X152374578Y-68784578D01*
%TO.N,IN3 1*%
X153774578Y-68204680D02*
X153774578Y-65274578D01*
X153774578Y-65274578D02*
X150688352Y-62188352D01*
X150688352Y-62188352D02*
X149124578Y-62188352D01*
X155730000Y-69600000D02*
X155169898Y-69600000D01*
X155169898Y-69600000D02*
X153774578Y-68204680D01*
%TO.N,IN2 2*%
X155301724Y-124290000D02*
X152900000Y-121888276D01*
X150387381Y-117387381D02*
X149124578Y-117387381D01*
X158270000Y-115320000D02*
X161100000Y-118150000D01*
X152900000Y-121888276D02*
X152900000Y-119900000D01*
X158710000Y-124290000D02*
X155301724Y-124290000D01*
X161100000Y-121900000D02*
X158710000Y-124290000D01*
X152900000Y-119900000D02*
X150387381Y-117387381D01*
X161100000Y-118150000D02*
X161100000Y-121900000D01*
%TO.N,IN1 2*%
X151500000Y-122468175D02*
X151500000Y-121308378D01*
X159289899Y-125690000D02*
X154721826Y-125690000D01*
X162500000Y-117010000D02*
X162500000Y-122479899D01*
X150119003Y-119927381D02*
X149124578Y-119927381D01*
X158270000Y-112780000D02*
X162500000Y-117010000D01*
X152015913Y-122984087D02*
X151500000Y-122468175D01*
X162500000Y-122479899D02*
X159289899Y-125690000D01*
X154721826Y-125690000D02*
X152015913Y-122984087D01*
X151500000Y-121308378D02*
X150119003Y-119927381D01*
%TO.N,IN4 2*%
X149124578Y-112307381D02*
X150326659Y-112307381D01*
X152500000Y-108438155D02*
X155730000Y-105208155D01*
X152500000Y-110134040D02*
X152500000Y-108438155D01*
X150326659Y-112307381D02*
X152500000Y-110134040D01*
X155730000Y-105208155D02*
X155730000Y-105160000D01*
%TO.N,IN3 2*%
X149124578Y-114847381D02*
X151652619Y-114847381D01*
X151652619Y-114847381D02*
X153720000Y-112780000D01*
X153720000Y-112780000D02*
X155730000Y-112780000D01*
D26*
%TO.N,+7.4V*%
X105574232Y-141235000D02*
X105089232Y-140750000D01*
X107589994Y-141235000D02*
X105574232Y-141235000D01*
X105089232Y-140750000D02*
X104500000Y-140750000D01*
%TD*%
%TA.AperFunction,Conductor*%
%TO.N,GND*%
G36*
X112915867Y-47019685D02*
G01*
X112961622Y-47072489D01*
X112971566Y-47141647D01*
X112942541Y-47205203D01*
X112905123Y-47234484D01*
X112817213Y-47279277D01*
X112751007Y-47327378D01*
X112698227Y-47365724D01*
X112659881Y-47393584D01*
X97057614Y-62995851D01*
X97016374Y-63052614D01*
X97016373Y-63052613D01*
X96943308Y-63153180D01*
X96889300Y-63259177D01*
X96855019Y-63326455D01*
X96794923Y-63511409D01*
X96794922Y-63511413D01*
X96794922Y-63511414D01*
X96793367Y-63521234D01*
X96764500Y-63703491D01*
X96764500Y-84304363D01*
X96744815Y-84371402D01*
X96692011Y-84417157D01*
X96683265Y-84420755D01*
X96679981Y-84421961D01*
X96514247Y-84504157D01*
X96370059Y-84620058D01*
X96370058Y-84620059D01*
X96254157Y-84764247D01*
X96171963Y-84929976D01*
X96127317Y-85109500D01*
X96124500Y-85151048D01*
X96124500Y-87348951D01*
X96127317Y-87390499D01*
X96171963Y-87570023D01*
X96254157Y-87735752D01*
X96254158Y-87735753D01*
X96370059Y-87879941D01*
X96514247Y-87995842D01*
X96679978Y-88078037D01*
X96859501Y-88122682D01*
X96859502Y-88122682D01*
X96859505Y-88122683D01*
X96901046Y-88125500D01*
X96901048Y-88125500D01*
X99098952Y-88125500D01*
X99098954Y-88125500D01*
X99140495Y-88122683D01*
X99320022Y-88078037D01*
X99485753Y-87995842D01*
X99629941Y-87879941D01*
X99745842Y-87735753D01*
X99828037Y-87570022D01*
X99872683Y-87390495D01*
X99875500Y-87348954D01*
X99875500Y-85151046D01*
X99872683Y-85109505D01*
X99828037Y-84929978D01*
X99745842Y-84764247D01*
X99629941Y-84620059D01*
X99485753Y-84504158D01*
X99485752Y-84504157D01*
X99320018Y-84421961D01*
X99316735Y-84420755D01*
X99315012Y-84419478D01*
X99313999Y-84418976D01*
X99314089Y-84418794D01*
X99260598Y-84379158D01*
X99235861Y-84313814D01*
X99235500Y-84304363D01*
X99235500Y-64363849D01*
X99255185Y-64296810D01*
X99271814Y-64276173D01*
X101357987Y-62190000D01*
X104294422Y-62190000D01*
X104314722Y-62577338D01*
X104375398Y-62960433D01*
X104473474Y-63326460D01*
X104475788Y-63335094D01*
X104614787Y-63697197D01*
X104790877Y-64042793D01*
X105002122Y-64368082D01*
X105002124Y-64368084D01*
X105246219Y-64669516D01*
X105520484Y-64943781D01*
X105520488Y-64943784D01*
X105821917Y-65187877D01*
X105966614Y-65281844D01*
X106147211Y-65399125D01*
X106492806Y-65575214D01*
X106854913Y-65714214D01*
X107229567Y-65814602D01*
X107612662Y-65875278D01*
X107978576Y-65894455D01*
X107999999Y-65895578D01*
X108000000Y-65895578D01*
X108000001Y-65895578D01*
X108020301Y-65894514D01*
X108387338Y-65875278D01*
X108770433Y-65814602D01*
X109145087Y-65714214D01*
X109507194Y-65575214D01*
X109852789Y-65399125D01*
X110178084Y-65187876D01*
X110479516Y-64943781D01*
X110753781Y-64669516D01*
X110997876Y-64368084D01*
X111209125Y-64042789D01*
X111385214Y-63697194D01*
X111524214Y-63335087D01*
X111624602Y-62960433D01*
X111685278Y-62577338D01*
X111705578Y-62190000D01*
X111685278Y-61802662D01*
X111624602Y-61419567D01*
X111524214Y-61044913D01*
X111385214Y-60682806D01*
X111209125Y-60337211D01*
X111209122Y-60337206D01*
X110997877Y-60011917D01*
X110783222Y-59746841D01*
X110753781Y-59710484D01*
X110479516Y-59436219D01*
X110178084Y-59192124D01*
X110178082Y-59192122D01*
X109852793Y-58980877D01*
X109507197Y-58804787D01*
X109145094Y-58665788D01*
X109145087Y-58665786D01*
X108770433Y-58565398D01*
X108770429Y-58565397D01*
X108770428Y-58565397D01*
X108387339Y-58504722D01*
X108000001Y-58484422D01*
X107999999Y-58484422D01*
X107612660Y-58504722D01*
X107229572Y-58565397D01*
X107229570Y-58565397D01*
X106854905Y-58665788D01*
X106492802Y-58804787D01*
X106147206Y-58980877D01*
X105821917Y-59192122D01*
X105520488Y-59436215D01*
X105520480Y-59436222D01*
X105246222Y-59710480D01*
X105246215Y-59710488D01*
X105002122Y-60011917D01*
X104790877Y-60337206D01*
X104614787Y-60682802D01*
X104475788Y-61044905D01*
X104375397Y-61419570D01*
X104375397Y-61419572D01*
X104328486Y-61715762D01*
X104314722Y-61802662D01*
X104294422Y-62190000D01*
X101357987Y-62190000D01*
X110420222Y-53127764D01*
X110481543Y-53094281D01*
X110551235Y-53099265D01*
X110607168Y-53141137D01*
X110631585Y-53206601D01*
X110631635Y-53207336D01*
X110638542Y-53312715D01*
X110638543Y-53312725D01*
X110638544Y-53312732D01*
X110638546Y-53312742D01*
X110696096Y-53602068D01*
X110696099Y-53602082D01*
X110790927Y-53881432D01*
X110921403Y-54146012D01*
X110921407Y-54146019D01*
X111085303Y-54391307D01*
X111279819Y-54613110D01*
X111501622Y-54807626D01*
X111594042Y-54869379D01*
X111746913Y-54971524D01*
X112011501Y-55102004D01*
X112290856Y-55196833D01*
X112580198Y-55254386D01*
X112608466Y-55256238D01*
X112874571Y-55273681D01*
X112874578Y-55273681D01*
X112874585Y-55273681D01*
X113110253Y-55258233D01*
X113168958Y-55254386D01*
X113458300Y-55196833D01*
X113737655Y-55102004D01*
X114002243Y-54971524D01*
X114247535Y-54807625D01*
X114469336Y-54613110D01*
X114663851Y-54391309D01*
X114827750Y-54146017D01*
X114958230Y-53881429D01*
X115053059Y-53602074D01*
X115110612Y-53312732D01*
X115124604Y-53099265D01*
X115129907Y-53018359D01*
X115129907Y-53018344D01*
X115110613Y-52723988D01*
X115110612Y-52723972D01*
X115053059Y-52434630D01*
X114958230Y-52155275D01*
X114827750Y-51890688D01*
X114663851Y-51645395D01*
X114516865Y-51477790D01*
X114469336Y-51423593D01*
X114247533Y-51229077D01*
X114002245Y-51065181D01*
X114002238Y-51065177D01*
X113737658Y-50934701D01*
X113458308Y-50839873D01*
X113458302Y-50839871D01*
X113458300Y-50839871D01*
X113168958Y-50782318D01*
X113168951Y-50782317D01*
X113168941Y-50782316D01*
X113063562Y-50775409D01*
X112997954Y-50751382D01*
X112955751Y-50695699D01*
X112950352Y-50626038D01*
X112983472Y-50564517D01*
X112983788Y-50564198D01*
X113940198Y-49607790D01*
X114001521Y-49574305D01*
X114027879Y-49571471D01*
X130381906Y-49571471D01*
X130448945Y-49591156D01*
X130494700Y-49643960D01*
X130504644Y-49713118D01*
X130475619Y-49776674D01*
X130469587Y-49783152D01*
X108786545Y-71466192D01*
X108786544Y-71466194D01*
X108786542Y-71466197D01*
X108760372Y-71502218D01*
X108716303Y-71562873D01*
X108672235Y-71623527D01*
X108625891Y-71714484D01*
X108583948Y-71796799D01*
X108523850Y-71981760D01*
X108523849Y-71981765D01*
X108512606Y-72052758D01*
X108512606Y-72052759D01*
X108493429Y-72173835D01*
X108493429Y-92526165D01*
X108498794Y-92560037D01*
X108507241Y-92613368D01*
X108507241Y-92613369D01*
X108523849Y-92718237D01*
X108523850Y-92718239D01*
X108558527Y-92824962D01*
X108583948Y-92903200D01*
X108672237Y-93076475D01*
X108687313Y-93097226D01*
X108687316Y-93097230D01*
X108687321Y-93097236D01*
X108786542Y-93233803D01*
X110062305Y-94509566D01*
X111313181Y-95760441D01*
X111346666Y-95821764D01*
X111349500Y-95848122D01*
X111349500Y-96389363D01*
X111364953Y-96506753D01*
X111364956Y-96506762D01*
X111425464Y-96652841D01*
X111521718Y-96778282D01*
X111647159Y-96874536D01*
X111793238Y-96935044D01*
X111910639Y-96950500D01*
X113689360Y-96950499D01*
X113689363Y-96950499D01*
X113806753Y-96935046D01*
X113806757Y-96935044D01*
X113806762Y-96935044D01*
X113952841Y-96874536D01*
X114078282Y-96778282D01*
X114174536Y-96652841D01*
X114181751Y-96635420D01*
X114225590Y-96581019D01*
X114291884Y-96558953D01*
X114359584Y-96576231D01*
X114372474Y-96585021D01*
X114543924Y-96718466D01*
X114543930Y-96718470D01*
X114543933Y-96718472D01*
X114755344Y-96832882D01*
X114755347Y-96832883D01*
X114982699Y-96910933D01*
X114982701Y-96910933D01*
X114982703Y-96910934D01*
X115219808Y-96950500D01*
X115219809Y-96950500D01*
X115460191Y-96950500D01*
X115460192Y-96950500D01*
X115697297Y-96910934D01*
X115924656Y-96832882D01*
X116136067Y-96718472D01*
X116325764Y-96570825D01*
X116488571Y-96393969D01*
X116620049Y-96192728D01*
X116716610Y-95972591D01*
X116747336Y-95851249D01*
X116767224Y-95808805D01*
X116830191Y-95722139D01*
X116841839Y-95706107D01*
X116851694Y-95692543D01*
X116939982Y-95519267D01*
X117000077Y-95334314D01*
X117030500Y-95142236D01*
X117030500Y-70858249D01*
X117050185Y-70791210D01*
X117066814Y-70770573D01*
X132968009Y-54869377D01*
X133029330Y-54835894D01*
X133064528Y-54833376D01*
X133233253Y-54845443D01*
X133249155Y-54846581D01*
X133249156Y-54846581D01*
X133249157Y-54846581D01*
X133277751Y-54844535D01*
X133534584Y-54826167D01*
X133535288Y-54826014D01*
X133814193Y-54765342D01*
X133814193Y-54765341D01*
X133814202Y-54765340D01*
X134082317Y-54665338D01*
X134333471Y-54528197D01*
X134562551Y-54356710D01*
X134764895Y-54154366D01*
X134936382Y-53925286D01*
X135073523Y-53674132D01*
X135173525Y-53406017D01*
X135234352Y-53126399D01*
X135254766Y-52840971D01*
X135234352Y-52555543D01*
X135173525Y-52275925D01*
X135073523Y-52007810D01*
X135009569Y-51890688D01*
X134936385Y-51756661D01*
X134936380Y-51756653D01*
X134848891Y-51639781D01*
X134824474Y-51574317D01*
X134839326Y-51506044D01*
X134888731Y-51456639D01*
X134948158Y-51441471D01*
X135051033Y-51441471D01*
X135118072Y-51461156D01*
X135138714Y-51477790D01*
X136212337Y-52551413D01*
X136245822Y-52612736D01*
X136248656Y-52639094D01*
X136248656Y-54280334D01*
X136264109Y-54397724D01*
X136264112Y-54397733D01*
X136324620Y-54543812D01*
X136420874Y-54669253D01*
X136546315Y-54765507D01*
X136692394Y-54826015D01*
X136809795Y-54841471D01*
X139688516Y-54841470D01*
X139688519Y-54841470D01*
X139805909Y-54826017D01*
X139805913Y-54826015D01*
X139805918Y-54826015D01*
X139951997Y-54765507D01*
X140077438Y-54669253D01*
X140173692Y-54543812D01*
X140234200Y-54397733D01*
X140249656Y-54280332D01*
X140249655Y-51401611D01*
X140249655Y-51401607D01*
X140234202Y-51284217D01*
X140234200Y-51284212D01*
X140234200Y-51284209D01*
X140173692Y-51138130D01*
X140077438Y-51012689D01*
X139951997Y-50916435D01*
X139805918Y-50855927D01*
X139805916Y-50855926D01*
X139688526Y-50840472D01*
X139688523Y-50840471D01*
X139688517Y-50840471D01*
X139688510Y-50840471D01*
X138047279Y-50840471D01*
X137980240Y-50820786D01*
X137959598Y-50804152D01*
X136938598Y-49783152D01*
X136905113Y-49721829D01*
X136910097Y-49652137D01*
X136951969Y-49596204D01*
X137017433Y-49571787D01*
X137026279Y-49571471D01*
X148713464Y-49571471D01*
X148780503Y-49591156D01*
X148801145Y-49607790D01*
X149764223Y-50570868D01*
X149797708Y-50632191D01*
X149792724Y-50701883D01*
X149750852Y-50757816D01*
X149685388Y-50782233D01*
X149668432Y-50782283D01*
X149374585Y-50763023D01*
X149374571Y-50763023D01*
X149080214Y-50782316D01*
X149080202Y-50782317D01*
X149080198Y-50782318D01*
X149080190Y-50782319D01*
X149080187Y-50782320D01*
X148790861Y-50839870D01*
X148790847Y-50839873D01*
X148511497Y-50934701D01*
X148246912Y-51065180D01*
X148001619Y-51229080D01*
X147779819Y-51423593D01*
X147585306Y-51645393D01*
X147421406Y-51890686D01*
X147290927Y-52155271D01*
X147196099Y-52434621D01*
X147196096Y-52434635D01*
X147138546Y-52723961D01*
X147138542Y-52723988D01*
X147119249Y-53018344D01*
X147119249Y-53018359D01*
X147138542Y-53312715D01*
X147138543Y-53312725D01*
X147138544Y-53312732D01*
X147138546Y-53312742D01*
X147196096Y-53602068D01*
X147196099Y-53602082D01*
X147290927Y-53881432D01*
X147421403Y-54146012D01*
X147421407Y-54146019D01*
X147585303Y-54391307D01*
X147779819Y-54613110D01*
X148001622Y-54807626D01*
X148094042Y-54869379D01*
X148246913Y-54971524D01*
X148511501Y-55102004D01*
X148790856Y-55196833D01*
X149080198Y-55254386D01*
X149108466Y-55256238D01*
X149374571Y-55273681D01*
X149374578Y-55273681D01*
X149374585Y-55273681D01*
X149610253Y-55258233D01*
X149668958Y-55254386D01*
X149958300Y-55196833D01*
X150237655Y-55102004D01*
X150502243Y-54971524D01*
X150747535Y-54807625D01*
X150969336Y-54613110D01*
X151163851Y-54391309D01*
X151327750Y-54146017D01*
X151458230Y-53881429D01*
X151553059Y-53602074D01*
X151610612Y-53312732D01*
X151624604Y-53099265D01*
X151629907Y-53018359D01*
X151629907Y-53018344D01*
X151618281Y-52840971D01*
X151610646Y-52724495D01*
X151625903Y-52656314D01*
X151675601Y-52607203D01*
X151743961Y-52592758D01*
X151809279Y-52617563D01*
X151822061Y-52628706D01*
X157486969Y-58293614D01*
X157520454Y-58354937D01*
X157515470Y-58424629D01*
X157473598Y-58480562D01*
X157408134Y-58504979D01*
X157390590Y-58504686D01*
X157390580Y-58504892D01*
X157387338Y-58504722D01*
X157143742Y-58491955D01*
X157000001Y-58484422D01*
X156999999Y-58484422D01*
X156612660Y-58504722D01*
X156229572Y-58565397D01*
X156229570Y-58565397D01*
X155854905Y-58665788D01*
X155492802Y-58804787D01*
X155147206Y-58980877D01*
X154821917Y-59192122D01*
X154520488Y-59436215D01*
X154520480Y-59436222D01*
X154246222Y-59710480D01*
X154246215Y-59710488D01*
X154002122Y-60011917D01*
X153790877Y-60337206D01*
X153614787Y-60682802D01*
X153475788Y-61044905D01*
X153375397Y-61419570D01*
X153375397Y-61419572D01*
X153314722Y-61802660D01*
X153294422Y-62189999D01*
X153294422Y-62190000D01*
X153314722Y-62577339D01*
X153375397Y-62960427D01*
X153375398Y-62960434D01*
X153438652Y-63196501D01*
X153436989Y-63266351D01*
X153397826Y-63324213D01*
X153333598Y-63351717D01*
X153264696Y-63340130D01*
X153231196Y-63316275D01*
X151472561Y-61557641D01*
X151472558Y-61557637D01*
X151472558Y-61557638D01*
X151465491Y-61550571D01*
X151465491Y-61550570D01*
X151326134Y-61411213D01*
X151326133Y-61411212D01*
X151326132Y-61411211D01*
X151162272Y-61301723D01*
X151162259Y-61301716D01*
X151030449Y-61247120D01*
X150980188Y-61226301D01*
X150980180Y-61226299D01*
X150844234Y-61199258D01*
X150786895Y-61187852D01*
X150786893Y-61187852D01*
X150229472Y-61187852D01*
X150162433Y-61168167D01*
X150138243Y-61147835D01*
X150110345Y-61117530D01*
X150110342Y-61117527D01*
X150017037Y-61044905D01*
X149980163Y-61016204D01*
X149939351Y-60959495D01*
X149935676Y-60889722D01*
X149970308Y-60829039D01*
X149980163Y-60820499D01*
X150110342Y-60719177D01*
X150273149Y-60542321D01*
X150404627Y-60341080D01*
X150501188Y-60120943D01*
X150560198Y-59887915D01*
X150580049Y-59648352D01*
X150575173Y-59589513D01*
X150562471Y-59436219D01*
X150560198Y-59408789D01*
X150501188Y-59175761D01*
X150404627Y-58955624D01*
X150273149Y-58754383D01*
X150110342Y-58577527D01*
X149980163Y-58476204D01*
X149939351Y-58419495D01*
X149935676Y-58349722D01*
X149970308Y-58289039D01*
X149980163Y-58280499D01*
X150110342Y-58179177D01*
X150273149Y-58002321D01*
X150404627Y-57801080D01*
X150501188Y-57580943D01*
X150560198Y-57347915D01*
X150580049Y-57108352D01*
X150560198Y-56868789D01*
X150501188Y-56635761D01*
X150404627Y-56415624D01*
X150273149Y-56214383D01*
X150110342Y-56037527D01*
X150110337Y-56037523D01*
X150110335Y-56037521D01*
X149920653Y-55889885D01*
X149920647Y-55889881D01*
X149709235Y-55775470D01*
X149709230Y-55775468D01*
X149481878Y-55697418D01*
X149304046Y-55667743D01*
X149244770Y-55657852D01*
X149004386Y-55657852D01*
X148956965Y-55665765D01*
X148767277Y-55697418D01*
X148539925Y-55775468D01*
X148539920Y-55775470D01*
X148328508Y-55889881D01*
X148328502Y-55889885D01*
X148138820Y-56037521D01*
X148138817Y-56037524D01*
X147976008Y-56214381D01*
X147976005Y-56214385D01*
X147844529Y-56415622D01*
X147747967Y-56635762D01*
X147688957Y-56868792D01*
X147669107Y-57108346D01*
X147669107Y-57108357D01*
X147688957Y-57347911D01*
X147747967Y-57580941D01*
X147844529Y-57801081D01*
X147976005Y-58002318D01*
X147976007Y-58002321D01*
X148138814Y-58179177D01*
X148209722Y-58234366D01*
X148268992Y-58280499D01*
X148309805Y-58337209D01*
X148313479Y-58406982D01*
X148278847Y-58467665D01*
X148268992Y-58476205D01*
X148138816Y-58577525D01*
X147976008Y-58754381D01*
X147976005Y-58754385D01*
X147844529Y-58955622D01*
X147747967Y-59175762D01*
X147688957Y-59408792D01*
X147669107Y-59648346D01*
X147669107Y-59648357D01*
X147688957Y-59887911D01*
X147747967Y-60120941D01*
X147844529Y-60341081D01*
X147976005Y-60542318D01*
X147976007Y-60542321D01*
X148138814Y-60719177D01*
X148209722Y-60774366D01*
X148268992Y-60820499D01*
X148309805Y-60877209D01*
X148313479Y-60946982D01*
X148278847Y-61007665D01*
X148268992Y-61016205D01*
X148138816Y-61117525D01*
X147976008Y-61294381D01*
X147976005Y-61294385D01*
X147844529Y-61495622D01*
X147747967Y-61715762D01*
X147688957Y-61948792D01*
X147669107Y-62188346D01*
X147669107Y-62188357D01*
X147688957Y-62427911D01*
X147747967Y-62660941D01*
X147844529Y-62881081D01*
X147919513Y-62995851D01*
X147976007Y-63082321D01*
X148138814Y-63259177D01*
X148209722Y-63314366D01*
X148268992Y-63360499D01*
X148309805Y-63417209D01*
X148313479Y-63486982D01*
X148278847Y-63547665D01*
X148268992Y-63556205D01*
X148138816Y-63657525D01*
X147976008Y-63834381D01*
X147976005Y-63834385D01*
X147844529Y-64035622D01*
X147747967Y-64255762D01*
X147688957Y-64488792D01*
X147669107Y-64728346D01*
X147669107Y-64728357D01*
X147688957Y-64967911D01*
X147747967Y-65200941D01*
X147844529Y-65421081D01*
X147945229Y-65575212D01*
X147976007Y-65622321D01*
X148138814Y-65799177D01*
X148185523Y-65835532D01*
X148268992Y-65900499D01*
X148309805Y-65957209D01*
X148313479Y-66026982D01*
X148278847Y-66087665D01*
X148268992Y-66096205D01*
X148138816Y-66197525D01*
X147976008Y-66374381D01*
X147976005Y-66374385D01*
X147844529Y-66575622D01*
X147747967Y-66795762D01*
X147688957Y-67028792D01*
X147669107Y-67268346D01*
X147669107Y-67268357D01*
X147688957Y-67507911D01*
X147747967Y-67740941D01*
X147844529Y-67961081D01*
X147976005Y-68162318D01*
X147976008Y-68162322D01*
X148035530Y-68226980D01*
X148066452Y-68289635D01*
X148058592Y-68359061D01*
X148014445Y-68413216D01*
X147991757Y-68425522D01*
X147971740Y-68433814D01*
X147846296Y-68530070D01*
X147750041Y-68655512D01*
X147689534Y-68801589D01*
X147689533Y-68801591D01*
X147674079Y-68918981D01*
X147674078Y-68918997D01*
X147674078Y-70697715D01*
X147689531Y-70815105D01*
X147689534Y-70815114D01*
X147712268Y-70870000D01*
X147750042Y-70961193D01*
X147846296Y-71086634D01*
X147971737Y-71182888D01*
X148117816Y-71243396D01*
X148235217Y-71258852D01*
X150013938Y-71258851D01*
X150013941Y-71258851D01*
X150131331Y-71243398D01*
X150131335Y-71243396D01*
X150131340Y-71243396D01*
X150277419Y-71182888D01*
X150402860Y-71086634D01*
X150455222Y-71018393D01*
X150511650Y-70977191D01*
X150581396Y-70973036D01*
X150641279Y-71006199D01*
X154335002Y-74699922D01*
X154368487Y-74761245D01*
X154370897Y-74777363D01*
X154381474Y-74905021D01*
X154381476Y-74905029D01*
X154436907Y-75123920D01*
X154509928Y-75290390D01*
X154527610Y-75330701D01*
X154651111Y-75519733D01*
X154804041Y-75685860D01*
X154804044Y-75685862D01*
X154804047Y-75685865D01*
X154982220Y-75824543D01*
X154982226Y-75824547D01*
X154982229Y-75824549D01*
X155180814Y-75932018D01*
X155394380Y-76005335D01*
X155617100Y-76042500D01*
X155842900Y-76042500D01*
X156065620Y-76005335D01*
X156279186Y-75932018D01*
X156477771Y-75824549D01*
X156655959Y-75685860D01*
X156808889Y-75519733D01*
X156896191Y-75386106D01*
X156949338Y-75340751D01*
X157018569Y-75331327D01*
X157081905Y-75360829D01*
X157103807Y-75386105D01*
X157191111Y-75519733D01*
X157344041Y-75685860D01*
X157344044Y-75685862D01*
X157344047Y-75685865D01*
X157522220Y-75824543D01*
X157522235Y-75824553D01*
X157552526Y-75840946D01*
X157602117Y-75890166D01*
X157617224Y-75958382D01*
X157593053Y-76023938D01*
X157552526Y-76059054D01*
X157522235Y-76075446D01*
X157522220Y-76075456D01*
X157344047Y-76214134D01*
X157344044Y-76214137D01*
X157191108Y-76380270D01*
X157067608Y-76569302D01*
X156976907Y-76776079D01*
X156921476Y-76994970D01*
X156921474Y-76994978D01*
X156902830Y-77219993D01*
X156902830Y-77220006D01*
X156921474Y-77445021D01*
X156921476Y-77445029D01*
X156976907Y-77663919D01*
X157067610Y-77870701D01*
X157191111Y-78059733D01*
X157344041Y-78225860D01*
X157344044Y-78225862D01*
X157344047Y-78225865D01*
X157522220Y-78364543D01*
X157522235Y-78364553D01*
X157552526Y-78380946D01*
X157602117Y-78430166D01*
X157617224Y-78498382D01*
X157593053Y-78563938D01*
X157552526Y-78599054D01*
X157522235Y-78615446D01*
X157522220Y-78615456D01*
X157344047Y-78754134D01*
X157344044Y-78754137D01*
X157191105Y-78920274D01*
X157103808Y-79053892D01*
X157050662Y-79099248D01*
X156981431Y-79108672D01*
X156918095Y-79079170D01*
X156896192Y-79053892D01*
X156808894Y-78920274D01*
X156808892Y-78920272D01*
X156808889Y-78920267D01*
X156655959Y-78754140D01*
X156655954Y-78754136D01*
X156655952Y-78754134D01*
X156477779Y-78615456D01*
X156477773Y-78615452D01*
X156279187Y-78507982D01*
X156279181Y-78507980D01*
X156065622Y-78434665D01*
X155842900Y-78397500D01*
X155833782Y-78397500D01*
X155766743Y-78377815D01*
X155746101Y-78361181D01*
X152981831Y-75596911D01*
X152981811Y-75596889D01*
X152838137Y-75453215D01*
X152838133Y-75453212D01*
X152674272Y-75343723D01*
X152674263Y-75343718D01*
X152601667Y-75313648D01*
X152545517Y-75290390D01*
X152492188Y-75268301D01*
X152492184Y-75268300D01*
X152492180Y-75268298D01*
X152395540Y-75249076D01*
X152298896Y-75229852D01*
X152298893Y-75229852D01*
X148743575Y-75229852D01*
X148676536Y-75210167D01*
X148630781Y-75157363D01*
X148620837Y-75088205D01*
X148649862Y-75024649D01*
X148655894Y-75018171D01*
X148730307Y-74943757D01*
X148730317Y-74943747D01*
X148901804Y-74714667D01*
X149038945Y-74463513D01*
X149138947Y-74195398D01*
X149199774Y-73915780D01*
X149220188Y-73630352D01*
X149199774Y-73344924D01*
X149197846Y-73336063D01*
X149138949Y-73065314D01*
X149138948Y-73065312D01*
X149138947Y-73065306D01*
X149038945Y-72797191D01*
X149031104Y-72782832D01*
X148901807Y-72546042D01*
X148901802Y-72546034D01*
X148730323Y-72316964D01*
X148730307Y-72316946D01*
X148527983Y-72114622D01*
X148527965Y-72114606D01*
X148298895Y-71943127D01*
X148298887Y-71943122D01*
X148047744Y-71805987D01*
X148047745Y-71805987D01*
X147940493Y-71765984D01*
X147779624Y-71705983D01*
X147779621Y-71705982D01*
X147779615Y-71705980D01*
X147500011Y-71645156D01*
X147214579Y-71624742D01*
X147214577Y-71624742D01*
X146929144Y-71645156D01*
X146649540Y-71705980D01*
X146381411Y-71805987D01*
X146130268Y-71943122D01*
X146130260Y-71943127D01*
X145901190Y-72114606D01*
X145901172Y-72114622D01*
X145698848Y-72316946D01*
X145698832Y-72316964D01*
X145527353Y-72546034D01*
X145527348Y-72546042D01*
X145390213Y-72797185D01*
X145290206Y-73065314D01*
X145229382Y-73344918D01*
X145208968Y-73630350D01*
X145208968Y-73630353D01*
X145229382Y-73915785D01*
X145290206Y-74195389D01*
X145290208Y-74195395D01*
X145290209Y-74195398D01*
X145305383Y-74236081D01*
X145390213Y-74463518D01*
X145527348Y-74714661D01*
X145527353Y-74714669D01*
X145698832Y-74943739D01*
X145698848Y-74943757D01*
X145773262Y-75018171D01*
X145806747Y-75079494D01*
X145801763Y-75149186D01*
X145759891Y-75205119D01*
X145694427Y-75229536D01*
X145685581Y-75229852D01*
X140929022Y-75229852D01*
X140832379Y-75249076D01*
X140735734Y-75268299D01*
X140735728Y-75268301D01*
X140682401Y-75290389D01*
X140682401Y-75290390D01*
X140648772Y-75304319D01*
X140553655Y-75343718D01*
X140466223Y-75402139D01*
X140466222Y-75402140D01*
X140389782Y-75453214D01*
X140389781Y-75453215D01*
X126838560Y-89004438D01*
X122322220Y-93520778D01*
X122322218Y-93520780D01*
X122252538Y-93590459D01*
X122182859Y-93660138D01*
X122073368Y-93824004D01*
X122073368Y-93824005D01*
X122066775Y-93839923D01*
X121997949Y-94006083D01*
X121989313Y-94049500D01*
X121959500Y-94199375D01*
X121959500Y-94396796D01*
X121939815Y-94463835D01*
X121926730Y-94480778D01*
X121811435Y-94606022D01*
X121811429Y-94606031D01*
X121793807Y-94633003D01*
X121740660Y-94678358D01*
X121671429Y-94687780D01*
X121608093Y-94658277D01*
X121586193Y-94633003D01*
X121584154Y-94629883D01*
X121568571Y-94606031D01*
X121405764Y-94429175D01*
X121405759Y-94429171D01*
X121405757Y-94429169D01*
X121216075Y-94281533D01*
X121216069Y-94281529D01*
X121004657Y-94167118D01*
X121004652Y-94167116D01*
X120777300Y-94089066D01*
X120583297Y-94056693D01*
X120540192Y-94049500D01*
X120299808Y-94049500D01*
X120256703Y-94056693D01*
X120062699Y-94089066D01*
X119835347Y-94167116D01*
X119835342Y-94167118D01*
X119623930Y-94281529D01*
X119623924Y-94281533D01*
X119434242Y-94429169D01*
X119434239Y-94429172D01*
X119271430Y-94606029D01*
X119271427Y-94606033D01*
X119139951Y-94807270D01*
X119043389Y-95027410D01*
X118984379Y-95260440D01*
X118964529Y-95499994D01*
X118964529Y-95500005D01*
X118984379Y-95739559D01*
X119043389Y-95972589D01*
X119139948Y-96192723D01*
X119139954Y-96192734D01*
X119164307Y-96230007D01*
X119184496Y-96296896D01*
X119184500Y-96297830D01*
X119184500Y-98702168D01*
X119164815Y-98769207D01*
X119164309Y-98769990D01*
X119139949Y-98807275D01*
X119043389Y-99027410D01*
X118984379Y-99260440D01*
X118964529Y-99499994D01*
X118964529Y-99500005D01*
X118984379Y-99739559D01*
X119043389Y-99972589D01*
X119139951Y-100192729D01*
X119253808Y-100366998D01*
X119271429Y-100393969D01*
X119434236Y-100570825D01*
X119434239Y-100570827D01*
X119434242Y-100570830D01*
X119623924Y-100718466D01*
X119623930Y-100718470D01*
X119623933Y-100718472D01*
X119835344Y-100832882D01*
X119835347Y-100832883D01*
X120062699Y-100910933D01*
X120062701Y-100910933D01*
X120062703Y-100910934D01*
X120299808Y-100950500D01*
X120299809Y-100950500D01*
X120540191Y-100950500D01*
X120540192Y-100950500D01*
X120777297Y-100910934D01*
X121004656Y-100832882D01*
X121216067Y-100718472D01*
X121405764Y-100570825D01*
X121568571Y-100393969D01*
X121586193Y-100366995D01*
X121639337Y-100321641D01*
X121708568Y-100312217D01*
X121771904Y-100341718D01*
X121793804Y-100366992D01*
X121811429Y-100393969D01*
X121915262Y-100506762D01*
X121926730Y-100519219D01*
X121957652Y-100581874D01*
X121959500Y-100603202D01*
X121959500Y-104481513D01*
X121939815Y-104548552D01*
X121887011Y-104594307D01*
X121817853Y-104604251D01*
X121754297Y-104575226D01*
X121747819Y-104569194D01*
X116827170Y-99648545D01*
X116793685Y-99587222D01*
X116791275Y-99550627D01*
X116795471Y-99500000D01*
X116790159Y-99435898D01*
X116775620Y-99260440D01*
X116775620Y-99260437D01*
X116716610Y-99027409D01*
X116620049Y-98807272D01*
X116609999Y-98791890D01*
X116491585Y-98610645D01*
X116488571Y-98606031D01*
X116325764Y-98429175D01*
X116325759Y-98429171D01*
X116325757Y-98429169D01*
X116136075Y-98281533D01*
X116136069Y-98281529D01*
X115924657Y-98167118D01*
X115924652Y-98167116D01*
X115697300Y-98089066D01*
X115519468Y-98059391D01*
X115460192Y-98049500D01*
X115219808Y-98049500D01*
X115172387Y-98057413D01*
X114982699Y-98089066D01*
X114755347Y-98167116D01*
X114755342Y-98167118D01*
X114543930Y-98281529D01*
X114543924Y-98281533D01*
X114372474Y-98414979D01*
X114307480Y-98440622D01*
X114238940Y-98427056D01*
X114188616Y-98378587D01*
X114181755Y-98364587D01*
X114174536Y-98347159D01*
X114078282Y-98221718D01*
X113952841Y-98125464D01*
X113806762Y-98064956D01*
X113806760Y-98064955D01*
X113689370Y-98049501D01*
X113689367Y-98049500D01*
X113689361Y-98049500D01*
X113689354Y-98049500D01*
X111910636Y-98049500D01*
X111793246Y-98064953D01*
X111793237Y-98064956D01*
X111647160Y-98125463D01*
X111521718Y-98221718D01*
X111425463Y-98347160D01*
X111364956Y-98493237D01*
X111364955Y-98493239D01*
X111349501Y-98610629D01*
X111349500Y-98610645D01*
X111349500Y-100389363D01*
X111364953Y-100506753D01*
X111364956Y-100506762D01*
X111425464Y-100652842D01*
X111521719Y-100778284D01*
X111527465Y-100784030D01*
X111525107Y-100786387D01*
X111557174Y-100830270D01*
X111564500Y-100872260D01*
X111564500Y-101397240D01*
X111581019Y-101501533D01*
X111581019Y-101501534D01*
X111594921Y-101589309D01*
X111594921Y-101589310D01*
X111621765Y-101671926D01*
X111655019Y-101774271D01*
X111743306Y-101947543D01*
X111759110Y-101969295D01*
X111759112Y-101969301D01*
X111759114Y-101969300D01*
X111759115Y-101969302D01*
X111857609Y-102104870D01*
X112963110Y-103210371D01*
X112996595Y-103271694D01*
X112991611Y-103341386D01*
X112949739Y-103397319D01*
X112884275Y-103421736D01*
X112875429Y-103422052D01*
X112874571Y-103422052D01*
X112580214Y-103441345D01*
X112580202Y-103441346D01*
X112580198Y-103441347D01*
X112580190Y-103441348D01*
X112580187Y-103441349D01*
X112290861Y-103498899D01*
X112290847Y-103498902D01*
X112011497Y-103593730D01*
X111746912Y-103724209D01*
X111501619Y-103888109D01*
X111279819Y-104082622D01*
X111085306Y-104304422D01*
X110921406Y-104549715D01*
X110790927Y-104814300D01*
X110696099Y-105093650D01*
X110696096Y-105093664D01*
X110638546Y-105382990D01*
X110638542Y-105383017D01*
X110619249Y-105677373D01*
X110619249Y-105677388D01*
X110638542Y-105971744D01*
X110638543Y-105971754D01*
X110638544Y-105971761D01*
X110638546Y-105971771D01*
X110696096Y-106261097D01*
X110696099Y-106261111D01*
X110790927Y-106540461D01*
X110921403Y-106805041D01*
X110921407Y-106805048D01*
X111085303Y-107050336D01*
X111279819Y-107272139D01*
X111501622Y-107466655D01*
X111660761Y-107572988D01*
X111746913Y-107630553D01*
X112011501Y-107761033D01*
X112290856Y-107855862D01*
X112580198Y-107913415D01*
X112608466Y-107915267D01*
X112874571Y-107932710D01*
X112874578Y-107932710D01*
X112874585Y-107932710D01*
X113110253Y-107917262D01*
X113168958Y-107913415D01*
X113458300Y-107855862D01*
X113737655Y-107761033D01*
X114002243Y-107630553D01*
X114247535Y-107466654D01*
X114469336Y-107272139D01*
X114663851Y-107050338D01*
X114827750Y-106805046D01*
X114958230Y-106540458D01*
X115053059Y-106261103D01*
X115110612Y-105971761D01*
X115121169Y-105810697D01*
X115129907Y-105677388D01*
X115129907Y-105676530D01*
X115129979Y-105676283D01*
X115130173Y-105673330D01*
X115130833Y-105673373D01*
X115149592Y-105609491D01*
X115202396Y-105563736D01*
X115271554Y-105553792D01*
X115335110Y-105582817D01*
X115341588Y-105588849D01*
X131949837Y-122197098D01*
X131983322Y-122258421D01*
X131986156Y-122284779D01*
X131986156Y-141022908D01*
X131966471Y-141089947D01*
X131936467Y-141122174D01*
X131908271Y-141143281D01*
X131908250Y-141143299D01*
X131705926Y-141345623D01*
X131705910Y-141345641D01*
X131534431Y-141574711D01*
X131534426Y-141574719D01*
X131397291Y-141825862D01*
X131297284Y-142093991D01*
X131236460Y-142373595D01*
X131216046Y-142659027D01*
X131216046Y-142659030D01*
X131236460Y-142944462D01*
X131297284Y-143224066D01*
X131297286Y-143224072D01*
X131297287Y-143224075D01*
X131390179Y-143473127D01*
X131397291Y-143492195D01*
X131534426Y-143743338D01*
X131534431Y-143743346D01*
X131621921Y-143860219D01*
X131646338Y-143925683D01*
X131631486Y-143993956D01*
X131582081Y-144043361D01*
X131522654Y-144058529D01*
X114222232Y-144058529D01*
X114155193Y-144038844D01*
X114109438Y-143986040D01*
X114099494Y-143916882D01*
X114128519Y-143853326D01*
X114140473Y-143841301D01*
X114219336Y-143772139D01*
X114244594Y-143743338D01*
X114413851Y-143550338D01*
X114577750Y-143305046D01*
X114708230Y-143040458D01*
X114803059Y-142761103D01*
X114860612Y-142471761D01*
X114868197Y-142356033D01*
X114879907Y-142177388D01*
X114879907Y-142177373D01*
X114860613Y-141883017D01*
X114860612Y-141883001D01*
X114803059Y-141593659D01*
X114708230Y-141314304D01*
X114577750Y-141049717D01*
X114413851Y-140804424D01*
X114285905Y-140658530D01*
X114219336Y-140582622D01*
X113997533Y-140388106D01*
X113752245Y-140224210D01*
X113752238Y-140224206D01*
X113487658Y-140093730D01*
X113208308Y-139998902D01*
X113208302Y-139998900D01*
X113208300Y-139998900D01*
X112918958Y-139941347D01*
X112918951Y-139941346D01*
X112918941Y-139941345D01*
X112624585Y-139922052D01*
X112624571Y-139922052D01*
X112330214Y-139941345D01*
X112330202Y-139941346D01*
X112330198Y-139941347D01*
X112330190Y-139941348D01*
X112330187Y-139941349D01*
X112040861Y-139998899D01*
X112040847Y-139998902D01*
X111761497Y-140093730D01*
X111496912Y-140224209D01*
X111251619Y-140388109D01*
X111170188Y-140459522D01*
X111106806Y-140488925D01*
X111037589Y-140479393D01*
X110984514Y-140433953D01*
X110964431Y-140367031D01*
X110964429Y-140366294D01*
X110964429Y-126631694D01*
X110934006Y-126439618D01*
X110934006Y-126439615D01*
X110873911Y-126254662D01*
X110785623Y-126081386D01*
X110671315Y-125924055D01*
X110533803Y-125786543D01*
X108757807Y-124010546D01*
X108724322Y-123949223D01*
X108729306Y-123879531D01*
X108771178Y-123823598D01*
X108813390Y-123803091D01*
X109145087Y-123714214D01*
X109507194Y-123575214D01*
X109852789Y-123399125D01*
X110178084Y-123187876D01*
X110479516Y-122943781D01*
X110753781Y-122669516D01*
X110997876Y-122368084D01*
X111209125Y-122042789D01*
X111385214Y-121697194D01*
X111524214Y-121335087D01*
X111624602Y-120960433D01*
X111685278Y-120577338D01*
X111705578Y-120190000D01*
X111685278Y-119802662D01*
X111624602Y-119419567D01*
X111524214Y-119044913D01*
X111385214Y-118682806D01*
X111209125Y-118337211D01*
X111172849Y-118281351D01*
X110997877Y-118011917D01*
X110753784Y-117710488D01*
X110753781Y-117710484D01*
X110479516Y-117436219D01*
X110178084Y-117192124D01*
X110178082Y-117192122D01*
X109852793Y-116980877D01*
X109507197Y-116804787D01*
X109145094Y-116665788D01*
X109145087Y-116665786D01*
X108770433Y-116565398D01*
X108770429Y-116565397D01*
X108770428Y-116565397D01*
X108387339Y-116504722D01*
X108000001Y-116484422D01*
X107999999Y-116484422D01*
X107612660Y-116504722D01*
X107229572Y-116565397D01*
X107229570Y-116565397D01*
X106854905Y-116665788D01*
X106492802Y-116804787D01*
X106147206Y-116980877D01*
X105821917Y-117192122D01*
X105520488Y-117436215D01*
X105520480Y-117436222D01*
X105246222Y-117710480D01*
X105246215Y-117710488D01*
X105002122Y-118011917D01*
X104790877Y-118337206D01*
X104614787Y-118682802D01*
X104475788Y-119044905D01*
X104375397Y-119419570D01*
X104375397Y-119419572D01*
X104314722Y-119802660D01*
X104294422Y-120189999D01*
X104294422Y-120190003D01*
X104298956Y-120276533D01*
X104282806Y-120344510D01*
X104232469Y-120392965D01*
X104163926Y-120406514D01*
X104145203Y-120403356D01*
X104086863Y-120388848D01*
X104040497Y-120377317D01*
X104040501Y-120377317D01*
X104009339Y-120375204D01*
X103998954Y-120374500D01*
X101801046Y-120374500D01*
X101789177Y-120375304D01*
X101759500Y-120377317D01*
X101579976Y-120421963D01*
X101414247Y-120504157D01*
X101270059Y-120620058D01*
X101270058Y-120620059D01*
X101154157Y-120764247D01*
X101071963Y-120929976D01*
X101027317Y-121109500D01*
X101027317Y-121109505D01*
X101024500Y-121151046D01*
X101024500Y-123348954D01*
X101025028Y-123356741D01*
X101027317Y-123390499D01*
X101071963Y-123570023D01*
X101154157Y-123735752D01*
X101239495Y-123841917D01*
X101270059Y-123879941D01*
X101414247Y-123995842D01*
X101579978Y-124078037D01*
X101759501Y-124122682D01*
X101759502Y-124122682D01*
X101759505Y-124122683D01*
X101801046Y-124125500D01*
X102976877Y-124125500D01*
X103043916Y-124145185D01*
X103064558Y-124161819D01*
X104370129Y-125467390D01*
X104461251Y-125533593D01*
X104461252Y-125533593D01*
X104527458Y-125581695D01*
X104578762Y-125607835D01*
X104630067Y-125633976D01*
X104700728Y-125669980D01*
X104700730Y-125669980D01*
X104700733Y-125669982D01*
X104807564Y-125704694D01*
X104885680Y-125730076D01*
X104885681Y-125730076D01*
X104885687Y-125730078D01*
X104973465Y-125743980D01*
X105077764Y-125760500D01*
X106961877Y-125760500D01*
X107028916Y-125780185D01*
X107049558Y-125796819D01*
X107690558Y-126437819D01*
X107724043Y-126499142D01*
X107719059Y-126568834D01*
X107677187Y-126624767D01*
X107611723Y-126649184D01*
X107602877Y-126649500D01*
X104710636Y-126649500D01*
X104593246Y-126664953D01*
X104593237Y-126664956D01*
X104447160Y-126725463D01*
X104321718Y-126821718D01*
X104225463Y-126947160D01*
X104164956Y-127093237D01*
X104164955Y-127093239D01*
X104149501Y-127210629D01*
X104149500Y-127210645D01*
X104149500Y-130602877D01*
X104129815Y-130669916D01*
X104077011Y-130715671D01*
X104007853Y-130725615D01*
X103944297Y-130696590D01*
X103937819Y-130690558D01*
X102636819Y-129389558D01*
X102603334Y-129328235D01*
X102600500Y-129301877D01*
X102600500Y-127941033D01*
X102600499Y-127941032D01*
X102585063Y-127764592D01*
X102523903Y-127536337D01*
X102424035Y-127322170D01*
X102424033Y-127322167D01*
X102424032Y-127322165D01*
X102345933Y-127210629D01*
X102288495Y-127128599D01*
X102121401Y-126961505D01*
X102082521Y-126934281D01*
X101927834Y-126825967D01*
X101927830Y-126825965D01*
X101918722Y-126821718D01*
X101713663Y-126726097D01*
X101713659Y-126726096D01*
X101713655Y-126726094D01*
X101485413Y-126664938D01*
X101485403Y-126664936D01*
X101308967Y-126649500D01*
X101308966Y-126649500D01*
X99691034Y-126649500D01*
X99691033Y-126649500D01*
X99602813Y-126657218D01*
X99514592Y-126664937D01*
X99500434Y-126668730D01*
X99491590Y-126671100D01*
X99421740Y-126669435D01*
X99363879Y-126630271D01*
X99336376Y-126566041D01*
X99335500Y-126551324D01*
X99335500Y-123718220D01*
X99355185Y-123651181D01*
X99371814Y-123630543D01*
X99521029Y-123481329D01*
X99681801Y-123266562D01*
X99810373Y-123031101D01*
X99904126Y-122779739D01*
X99961152Y-122517593D01*
X99980291Y-122250000D01*
X99961152Y-121982407D01*
X99904126Y-121720261D01*
X99810373Y-121468899D01*
X99805852Y-121460620D01*
X99681804Y-121233443D01*
X99681799Y-121233435D01*
X99521035Y-121018678D01*
X99521019Y-121018660D01*
X99331339Y-120828980D01*
X99331321Y-120828964D01*
X99116564Y-120668200D01*
X99116556Y-120668195D01*
X98881106Y-120539629D01*
X98881102Y-120539627D01*
X98629734Y-120445872D01*
X98367601Y-120388849D01*
X98367594Y-120388848D01*
X98100001Y-120369709D01*
X98099999Y-120369709D01*
X97832405Y-120388848D01*
X97832398Y-120388849D01*
X97570265Y-120445872D01*
X97318897Y-120539627D01*
X97318893Y-120539629D01*
X97083443Y-120668195D01*
X97083435Y-120668200D01*
X96868678Y-120828964D01*
X96868660Y-120828980D01*
X96678980Y-121018660D01*
X96678964Y-121018678D01*
X96518200Y-121233435D01*
X96518195Y-121233443D01*
X96389629Y-121468893D01*
X96389627Y-121468897D01*
X96295872Y-121720265D01*
X96238849Y-121982398D01*
X96238848Y-121982405D01*
X96219709Y-122249998D01*
X96219709Y-122250001D01*
X96238848Y-122517594D01*
X96238849Y-122517601D01*
X96295872Y-122779734D01*
X96389627Y-123031102D01*
X96389629Y-123031106D01*
X96518195Y-123266556D01*
X96518200Y-123266564D01*
X96678964Y-123481321D01*
X96678970Y-123481327D01*
X96678971Y-123481329D01*
X96828182Y-123630540D01*
X96861666Y-123691862D01*
X96864500Y-123718220D01*
X96864500Y-127739735D01*
X96873241Y-127794923D01*
X96894921Y-127931810D01*
X96935798Y-128057614D01*
X96955019Y-128116771D01*
X97043308Y-128290047D01*
X97088651Y-128352455D01*
X97088652Y-128352457D01*
X97157609Y-128447370D01*
X98363181Y-129652942D01*
X98396666Y-129714265D01*
X98399500Y-129740623D01*
X98399500Y-130058967D01*
X98414936Y-130235403D01*
X98414938Y-130235413D01*
X98476094Y-130463655D01*
X98476096Y-130463659D01*
X98476097Y-130463663D01*
X98541014Y-130602877D01*
X98575965Y-130677830D01*
X98575967Y-130677834D01*
X98609424Y-130725615D01*
X98711505Y-130871401D01*
X98878599Y-131038495D01*
X98975384Y-131106265D01*
X99072165Y-131174032D01*
X99072167Y-131174033D01*
X99072170Y-131174035D01*
X99286337Y-131273903D01*
X99514592Y-131335063D01*
X99691032Y-131350499D01*
X99691033Y-131350500D01*
X99691034Y-131350500D01*
X101051877Y-131350500D01*
X101118916Y-131370185D01*
X101139558Y-131386819D01*
X101475699Y-131722960D01*
X101509184Y-131784283D01*
X101504200Y-131853975D01*
X101482642Y-131890781D01*
X101420047Y-131964688D01*
X101294882Y-132174741D01*
X101294880Y-132174745D01*
X101205996Y-132402531D01*
X101205994Y-132402539D01*
X101205993Y-132402543D01*
X101181906Y-132517416D01*
X101155813Y-132641863D01*
X101155812Y-132641867D01*
X101149500Y-132743541D01*
X101149500Y-134656458D01*
X101155812Y-134758132D01*
X101155813Y-134758134D01*
X101205993Y-134997457D01*
X101205994Y-134997461D01*
X101205996Y-134997468D01*
X101294880Y-135225254D01*
X101294882Y-135225258D01*
X101365668Y-135344052D01*
X101420051Y-135435317D01*
X101578088Y-135621912D01*
X101764683Y-135779949D01*
X101974744Y-135905119D01*
X102001497Y-135915558D01*
X102202531Y-135994003D01*
X102202534Y-135994003D01*
X102202543Y-135994007D01*
X102441866Y-136044187D01*
X102543548Y-136050500D01*
X103844165Y-136050500D01*
X103911204Y-136070185D01*
X103956959Y-136122989D01*
X103966903Y-136192147D01*
X103937878Y-136255703D01*
X103931846Y-136262181D01*
X100900428Y-139293597D01*
X100839105Y-139327082D01*
X100792338Y-139328225D01*
X100620192Y-139299500D01*
X100379808Y-139299500D01*
X100332387Y-139307413D01*
X100142699Y-139339066D01*
X99915347Y-139417116D01*
X99915342Y-139417118D01*
X99703930Y-139531529D01*
X99703924Y-139531533D01*
X99514242Y-139679169D01*
X99514239Y-139679172D01*
X99351430Y-139856029D01*
X99351427Y-139856033D01*
X99219951Y-140057270D01*
X99123389Y-140277410D01*
X99064379Y-140510440D01*
X99044529Y-140749994D01*
X99044529Y-140750005D01*
X99064379Y-140989559D01*
X99123389Y-141222589D01*
X99219951Y-141442729D01*
X99318563Y-141593664D01*
X99351429Y-141643969D01*
X99514236Y-141820825D01*
X99618718Y-141902147D01*
X99659531Y-141958857D01*
X99663206Y-142028630D01*
X99628575Y-142089313D01*
X99618724Y-142097848D01*
X99607301Y-142106740D01*
X99514237Y-142179174D01*
X99351430Y-142356029D01*
X99351427Y-142356033D01*
X99219951Y-142557270D01*
X99123389Y-142777410D01*
X99064379Y-143010440D01*
X99044529Y-143249994D01*
X99044529Y-143250005D01*
X99064379Y-143489559D01*
X99123389Y-143722589D01*
X99219951Y-143942729D01*
X99342664Y-144130553D01*
X99351429Y-144143969D01*
X99514236Y-144320825D01*
X99514239Y-144320827D01*
X99514242Y-144320830D01*
X99703924Y-144468466D01*
X99703930Y-144468470D01*
X99703933Y-144468472D01*
X99915344Y-144582882D01*
X99915347Y-144582883D01*
X100142699Y-144660933D01*
X100142701Y-144660933D01*
X100142703Y-144660934D01*
X100379808Y-144700500D01*
X100379809Y-144700500D01*
X100620191Y-144700500D01*
X100620192Y-144700500D01*
X100857297Y-144660934D01*
X101084656Y-144582882D01*
X101296067Y-144468472D01*
X101485764Y-144320825D01*
X101648571Y-144143969D01*
X101780049Y-143942728D01*
X101876610Y-143722591D01*
X101935620Y-143489563D01*
X101947979Y-143340419D01*
X101955471Y-143250005D01*
X101955471Y-143249994D01*
X101938108Y-143040461D01*
X101935620Y-143010437D01*
X101876610Y-142777409D01*
X101780049Y-142557272D01*
X101724170Y-142471744D01*
X101648572Y-142356033D01*
X101648571Y-142356031D01*
X101485764Y-142179175D01*
X101465562Y-142163451D01*
X101424749Y-142106740D01*
X101421076Y-142036967D01*
X101455707Y-141976284D01*
X101503404Y-141947668D01*
X101665555Y-141894982D01*
X101744254Y-141854883D01*
X101838831Y-141806694D01*
X101838833Y-141806692D01*
X101838836Y-141806691D01*
X101916826Y-141750027D01*
X101936821Y-141735500D01*
X101996162Y-141692387D01*
X102847255Y-140841292D01*
X102908576Y-140807809D01*
X102978267Y-140812793D01*
X103034201Y-140854664D01*
X103058510Y-140918734D01*
X103064379Y-140989559D01*
X103123389Y-141222589D01*
X103219951Y-141442729D01*
X103318563Y-141593664D01*
X103351429Y-141643969D01*
X103514236Y-141820825D01*
X103618718Y-141902147D01*
X103659531Y-141958857D01*
X103663206Y-142028630D01*
X103628575Y-142089313D01*
X103618724Y-142097848D01*
X103607301Y-142106740D01*
X103514237Y-142179174D01*
X103351430Y-142356029D01*
X103351427Y-142356033D01*
X103219951Y-142557270D01*
X103123389Y-142777410D01*
X103064379Y-143010440D01*
X103044529Y-143249994D01*
X103044529Y-143250005D01*
X103064379Y-143489559D01*
X103123389Y-143722589D01*
X103219951Y-143942729D01*
X103342664Y-144130553D01*
X103351429Y-144143969D01*
X103514236Y-144320825D01*
X103514239Y-144320827D01*
X103514242Y-144320830D01*
X103703924Y-144468466D01*
X103703930Y-144468470D01*
X103703933Y-144468472D01*
X103915344Y-144582882D01*
X103915347Y-144582883D01*
X104142699Y-144660933D01*
X104142701Y-144660933D01*
X104142703Y-144660934D01*
X104379808Y-144700500D01*
X104379809Y-144700500D01*
X104620191Y-144700500D01*
X104620192Y-144700500D01*
X104765614Y-144676233D01*
X104834977Y-144684615D01*
X104888799Y-144729167D01*
X104909990Y-144795746D01*
X104909640Y-144808271D01*
X104894551Y-144999999D01*
X104914317Y-145251151D01*
X104973126Y-145496110D01*
X105069533Y-145728859D01*
X105201160Y-145943653D01*
X105201161Y-145943656D01*
X105201164Y-145943659D01*
X105364776Y-146135224D01*
X105556341Y-146298836D01*
X105556343Y-146298837D01*
X105556344Y-146298838D01*
X105771140Y-146430466D01*
X105970413Y-146513007D01*
X106003889Y-146526873D01*
X106248852Y-146585683D01*
X106500000Y-146605449D01*
X106751148Y-146585683D01*
X106996111Y-146526873D01*
X107228859Y-146430466D01*
X107443659Y-146298836D01*
X107635224Y-146135224D01*
X107798836Y-145943659D01*
X107930466Y-145728859D01*
X108026873Y-145496111D01*
X108085683Y-145251148D01*
X108105449Y-145000000D01*
X108085683Y-144748852D01*
X108026873Y-144503889D01*
X107989398Y-144413415D01*
X107930466Y-144271140D01*
X107798839Y-144056346D01*
X107798838Y-144056343D01*
X107701801Y-143942728D01*
X107635224Y-143864776D01*
X107493048Y-143743346D01*
X107443656Y-143701161D01*
X107443653Y-143701160D01*
X107228859Y-143569533D01*
X106996110Y-143473126D01*
X106751151Y-143414317D01*
X106500000Y-143394551D01*
X106248848Y-143414317D01*
X106102302Y-143449500D01*
X106032519Y-143446009D01*
X105975702Y-143405345D01*
X105949889Y-143340419D01*
X105949779Y-143318686D01*
X105953826Y-143269851D01*
X105955471Y-143250003D01*
X105955471Y-143249994D01*
X105938108Y-143040461D01*
X105935620Y-143010437D01*
X105876610Y-142777409D01*
X105818226Y-142644308D01*
X105809324Y-142575010D01*
X105839301Y-142511898D01*
X105898640Y-142475011D01*
X105931783Y-142470500D01*
X107026871Y-142470500D01*
X107093910Y-142490185D01*
X107114552Y-142506819D01*
X107735110Y-143127377D01*
X108779471Y-144171737D01*
X108779474Y-144171741D01*
X110844152Y-146236419D01*
X110930064Y-146298837D01*
X111001478Y-146350722D01*
X111001480Y-146350723D01*
X111157985Y-146430466D01*
X111174756Y-146439011D01*
X111306243Y-146481734D01*
X111359703Y-146499105D01*
X111359704Y-146499105D01*
X111359710Y-146499107D01*
X111447488Y-146513009D01*
X111551787Y-146529529D01*
X111551788Y-146529529D01*
X140977165Y-146529529D01*
X140977166Y-146529529D01*
X141081464Y-146513009D01*
X141081465Y-146513009D01*
X141110723Y-146508375D01*
X141169243Y-146499107D01*
X141354197Y-146439011D01*
X141370968Y-146430466D01*
X141527473Y-146350723D01*
X141542809Y-146339580D01*
X141598889Y-146298837D01*
X141684800Y-146236419D01*
X141684800Y-146236418D01*
X141684804Y-146236416D01*
X145743847Y-142177373D01*
X147119249Y-142177373D01*
X147119249Y-142177388D01*
X147138542Y-142471744D01*
X147138543Y-142471754D01*
X147138544Y-142471761D01*
X147175793Y-142659029D01*
X147196096Y-142761097D01*
X147196099Y-142761111D01*
X147290927Y-143040461D01*
X147421403Y-143305041D01*
X147421407Y-143305048D01*
X147585303Y-143550336D01*
X147779819Y-143772139D01*
X148001622Y-143966655D01*
X148246910Y-144130551D01*
X148246913Y-144130553D01*
X148511501Y-144261033D01*
X148790856Y-144355862D01*
X149080198Y-144413415D01*
X149108466Y-144415267D01*
X149374571Y-144432710D01*
X149374578Y-144432710D01*
X149374585Y-144432710D01*
X149610253Y-144417262D01*
X149668958Y-144413415D01*
X149958300Y-144355862D01*
X150237655Y-144261033D01*
X150502243Y-144130553D01*
X150747535Y-143966654D01*
X150969336Y-143772139D01*
X151163851Y-143550338D01*
X151327750Y-143305046D01*
X151458230Y-143040458D01*
X151553059Y-142761103D01*
X151610612Y-142471761D01*
X151618197Y-142356033D01*
X151629907Y-142177388D01*
X151629907Y-142177373D01*
X151610613Y-141883017D01*
X151610612Y-141883001D01*
X151553059Y-141593659D01*
X151458230Y-141314304D01*
X151327750Y-141049717D01*
X151163851Y-140804424D01*
X151035905Y-140658530D01*
X150969336Y-140582622D01*
X150747533Y-140388106D01*
X150502245Y-140224210D01*
X150502238Y-140224206D01*
X150237658Y-140093730D01*
X149958308Y-139998902D01*
X149958302Y-139998900D01*
X149958300Y-139998900D01*
X149668958Y-139941347D01*
X149668951Y-139941346D01*
X149668941Y-139941345D01*
X149374585Y-139922052D01*
X149374571Y-139922052D01*
X149080214Y-139941345D01*
X149080202Y-139941346D01*
X149080198Y-139941347D01*
X149080190Y-139941348D01*
X149080187Y-139941349D01*
X148790861Y-139998899D01*
X148790847Y-139998902D01*
X148511497Y-140093730D01*
X148246912Y-140224209D01*
X148001619Y-140388109D01*
X147779819Y-140582622D01*
X147585306Y-140804422D01*
X147421406Y-141049715D01*
X147290927Y-141314300D01*
X147196099Y-141593650D01*
X147196096Y-141593664D01*
X147138546Y-141882990D01*
X147138542Y-141883017D01*
X147119249Y-142177373D01*
X145743847Y-142177373D01*
X148156965Y-139764255D01*
X148255088Y-139629199D01*
X148271272Y-139606924D01*
X148359560Y-139433648D01*
X148419655Y-139248695D01*
X148450078Y-139056617D01*
X148450078Y-138413880D01*
X148469763Y-138346841D01*
X148522567Y-138301086D01*
X148574078Y-138289880D01*
X148653941Y-138289880D01*
X148771331Y-138274427D01*
X148771335Y-138274425D01*
X148771340Y-138274425D01*
X148917419Y-138213917D01*
X149042860Y-138117663D01*
X149139114Y-137992222D01*
X149199622Y-137846143D01*
X149215078Y-137728742D01*
X149215077Y-134850021D01*
X149215077Y-134850020D01*
X149215077Y-134850017D01*
X149199624Y-134732627D01*
X149199622Y-134732620D01*
X149199622Y-134732619D01*
X149139114Y-134586540D01*
X149042860Y-134461099D01*
X148917419Y-134364845D01*
X148771340Y-134304337D01*
X148771338Y-134304336D01*
X148653948Y-134288882D01*
X148653945Y-134288881D01*
X148653939Y-134288881D01*
X148653932Y-134288881D01*
X145775214Y-134288881D01*
X145657824Y-134304334D01*
X145657815Y-134304337D01*
X145511738Y-134364844D01*
X145386296Y-134461099D01*
X145290041Y-134586541D01*
X145229534Y-134732618D01*
X145229533Y-134732620D01*
X145214079Y-134850010D01*
X145214079Y-134850017D01*
X145214078Y-134850026D01*
X145214078Y-137728744D01*
X145229531Y-137846134D01*
X145229534Y-137846143D01*
X145290042Y-137992222D01*
X145386296Y-138117663D01*
X145511737Y-138213917D01*
X145657816Y-138274425D01*
X145775217Y-138289881D01*
X145837455Y-138289880D01*
X145904493Y-138309564D01*
X145950249Y-138362367D01*
X145960193Y-138431525D01*
X145931169Y-138495081D01*
X145925136Y-138501561D01*
X140433836Y-143992861D01*
X140372513Y-144026346D01*
X140302821Y-144021362D01*
X140246888Y-143979490D01*
X140222471Y-143914026D01*
X140222155Y-143905206D01*
X140222155Y-141219669D01*
X140222155Y-141219668D01*
X140222155Y-141219665D01*
X140206702Y-141102275D01*
X140206700Y-141102268D01*
X140206700Y-141102267D01*
X140146192Y-140956188D01*
X140049938Y-140830747D01*
X139924497Y-140734493D01*
X139778418Y-140673985D01*
X139778416Y-140673984D01*
X139661026Y-140658530D01*
X139661023Y-140658529D01*
X139661017Y-140658529D01*
X139661010Y-140658529D01*
X139581156Y-140658529D01*
X139514117Y-140638844D01*
X139468362Y-140586040D01*
X139457156Y-140534529D01*
X139457156Y-126289379D01*
X145208968Y-126289379D01*
X145208968Y-126289382D01*
X145229382Y-126574814D01*
X145290206Y-126854418D01*
X145290208Y-126854424D01*
X145290209Y-126854427D01*
X145324797Y-126947160D01*
X145390213Y-127122547D01*
X145527348Y-127373690D01*
X145527353Y-127373698D01*
X145698832Y-127602768D01*
X145698848Y-127602786D01*
X145901172Y-127805110D01*
X145901190Y-127805126D01*
X146130260Y-127976605D01*
X146130268Y-127976610D01*
X146381411Y-128113745D01*
X146381410Y-128113745D01*
X146381414Y-128113746D01*
X146381417Y-128113748D01*
X146649532Y-128213750D01*
X146649538Y-128213751D01*
X146649540Y-128213752D01*
X146929144Y-128274576D01*
X146929146Y-128274576D01*
X146929150Y-128274577D01*
X147182798Y-128292718D01*
X147214577Y-128294991D01*
X147214578Y-128294991D01*
X147214579Y-128294991D01*
X147243173Y-128292945D01*
X147500006Y-128274577D01*
X147779624Y-128213750D01*
X148047739Y-128113748D01*
X148298893Y-127976607D01*
X148527973Y-127805120D01*
X148730317Y-127602776D01*
X148901804Y-127373696D01*
X149038945Y-127122542D01*
X149138947Y-126854427D01*
X149178827Y-126671100D01*
X149199773Y-126574814D01*
X149199773Y-126574813D01*
X149199774Y-126574809D01*
X149220188Y-126289381D01*
X149199774Y-126003953D01*
X149182393Y-125924055D01*
X149138949Y-125724343D01*
X149138948Y-125724341D01*
X149138947Y-125724335D01*
X149038945Y-125456220D01*
X148901804Y-125205066D01*
X148901802Y-125205063D01*
X148730323Y-124975993D01*
X148730307Y-124975975D01*
X148527983Y-124773651D01*
X148527965Y-124773635D01*
X148298895Y-124602156D01*
X148298887Y-124602151D01*
X148047744Y-124465016D01*
X148047745Y-124465016D01*
X147940493Y-124425013D01*
X147779624Y-124365012D01*
X147779621Y-124365011D01*
X147779615Y-124365009D01*
X147500011Y-124304185D01*
X147214579Y-124283771D01*
X147214577Y-124283771D01*
X146929144Y-124304185D01*
X146649540Y-124365009D01*
X146381411Y-124465016D01*
X146130268Y-124602151D01*
X146130260Y-124602156D01*
X145901190Y-124773635D01*
X145901172Y-124773651D01*
X145698848Y-124975975D01*
X145698832Y-124975993D01*
X145527353Y-125205063D01*
X145527348Y-125205071D01*
X145390213Y-125456214D01*
X145290206Y-125724343D01*
X145229382Y-126003947D01*
X145208968Y-126289379D01*
X139457156Y-126289379D01*
X139457156Y-122693057D01*
X139453428Y-122669519D01*
X139426733Y-122500978D01*
X139366638Y-122316025D01*
X139278350Y-122142749D01*
X139164042Y-121985418D01*
X139026530Y-121847906D01*
X134565999Y-117387375D01*
X129890806Y-112712181D01*
X129857321Y-112650858D01*
X129862305Y-112581166D01*
X129904177Y-112525233D01*
X129969641Y-112500816D01*
X129978487Y-112500500D01*
X139098542Y-112500500D01*
X139117870Y-112496655D01*
X139195188Y-112481275D01*
X139291836Y-112462051D01*
X139345165Y-112439961D01*
X139473914Y-112386632D01*
X139637782Y-112277139D01*
X139777139Y-112137782D01*
X139777139Y-112137780D01*
X139787347Y-112127573D01*
X139787348Y-112127570D01*
X147012683Y-104902236D01*
X147074004Y-104868753D01*
X147143696Y-104873737D01*
X147199629Y-104915609D01*
X147224046Y-104981073D01*
X147217782Y-105029777D01*
X147196097Y-105093659D01*
X147196096Y-105093664D01*
X147138546Y-105382990D01*
X147138542Y-105383017D01*
X147119249Y-105677373D01*
X147119249Y-105677388D01*
X147138542Y-105971744D01*
X147138543Y-105971754D01*
X147138544Y-105971761D01*
X147138546Y-105971771D01*
X147196096Y-106261097D01*
X147196099Y-106261111D01*
X147290927Y-106540461D01*
X147421403Y-106805041D01*
X147421407Y-106805048D01*
X147585303Y-107050336D01*
X147779819Y-107272139D01*
X148001622Y-107466655D01*
X148160761Y-107572988D01*
X148246913Y-107630553D01*
X148511501Y-107761033D01*
X148790856Y-107855862D01*
X149080198Y-107913415D01*
X149108466Y-107915267D01*
X149374571Y-107932710D01*
X149374578Y-107932710D01*
X149374585Y-107932710D01*
X149610253Y-107917262D01*
X149668958Y-107913415D01*
X149958300Y-107855862D01*
X150237655Y-107761033D01*
X150502243Y-107630553D01*
X150747535Y-107466654D01*
X150969336Y-107272139D01*
X151163851Y-107050338D01*
X151327750Y-106805046D01*
X151458230Y-106540458D01*
X151553059Y-106261103D01*
X151610612Y-105971761D01*
X151621169Y-105810697D01*
X151629907Y-105677388D01*
X151629907Y-105677373D01*
X151610613Y-105383017D01*
X151610612Y-105383001D01*
X151553059Y-105093659D01*
X151458230Y-104814304D01*
X151327750Y-104549717D01*
X151163851Y-104304424D01*
X151096899Y-104228080D01*
X150969336Y-104082622D01*
X150747538Y-103888110D01*
X150747140Y-103887844D01*
X150686912Y-103847601D01*
X150642108Y-103793991D01*
X150633401Y-103724666D01*
X150663555Y-103661638D01*
X150722998Y-103624918D01*
X150755804Y-103620500D01*
X154754585Y-103620500D01*
X154821624Y-103640185D01*
X154830747Y-103646647D01*
X154982220Y-103764543D01*
X154982235Y-103764553D01*
X155012526Y-103780946D01*
X155062117Y-103830166D01*
X155077224Y-103898382D01*
X155053053Y-103963938D01*
X155012526Y-103999054D01*
X154982235Y-104015446D01*
X154982220Y-104015456D01*
X154804047Y-104154134D01*
X154804044Y-104154137D01*
X154651108Y-104320270D01*
X154527608Y-104509302D01*
X154436907Y-104716079D01*
X154381476Y-104934970D01*
X154381474Y-104934979D01*
X154366546Y-105115141D01*
X154341393Y-105180326D01*
X154330651Y-105192582D01*
X153093234Y-106430000D01*
X151862221Y-107661013D01*
X151862218Y-107661016D01*
X151823241Y-107699993D01*
X151722859Y-107800374D01*
X151613371Y-107964234D01*
X151613364Y-107964246D01*
X151582914Y-108037764D01*
X151538952Y-108143899D01*
X151538944Y-108143919D01*
X151537948Y-108146320D01*
X151537948Y-108146322D01*
X151499500Y-108339611D01*
X151499500Y-109668257D01*
X151479815Y-109735296D01*
X151463181Y-109755938D01*
X150582188Y-110636930D01*
X150520865Y-110670415D01*
X150451173Y-110665431D01*
X150395240Y-110623559D01*
X150370823Y-110558095D01*
X150385675Y-110489822D01*
X150390700Y-110481425D01*
X150404627Y-110460109D01*
X150501188Y-110239972D01*
X150560198Y-110006944D01*
X150580049Y-109767381D01*
X150577390Y-109735296D01*
X150565293Y-109589302D01*
X150560198Y-109527818D01*
X150501188Y-109294790D01*
X150404627Y-109074653D01*
X150375346Y-109029836D01*
X150293091Y-108903936D01*
X150273149Y-108873412D01*
X150110342Y-108696556D01*
X150110337Y-108696552D01*
X150110335Y-108696550D01*
X149920653Y-108548914D01*
X149920647Y-108548910D01*
X149709235Y-108434499D01*
X149709230Y-108434497D01*
X149481878Y-108356447D01*
X149304046Y-108326772D01*
X149244770Y-108316881D01*
X149004386Y-108316881D01*
X148956965Y-108324794D01*
X148767277Y-108356447D01*
X148539925Y-108434497D01*
X148539920Y-108434499D01*
X148328508Y-108548910D01*
X148328502Y-108548914D01*
X148138820Y-108696550D01*
X148138817Y-108696553D01*
X148138814Y-108696555D01*
X148138814Y-108696556D01*
X148102872Y-108735598D01*
X147976008Y-108873410D01*
X147976005Y-108873414D01*
X147844529Y-109074651D01*
X147747967Y-109294791D01*
X147688957Y-109527821D01*
X147669107Y-109767375D01*
X147669107Y-109767386D01*
X147688957Y-110006940D01*
X147747967Y-110239970D01*
X147844529Y-110460110D01*
X147976005Y-110661347D01*
X147976007Y-110661350D01*
X148138814Y-110838206D01*
X148206260Y-110890701D01*
X148268992Y-110939528D01*
X148309805Y-110996238D01*
X148313479Y-111066011D01*
X148278847Y-111126694D01*
X148268992Y-111135234D01*
X148138816Y-111236554D01*
X148138814Y-111236555D01*
X148138814Y-111236556D01*
X148112949Y-111264652D01*
X147976008Y-111413410D01*
X147976005Y-111413414D01*
X147844529Y-111614651D01*
X147747967Y-111834791D01*
X147688957Y-112067821D01*
X147669107Y-112307375D01*
X147669107Y-112307386D01*
X147688957Y-112546940D01*
X147747967Y-112779970D01*
X147844529Y-113000110D01*
X147971211Y-113194009D01*
X147976007Y-113201350D01*
X148138814Y-113378206D01*
X148206260Y-113430701D01*
X148268992Y-113479528D01*
X148309805Y-113536238D01*
X148313479Y-113606011D01*
X148278847Y-113666694D01*
X148268992Y-113675234D01*
X148138816Y-113776554D01*
X148138814Y-113776555D01*
X148138814Y-113776556D01*
X148117062Y-113800185D01*
X147976008Y-113953410D01*
X147976005Y-113953414D01*
X147844529Y-114154651D01*
X147747967Y-114374791D01*
X147688957Y-114607821D01*
X147669107Y-114847375D01*
X147669107Y-114847386D01*
X147688957Y-115086940D01*
X147747967Y-115319970D01*
X147844529Y-115540110D01*
X147971211Y-115734009D01*
X147976007Y-115741350D01*
X148138814Y-115918206D01*
X148206260Y-115970701D01*
X148268992Y-116019528D01*
X148309805Y-116076238D01*
X148313479Y-116146011D01*
X148278847Y-116206694D01*
X148268992Y-116215234D01*
X148138816Y-116316554D01*
X147976008Y-116493410D01*
X147976005Y-116493414D01*
X147844529Y-116694651D01*
X147747967Y-116914791D01*
X147688957Y-117147821D01*
X147669107Y-117387375D01*
X147669107Y-117387386D01*
X147688957Y-117626940D01*
X147747967Y-117859970D01*
X147844529Y-118080110D01*
X147976005Y-118281347D01*
X147976007Y-118281350D01*
X148138814Y-118458206D01*
X148209722Y-118513395D01*
X148268992Y-118559528D01*
X148309805Y-118616238D01*
X148313479Y-118686011D01*
X148278847Y-118746694D01*
X148268992Y-118755234D01*
X148138816Y-118856554D01*
X147976008Y-119033410D01*
X147976005Y-119033414D01*
X147844529Y-119234651D01*
X147747967Y-119454791D01*
X147688957Y-119687821D01*
X147669107Y-119927375D01*
X147669107Y-119927386D01*
X147688957Y-120166940D01*
X147747967Y-120399970D01*
X147844529Y-120620110D01*
X147976005Y-120821347D01*
X147976008Y-120821351D01*
X148035530Y-120886009D01*
X148066452Y-120948664D01*
X148058592Y-121018090D01*
X148014445Y-121072245D01*
X147991757Y-121084551D01*
X147971740Y-121092843D01*
X147971737Y-121092844D01*
X147971737Y-121092845D01*
X147895888Y-121151046D01*
X147846296Y-121189099D01*
X147750041Y-121314541D01*
X147689534Y-121460618D01*
X147689533Y-121460620D01*
X147674079Y-121578010D01*
X147674078Y-121578026D01*
X147674078Y-123356744D01*
X147689531Y-123474134D01*
X147689534Y-123474143D01*
X147750042Y-123620222D01*
X147846296Y-123745663D01*
X147971737Y-123841917D01*
X148117816Y-123902425D01*
X148235217Y-123917881D01*
X150013938Y-123917880D01*
X150013941Y-123917880D01*
X150131331Y-123902427D01*
X150131335Y-123902425D01*
X150131340Y-123902425D01*
X150277419Y-123841917D01*
X150402860Y-123745663D01*
X150499114Y-123620222D01*
X150559622Y-123474143D01*
X150575078Y-123356742D01*
X150575077Y-123257534D01*
X150594761Y-123190498D01*
X150647564Y-123144742D01*
X150716723Y-123134798D01*
X150780279Y-123163822D01*
X150786758Y-123169855D01*
X151382451Y-123765547D01*
X151382473Y-123765567D01*
X153941561Y-126324655D01*
X153941590Y-126324686D01*
X154084040Y-126467136D01*
X154084044Y-126467139D01*
X154247905Y-126576628D01*
X154247918Y-126576635D01*
X154376659Y-126629961D01*
X154429985Y-126652049D01*
X154429990Y-126652051D01*
X154494868Y-126664956D01*
X154525756Y-126671100D01*
X154623282Y-126690500D01*
X154623285Y-126690500D01*
X159388442Y-126690500D01*
X159485969Y-126671100D01*
X159516857Y-126664956D01*
X159581735Y-126652051D01*
X159635064Y-126629961D01*
X159763813Y-126576632D01*
X159927681Y-126467139D01*
X160067038Y-126327782D01*
X160067038Y-126327780D01*
X160077246Y-126317573D01*
X160077247Y-126317570D01*
X163277139Y-123117681D01*
X163300562Y-123082626D01*
X163386632Y-122953813D01*
X163455880Y-122786632D01*
X163462051Y-122771735D01*
X163500500Y-122578440D01*
X163500500Y-122381359D01*
X163500500Y-116911459D01*
X163500500Y-116911456D01*
X163462052Y-116718170D01*
X163462051Y-116718169D01*
X163462051Y-116718165D01*
X163417349Y-116610244D01*
X163386635Y-116536092D01*
X163386628Y-116536079D01*
X163277140Y-116372219D01*
X163221475Y-116316554D01*
X163137782Y-116232861D01*
X163137781Y-116232860D01*
X159664996Y-112760076D01*
X159631512Y-112698754D01*
X159629102Y-112682644D01*
X159618524Y-112554971D01*
X159582908Y-112414328D01*
X159563093Y-112336080D01*
X159476111Y-112137782D01*
X159472390Y-112129299D01*
X159348889Y-111940267D01*
X159195959Y-111774140D01*
X159195954Y-111774136D01*
X159195952Y-111774134D01*
X159017779Y-111635456D01*
X159017768Y-111635449D01*
X158987474Y-111619055D01*
X158937883Y-111569836D01*
X158922775Y-111501619D01*
X158946945Y-111436063D01*
X158987474Y-111400945D01*
X158990021Y-111399566D01*
X159017771Y-111384549D01*
X159195959Y-111245860D01*
X159348889Y-111079733D01*
X159472390Y-110890701D01*
X159563093Y-110683919D01*
X159618524Y-110465029D01*
X159621768Y-110425879D01*
X159637170Y-110240006D01*
X159637170Y-110239993D01*
X159618525Y-110014978D01*
X159618524Y-110014975D01*
X159618524Y-110014971D01*
X159563093Y-109796081D01*
X159472390Y-109589299D01*
X159348889Y-109400267D01*
X159195959Y-109234140D01*
X159195954Y-109234136D01*
X159195952Y-109234134D01*
X159017779Y-109095456D01*
X159017773Y-109095452D01*
X158819187Y-108987982D01*
X158819181Y-108987980D01*
X158605622Y-108914665D01*
X158382900Y-108877500D01*
X158157100Y-108877500D01*
X157934377Y-108914665D01*
X157720818Y-108987980D01*
X157720812Y-108987982D01*
X157522226Y-109095452D01*
X157522220Y-109095456D01*
X157344047Y-109234134D01*
X157344044Y-109234137D01*
X157191105Y-109400274D01*
X157103808Y-109533892D01*
X157050662Y-109579248D01*
X156981431Y-109588672D01*
X156918095Y-109559170D01*
X156896192Y-109533892D01*
X156808894Y-109400274D01*
X156808892Y-109400272D01*
X156808889Y-109400267D01*
X156655959Y-109234140D01*
X156655954Y-109234136D01*
X156655952Y-109234134D01*
X156477779Y-109095456D01*
X156477768Y-109095449D01*
X156447474Y-109079055D01*
X156397883Y-109029836D01*
X156382775Y-108961619D01*
X156406945Y-108896063D01*
X156447474Y-108860945D01*
X156462940Y-108852575D01*
X156477771Y-108844549D01*
X156487603Y-108836897D01*
X156550658Y-108787819D01*
X156655959Y-108705860D01*
X156808889Y-108539733D01*
X156932390Y-108350701D01*
X157023093Y-108143919D01*
X157078524Y-107925029D01*
X157078525Y-107925021D01*
X157097170Y-107700006D01*
X157097170Y-107699993D01*
X157078525Y-107474978D01*
X157078524Y-107474975D01*
X157078524Y-107474971D01*
X157023093Y-107256081D01*
X156932390Y-107049299D01*
X156808889Y-106860267D01*
X156655959Y-106694140D01*
X156655954Y-106694136D01*
X156655952Y-106694134D01*
X156477779Y-106555456D01*
X156477768Y-106555449D01*
X156447474Y-106539055D01*
X156397883Y-106489836D01*
X156382775Y-106421619D01*
X156406945Y-106356063D01*
X156447474Y-106320945D01*
X156450021Y-106319566D01*
X156477771Y-106304549D01*
X156655959Y-106165860D01*
X156808889Y-105999733D01*
X156896191Y-105866106D01*
X156949338Y-105820751D01*
X157018569Y-105811327D01*
X157081905Y-105840829D01*
X157103807Y-105866105D01*
X157191111Y-105999733D01*
X157344041Y-106165860D01*
X157344044Y-106165862D01*
X157344047Y-106165865D01*
X157522220Y-106304543D01*
X157522226Y-106304547D01*
X157522229Y-106304549D01*
X157720814Y-106412018D01*
X157934380Y-106485335D01*
X158157100Y-106522500D01*
X158382900Y-106522500D01*
X158605620Y-106485335D01*
X158819186Y-106412018D01*
X159017771Y-106304549D01*
X159195959Y-106165860D01*
X159348889Y-105999733D01*
X159472390Y-105810701D01*
X159563093Y-105603919D01*
X159618524Y-105385029D01*
X159620318Y-105363377D01*
X159637170Y-105160006D01*
X159637170Y-105159993D01*
X159618525Y-104934978D01*
X159618524Y-104934975D01*
X159618524Y-104934971D01*
X159563093Y-104716081D01*
X159472390Y-104509299D01*
X159348889Y-104320267D01*
X159195959Y-104154140D01*
X159195954Y-104154136D01*
X159195952Y-104154134D01*
X159017779Y-104015456D01*
X159017773Y-104015452D01*
X158819187Y-103907982D01*
X158819181Y-103907980D01*
X158605622Y-103834665D01*
X158382900Y-103797500D01*
X158157100Y-103797500D01*
X157934377Y-103834665D01*
X157720818Y-103907980D01*
X157720812Y-103907982D01*
X157522226Y-104015452D01*
X157522220Y-104015456D01*
X157344047Y-104154134D01*
X157344044Y-104154137D01*
X157344041Y-104154139D01*
X157344041Y-104154140D01*
X157205696Y-104304424D01*
X157191105Y-104320274D01*
X157103808Y-104453892D01*
X157050662Y-104499248D01*
X156981431Y-104508672D01*
X156918095Y-104479170D01*
X156896192Y-104453892D01*
X156808894Y-104320274D01*
X156808892Y-104320272D01*
X156808889Y-104320267D01*
X156655959Y-104154140D01*
X156655954Y-104154136D01*
X156655952Y-104154134D01*
X156477779Y-104015456D01*
X156477768Y-104015449D01*
X156447474Y-103999055D01*
X156397883Y-103949836D01*
X156382775Y-103881619D01*
X156406945Y-103816063D01*
X156447474Y-103780945D01*
X156450021Y-103779566D01*
X156477771Y-103764549D01*
X156655959Y-103625860D01*
X156808889Y-103459733D01*
X156932390Y-103270701D01*
X157023093Y-103063919D01*
X157078524Y-102845029D01*
X157078525Y-102845021D01*
X157097170Y-102620006D01*
X157097170Y-102619993D01*
X157078525Y-102394978D01*
X157078524Y-102394975D01*
X157078524Y-102394971D01*
X157023093Y-102176081D01*
X156932390Y-101969299D01*
X156808889Y-101780267D01*
X156655959Y-101614140D01*
X156655954Y-101614136D01*
X156655952Y-101614134D01*
X156477779Y-101475456D01*
X156477768Y-101475449D01*
X156447474Y-101459055D01*
X156397883Y-101409836D01*
X156382775Y-101341619D01*
X156406945Y-101276063D01*
X156447474Y-101240945D01*
X156450021Y-101239566D01*
X156477771Y-101224549D01*
X156655959Y-101085860D01*
X156808889Y-100919733D01*
X156896191Y-100786106D01*
X156949338Y-100740751D01*
X157018569Y-100731327D01*
X157081905Y-100760829D01*
X157103807Y-100786105D01*
X157132662Y-100830270D01*
X157185361Y-100910933D01*
X157191111Y-100919733D01*
X157344041Y-101085860D01*
X157344044Y-101085862D01*
X157344047Y-101085865D01*
X157522220Y-101224543D01*
X157522226Y-101224547D01*
X157522229Y-101224549D01*
X157720814Y-101332018D01*
X157934380Y-101405335D01*
X158157100Y-101442500D01*
X158382900Y-101442500D01*
X158605620Y-101405335D01*
X158819186Y-101332018D01*
X159017771Y-101224549D01*
X159195959Y-101085860D01*
X159348889Y-100919733D01*
X159472390Y-100730701D01*
X159563093Y-100523919D01*
X159618524Y-100305029D01*
X159619121Y-100297830D01*
X159637170Y-100080006D01*
X159637170Y-100079993D01*
X159618525Y-99854978D01*
X159618524Y-99854975D01*
X159618524Y-99854971D01*
X159563093Y-99636081D01*
X159472390Y-99429299D01*
X159348889Y-99240267D01*
X159195959Y-99074140D01*
X159195954Y-99074136D01*
X159195952Y-99074134D01*
X159017779Y-98935456D01*
X159017768Y-98935449D01*
X158987474Y-98919055D01*
X158937883Y-98869836D01*
X158922775Y-98801619D01*
X158946945Y-98736063D01*
X158987474Y-98700945D01*
X158990021Y-98699566D01*
X159017771Y-98684549D01*
X159195959Y-98545860D01*
X159348889Y-98379733D01*
X159472390Y-98190701D01*
X159563093Y-97983919D01*
X159618524Y-97765029D01*
X159637170Y-97540000D01*
X159637170Y-97539993D01*
X159618525Y-97314978D01*
X159618524Y-97314975D01*
X159618524Y-97314971D01*
X159563093Y-97096081D01*
X159472390Y-96889299D01*
X159348889Y-96700267D01*
X159195959Y-96534140D01*
X159195954Y-96534136D01*
X159195952Y-96534134D01*
X159017779Y-96395456D01*
X159017768Y-96395449D01*
X158987474Y-96379055D01*
X158937883Y-96329836D01*
X158922775Y-96261619D01*
X158946945Y-96196063D01*
X158987474Y-96160945D01*
X158990021Y-96159566D01*
X159017771Y-96144549D01*
X159195959Y-96005860D01*
X159348889Y-95839733D01*
X159472390Y-95650701D01*
X159563093Y-95443919D01*
X159618524Y-95225029D01*
X159618525Y-95225021D01*
X159637170Y-95000006D01*
X159637170Y-94999993D01*
X159618525Y-94774978D01*
X159618524Y-94774975D01*
X159618524Y-94774971D01*
X159563093Y-94556081D01*
X159472390Y-94349299D01*
X159348889Y-94160267D01*
X159195959Y-93994140D01*
X159195954Y-93994136D01*
X159195952Y-93994134D01*
X159017779Y-93855456D01*
X159017768Y-93855449D01*
X158987474Y-93839055D01*
X158937883Y-93789836D01*
X158922775Y-93721619D01*
X158946945Y-93656063D01*
X158987474Y-93620945D01*
X158990021Y-93619566D01*
X159017771Y-93604549D01*
X159033454Y-93592343D01*
X159125396Y-93520781D01*
X159195959Y-93465860D01*
X159348889Y-93299733D01*
X159472390Y-93110701D01*
X159563093Y-92903919D01*
X159618524Y-92685029D01*
X159628881Y-92560037D01*
X159637170Y-92460006D01*
X159637170Y-92459993D01*
X159618525Y-92234978D01*
X159618524Y-92234975D01*
X159618524Y-92234971D01*
X159563093Y-92016081D01*
X159472390Y-91809299D01*
X159348889Y-91620267D01*
X159195959Y-91454140D01*
X159195954Y-91454136D01*
X159195952Y-91454134D01*
X159017779Y-91315456D01*
X159017773Y-91315452D01*
X158819187Y-91207982D01*
X158819181Y-91207980D01*
X158605622Y-91134665D01*
X158382900Y-91097500D01*
X158157100Y-91097500D01*
X157934377Y-91134665D01*
X157720818Y-91207980D01*
X157720812Y-91207982D01*
X157522226Y-91315452D01*
X157522220Y-91315456D01*
X157344047Y-91454134D01*
X157344044Y-91454137D01*
X157344041Y-91454139D01*
X157344041Y-91454140D01*
X157207924Y-91602004D01*
X157191105Y-91620274D01*
X157103808Y-91753892D01*
X157050662Y-91799248D01*
X156981431Y-91808672D01*
X156918095Y-91779170D01*
X156896192Y-91753892D01*
X156808894Y-91620274D01*
X156808892Y-91620272D01*
X156808889Y-91620267D01*
X156655959Y-91454140D01*
X156655954Y-91454136D01*
X156655952Y-91454134D01*
X156477779Y-91315456D01*
X156477768Y-91315449D01*
X156447474Y-91299055D01*
X156397883Y-91249836D01*
X156382775Y-91181619D01*
X156406945Y-91116063D01*
X156447474Y-91080945D01*
X156450021Y-91079566D01*
X156477771Y-91064549D01*
X156490441Y-91054688D01*
X156594052Y-90974044D01*
X156655959Y-90925860D01*
X156808889Y-90759733D01*
X156932390Y-90570701D01*
X157023093Y-90363919D01*
X157078524Y-90145029D01*
X157082083Y-90102082D01*
X157097170Y-89920006D01*
X157097170Y-89919993D01*
X157078525Y-89694978D01*
X157078524Y-89694975D01*
X157078524Y-89694971D01*
X157023093Y-89476081D01*
X156932390Y-89269299D01*
X156808889Y-89080267D01*
X156655959Y-88914140D01*
X156655954Y-88914136D01*
X156655952Y-88914134D01*
X156477779Y-88775456D01*
X156477768Y-88775449D01*
X156447474Y-88759055D01*
X156397883Y-88709836D01*
X156382775Y-88641619D01*
X156406945Y-88576063D01*
X156447474Y-88540945D01*
X156450021Y-88539566D01*
X156477771Y-88524549D01*
X156655959Y-88385860D01*
X156808889Y-88219733D01*
X156896191Y-88086106D01*
X156949338Y-88040751D01*
X157018569Y-88031327D01*
X157081905Y-88060829D01*
X157103807Y-88086105D01*
X157191111Y-88219733D01*
X157344041Y-88385860D01*
X157344044Y-88385862D01*
X157344047Y-88385865D01*
X157522220Y-88524543D01*
X157522226Y-88524547D01*
X157522229Y-88524549D01*
X157720814Y-88632018D01*
X157934380Y-88705335D01*
X158157100Y-88742500D01*
X158382900Y-88742500D01*
X158605620Y-88705335D01*
X158819186Y-88632018D01*
X159017771Y-88524549D01*
X159195959Y-88385860D01*
X159348889Y-88219733D01*
X159472390Y-88030701D01*
X159563093Y-87823919D01*
X159618524Y-87605029D01*
X159621826Y-87565180D01*
X159637170Y-87380006D01*
X159637170Y-87379993D01*
X159618525Y-87154978D01*
X159618524Y-87154975D01*
X159618524Y-87154971D01*
X159563093Y-86936081D01*
X159472390Y-86729299D01*
X159348889Y-86540267D01*
X159195959Y-86374140D01*
X159195954Y-86374136D01*
X159195952Y-86374134D01*
X159017779Y-86235456D01*
X159017768Y-86235449D01*
X158987474Y-86219055D01*
X158937883Y-86169836D01*
X158922775Y-86101619D01*
X158946945Y-86036063D01*
X158987474Y-86000945D01*
X158990021Y-85999566D01*
X159017771Y-85984549D01*
X159195959Y-85845860D01*
X159348889Y-85679733D01*
X159472390Y-85490701D01*
X159563093Y-85283919D01*
X159618524Y-85065029D01*
X159618525Y-85065021D01*
X159637170Y-84840006D01*
X159637170Y-84839993D01*
X159618525Y-84614978D01*
X159618524Y-84614975D01*
X159618524Y-84614971D01*
X159563093Y-84396081D01*
X159472390Y-84189299D01*
X159348889Y-84000267D01*
X159195959Y-83834140D01*
X159195954Y-83834136D01*
X159195952Y-83834134D01*
X159017779Y-83695456D01*
X159017773Y-83695452D01*
X158819187Y-83587982D01*
X158819181Y-83587980D01*
X158605622Y-83514665D01*
X158382900Y-83477500D01*
X158157100Y-83477500D01*
X157934377Y-83514665D01*
X157720818Y-83587980D01*
X157720812Y-83587982D01*
X157522226Y-83695452D01*
X157522220Y-83695456D01*
X157344047Y-83834134D01*
X157344044Y-83834137D01*
X157191105Y-84000274D01*
X157103808Y-84133892D01*
X157050662Y-84179248D01*
X156981431Y-84188672D01*
X156918095Y-84159170D01*
X156896192Y-84133892D01*
X156808894Y-84000274D01*
X156808892Y-84000272D01*
X156808889Y-84000267D01*
X156655959Y-83834140D01*
X156655954Y-83834136D01*
X156655952Y-83834134D01*
X156477779Y-83695456D01*
X156477768Y-83695449D01*
X156447474Y-83679055D01*
X156397883Y-83629836D01*
X156382775Y-83561619D01*
X156406945Y-83496063D01*
X156447474Y-83460945D01*
X156450021Y-83459566D01*
X156477771Y-83444549D01*
X156655959Y-83305860D01*
X156808889Y-83139733D01*
X156932390Y-82950701D01*
X157023093Y-82743919D01*
X157078524Y-82525029D01*
X157097170Y-82300000D01*
X157097170Y-82299993D01*
X157078525Y-82074978D01*
X157078524Y-82074975D01*
X157078524Y-82074971D01*
X157023093Y-81856081D01*
X156932390Y-81649299D01*
X156808889Y-81460267D01*
X156655959Y-81294140D01*
X156655954Y-81294136D01*
X156655952Y-81294134D01*
X156477779Y-81155456D01*
X156477768Y-81155449D01*
X156447474Y-81139055D01*
X156397883Y-81089836D01*
X156382775Y-81021619D01*
X156406945Y-80956063D01*
X156447474Y-80920945D01*
X156450021Y-80919566D01*
X156477771Y-80904549D01*
X156655959Y-80765860D01*
X156808889Y-80599733D01*
X156896191Y-80466106D01*
X156949338Y-80420751D01*
X157018569Y-80411327D01*
X157081905Y-80440829D01*
X157103807Y-80466105D01*
X157191111Y-80599733D01*
X157344041Y-80765860D01*
X157344044Y-80765862D01*
X157344047Y-80765865D01*
X157522220Y-80904543D01*
X157522226Y-80904547D01*
X157522229Y-80904549D01*
X157720814Y-81012018D01*
X157934380Y-81085335D01*
X158157100Y-81122500D01*
X158382900Y-81122500D01*
X158605620Y-81085335D01*
X158819186Y-81012018D01*
X159017771Y-80904549D01*
X159195959Y-80765860D01*
X159348889Y-80599733D01*
X159472390Y-80410701D01*
X159563093Y-80203919D01*
X159618524Y-79985029D01*
X159618525Y-79985021D01*
X159637170Y-79760006D01*
X159637170Y-79759993D01*
X159618525Y-79534978D01*
X159618524Y-79534975D01*
X159618524Y-79534971D01*
X159563093Y-79316081D01*
X159472390Y-79109299D01*
X159348889Y-78920267D01*
X159195959Y-78754140D01*
X159195954Y-78754136D01*
X159195952Y-78754134D01*
X159017779Y-78615456D01*
X159017768Y-78615449D01*
X158987474Y-78599055D01*
X158937883Y-78549836D01*
X158922775Y-78481619D01*
X158946945Y-78416063D01*
X158987474Y-78380945D01*
X158990021Y-78379566D01*
X159017771Y-78364549D01*
X159195959Y-78225860D01*
X159348889Y-78059733D01*
X159472390Y-77870701D01*
X159563093Y-77663919D01*
X159618524Y-77445029D01*
X159618525Y-77445021D01*
X159637170Y-77220006D01*
X159637170Y-77219993D01*
X159618525Y-76994978D01*
X159618524Y-76994975D01*
X159618524Y-76994971D01*
X159563093Y-76776081D01*
X159472390Y-76569299D01*
X159348889Y-76380267D01*
X159195959Y-76214140D01*
X159195954Y-76214136D01*
X159195952Y-76214134D01*
X159017779Y-76075456D01*
X159017768Y-76075449D01*
X158987474Y-76059055D01*
X158937883Y-76009836D01*
X158922775Y-75941619D01*
X158946945Y-75876063D01*
X158987474Y-75840945D01*
X158990021Y-75839566D01*
X159017771Y-75824549D01*
X159195959Y-75685860D01*
X159348889Y-75519733D01*
X159472390Y-75330701D01*
X159563093Y-75123919D01*
X159618524Y-74905029D01*
X159618525Y-74905021D01*
X159637170Y-74680006D01*
X159637170Y-74679993D01*
X159618525Y-74454978D01*
X159618524Y-74454975D01*
X159618524Y-74454971D01*
X159563093Y-74236081D01*
X159472390Y-74029299D01*
X159348889Y-73840267D01*
X159195959Y-73674140D01*
X159195954Y-73674136D01*
X159195952Y-73674134D01*
X159017779Y-73535456D01*
X159017773Y-73535452D01*
X158819187Y-73427982D01*
X158819181Y-73427980D01*
X158605622Y-73354665D01*
X158382900Y-73317500D01*
X158157100Y-73317500D01*
X157934377Y-73354665D01*
X157720818Y-73427980D01*
X157720812Y-73427982D01*
X157522226Y-73535452D01*
X157522220Y-73535456D01*
X157344047Y-73674134D01*
X157344044Y-73674137D01*
X157191105Y-73840274D01*
X157103808Y-73973892D01*
X157050662Y-74019248D01*
X156981431Y-74028672D01*
X156918095Y-73999170D01*
X156896192Y-73973892D01*
X156808894Y-73840274D01*
X156808892Y-73840272D01*
X156808889Y-73840267D01*
X156655959Y-73674140D01*
X156655954Y-73674136D01*
X156655952Y-73674134D01*
X156477779Y-73535456D01*
X156477768Y-73535449D01*
X156447474Y-73519055D01*
X156397883Y-73469836D01*
X156382775Y-73401619D01*
X156406945Y-73336063D01*
X156447474Y-73300945D01*
X156450021Y-73299566D01*
X156477771Y-73284549D01*
X156655959Y-73145860D01*
X156808889Y-72979733D01*
X156932390Y-72790701D01*
X157023093Y-72583919D01*
X157078524Y-72365029D01*
X157082507Y-72316964D01*
X157097170Y-72140006D01*
X157097170Y-72139993D01*
X157078525Y-71914978D01*
X157078524Y-71914975D01*
X157078524Y-71914971D01*
X157023093Y-71696081D01*
X156932390Y-71489299D01*
X156808889Y-71300267D01*
X156655959Y-71134140D01*
X156655954Y-71134136D01*
X156655952Y-71134134D01*
X156477779Y-70995456D01*
X156477768Y-70995449D01*
X156447474Y-70979055D01*
X156397883Y-70929836D01*
X156382775Y-70861619D01*
X156406945Y-70796063D01*
X156447474Y-70760945D01*
X156450021Y-70759566D01*
X156477771Y-70744549D01*
X156655959Y-70605860D01*
X156808889Y-70439733D01*
X156896191Y-70306106D01*
X156949338Y-70260751D01*
X157018569Y-70251327D01*
X157081905Y-70280829D01*
X157103807Y-70306105D01*
X157191111Y-70439733D01*
X157344041Y-70605860D01*
X157344044Y-70605862D01*
X157344047Y-70605865D01*
X157522220Y-70744543D01*
X157522226Y-70744547D01*
X157522229Y-70744549D01*
X157720814Y-70852018D01*
X157934380Y-70925335D01*
X158157100Y-70962500D01*
X158382900Y-70962500D01*
X158605620Y-70925335D01*
X158819186Y-70852018D01*
X159017771Y-70744549D01*
X159195959Y-70605860D01*
X159348889Y-70439733D01*
X159472390Y-70250701D01*
X159563093Y-70043919D01*
X159618524Y-69825029D01*
X159618525Y-69825021D01*
X159637170Y-69600006D01*
X159637170Y-69599993D01*
X159618525Y-69374978D01*
X159618524Y-69374975D01*
X159618524Y-69374971D01*
X159563093Y-69156081D01*
X159515944Y-69048591D01*
X159505500Y-68998781D01*
X159505500Y-67661216D01*
X159515944Y-67611407D01*
X159545710Y-67543546D01*
X159571582Y-67505677D01*
X162277387Y-64799874D01*
X162343592Y-64708748D01*
X162391694Y-64642543D01*
X162479982Y-64469267D01*
X162490623Y-64436517D01*
X162540078Y-64284313D01*
X162553598Y-64198945D01*
X162570500Y-64092240D01*
X162570500Y-60297149D01*
X162542591Y-60120943D01*
X162540077Y-60105070D01*
X162479982Y-59920117D01*
X162391694Y-59746841D01*
X162343592Y-59680635D01*
X162343592Y-59680634D01*
X162277390Y-59589513D01*
X150081457Y-47393580D01*
X149990335Y-47327377D01*
X149924133Y-47279279D01*
X149924132Y-47279278D01*
X149924130Y-47279277D01*
X149836219Y-47234484D01*
X149785424Y-47186511D01*
X149768629Y-47118690D01*
X149791166Y-47052555D01*
X149845881Y-47009103D01*
X149892515Y-47000000D01*
X163876000Y-47000000D01*
X163943039Y-47019685D01*
X163988794Y-47072489D01*
X164000000Y-47124000D01*
X164000000Y-147876000D01*
X163980315Y-147943039D01*
X163927511Y-147988794D01*
X163876000Y-148000000D01*
X89624000Y-148000000D01*
X89556961Y-147980315D01*
X89511206Y-147927511D01*
X89500000Y-147876000D01*
X89500000Y-139000000D01*
X92894551Y-139000000D01*
X92914317Y-139251151D01*
X92973126Y-139496110D01*
X93069533Y-139728859D01*
X93201160Y-139943653D01*
X93201161Y-139943656D01*
X93201164Y-139943659D01*
X93364776Y-140135224D01*
X93513066Y-140261875D01*
X93556343Y-140298838D01*
X93556346Y-140298839D01*
X93771140Y-140430466D01*
X93964209Y-140510437D01*
X94003889Y-140526873D01*
X94248852Y-140585683D01*
X94500000Y-140605449D01*
X94751148Y-140585683D01*
X94897697Y-140550500D01*
X94967480Y-140553991D01*
X95024297Y-140594655D01*
X95050110Y-140659581D01*
X95050220Y-140681314D01*
X95044529Y-140749994D01*
X95044529Y-140750005D01*
X95064379Y-140989559D01*
X95123389Y-141222589D01*
X95219951Y-141442729D01*
X95318563Y-141593664D01*
X95351429Y-141643969D01*
X95514236Y-141820825D01*
X95618718Y-141902147D01*
X95659531Y-141958857D01*
X95663206Y-142028630D01*
X95628575Y-142089313D01*
X95618724Y-142097848D01*
X95607301Y-142106740D01*
X95514237Y-142179174D01*
X95351430Y-142356029D01*
X95351427Y-142356033D01*
X95219951Y-142557270D01*
X95123389Y-142777410D01*
X95064379Y-143010440D01*
X95044529Y-143249994D01*
X95044529Y-143250005D01*
X95050220Y-143318686D01*
X95036139Y-143387122D01*
X94987294Y-143437081D01*
X94919193Y-143452702D01*
X94897697Y-143449500D01*
X94751151Y-143414317D01*
X94500000Y-143394551D01*
X94248848Y-143414317D01*
X94003889Y-143473126D01*
X93771140Y-143569533D01*
X93556346Y-143701160D01*
X93556343Y-143701161D01*
X93364776Y-143864776D01*
X93201161Y-144056343D01*
X93201160Y-144056346D01*
X93069533Y-144271140D01*
X92973126Y-144503889D01*
X92914317Y-144748848D01*
X92894551Y-145000000D01*
X92914317Y-145251151D01*
X92973126Y-145496110D01*
X93069533Y-145728859D01*
X93201160Y-145943653D01*
X93201161Y-145943656D01*
X93201164Y-145943659D01*
X93364776Y-146135224D01*
X93556341Y-146298836D01*
X93556343Y-146298837D01*
X93556344Y-146298838D01*
X93771140Y-146430466D01*
X93970413Y-146513007D01*
X94003889Y-146526873D01*
X94248852Y-146585683D01*
X94500000Y-146605449D01*
X94751148Y-146585683D01*
X94996111Y-146526873D01*
X95228859Y-146430466D01*
X95443659Y-146298836D01*
X95635224Y-146135224D01*
X95798836Y-145943659D01*
X95930466Y-145728859D01*
X96026873Y-145496111D01*
X96085683Y-145251148D01*
X96105449Y-145000000D01*
X96090359Y-144808266D01*
X96104722Y-144739894D01*
X96153773Y-144690137D01*
X96221938Y-144674798D01*
X96234381Y-144676232D01*
X96379808Y-144700500D01*
X96379809Y-144700500D01*
X96620191Y-144700500D01*
X96620192Y-144700500D01*
X96857297Y-144660934D01*
X97084656Y-144582882D01*
X97296067Y-144468472D01*
X97485764Y-144320825D01*
X97648571Y-144143969D01*
X97780049Y-143942728D01*
X97876610Y-143722591D01*
X97935620Y-143489563D01*
X97947979Y-143340419D01*
X97955471Y-143250005D01*
X97955471Y-143249994D01*
X97938108Y-143040461D01*
X97935620Y-143010437D01*
X97876610Y-142777409D01*
X97780049Y-142557272D01*
X97724170Y-142471744D01*
X97648572Y-142356033D01*
X97648571Y-142356031D01*
X97485764Y-142179175D01*
X97381281Y-142097852D01*
X97340469Y-142041143D01*
X97336794Y-141971370D01*
X97371425Y-141910687D01*
X97381275Y-141902151D01*
X97485764Y-141820825D01*
X97648571Y-141643969D01*
X97780049Y-141442728D01*
X97876610Y-141222591D01*
X97935620Y-140989563D01*
X97950961Y-140804424D01*
X97955471Y-140750005D01*
X97955471Y-140749994D01*
X97935620Y-140510440D01*
X97935620Y-140510437D01*
X97876610Y-140277409D01*
X97780049Y-140057272D01*
X97741912Y-139998900D01*
X97714310Y-139956651D01*
X97648571Y-139856031D01*
X97485764Y-139679175D01*
X97485759Y-139679171D01*
X97485757Y-139679169D01*
X97296075Y-139531533D01*
X97296069Y-139531529D01*
X97084657Y-139417118D01*
X97084652Y-139417116D01*
X96857300Y-139339066D01*
X96679468Y-139309391D01*
X96620192Y-139299500D01*
X96379808Y-139299500D01*
X96234385Y-139323766D01*
X96165020Y-139315384D01*
X96111198Y-139270831D01*
X96090008Y-139204252D01*
X96090357Y-139191758D01*
X96105449Y-139000000D01*
X96085683Y-138748852D01*
X96026873Y-138503889D01*
X95961822Y-138346841D01*
X95930466Y-138271140D01*
X95798839Y-138056346D01*
X95798838Y-138056343D01*
X95744071Y-137992220D01*
X95635224Y-137864776D01*
X95475948Y-137728741D01*
X95443656Y-137701161D01*
X95443653Y-137701160D01*
X95228859Y-137569533D01*
X94996110Y-137473126D01*
X94751151Y-137414317D01*
X94500000Y-137394551D01*
X94248848Y-137414317D01*
X94003889Y-137473126D01*
X93771140Y-137569533D01*
X93556346Y-137701160D01*
X93556343Y-137701161D01*
X93364776Y-137864776D01*
X93201161Y-138056343D01*
X93201160Y-138056346D01*
X93069533Y-138271140D01*
X92973126Y-138503889D01*
X92914317Y-138748848D01*
X92894551Y-139000000D01*
X89500000Y-139000000D01*
X89500000Y-47124000D01*
X89519685Y-47056961D01*
X89572489Y-47011206D01*
X89624000Y-47000000D01*
X112848828Y-47000000D01*
X112915867Y-47019685D01*
G37*
%TD.AperFunction*%
%TA.AperFunction,Conductor*%
G36*
X157081905Y-113460829D02*
G01*
X157103807Y-113486105D01*
X157191111Y-113619733D01*
X157344041Y-113785860D01*
X157344044Y-113785862D01*
X157344047Y-113785865D01*
X157522220Y-113924543D01*
X157522235Y-113924553D01*
X157552526Y-113940946D01*
X157602117Y-113990166D01*
X157617224Y-114058382D01*
X157593053Y-114123938D01*
X157552526Y-114159054D01*
X157522235Y-114175446D01*
X157522220Y-114175456D01*
X157344047Y-114314134D01*
X157344044Y-114314137D01*
X157191108Y-114480270D01*
X157067608Y-114669302D01*
X156976907Y-114876079D01*
X156921476Y-115094970D01*
X156921474Y-115094978D01*
X156902830Y-115319993D01*
X156902830Y-115320006D01*
X156921474Y-115545021D01*
X156921476Y-115545029D01*
X156976907Y-115763920D01*
X157044584Y-115918207D01*
X157067610Y-115970701D01*
X157191111Y-116159733D01*
X157308891Y-116287677D01*
X157339813Y-116350331D01*
X157331953Y-116419757D01*
X157287805Y-116473912D01*
X157221388Y-116495603D01*
X157211171Y-116495489D01*
X157000001Y-116484422D01*
X156999999Y-116484422D01*
X156612660Y-116504722D01*
X156229572Y-116565397D01*
X156229570Y-116565397D01*
X155854905Y-116665788D01*
X155492802Y-116804787D01*
X155147206Y-116980877D01*
X154821917Y-117192122D01*
X154520488Y-117436215D01*
X154520480Y-117436222D01*
X154246222Y-117710480D01*
X154246215Y-117710488D01*
X154002122Y-118011917D01*
X153790877Y-118337206D01*
X153614787Y-118682802D01*
X153539788Y-118878180D01*
X153497385Y-118933713D01*
X153431691Y-118957505D01*
X153363563Y-118942003D01*
X153336343Y-118921423D01*
X151168860Y-116753940D01*
X151168840Y-116753918D01*
X151025166Y-116610244D01*
X151025162Y-116610241D01*
X150861301Y-116500752D01*
X150861288Y-116500745D01*
X150729478Y-116446149D01*
X150679217Y-116425330D01*
X150679209Y-116425328D01*
X150557933Y-116401205D01*
X150533929Y-116396430D01*
X150485924Y-116386881D01*
X150485922Y-116386881D01*
X150229472Y-116386881D01*
X150162433Y-116367196D01*
X150138243Y-116346864D01*
X150110345Y-116316559D01*
X150110342Y-116316556D01*
X150073237Y-116287676D01*
X149980163Y-116215233D01*
X149939351Y-116158524D01*
X149935676Y-116088751D01*
X149970308Y-116028068D01*
X149980163Y-116019528D01*
X150110342Y-115918206D01*
X150138243Y-115887898D01*
X150198130Y-115851907D01*
X150229472Y-115847881D01*
X151751161Y-115847881D01*
X151770489Y-115844036D01*
X151847807Y-115828656D01*
X151944455Y-115809432D01*
X151997784Y-115787342D01*
X152126533Y-115734013D01*
X152290401Y-115624520D01*
X152429758Y-115485163D01*
X152429758Y-115485161D01*
X152439966Y-115474954D01*
X152439967Y-115474951D01*
X154098102Y-113816819D01*
X154159425Y-113783334D01*
X154185783Y-113780500D01*
X154754585Y-113780500D01*
X154821624Y-113800185D01*
X154830747Y-113806647D01*
X154982220Y-113924543D01*
X154982226Y-113924547D01*
X154982229Y-113924549D01*
X155180814Y-114032018D01*
X155394380Y-114105335D01*
X155617100Y-114142500D01*
X155842900Y-114142500D01*
X156065620Y-114105335D01*
X156279186Y-114032018D01*
X156477771Y-113924549D01*
X156655959Y-113785860D01*
X156808889Y-113619733D01*
X156896191Y-113486106D01*
X156949338Y-113440751D01*
X157018569Y-113431327D01*
X157081905Y-113460829D01*
G37*
%TD.AperFunction*%
%TA.AperFunction,Conductor*%
G36*
X147203517Y-88620185D02*
G01*
X147249272Y-88672989D01*
X147259216Y-88742147D01*
X147253897Y-88764355D01*
X147250130Y-88775456D01*
X147196099Y-88934621D01*
X147196096Y-88934635D01*
X147138546Y-89223961D01*
X147138542Y-89223988D01*
X147119249Y-89518344D01*
X147119249Y-89518359D01*
X147138542Y-89812715D01*
X147138543Y-89812725D01*
X147138544Y-89812732D01*
X147175793Y-90000000D01*
X147196096Y-90102068D01*
X147196099Y-90102082D01*
X147290927Y-90381432D01*
X147421403Y-90646012D01*
X147421407Y-90646019D01*
X147585303Y-90891307D01*
X147779819Y-91113110D01*
X148001622Y-91307626D01*
X148220896Y-91454140D01*
X148246913Y-91471524D01*
X148511501Y-91602004D01*
X148790856Y-91696833D01*
X149080198Y-91754386D01*
X149184939Y-91761251D01*
X149250544Y-91785277D01*
X149292748Y-91840961D01*
X149298147Y-91910621D01*
X149265028Y-91972143D01*
X149264507Y-91972666D01*
X148773994Y-92463181D01*
X148712671Y-92496666D01*
X148686313Y-92499500D01*
X141325159Y-92499500D01*
X141228516Y-92518724D01*
X141131871Y-92537947D01*
X141131865Y-92537949D01*
X141078538Y-92560037D01*
X141078538Y-92560038D01*
X141044909Y-92573967D01*
X140949792Y-92613366D01*
X140842542Y-92685029D01*
X140842541Y-92685030D01*
X140785919Y-92722862D01*
X140785918Y-92722863D01*
X139495603Y-94013181D01*
X139434280Y-94046666D01*
X139407922Y-94049500D01*
X139379808Y-94049500D01*
X139336703Y-94056693D01*
X139142699Y-94089066D01*
X138915347Y-94167116D01*
X138915342Y-94167118D01*
X138703930Y-94281529D01*
X138703924Y-94281533D01*
X138514242Y-94429169D01*
X138514239Y-94429172D01*
X138351430Y-94606029D01*
X138351429Y-94606031D01*
X138333807Y-94633003D01*
X138280660Y-94678358D01*
X138211429Y-94687780D01*
X138148093Y-94658277D01*
X138126193Y-94633003D01*
X138124154Y-94629883D01*
X138108571Y-94606031D01*
X137945764Y-94429175D01*
X137945759Y-94429171D01*
X137945757Y-94429169D01*
X137756075Y-94281533D01*
X137756069Y-94281529D01*
X137544657Y-94167118D01*
X137544652Y-94167116D01*
X137317300Y-94089066D01*
X137123297Y-94056693D01*
X137080192Y-94049500D01*
X136839808Y-94049500D01*
X136796703Y-94056693D01*
X136602699Y-94089066D01*
X136375347Y-94167116D01*
X136375342Y-94167118D01*
X136163930Y-94281529D01*
X136163924Y-94281533D01*
X135974242Y-94429169D01*
X135974239Y-94429172D01*
X135811430Y-94606029D01*
X135811427Y-94606033D01*
X135679951Y-94807270D01*
X135583389Y-95027410D01*
X135524379Y-95260440D01*
X135504529Y-95499994D01*
X135504529Y-95500005D01*
X135524379Y-95739559D01*
X135583389Y-95972589D01*
X135679948Y-96192723D01*
X135679954Y-96192734D01*
X135704307Y-96230007D01*
X135724496Y-96296896D01*
X135724500Y-96297830D01*
X135724500Y-98702168D01*
X135704815Y-98769207D01*
X135704309Y-98769990D01*
X135679949Y-98807275D01*
X135583389Y-99027410D01*
X135524379Y-99260440D01*
X135504529Y-99499994D01*
X135504529Y-99500005D01*
X135524379Y-99739559D01*
X135583389Y-99972589D01*
X135679951Y-100192729D01*
X135793808Y-100366998D01*
X135811429Y-100393969D01*
X135974236Y-100570825D01*
X135974239Y-100570827D01*
X135974242Y-100570830D01*
X136163924Y-100718466D01*
X136163930Y-100718470D01*
X136163933Y-100718472D01*
X136375344Y-100832882D01*
X136375347Y-100832883D01*
X136602699Y-100910933D01*
X136602701Y-100910933D01*
X136602703Y-100910934D01*
X136839808Y-100950500D01*
X136839809Y-100950500D01*
X137080191Y-100950500D01*
X137080192Y-100950500D01*
X137317297Y-100910934D01*
X137544656Y-100832882D01*
X137756067Y-100718472D01*
X137945764Y-100570825D01*
X138108571Y-100393969D01*
X138126193Y-100366995D01*
X138179337Y-100321641D01*
X138248568Y-100312217D01*
X138311904Y-100341718D01*
X138333804Y-100366992D01*
X138351429Y-100393969D01*
X138514236Y-100570825D01*
X138514239Y-100570827D01*
X138514242Y-100570830D01*
X138703924Y-100718466D01*
X138703930Y-100718470D01*
X138703933Y-100718472D01*
X138915344Y-100832882D01*
X138915347Y-100832883D01*
X139142699Y-100910933D01*
X139142701Y-100910933D01*
X139142703Y-100910934D01*
X139379808Y-100950500D01*
X139407922Y-100950500D01*
X139474961Y-100970185D01*
X139495603Y-100986819D01*
X141143439Y-102634655D01*
X141143468Y-102634686D01*
X141285921Y-102777139D01*
X141449784Y-102886628D01*
X141449790Y-102886632D01*
X141544269Y-102925766D01*
X141631868Y-102962051D01*
X141728516Y-102981275D01*
X141776839Y-102990887D01*
X141825162Y-103000500D01*
X141825163Y-103000500D01*
X143598542Y-103000500D01*
X143617870Y-102996655D01*
X143695188Y-102981275D01*
X143791836Y-102962051D01*
X143798432Y-102959318D01*
X143867897Y-102951846D01*
X143930379Y-102983116D01*
X143966035Y-103043203D01*
X143963546Y-103113028D01*
X143933570Y-103161558D01*
X140461336Y-106633793D01*
X140400013Y-106667278D01*
X140330321Y-106662294D01*
X140274388Y-106620422D01*
X140249971Y-106554958D01*
X140249655Y-106546112D01*
X140249655Y-104060636D01*
X140234202Y-103943246D01*
X140234200Y-103943239D01*
X140234200Y-103943238D01*
X140173692Y-103797159D01*
X140077438Y-103671718D01*
X139951997Y-103575464D01*
X139805918Y-103514956D01*
X139805916Y-103514955D01*
X139688526Y-103499501D01*
X139688523Y-103499500D01*
X139688517Y-103499500D01*
X139688510Y-103499500D01*
X136809792Y-103499500D01*
X136692402Y-103514953D01*
X136692393Y-103514956D01*
X136546316Y-103575463D01*
X136420874Y-103671718D01*
X136324619Y-103797160D01*
X136264112Y-103943237D01*
X136264111Y-103943239D01*
X136248657Y-104060629D01*
X136248657Y-104060636D01*
X136248656Y-104060645D01*
X136248656Y-105701876D01*
X136228971Y-105768915D01*
X136212337Y-105789557D01*
X135138714Y-106863181D01*
X135077391Y-106896666D01*
X135051033Y-106899500D01*
X134948158Y-106899500D01*
X134881119Y-106879815D01*
X134835364Y-106827011D01*
X134825420Y-106757853D01*
X134848891Y-106701190D01*
X134890579Y-106645499D01*
X134936382Y-106584315D01*
X135073523Y-106333161D01*
X135173525Y-106065046D01*
X135234352Y-105785428D01*
X135254766Y-105500000D01*
X135234352Y-105214572D01*
X135229568Y-105192582D01*
X135173527Y-104934962D01*
X135173526Y-104934960D01*
X135173525Y-104934954D01*
X135073523Y-104666839D01*
X135039347Y-104604251D01*
X134936385Y-104415690D01*
X134936380Y-104415682D01*
X134764901Y-104186612D01*
X134764885Y-104186594D01*
X134562561Y-103984270D01*
X134562543Y-103984254D01*
X134333473Y-103812775D01*
X134333465Y-103812770D01*
X134082322Y-103675635D01*
X134082323Y-103675635D01*
X133934500Y-103620500D01*
X133814202Y-103575631D01*
X133814199Y-103575630D01*
X133814193Y-103575628D01*
X133534589Y-103514804D01*
X133249157Y-103494390D01*
X133249139Y-103494390D01*
X133248326Y-103494448D01*
X133248060Y-103494390D01*
X133244727Y-103494390D01*
X133244727Y-103493664D01*
X133180056Y-103479586D01*
X133130658Y-103430172D01*
X133115500Y-103370763D01*
X133115500Y-100297830D01*
X133135185Y-100230791D01*
X133135693Y-100230007D01*
X133160045Y-100192734D01*
X133160048Y-100192729D01*
X133160049Y-100192728D01*
X133256610Y-99972591D01*
X133315620Y-99739563D01*
X133326530Y-99607904D01*
X133335471Y-99500005D01*
X133335471Y-99499994D01*
X133315620Y-99260440D01*
X133315620Y-99260437D01*
X133256610Y-99027409D01*
X133160049Y-98807272D01*
X133149999Y-98791890D01*
X133031585Y-98610645D01*
X133028571Y-98606031D01*
X132865764Y-98429175D01*
X132865759Y-98429171D01*
X132865757Y-98429169D01*
X132676075Y-98281533D01*
X132676069Y-98281529D01*
X132464657Y-98167118D01*
X132464652Y-98167116D01*
X132237300Y-98089066D01*
X132059468Y-98059391D01*
X132000192Y-98049500D01*
X131759808Y-98049500D01*
X131712387Y-98057413D01*
X131522699Y-98089066D01*
X131295347Y-98167116D01*
X131295342Y-98167118D01*
X131083930Y-98281529D01*
X131083924Y-98281533D01*
X130912474Y-98414979D01*
X130847480Y-98440622D01*
X130778940Y-98427056D01*
X130728616Y-98378587D01*
X130721755Y-98364587D01*
X130714536Y-98347159D01*
X130618282Y-98221718D01*
X130492841Y-98125464D01*
X130346762Y-98064956D01*
X130346760Y-98064955D01*
X130229370Y-98049501D01*
X130229367Y-98049500D01*
X130229361Y-98049500D01*
X130229354Y-98049500D01*
X128450636Y-98049500D01*
X128333246Y-98064953D01*
X128333237Y-98064956D01*
X128187160Y-98125463D01*
X128061718Y-98221718D01*
X127965463Y-98347160D01*
X127904956Y-98493237D01*
X127904955Y-98493239D01*
X127889501Y-98610629D01*
X127889500Y-98610645D01*
X127889500Y-100389363D01*
X127904953Y-100506753D01*
X127904956Y-100506762D01*
X127965464Y-100652842D01*
X128061719Y-100778284D01*
X128067465Y-100784030D01*
X128065107Y-100786387D01*
X128097174Y-100830270D01*
X128104500Y-100872260D01*
X128104500Y-105296338D01*
X128084815Y-105363377D01*
X128032011Y-105409132D01*
X127962853Y-105419076D01*
X127899297Y-105390051D01*
X127892819Y-105384019D01*
X126536819Y-104028019D01*
X126503334Y-103966696D01*
X126500500Y-103940338D01*
X126500500Y-100603202D01*
X126520185Y-100536163D01*
X126533270Y-100519219D01*
X126648571Y-100393969D01*
X126780049Y-100192728D01*
X126876610Y-99972591D01*
X126935620Y-99739563D01*
X126946530Y-99607904D01*
X126955471Y-99500005D01*
X126955471Y-99499994D01*
X126935620Y-99260440D01*
X126935620Y-99260437D01*
X126876610Y-99027409D01*
X126780049Y-98807272D01*
X126769999Y-98791890D01*
X126651585Y-98610645D01*
X126648571Y-98606031D01*
X126485764Y-98429175D01*
X126485759Y-98429171D01*
X126485757Y-98429169D01*
X126296075Y-98281533D01*
X126296069Y-98281529D01*
X126084657Y-98167118D01*
X126084652Y-98167116D01*
X125857300Y-98089066D01*
X125679468Y-98059391D01*
X125620192Y-98049500D01*
X125379808Y-98049500D01*
X125332387Y-98057413D01*
X125142699Y-98089066D01*
X124915347Y-98167116D01*
X124915342Y-98167118D01*
X124703930Y-98281529D01*
X124703924Y-98281533D01*
X124514242Y-98429169D01*
X124514239Y-98429172D01*
X124351430Y-98606029D01*
X124351429Y-98606031D01*
X124333807Y-98633003D01*
X124280660Y-98678358D01*
X124211429Y-98687780D01*
X124148093Y-98658277D01*
X124126193Y-98633003D01*
X124124154Y-98629883D01*
X124108571Y-98606031D01*
X123945764Y-98429175D01*
X123945759Y-98429171D01*
X123945757Y-98429169D01*
X123756075Y-98281533D01*
X123756069Y-98281529D01*
X123544657Y-98167118D01*
X123544652Y-98167116D01*
X123317300Y-98089066D01*
X123139468Y-98059391D01*
X123080192Y-98049500D01*
X122839808Y-98049500D01*
X122792387Y-98057413D01*
X122602699Y-98089066D01*
X122375347Y-98167116D01*
X122375342Y-98167118D01*
X122163930Y-98281529D01*
X122163924Y-98281533D01*
X121974242Y-98429169D01*
X121974239Y-98429172D01*
X121974236Y-98429174D01*
X121974236Y-98429175D01*
X121935200Y-98471580D01*
X121870730Y-98541613D01*
X121810843Y-98577603D01*
X121741005Y-98575503D01*
X121683388Y-98535979D01*
X121656287Y-98471580D01*
X121655500Y-98457630D01*
X121655500Y-96542369D01*
X121675185Y-96475330D01*
X121727989Y-96429575D01*
X121797147Y-96419631D01*
X121860703Y-96448656D01*
X121870719Y-96458375D01*
X121974236Y-96570825D01*
X121974239Y-96570827D01*
X121974242Y-96570830D01*
X122163924Y-96718466D01*
X122163930Y-96718470D01*
X122163933Y-96718472D01*
X122375344Y-96832882D01*
X122375347Y-96832883D01*
X122602699Y-96910933D01*
X122602701Y-96910933D01*
X122602703Y-96910934D01*
X122839808Y-96950500D01*
X122839809Y-96950500D01*
X123080191Y-96950500D01*
X123080192Y-96950500D01*
X123317297Y-96910934D01*
X123544656Y-96832882D01*
X123756067Y-96718472D01*
X123945764Y-96570825D01*
X124108571Y-96393969D01*
X124126193Y-96366995D01*
X124179337Y-96321641D01*
X124248568Y-96312217D01*
X124311904Y-96341718D01*
X124333804Y-96366992D01*
X124351429Y-96393969D01*
X124514236Y-96570825D01*
X124514239Y-96570827D01*
X124514242Y-96570830D01*
X124703924Y-96718466D01*
X124703930Y-96718470D01*
X124703933Y-96718472D01*
X124915344Y-96832882D01*
X124915347Y-96832883D01*
X125142699Y-96910933D01*
X125142701Y-96910933D01*
X125142703Y-96910934D01*
X125379808Y-96950500D01*
X125379809Y-96950500D01*
X125620191Y-96950500D01*
X125620192Y-96950500D01*
X125857297Y-96910934D01*
X126084656Y-96832882D01*
X126296067Y-96718472D01*
X126485764Y-96570825D01*
X126648571Y-96393969D01*
X126780049Y-96192728D01*
X126876610Y-95972591D01*
X126935620Y-95739563D01*
X126944442Y-95633090D01*
X126955471Y-95500005D01*
X126955471Y-95499994D01*
X126935620Y-95260440D01*
X126935620Y-95260437D01*
X126876610Y-95027409D01*
X126780049Y-94807272D01*
X126725090Y-94723151D01*
X126687143Y-94665068D01*
X126666956Y-94598179D01*
X126686136Y-94530993D01*
X126703267Y-94509570D01*
X128046122Y-93166715D01*
X128107443Y-93133232D01*
X128177135Y-93138216D01*
X128233068Y-93180088D01*
X128257485Y-93245552D01*
X128244286Y-93310692D01*
X128195020Y-93407381D01*
X128134923Y-93592338D01*
X128134922Y-93592342D01*
X128125730Y-93650378D01*
X128104500Y-93784419D01*
X128104500Y-94127739D01*
X128084815Y-94194778D01*
X128066357Y-94214856D01*
X128067468Y-94215967D01*
X128061724Y-94221711D01*
X128061719Y-94221716D01*
X128061718Y-94221718D01*
X128006337Y-94293892D01*
X127965463Y-94347160D01*
X127904956Y-94493237D01*
X127904955Y-94493239D01*
X127889501Y-94610629D01*
X127889500Y-94610645D01*
X127889500Y-96389363D01*
X127904953Y-96506753D01*
X127904956Y-96506762D01*
X127965464Y-96652841D01*
X128061718Y-96778282D01*
X128187159Y-96874536D01*
X128333238Y-96935044D01*
X128450639Y-96950500D01*
X130229360Y-96950499D01*
X130229363Y-96950499D01*
X130346753Y-96935046D01*
X130346757Y-96935044D01*
X130346762Y-96935044D01*
X130492841Y-96874536D01*
X130618282Y-96778282D01*
X130714536Y-96652841D01*
X130721751Y-96635420D01*
X130765590Y-96581019D01*
X130831884Y-96558953D01*
X130899584Y-96576231D01*
X130912474Y-96585021D01*
X131083924Y-96718466D01*
X131083930Y-96718470D01*
X131083933Y-96718472D01*
X131295344Y-96832882D01*
X131295347Y-96832883D01*
X131522699Y-96910933D01*
X131522701Y-96910933D01*
X131522703Y-96910934D01*
X131759808Y-96950500D01*
X131759809Y-96950500D01*
X132000191Y-96950500D01*
X132000192Y-96950500D01*
X132237297Y-96910934D01*
X132464656Y-96832882D01*
X132676067Y-96718472D01*
X132865764Y-96570825D01*
X133028571Y-96393969D01*
X133160049Y-96192728D01*
X133256610Y-95972591D01*
X133315620Y-95739563D01*
X133324442Y-95633090D01*
X133335471Y-95500005D01*
X133335471Y-95499994D01*
X133315620Y-95260440D01*
X133315620Y-95260437D01*
X133256610Y-95027409D01*
X133181230Y-94855561D01*
X133172328Y-94786263D01*
X133202305Y-94723151D01*
X133207086Y-94718092D01*
X133653361Y-94271819D01*
X133714684Y-94238334D01*
X133741042Y-94235500D01*
X135318891Y-94235500D01*
X135318892Y-94235500D01*
X135423190Y-94218980D01*
X135423191Y-94218980D01*
X135452449Y-94214346D01*
X135510969Y-94205078D01*
X135695923Y-94144982D01*
X135779077Y-94102613D01*
X135869199Y-94056694D01*
X135935404Y-94008592D01*
X136026530Y-93942387D01*
X137932098Y-92036817D01*
X137993421Y-92003333D01*
X138019779Y-92000499D01*
X139661019Y-92000499D01*
X139778409Y-91985046D01*
X139778413Y-91985044D01*
X139778418Y-91985044D01*
X139924497Y-91924536D01*
X140049938Y-91828282D01*
X140146192Y-91702841D01*
X140206700Y-91556762D01*
X140222156Y-91439361D01*
X140222155Y-88724499D01*
X140241840Y-88657461D01*
X140294643Y-88611706D01*
X140346155Y-88600500D01*
X147136478Y-88600500D01*
X147203517Y-88620185D01*
G37*
%TD.AperFunction*%
%TA.AperFunction,Conductor*%
G36*
X157081905Y-95680829D02*
G01*
X157103809Y-95706107D01*
X157170904Y-95808805D01*
X157191111Y-95839733D01*
X157344041Y-96005860D01*
X157344044Y-96005862D01*
X157344047Y-96005865D01*
X157522220Y-96144543D01*
X157522235Y-96144553D01*
X157552526Y-96160946D01*
X157602117Y-96210166D01*
X157617224Y-96278382D01*
X157593053Y-96343938D01*
X157552526Y-96379054D01*
X157522235Y-96395446D01*
X157522220Y-96395456D01*
X157344047Y-96534134D01*
X157344044Y-96534137D01*
X157344041Y-96534139D01*
X157344041Y-96534140D01*
X157310266Y-96570830D01*
X157191108Y-96700270D01*
X157067608Y-96889302D01*
X156976907Y-97096079D01*
X156921476Y-97314970D01*
X156921474Y-97314978D01*
X156902830Y-97539993D01*
X156902830Y-97540006D01*
X156921474Y-97765021D01*
X156921476Y-97765029D01*
X156976907Y-97983920D01*
X157067608Y-98190697D01*
X157067610Y-98190701D01*
X157191111Y-98379733D01*
X157344041Y-98545860D01*
X157344044Y-98545862D01*
X157344047Y-98545865D01*
X157522220Y-98684543D01*
X157522235Y-98684553D01*
X157552526Y-98700946D01*
X157602117Y-98750166D01*
X157617224Y-98818382D01*
X157593053Y-98883938D01*
X157552526Y-98919054D01*
X157522235Y-98935446D01*
X157522220Y-98935456D01*
X157344047Y-99074134D01*
X157344044Y-99074137D01*
X157191105Y-99240274D01*
X157103808Y-99373892D01*
X157050662Y-99419248D01*
X156981431Y-99428672D01*
X156918095Y-99399170D01*
X156896192Y-99373892D01*
X156808894Y-99240274D01*
X156808892Y-99240272D01*
X156808889Y-99240267D01*
X156655959Y-99074140D01*
X156655954Y-99074136D01*
X156655952Y-99074134D01*
X156477779Y-98935456D01*
X156477773Y-98935452D01*
X156279187Y-98827982D01*
X156279181Y-98827980D01*
X156065622Y-98754665D01*
X155842900Y-98717500D01*
X155617100Y-98717500D01*
X155394377Y-98754665D01*
X155180818Y-98827980D01*
X155180812Y-98827982D01*
X154982226Y-98935452D01*
X154982220Y-98935456D01*
X154830747Y-99053353D01*
X154765753Y-99078996D01*
X154754585Y-99079500D01*
X153364782Y-99079500D01*
X153297743Y-99059815D01*
X153251988Y-99007011D01*
X153242044Y-98937853D01*
X153271069Y-98874297D01*
X153277101Y-98867819D01*
X155746102Y-96398819D01*
X155807425Y-96365334D01*
X155833783Y-96362500D01*
X155842900Y-96362500D01*
X156065620Y-96325335D01*
X156279186Y-96252018D01*
X156477771Y-96144549D01*
X156655959Y-96005860D01*
X156808889Y-95839733D01*
X156896191Y-95706106D01*
X156949338Y-95660751D01*
X157018569Y-95651327D01*
X157081905Y-95680829D01*
G37*
%TD.AperFunction*%
%TA.AperFunction,Conductor*%
G36*
X151801609Y-77250537D02*
G01*
X151822251Y-77267171D01*
X154335002Y-79779922D01*
X154368487Y-79841245D01*
X154370897Y-79857363D01*
X154381474Y-79985021D01*
X154381476Y-79985029D01*
X154436907Y-80203920D01*
X154527608Y-80410697D01*
X154527610Y-80410701D01*
X154651111Y-80599733D01*
X154804041Y-80765860D01*
X154804044Y-80765862D01*
X154804047Y-80765865D01*
X154982220Y-80904543D01*
X154982235Y-80904553D01*
X155012526Y-80920946D01*
X155062117Y-80970166D01*
X155077224Y-81038382D01*
X155053053Y-81103938D01*
X155012526Y-81139054D01*
X154982235Y-81155446D01*
X154982220Y-81155456D01*
X154830747Y-81273353D01*
X154765753Y-81298996D01*
X154754585Y-81299500D01*
X152716033Y-81299500D01*
X152619390Y-81318724D01*
X152522749Y-81337947D01*
X152522741Y-81337949D01*
X152488999Y-81351926D01*
X152488998Y-81351926D01*
X152340670Y-81413364D01*
X152340657Y-81413371D01*
X152176797Y-81522859D01*
X152107118Y-81592538D01*
X152037439Y-81662218D01*
X149426758Y-84272899D01*
X149365435Y-84306384D01*
X149295743Y-84301400D01*
X149239810Y-84259528D01*
X149215393Y-84194064D01*
X149215077Y-84185218D01*
X149215077Y-82190988D01*
X149199624Y-82073598D01*
X149199622Y-82073591D01*
X149199622Y-82073590D01*
X149139114Y-81927511D01*
X149042860Y-81802070D01*
X148917419Y-81705816D01*
X148771340Y-81645308D01*
X148771338Y-81645307D01*
X148653948Y-81629853D01*
X148653945Y-81629852D01*
X148653939Y-81629852D01*
X148653932Y-81629852D01*
X145775214Y-81629852D01*
X145657824Y-81645305D01*
X145657815Y-81645308D01*
X145511738Y-81705815D01*
X145386296Y-81802070D01*
X145290041Y-81927512D01*
X145229534Y-82073589D01*
X145229533Y-82073591D01*
X145214079Y-82190981D01*
X145214079Y-82190988D01*
X145214078Y-82190997D01*
X145214078Y-85069715D01*
X145229531Y-85187105D01*
X145229534Y-85187114D01*
X145290042Y-85333193D01*
X145386296Y-85458634D01*
X145511737Y-85554888D01*
X145657816Y-85615396D01*
X145775217Y-85630852D01*
X147769444Y-85630851D01*
X147836483Y-85650536D01*
X147882238Y-85703339D01*
X147892182Y-85772498D01*
X147863157Y-85836054D01*
X147857125Y-85842532D01*
X147136477Y-86563181D01*
X147075154Y-86596666D01*
X147048796Y-86599500D01*
X132372700Y-86599500D01*
X132305661Y-86579815D01*
X132259906Y-86527011D01*
X132249962Y-86457853D01*
X132278987Y-86394297D01*
X132285019Y-86387819D01*
X134413311Y-84259528D01*
X141405669Y-77267171D01*
X141466992Y-77233686D01*
X141493350Y-77230852D01*
X151734570Y-77230852D01*
X151801609Y-77250537D01*
G37*
%TD.AperFunction*%
%TD*%
M02*
